<?xml version="1.0" encoding="utf-8"?>
<!-- Generator: Adobe Illustrator 26.2.1, SVG Export Plug-In . SVG Version: 6.00 Build 0)  -->
<svg version="1.1" id="Layer_1" xmlns="http://www.w3.org/2000/svg" xmlns:xlink="http://www.w3.org/1999/xlink" x="0px" y="0px"
	 viewBox="0 0 860.3 318.8" style="enable-background:new 0 0 860.3 318.8;" xml:space="preserve">
<style type="text/css">
	.st0{fill:#735E45;}
	.st1{fill-rule:evenodd;clip-rule:evenodd;fill:#735E45;}
</style>
<g>
	<g>
		<g>
			<g>
				<g>
					<path class="st0" d="M260.7,53.9C232.5,25.7,195,10.2,155.2,10.2S77.9,25.7,49.7,53.9C21.5,82,6,119.5,6,159.4
						c0,39.8,15.5,77.3,43.7,105.5s65.6,43.7,105.5,43.7s77.3-15.5,105.5-43.7s43.7-65.6,43.7-105.5
						C304.4,119.5,288.8,82,260.7,53.9z M155.2,299.4c-77.2,0-140-62.8-140-140c0-77.2,62.8-140,140-140s140,62.8,140,140
						C295.2,236.6,232.4,299.4,155.2,299.4z"/>
				</g>
			</g>
			<g>
				<g>
					<polygon class="st1" points="113.8,286.9 122.4,130.3 104.1,130.2 					"/>
					<polygon class="st1" points="134,293.9 142.7,75.5 124.3,75.7 					"/>
					<polygon class="st1" points="155.2,298.8 164.8,31.2 146.5,31.2 					"/>
					<polygon class="st1" points="176.4,293.9 186,75.7 167.7,75.5 					"/>
					<polygon class="st1" points="187.9,130.3 196.6,286.9 206.2,130.2 					"/>
				</g>
			</g>
			<g>
				<g>
					<path class="st0" d="M260.7,53.4C232.5,25.2,195,9.7,155.2,9.7S77.9,25.2,49.7,53.4C21.5,81.6,6,119,6,158.9
						c0,39.8,15.5,77.3,43.7,105.5s65.6,43.7,105.5,43.7s77.3-15.5,105.5-43.7c28.2-28.2,43.7-65.6,43.7-105.5
						C304.3,119,288.8,81.6,260.7,53.4z M155.2,298.9c-77.2,0-140-62.8-140-140c0-77.2,62.8-140,140-140s140,62.8,140,140
						C295.2,236.1,232.4,298.9,155.2,298.9z"/>
				</g>
			</g>
		</g>
		<g>
			<g>
				<g>
					<path class="st0" d="M323.7,81.4c0-11.7,2.8-20.7,8.4-27c5.6-6.3,14-9.4,25.1-9.4c11.2,0,19.5,3.1,25.1,9.4
						c5.6,6.3,8.4,15.3,8.4,27V87h-21.5v-7c0-5.2-1-8.9-3-11.1c-2-2.1-4.8-3.2-8.4-3.2c-3.6,0-6.4,1.1-8.4,3.2c-2,2.1-3,5.8-3,11.1
						c0,5,1.1,9.3,3.3,13.1c2.2,3.8,5,7.4,8.3,10.8c3.3,3.4,6.9,6.8,10.7,10.1c3.8,3.4,7.3,7.1,10.7,11.1c3.3,4,6.1,8.6,8.3,13.6
						c2.2,5.1,3.3,11.1,3.3,18c0,11.7-2.9,20.7-8.6,27c-5.7,6.3-14.2,9.4-25.3,9.4c-11.2,0-19.6-3.1-25.3-9.4
						c-5.7-6.3-8.6-15.3-8.6-27v-9.9h21.5v11.4c0,5.2,1.1,8.9,3.2,11c2.1,2.1,5,3.1,8.6,3.1c3.6,0,6.4-1,8.6-3.1
						c2.1-2.1,3.2-5.7,3.2-11c0-5-1.1-9.3-3.3-13.1c-2.2-3.8-5-7.4-8.3-10.8c-3.3-3.4-6.9-6.8-10.7-10.1c-3.8-3.4-7.3-7.1-10.7-11.1
						c-3.3-4-6.1-8.5-8.3-13.6C324.8,94.3,323.7,88.3,323.7,81.4z"/>
					<path class="st0" d="M427.7,46.7v111.7c0,5.2,1.1,8.9,3.2,11c2.1,2.1,5,3.1,8.6,3.1c3.6,0,6.4-1,8.6-3.1
						c2.1-2.1,3.2-5.7,3.2-11V46.7h21.5v110.2c0,11.7-2.9,20.7-8.6,27c-5.7,6.3-14.2,9.4-25.3,9.4c-11.2,0-19.6-3.1-25.3-9.4
						c-5.7-6.3-8.6-15.3-8.6-27V46.7H427.7z"/>
					<path class="st0" d="M510.7,86.6v104.9h-20.5V46.7h28.5l23.4,86.7V46.7h20.3v144.8H539L510.7,86.6z"/>
					<path class="st0" d="M646.7,137.5v19.2c0,11.7-2.9,20.7-8.6,27c-5.7,6.3-14.2,9.4-25.3,9.4c-11.2,0-19.6-3.1-25.3-9.4
						c-5.7-6.3-8.6-15.3-8.6-27V81.4c0-11.7,2.9-20.7,8.6-27c5.7-6.3,14.2-9.4,25.3-9.4c11.2,0,19.6,3.1,25.3,9.4
						c5.7,6.3,8.6,15.3,8.6,27v14.1h-21.5V80c0-5.2-1.1-8.9-3.2-11.1c-2.1-2.1-5-3.2-8.6-3.2c-3.6,0-6.4,1.1-8.6,3.2
						c-2.1,2.1-3.2,5.8-3.2,11.1v78.2c0,5.2,1.1,8.9,3.2,11c2.1,2.1,5,3.1,8.6,3.1c3.6,0,6.4-1,8.6-3.1c2.1-2.1,3.2-5.7,3.2-11
						v-20.7H646.7z"/>
					<path class="st0" d="M662.7,46.7h22.7v144.8h-22.7V46.7z"/>
					<path class="st0" d="M697.8,46.7h70.3v20.7h-23.8v124.1h-22.8V67.4h-23.8V46.7z"/>
					<path class="st0" d="M801.8,143.5l-28.7-96.8h23.8l17.4,66l17.4-66h21.7l-28.7,96.8v48h-22.7V143.5z"/>
				</g>
			</g>
			<g>
				<g>
					<path class="st0" d="M330.9,215.5h24.4c12.5,0,21.1,7,21.1,18.6c0,12.6-9.2,19.1-21.6,19.1h-14.5v25.6h-9.4V215.5z
						 M340.4,245.4h13.9c8.2,0,12.6-3.9,12.6-11.1c0-7.5-5.2-11.1-12.3-11.1h-14.2V245.4z"/>
					<path class="st0" d="M409.1,251.4v27.4h-9.3v-63.3h25.3c13.2,0,20.2,7.2,20.2,17c0,8.3-4.7,13.2-10.5,14.9
						c4.8,1.3,9.3,5.1,9.3,16.1v2.8c0,4.3-0.2,9.7,0.9,12.4H436c-1.1-2.7-1.1-7.6-1.1-13.7v-1.3c0-8.6-2.4-12.4-13.5-12.4H409.1z
						 M409.1,243.6h13.3c9.3,0,13.3-3.5,13.3-10.3c0-6.4-4.2-10.1-12.4-10.1h-14.2V243.6z"/>
					<path class="st0" d="M526.6,246.8c0,17.5-9.9,32.9-30,32.9c-18.9,0-29.3-14.4-29.3-32.6c0-18.2,10.8-32.6,30-32.6
						C515.3,214.6,526.6,227.9,526.6,246.8z M477.1,246.9c0,13.4,6.7,24.9,19.9,24.9c14.2,0,19.8-11.8,19.8-24.9
						c0-13.3-6.3-24.5-19.8-24.5C483.2,222.5,477.1,233.6,477.1,246.9z"/>
					<path class="st0" d="M565.8,260c0,14.3-5.5,19.7-16.7,19.7c-2.5,0-5.2-0.2-7-0.7v-7.7c1.2,0.2,3.9,0.4,5.9,0.4
						c7.4,0,8.4-5.4,8.4-11.3v-44.9h9.4V260z"/>
					<path class="st0" d="M634.1,249.6h-31.3v21.2h34.4l-1.2,8h-42.4v-63.3h41.9v8h-32.7v18.2h31.3V249.6z"/>
					<path class="st0" d="M711.3,260.5c-2.8,10.9-10.9,19.1-25.6,19.1c-19.2,0-28.7-14.3-28.7-32.3c0-17.2,9.6-32.8,29.1-32.8
						c15.3,0,23.4,8.8,25.2,19.4h-9.4c-2.1-6.5-6.4-11.7-16.2-11.7c-13.5,0-18.9,12.2-18.9,24.8c0,12.1,5.1,24.8,19.3,24.8
						c9.6,0,13.6-5.7,15.8-11.4H711.3z"/>
					<path class="st0" d="M748.8,223.4h-20.2v-8h49.9v8h-20.2v55.4h-9.4V223.4z"/>
					<path class="st0" d="M804.9,261c1.7,7.4,6.7,11.2,15.6,11.2c9.4,0,13.2-4.3,13.2-10c0-6.1-3.1-9.4-15.4-12.4
						c-15.4-3.7-20.4-9-20.4-17.9c0-9.7,7.2-17.3,21.5-17.3c15.4,0,21.7,8.8,22.6,17.3h-9.5c-1-5.3-4.3-9.9-13.3-9.9
						c-7.3,0-11.4,3.2-11.4,9c0,5.7,3.4,7.9,14.3,10.5c18.1,4.4,21.5,11.4,21.5,19.7c0,10.5-7.8,18.5-23.5,18.5
						c-16,0-23.1-8.6-24.5-18.6H804.9z"/>
				</g>
			</g>
		</g>
	</g>
</g>
</svg>
