<?xml version="1.0" encoding="UTF-8"?>
<svg id="Layer_1" xmlns="http://www.w3.org/2000/svg" version="1.1" viewBox="0 0 244 50">
  <!-- Generator: Adobe Illustrator 30.0.0, SVG Export Plug-In . SVG Version: 2.1.1 Build 123)  -->
  <defs>
    <style>
      .st0, .st1 {
        fill-rule: evenodd;
      }

      .st0, .st2 {
        fill: #005b31;
      }

      .st1 {
        fill: #a61e3b;
      }
    </style>
  </defs>
  <path class="st1" d="M226.85,9.4l14.15,6.03c1.06.5,1.8-.82.86-1.43-4.53-3.47-9.06-6.94-13.6-10.4-1.25-.98-3.4-.98-4.65,0-4.53,3.47-9.06,6.94-13.6,10.4-.94.61-.2,1.93.86,1.43l14.15-6.03c.66-.29,1.16-.29,1.82,0"/>
  <path class="st2" d="M31.79,26.99v-.31c0-1.2-.4-2.08-1.2-2.64-.79-.56-2.06-.84-3.78-.84h-7.56c-3.24,0-5.31.39-6.24,1.18-.92.78-1.38,2.42-1.38,4.9v4.3c0,2.22.51,3.75,1.54,4.58,1.02.83,3.05,1.25,6.08,1.25h5.48c3.01,0,4.97-.3,5.91-.9.93-.6,1.4-1.72,1.4-3.35v-.33h9.57s0,.12.02.23c.04.9.07,1.58.07,2.01,0,1.98-.25,3.61-.75,4.91-.5,1.28-1.28,2.32-2.34,3.09-1.01.75-2.35,1.28-4.04,1.6-1.68.32-4.15.47-7.4.47h-10.55c-3.22,0-5.6-.17-7.12-.52-1.52-.35-2.82-.94-3.9-1.76-1.25-.98-2.15-2.19-2.72-3.62-.57-1.44-.85-3.25-.85-5.43v-8.43c0-4.43,1.05-7.52,3.16-9.27,2.1-1.75,5.92-2.63,11.44-2.63h10.55c3.39,0,5.89.15,7.49.45,1.61.3,2.88.83,3.81,1.54.98.75,1.7,1.76,2.17,3.03.46,1.26.69,2.85.69,4.76v1.05c0,.24-.03.47-.06.69h-9.49Z"/>
  <path class="st2" d="M71.89,15.85c4.9,0,8.24.73,10.01,2.18,1.77,1.45,2.66,4.1,2.66,7.95,0,2.67-.4,4.66-1.18,5.96-.79,1.3-2.11,2.18-3.96,2.62,1.63.39,2.86,1.08,3.67,2.06s1.23,2.26,1.23,3.83v6.33h-9.45v-4.71c0-1.22-.28-2.06-.86-2.51-.57-.46-1.71-.69-3.39-.69h-14.08v7.91h-9.47V15.85h24.84-.02ZM71.54,23.55h-15.01v7.55h15.01c1.26,0,2.15-.29,2.65-.88.5-.59.76-1.65.76-3.19,0-1.22-.27-2.11-.81-2.66s-1.41-.83-2.6-.83h0Z"/>
  <polygon class="st2" points="124.29 23.38 99.94 23.38 99.94 28.06 122.88 28.06 122.88 34.56 99.94 34.56 99.94 39.28 124.67 39.28 124.67 46.76 90.51 46.76 90.51 15.85 124.29 15.85 124.29 23.38"/>
  <path class="st2" d="M157.27,15.85c4.72,0,8.15.83,10.3,2.48,2.15,1.65,3.22,4.29,3.22,7.9v10.62c0,3.44-.86,5.95-2.57,7.52-1.71,1.59-4.45,2.38-8.18,2.38h-29.88V15.85h27.12,0ZM154.38,23.46h-14.8v15.78h15.99c2.01,0,3.48-.41,4.4-1.23.93-.82,1.39-2.1,1.39-3.84v-5.44c0-1.81-.57-3.15-1.69-4-1.13-.85-2.88-1.28-5.28-1.28h0Z"/>
  <polygon class="st0" points="182.82 46.76 172.52 46.76 189.4 15.85 201.44 15.85 218.02 46.76 207.65 46.76 195.28 23.24 182.82 46.76"/>
  <rect class="st2" x="221.54" y="15.85" width="9.45" height="30.92"/>
</svg>