<?xml version="1.0" encoding="utf-8"?>
<!-- Generator: Adobe Illustrator 26.2.1, SVG Export Plug-In . SVG Version: 6.00 Build 0)  -->
<svg version="1.1" id="Layer_1" xmlns="http://www.w3.org/2000/svg" xmlns:xlink="http://www.w3.org/1999/xlink" x="0px" y="0px"
	 viewBox="0 0 312 312" style="enable-background:new 0 0 312 312;" xml:space="preserve">
<style type="text/css">
	.st0{fill:#735E45;}
	.st1{fill-rule:evenodd;clip-rule:evenodd;fill:#735E45;}
</style>
<g>
	<path class="st0" d="M261.5,50.8C233.3,22.5,195.8,7,156,7S78.7,22.5,50.5,50.8C22.3,78.8,6.8,116.3,6.8,156.2
		c0,39.8,15.5,77.3,43.7,105.5c28.2,28.2,65.6,43.7,105.5,43.7s77.3-15.5,105.5-43.7s43.7-65.6,43.7-105.5
		C305.2,116.3,289.6,78.8,261.5,50.8z M156,296.2c-77.2,0-140-62.8-140-140s62.8-140,140-140s140,62.8,140,140
		S233.2,296.2,156,296.2z"/>
	<g>
		<polygon class="st1" points="114.6,283.8 123.2,127.2 104.9,127 		"/>
		<polygon class="st1" points="134.8,290.8 143.5,72.3 125.1,72.5 		"/>
		<polygon class="st1" points="156,295.6 165.6,28 147.3,28 		"/>
		<polygon class="st1" points="177.2,290.8 186.8,72.5 168.5,72.3 		"/>
		<polygon class="st1" points="188.7,127.2 197.4,283.8 207,127 		"/>
	</g>
</g>
</svg>
