<svg id="Layer_1" enable-background="new 0 0 480 480" height="512" viewBox="0 0 480 480" width="512" xmlns="http://www.w3.org/2000/svg" fill="#775D42"><g><path d="m405.017 239.824c.273 4.253 3.993 7.471 8.255 7.471h58.728c4.418 0 8 3.582 8 8v137c0 4.418-3.582 8-8 8h-58.728c-4.262 0-7.982 3.218-8.255 7.471-.299 4.66 3.388 8.529 7.983 8.529h59c4.418 0 8 3.582 8 8v27c0 13.255-10.745 24-24 24h-80c-4.418 0-8-3.582-8-8v-125c0-4.418 3.582-8 8-8h48.728c4.262 0 7.982-3.218 8.255-7.471.299-4.66-3.388-8.529-7.983-8.529h-49c-4.418 0-8-3.582-8-8v-89.17c0-4.156 3.175-7.633 7.317-7.968 20.423-1.653 36.683-18.867 36.683-39.862v-18c0-4.418 3.582-8 8-8h36c13.255 0 24 10.745 24 24v52c0 4.418-3.582 8-8 8h-59c-4.595 0-8.282 3.87-7.983 8.529z"/><ellipse cx="313.5" cy="128.295" rx="13.5" ry="19"/><path d="m372 59.295h-264c-13.23 0-24 10.77-24 24v90c0 13.23 10.77 24 24 24h264c13.23 0 24-10.77 24-24v-90c0-13.23-10.77-24-24-24zm-180 104h-36c-6.374 0-10.199-7.125-6.656-12.438l27.708-41.563h-21.052c-4.418 0-8-3.582-8-8s3.582-8 8-8h36c6.374 0 10.199 7.125 6.656 12.438l-27.708 41.563h21.052c4.418 0 8 3.582 8 8s-3.582 8-8 8zm48.5 0c-16.266 0-29.5-15.701-29.5-35s13.234-35 29.5-35 29.5 15.701 29.5 35-13.234 35-29.5 35zm73 0c-16.266 0-29.5-15.701-29.5-35s13.234-35 29.5-35 29.5 15.701 29.5 35-13.234 35-29.5 35z"/><ellipse cx="240.5" cy="128.295" rx="13.5" ry="19"/><path d="m47.017 326.824c.273 4.253 3.993 7.471 8.255 7.471h48.728c4.418 0 8 3.582 8 8v125c0 4.418-3.582 8-8 8h-80c-13.255 0-24-10.745-24-24v-27c0-4.418 3.582-8 8-8h48.728c4.262 0 7.982-3.218 8.255-7.471.299-4.66-3.388-8.529-7.983-8.529h-49c-4.418 0-8-3.582-8-8v-137c0-4.418 3.582-8 8-8h48.728c4.262 0 7.982-3.218 8.255-7.471.299-4.66-3.388-8.529-7.983-8.529h-49c-4.418 0-8-3.582-8-8v-52c0-13.255 10.745-24 24-24h36c4.418 0 8 3.582 8 8v18c0 20.991 16.257 38.207 36.683 39.862 4.142.336 7.317 3.813 7.317 7.968v89.17c0 4.418-3.582 8-8 8h-49c-4.595 0-8.282 3.87-7.983 8.529z"/><path d="m158.771 43.295h-50.771c-22.091 0-40 17.909-40 40v40c0 4.418-3.582 8-8 8-37.846 0-38.53-.284-43.816.766-6.374 1.266-11.628-5.018-9.041-10.979 3.242-7.469 8.507-14.078 15.587-19.268-16.566-20.739-7.262-51.674 20.21-56.819 4.15-20.21 20.1-36.05 40.71-39.59 19.18-3.29 38.7 5.22 49.76 21.03 10.544-3.132 20.637-2.116 28.831 1.649 7.731 3.552 5.039 15.211-3.47 15.211z"/><path d="m472.857 121.083c2.587 5.961-2.668 12.245-9.042 10.979-5.145-1.022-4.396-.766-43.815-.766-4.418 0-8-3.582-8-8v-40c0-22.091-17.909-40-40-40h-50.771c-8.509 0-11.201-11.661-3.468-15.212 8.195-3.764 18.29-4.778 28.829-1.648 11.06-15.81 30.58-24.31 49.76-21.03 20.61 3.54 36.56 19.38 40.71 39.59 27.469 5.144 36.778 36.077 20.21 56.82 7.08 5.189 12.345 11.798 15.587 19.267z"/><path d="m348.023 459.295h-27.023v-174.03c8.539 3.92 16.845 8.508 24.833 13.754 2.647 1.738 6.167-.193 6.167-3.36v-9.557c0-1.379-.705-2.671-1.876-3.4-9.322-5.809-19.052-10.853-29.124-15.097v-8.038c0-4.262-3.218-7.982-7.471-8.255-4.66-.299-8.529 3.388-8.529 7.983v2.32c-18.28-6-37.45-9.46-57-10.2v-5.848c0-4.262-3.218-7.982-7.471-8.255-4.66-.299-8.529 3.388-8.529 7.983v6.12c-19.56.75-38.72 4.21-57 10.2v-2.048c0-4.262-3.218-7.982-7.471-8.255-4.66-.299-8.529 3.388-8.529 7.983v8.31c-10.072 4.244-19.802 9.297-29.124 15.107-1.17.73-1.876 2.021-1.876 3.4v9.547c0 3.167 3.519 5.098 6.167 3.36 7.988-5.246 16.294-9.833 24.833-13.754v174.03h-27.023c-2.233 0-4.033 1.832-4 4.065.039 2.609.116 4.925-.225 7.374-.335 2.408 1.524 4.561 3.955 4.561h216.585c2.431 0 4.29-2.152 3.956-4.561-.341-2.45-.264-4.768-.225-7.374.033-2.232-1.767-4.065-4-4.065zm-173.023-180.54c18.42-6.53 37.66-10.2 57-10.98v191.52h-57zm73-10.98c19.34.78 38.58 4.45 57 10.98v180.54h-57z"/></g></svg>