<svg id="Capa_1" enable-background="new 0 0 512 512" height="512" viewBox="0 0 512 512" width="512" xmlns="http://www.w3.org/2000/svg" fill="#775D42"><g><path d="m127.901 137.901c-38.941 38.942-61.837 89.646-65.397 144.099h448.993c-3.561-54.453-26.456-105.157-65.397-144.099-42.498-42.497-99.001-65.901-159.1-65.901s-116.602 23.404-159.099 65.901z"/><path d="m287 42c5.025 0 10.024.162 15 .449v-15.449c0-8.296-6.788-15.002-15.083-15-58.437.017-114.175 17.521-161.272 50.005l-32.864-32.863 3.236-3.236c5.711-5.711 6.236-15.013.801-20.987-5.804-6.378-15.687-6.553-21.714-.526l-70.711 70.711c-5.858 5.857-5.858 15.355 0 21.213 2.929 2.929 6.768 4.394 10.606 4.394s7.678-1.465 10.606-4.394l3.536-3.536 31.28 31.281c-31.534 41.144-51.042 89.727-56.696 141.381-.969 8.847 6.023 16.557 14.923 16.557h13.801c3.6-62.471 29.629-120.702 74.239-165.312 48.163-48.164 112.199-74.688 180.312-74.688z"/><path d="m262 387h30v30h-30z"/><path d="m382 387h50v125h-50z"/><path d="m142 387h30v30h-30z"/><path d="m62 312v185c0 8.284 6.716 15 15 15h275v-140c0-8.284 6.716-15 15-15h80c8.284 0 15 6.716 15 15v140h35c8.284 0 15-6.716 15-15v-185zm140 120c0 8.284-6.716 15-15 15h-60c-8.284 0-15-6.716-15-15v-60c0-8.284 6.716-15 15-15h60c8.284 0 15 6.716 15 15zm120 0c0 8.284-6.716 15-15 15h-60c-8.284 0-15-6.716-15-15v-60c0-8.284 6.716-15 15-15h60c8.284 0 15 6.716 15 15z"/></g></svg>