
<svg version="1.1" id="Layer_1" xmlns="http://www.w3.org/2000/svg" xmlns:xlink="http://www.w3.org/1999/xlink" x="0px" y="0px"
	 viewBox="0 0 100 100" style="enable-background:new 0 0 100 100;" xml:space="preserve">
<style type="text/css">
	.st0{fill:#775d42;}
</style>
<g>
	<path class="st0" d="M56,31.3c1.1,3.3-0.7,6.9-4,7.9c-3.3,1.1-6.9-0.7-7.9-4c-1.1-3.3,0.7-6.9,4-7.9C51.3,26.2,54.9,28,56,31.3"/>
	<path class="st0" d="M88.2,8.3h-5.2c-0.9,0-1.8,0.4-2.5,1c-0.7,0.7-1,1.6-1,2.5V17h-8.9c0-1-0.5-1.9-1.4-2.5
		c-0.9-0.5-1.9-0.6-2.8-0.1c-0.9,0.5-1.5,1.3-1.6,2.3V17H35.6v-0.2c-0.1-0.7-0.4-1.4-0.9-1.9c-0.5-0.5-1.2-0.8-2-0.8
		c-0.8,0-1.5,0.3-2.1,0.8c-0.6,0.5-0.9,1.3-0.9,2.1h-9.3v-5.2c0-0.9-0.4-1.8-1-2.5c-0.7-0.7-1.6-1-2.5-1h-5.2c-0.9,0-1.8,0.4-2.5,1
		c-0.7,0.7-1,1.6-1,2.5V27c0,0.9,0.4,1.8,1,2.5c0.7,0.7,1.6,1,2.5,1h5.2c0.9,0,1.8-0.4,2.5-1c0.7-0.7,1-1.6,1-2.5v-5.2h9.3
		l-0.1,17.6c0,1.1,0.5,2.2,1.4,2.9l0.1,0.1l8.5,6.6c0.8,11.2-0.4,22.4-3.5,33.2l-0.9,2.7l-2.4,6.9h8.9l1.7-3.6
		c2.1-4.5,4.1-9,6.2-13.6c2,4.5,4.1,9.1,6.2,13.6l1.7,3.6h8.9l-2.4-6.9l-0.9-2.7c-3-10.4-4.2-21.3-3.8-32.1l9.9-7.7l0.1-0.1
		c0.9-0.7,1.4-1.7,1.4-2.8l-0.1-17.6h8.9V27c0,0.9,0.4,1.8,1,2.5c0.7,0.7,1.6,1,2.5,1h5.2c0.9,0,1.8-0.4,2.5-1c0.7-0.7,1-1.6,1-2.5
		V11.8c0-0.9-0.4-1.8-1-2.5C90.1,8.6,89.2,8.3,88.2,8.3L88.2,8.3z M63,37L63,37c-3.2,3.1-7.5,4.9-11.9,5.1
		c-4.4,0.2-8.8-1.1-12.4-3.8l-1.4-1.1L36,21.7h28.3L63,37z"/>
</g>
</svg>
