<svg id="Layer_1" viewBox="0 0 512 512" xmlns="http://www.w3.org/2000/svg" data-name="Layer 1"><path fill="#775D42" d="m250.834 435.744v-46.937h-24.594v46.937zm-3.135-168.006v59.405c16.307-4.564 33.238-8.33 50.795-11.294v-59.737c-17.585 3.045-34.516 6.92-50.795 11.626zm0-72.933v59.405c16.307-4.565 33.238-8.33 50.795-11.294v-59.736c-17.585 3.045-34.516 6.92-50.795 11.626zm0-72.934v59.405c16.307-4.564 33.238-8.33 50.795-11.294v-59.737c-17.585 3.045-34.516 6.92-50.795 11.626zm0-85.945v72.417c16.307-4.565 33.238-8.33 50.795-11.294v-72.749c-17.585 3.045-34.516 6.92-50.795 11.626zm-65.099 329.667c18.865-9.217 38.845-17.015 59.942-23.395.355-.076.699-.18 1.03-.311 17.539-5.257 35.847-9.537 54.922-12.84v106.698h-34.6v-53.467c0-3.606-2.924-6.53-6.53-6.53h-37.654c-3.606 0-6.53 2.924-6.53 6.53v53.467h-30.58zm0-72.934v58.492c16.539-7.748 33.885-14.462 52.039-20.141v-59.273c-18.199 5.89-35.546 12.864-52.039 20.922zm0-72.933c16.493-8.058 33.84-15.032 52.039-20.922v59.273c-18.154 5.679-35.5 12.393-52.039 20.141zm0-72.934v58.493c16.539-7.748 33.885-14.462 52.039-20.141v-59.274c-18.199 5.89-35.546 12.864-52.039 20.922zm0-85.945c16.493-8.058 33.84-15.032 52.039-20.922v72.286c-18.154 5.679-35.5 12.393-52.039 20.141zm-78.158 120.646v-68.894c-9.797 8.559-19.145 17.686-28.044 27.381v67.097c8.944-9.047 18.292-17.575 28.044-25.584zm0 72.933c-9.752 8.008-19.1 16.537-28.044 25.584v-54.084c8.899-9.695 18.247-18.822 28.044-27.381zm0 72.933v-55.881c-9.797 8.559-19.145 17.686-28.044 27.381v54.084c8.944-9.047 18.292-17.575 28.044-25.584zm0 72.933c-9.752 8.008-19.1 16.537-28.044 25.584v-54.084c8.899-9.695 18.247-18.822 28.044-27.381zm0 35.452v-18.4c-6.715 5.866-13.218 11.999-19.512 18.4zm13.059-29.263v29.264h52.039v-63.449c-18.482 9.956-35.828 21.352-52.039 34.185zm0-72.933c16.211-12.833 33.557-24.228 52.039-34.184v58.208c-18.397 9.479-35.743 20.308-52.039 32.487zm0-72.933v56.511c16.296-12.179 33.642-23.009 52.039-32.487v-58.207c-18.482 9.956-35.828 21.351-52.039 34.184zm0-72.934c16.211-12.833 33.557-24.228 52.039-34.184v58.208c-18.397 9.479-35.743 20.308-52.039 32.487zm0-85.946v69.523c16.296-12.179 33.642-23.009 52.039-32.487v-71.22c-18.482 9.956-35.828 21.351-52.039 34.184zm219.607 5.053v-71.648c-8.241-3.889-16.759-7.187-25.554-9.893v72.368c8.776 2.519 17.293 5.577 25.554 9.173zm0 72.933v-58.636c-8.241-3.889-16.759-7.187-25.554-9.893v59.356c8.776 2.519 17.293 5.577 25.554 9.173zm0 72.933v-58.635c-8.241-3.889-16.759-7.187-25.554-9.893v59.355c8.776 2.519 17.293 5.577 25.554 9.173zm0 72.934v-58.635c-8.241-3.889-16.759-7.187-25.554-9.893v59.355c8.776 2.519 17.293 5.577 25.554 9.173zm39.366-196.177v-69.522c-8.402-6.768-17.171-12.755-26.307-17.959v71.104c9.104 4.759 17.873 10.218 26.307 16.378zm0 72.934c-8.434-6.16-17.202-11.62-26.307-16.378v-58.092c9.135 5.204 17.904 11.191 26.307 17.959zm0 72.933v-56.51c-8.402-6.769-17.171-12.755-26.307-17.959v58.091c9.104 4.759 17.873 10.218 26.307 16.378zm0 72.934c-8.434-6.16-17.202-11.62-26.307-16.378v-58.091c9.135 5.204 17.904 11.191 26.307 17.959zm0 87.532v-71.11c-11.133-8.968-22.909-16.563-35.329-22.785-.284-.117-.558-.254-.82-.408-9.237-4.572-18.827-8.388-28.772-11.448v105.752h64.92zm39.366-269.699v-65.268c-8.283-10.864-17.052-20.683-26.306-29.457v68.42c9.207 7.86 17.975 16.63 26.306 26.306zm0 72.934c-8.331-9.677-17.1-18.446-26.306-26.306v-55.407c9.254 8.775 18.023 18.594 26.306 29.457zm0 72.933v-52.256c-8.283-10.864-17.052-20.683-26.306-29.457v55.407c9.207 7.861 17.975 16.63 26.306 26.306zm0 72.933c-8.331-9.677-17.1-18.446-26.306-26.306v-55.407c9.254 8.775 18.023 18.594 26.306 29.457zm1.623 22.83c-.224-.255-.428-.527-.611-.815-8.58-11.397-17.686-21.662-27.319-30.795v59.68h46.525c-5.895-10.01-12.093-19.367-18.596-28.07zm11.437-56.47c4.066 6.289 7.998 12.865 11.796 19.728v47.492c-3.816-5.968-7.748-11.696-11.796-17.182zm0-72.934v50.038c4.048 5.486 7.98 11.214 11.796 17.182v-47.492c-3.799-6.863-7.731-13.439-11.796-19.728zm0-72.933v50.038c4.048 5.486 7.98 11.214 11.796 17.182v-47.492c-3.799-6.863-7.731-13.439-11.796-19.728zm0-85.946v63.05c4.048 5.486 7.98 11.214 11.796 17.182v-60.505c-3.799-6.863-7.731-13.439-11.796-19.728zm42.086 354.517h-429.972v13.791h429.972zm-415.985-13.06h401.997v-12.045h-73.994s-.021 0-.021 0h-125.619s-.021 0-.021 0h-37.633s-.021 0-.021 0h-43.619s-.021 0-.021 0h-65.078s-.021 0-.021 0h-55.949v12.045z" fill-rule="evenodd"/></svg>