<svg id="Layer_1" viewBox="0 0 48 48" xmlns="http://www.w3.org/2000/svg" fill="#775D42" data-name="Layer 1"><path d="m24 38v-3c0-3.309 2.691-6 6-6 2.682 0 4.957 1.769 5.724 4.201.089-.165.172-.333.276-.49v-.71c0-2.757 2.243-5 5-5 1.899 0 3.534 1.077 4.381 2.64 1.026-1.815 1.619-3.907 1.619-6.14 0-6.904-5.596-12.5-12.5-12.5h-2.358c-2.652 0-5.196 1.054-7.071 2.929l-2.116 2.116c-1.871 1.871-4.407 2.924-7.052 2.929l-3.914.007c-6.072.011-10.988 4.937-10.989 11.009 0 6.08 4.929 11.009 11.009 11.009h6.677c2.001 0 3.918-.757 5.389-2.1-.045-.294-.075-.593-.075-.9zm15-11h-8c-.553 0-1-.448-1-1s.447-1 1-1h8c.553 0 1 .448 1 1s-.447 1-1 1zm2.98-6c0 .552-.447 1-1 1h-3.98c-.553 0-1-.448-1-1s.447-1 1-1h3.98c.553 0 1 .448 1 1zm-9.98-6h4c.553 0 1 .448 1 1s-.447 1-1 1h-4c-.553 0-1-.448-1-1s.447-1 1-1zm-5 5h5c.553 0 1 .448 1 1s-.447 1-1 1h-5c-.553 0-1-.448-1-1s.447-1 1-1zm-12 5h10c.553 0 1 .448 1 1s-.447 1-1 1h-10c-.553 0-1-.448-1-1s.447-1 1-1zm-7 1c0-.552.447-1 1-1h2c.553 0 1 .448 1 1s-.447 1-1 1h-2c-.553 0-1-.448-1-1zm9 11h-6c-.553 0-1-.448-1-1s.447-1 1-1h6c.553 0 1 .448 1 1s-.447 1-1 1zm5-5h-6c-.553 0-1-.448-1-1s.447-1 1-1h6c.553 0 1 .448 1 1s-.447 1-1 1z"/><path d="m30 31c-2.209 0-4 1.791-4 4v3c0 1.862 1.278 3.412 3 3.859v3.141c0 .552.447 1 1 1s1-.448 1-1v-3.141c1.722-.446 3-1.997 3-3.859v-3c0-2.209-1.791-4-4-4z"/><path d="m44 33.38v-1.38c0-1.657-1.343-3-3-3s-3 1.343-3 3v1.38c-.615.703-1 1.613-1 2.62v2c0 1.862 1.278 3.412 3 3.859v3.141c0 .552.447 1 1 1s1-.448 1-1v-3.141c1.722-.446 3-1.997 3-3.859v-2c0-1.008-.385-1.917-1-2.62z"/><path d="m7 4c-2.485 0-4.5 2.015-4.5 4.5 0 2.14 1.498 3.924 3.5 4.38v3.12c0 .552.447 1 1 1s1-.448 1-1v-3.12c2.002-.456 3.5-2.239 3.5-4.38 0-2.485-2.015-4.5-4.5-4.5z"/><path d="m18 2c-2.209 0-4 1.791-4 4v3c0 1.862 1.278 3.412 3 3.859v3.141c0 .552.447 1 1 1s1-.448 1-1v-3.141c1.722-.446 3-1.997 3-3.859v-3c0-2.209-1.791-4-4-4z"/></svg>