<svg id="Layer_1" enable-background="new 0 0 68 68" height="512" viewBox="0 0 68 68" width="512" xmlns="http://www.w3.org/2000/svg" fill="#775D42"><g><path d="m14.27923 45.60857c0-1.04004.19019-2.04004.55005-2.95996h-5.6582v-5.09204c0-.40405-.23486-.771-.60181-.93994l-5.38452-2.479v-4.22876c0-.41431-.33594-.75-.75-.75s-.75.33569-.75.75v33.21362c0 .41406.33594.75.75.75s.75-.33594.75-.75v-4.229l5.38452-2.47925c.36694-.16895.60181-.53589.60181-.9397v-5.09595h6.60815c-.93994-1.3501-1.5-3-1.5-4.77002z"/><path d="m22.63934 38.74846c-3.79004 0-6.86011 3.07007-6.86011 6.86011 0 3.78003 3.07007 6.85986 6.86011 6.85986 3.77979 0 6.85986-3.07983 6.85986-6.85986 0-3.79004-3.08008-6.86011-6.85986-6.86011zm0 9.73999c-1.59009 0-2.88013-1.28979-2.88013-2.87988s1.29004-2.89014 2.88013-2.89014c1.58984 0 2.87988 1.30005 2.87988 2.89014s-1.29004 2.87988-2.87988 2.87988z"/><path d="m57.73919 32.33855-1.67993-.75-2.1499 5.11987 1.68994.75c.45996.20996 1.01001-.00977 1.19995-.48999l1.40991-3.45996c.19019-.45996-.02002-.96997-.46997-1.16992z"/><path d="m52.94939 26.08855c-.1001-.05005-.21021-.07007-.32007-.07007-.32007 0-.6001.18994-.71997.47998l-1.86011 4.6001c-.57983 1.42993-1.94995 2.35987-3.5 2.35987-.45996 0-.90991-.08984-1.34985-.25l-32.28027-12.37989-.8999 2.63989c-.46997 1.41016.26001 2.93018 1.6499 3.44019l13.54736 4.95288-2.70728 5.59693c2.79004.64014 5.05005 2.68018 6 5.34009l3.89209-8.31006 13.86792 5.07007c1.37012.5 2.88013-.15991 3.4502-1.5l4.41992-10.52002z"/><path d="m65.72259 21.97649-47.84302-17.70703c-1.20264-.44531-2.53516.19336-2.94141 1.40967l-3.55273 10.63306c-.38525 1.15283.20581 2.40454 1.34082 2.8396l33.01343 12.6543c1.15723.44361 2.45654-.12158 2.92139-1.27051l1.86108-4.6001c.48486-1.19849 1.87012-1.75195 3.04736-1.21753l6.55176 2.97388c.6853.31104 1.49146.16675 2.02637-.36255l3.89819-3.85693c.47168-.46681.29907-1.26564-.32324-1.49586z"/></g></svg>