<svg id="Layer_1" enable-background="new 0 0 512 512" viewBox="0 0 512 512" xmlns="http://www.w3.org/2000/svg"><path fill="#775D42" clip-rule="evenodd" d="m442.71 236.57.2-118.63h-77.78l-.06 166.73c4.9-1.73 9.81-3.51 14.66-5.41 26.13-10.18 44.75-22.11 62.98-42.69zm-55.17-83.74h32.85v32.85h-32.85zm0 68.66h32.85v32.85h-32.85zm-255.28 57.77c4.82 1.9 9.69 3.66 14.6 5.39l.08-166.71h-77.47l-.17 118.63c18.23 20.58 36.82 32.51 62.96 42.69zm-40.57-126.43h32.85v32.85h-32.85zm0 68.66h32.85v32.85h-32.85zm127.33 90.25v-44.59h73.96v44.59c14.77-6.69 29.76-12.47 45.1-17.83 3.46-1.22 6.97-2.41 10.46-3.6l.14-289.81h-185.19l-.14 289.79c3.54 1.19 7.06 2.41 10.57 3.63 15.34 5.35 30.34 11.13 45.1 17.82zm56.61-270.54h37.9v37.9h-37.9zm0 73.68h37.9v37.9h-37.9zm0 73.67h37.9v37.93h-37.9zm-77.19-147.35h37.93v37.9h-37.93zm0 73.68h37.93v37.9h-37.93zm0 73.67h37.93v37.93h-37.93zm222.61 237.29c-37.08 49.15-91.02 78.09-147.71 84.87 7.91-31.89 16.75-64.71 15.25-97.77-1.16-25.09-8.39-46.37-21.66-63.98 7.11-7.03 15.87-13.52 26.62-19.3 73.11-34.61 117.67-30.02 165.06-86.23 14.94 61.14 3.29 128.24-37.56 182.41zm-162 73.98c-10.29-19.87-22.25-37.87-35.46-53.75-15.42-18.48-32.51-34.04-50.77-46.15-3.8-2.52-8.9-1.47-11.4 2.32-2.52 3.77-1.47 8.9 2.3 11.4 16.98 11.28 32.91 25.74 47.23 42.94 13.35 15.99 25.34 34.41 35.6 54.91-59.53-4.93-116.79-34.21-155.59-85.66-40.88-54.17-52.5-121.27-37.56-182.41 47.4 56.21 91.96 51.62 165.06 86.23 72.9 39.27 55.39 111.04 40.59 170.17z" fill-rule="evenodd"/></svg>