
<svg version="1.1" id="Layer_1" xmlns="http://www.w3.org/2000/svg" xmlns:xlink="http://www.w3.org/1999/xlink" x="0px" y="0px"
	 viewBox="0 0 100 100" style="enable-background:new 0 0 100 100;" xml:space="preserve">
<style type="text/css">
	.st0{fill:#775d42;}
</style>
<g>
	<path class="st0" d="M90.3,29.8v-1.1H63.2c0.3,0.3,0.6,0.7,0.9,1.1H90.3z"/>
	<path class="st0" d="M11.2,28.6v1.1H48c0.3-0.4,0.5-0.8,0.9-1.1H11.2z"/>
	<path class="st0" d="M46.5,35.6H11.2v1.1h35.5c0,0,0,0,0,0C46.6,36.4,46.5,36,46.5,35.6"/>
	<path class="st0" d="M65.4,36.8h24.9v-1.1H65.5C65.5,36,65.4,36.4,65.4,36.8C65.4,36.8,65.4,36.8,65.4,36.8"/>
	<path class="st0" d="M90.3,43.8v-1.1H71.6c0.3,0.4,0.6,0.7,0.8,1.1H90.3z"/>
	<path class="st0" d="M11.2,42.6v1.1h28.5c0.3-0.4,0.6-0.8,0.8-1.1H11.2z"/>
	<polygon class="st0" points="20.9,49.6 11.2,49.6 11.2,50.8 20.4,50.8 	"/>
	<path class="st0" d="M90.3,50.8v-1.1H75.9c0.2,0.4,0.4,0.7,0.5,1.1H90.3z"/>
	<path class="st0" d="M35.6,50.8c0.2-0.4,0.4-0.8,0.5-1.1h-9.6l-0.5,1.1H35.6z"/>
	<path class="st0" d="M90.3,57.8v-1.1H77.8c-0.1,0.4-0.2,0.8-0.3,1.1H90.3z"/>
	<path class="st0" d="M34.2,56.6h-6.3v1.1h6.7C34.4,57.4,34.3,57,34.2,56.6"/>
	<polygon class="st0" points="35.3,63.6 26.5,63.6 26.4,64.8 35.4,64.8 	"/>
	<polygon class="st0" points="90.3,64.8 90.3,63.6 78.4,63.6 78.3,64.8 	"/>
	<polygon class="st0" points="19.7,57.3 11.3,57.3 11.3,58.4 12.2,58.4 13.3,69.3 24,69.3 25,58.4 25.9,58.4 25.9,57.3 20.9,57.3 
		24.4,49.5 23.4,49.1 	"/>
	<path class="st0" d="M75,81.1c-0.1,1-0.6,1.9-1.2,2.6h1.2h15.7v-13H77.5h-1L75,81.1z"/>
	<path class="st0" d="M64.9,79.8l1.2-9h-1h-2.7h-3.9h-3.4h-3.9h-2.7h-1l1.2,9c0.2,1.5-0.3,2.9-1.2,4h1.2h16h1.2
		C65.2,82.7,64.7,81.2,64.9,79.8"/>
	<path class="st0" d="M38.7,81.1l-1.4-10.4h-1H25.8H11.4H9.2v13h29.4h1.2C39.2,83,38.8,82.1,38.7,81.1"/>
	<path class="st0" d="M36.4,54c-0.5,1.3-0.3,2.3,0,3c0.8,1.7,2.6,2.4,4.3,3.1c2.2,0.9,3.7,1.5,4,2.9c0.3,1.3,1.4,2.1,2.6,2.1
		c0.2,0,0.4,0,0.5-0.1c1.4-0.3,2.4-1.7,2.1-3.2c-0.9-4.4-4.9-5.9-7.3-6.8c-0.2-0.1-0.5-0.2-0.8-0.3c1.7-3.9,3.5-6.6,5.1-8.5v10.1
		c1.7,1.2,3.2,2.8,3.7,5.4c0.2,0.9,0,1.8-0.5,2.6c-0.5,0.8-1.3,1.3-2.2,1.5c-0.2,0-0.5,0.1-0.7,0.1c-1.6,0-3-1.1-3.3-2.7
		c-0.2-0.9-1.2-1.5-3.5-2.4c-0.8-0.3-1.7-0.7-2.5-1.2c-0.6,0.8-0.9,1.9-0.8,3L39.7,81c0.3,2.1,2,3.5,4.1,3.5c0.2,0,0.4,0,0.6,0
		c2.2-0.3,3.8-2.4,3.5-4.6l-1.7-12.5l6.2,1.5c1.6,0.4,3.3-0.3,4.2-1.5h1.2c-0.1,0.1-0.2,0.3-0.2,0.4c1,1,2.4,1.5,3.9,1.1l6.2-1.5
		l-1.7,12.5c-0.3,2.2,1.3,4.3,3.5,4.6c0.2,0,0.4,0,0.6,0c2,0,3.8-1.5,4.1-3.5l2.5-18.4c0.2-1.3-0.3-2.7-1.3-3.6c0,0-0.1-0.1-0.1-0.1
		c-1,0.9-2.3,1.4-3.5,1.9c-2.3,0.9-3.4,1.5-3.5,2.4c-0.3,1.6-1.7,2.7-3.3,2.7c-0.2,0-0.5,0-0.7-0.1c-0.9-0.2-1.7-0.7-2.2-1.5
		s-0.7-1.7-0.5-2.6c0.5-2.6,2-4.2,3.7-5.4V46.3c1.6,1.9,3.4,4.6,5.1,8.5c-0.3,0.1-0.5,0.2-0.8,0.3C67,56.1,63,57.6,62.1,62
		c-0.3,1.4,0.6,2.9,2.1,3.2c0.2,0,0.4,0.1,0.5,0.1c1.2,0,2.4-0.9,2.6-2.1c0.3-1.4,1.8-2.1,4-2.9c1.7-0.7,3.5-1.4,4.3-3.1
		c0.3-0.7,0.5-1.7,0-3c-4.7-11.7-11.3-15.5-11.5-15.7c-0.1-0.1-0.3-0.1-0.4-0.2c-1.2,3-4.2,5.1-7.6,5.1c-3.4,0-6.4-2.1-7.6-5.1
		c-0.2,0.1-0.3,0.1-0.4,0.2C47.7,38.5,41.1,42.3,36.4,54"/>
	<path class="st0" d="M56,27.4c4.2,0,7.5,3.4,7.5,7.5c0,4.2-3.4,7.5-7.5,7.5c-4.2,0-7.5-3.4-7.5-7.5C48.5,30.8,51.9,27.4,56,27.4"/>
	<path class="st0" d="M51.6,25.1c-0.3,0.4,0.1,1,0.4,0.6c0.8-1,1.2-2.5,0.9-4c-0.3-1.4-1.3-2.1-0.7-3.8c0.2-0.6,0.6-1.2,1.1-1.7
		c0.3-0.3,0-1-0.3-0.7c-0.8,0.8-1.4,1.9-1.6,3.2c-0.1,1.5,0.9,2.4,1,3.7C52.5,23.5,52.1,24.5,51.6,25.1"/>
	<path class="st0" d="M55.7,25.7c0.1-0.1,0.1-0.2,0.2-0.2c0.7-1,1-2.4,0.8-3.7c-0.3-1.4-1.3-2.1-0.7-3.8c0.2-0.6,0.6-1.2,1.1-1.7
		c0.3-0.3,0-1-0.3-0.7c-0.8,0.8-1.4,1.9-1.6,3.2c-0.1,1.5,0.9,2.4,1,3.7c0.1,0.9-0.3,1.9-0.8,2.5c-0.1,0.1-0.1,0.3-0.1,0.4
		C55.2,25.7,55.5,25.9,55.7,25.7"/>
	<path class="st0" d="M58.9,25.1c-0.3,0.4,0.1,1,0.4,0.6c0.8-1,1.2-2.5,0.9-4c-0.3-1.4-1.3-2.1-0.7-3.8c0.2-0.6,0.6-1.2,1.1-1.7
		c0.3-0.3,0-1-0.3-0.7c-0.8,0.8-1.4,1.9-1.6,3.2c-0.1,1.5,0.9,2.4,1,3.7C59.8,23.5,59.4,24.5,58.9,25.1"/>
</g>
</svg>
