
<svg version="1.1" id="Layer_1" xmlns="http://www.w3.org/2000/svg" xmlns:xlink="http://www.w3.org/1999/xlink" x="0px" y="0px"
	 viewBox="0 0 100 100" style="enable-background:new 0 0 100 100;" xml:space="preserve">
<style type="text/css">
	.st0{fill:#775d42;}
</style>
<g>
	<path class="st0" d="M37.2,56.2H20.3v-4.5h-6.5v38.1h6.5v-8.1h16.8v8.1h6.5V51.6h-6.5V56.2z M37.2,66.8H20.3v-6.5h16.8V66.8z
		 M20.3,71h16.8v6.5H20.3V71z"/>
	<path class="st0" d="M84.8,81H80L58,41.7c-0.7-1.4-2.2-2.2-3.7-2.2h-8.9V48h6.4l7.9,14.2v26.3c0,0.5,0.4,0.8,0.8,0.8
		s0.8-0.4,0.8-0.8V65.2l12.3,22.1c0.7,1.3,2.2,2.2,3.7,2.2h7.3c2.3,0,4.3-1.9,4.3-4.2C89,82.9,87.1,81,84.8,81"/>
	<path class="st0" d="M46.1,22.4l-16.7-12c-0.4-0.3-0.8-0.3-1.2,0l-16.7,12C10.6,23,11,24.3,12,24.3h33.5
		C46.5,24.3,46.9,23,46.1,22.4"/>
	<path class="st0" d="M13.8,49.9h29.9V26H13.8V49.9z M28.7,29.6c3.6,0,6.6,2.9,6.6,6.4c0,3.6-3,6.4-6.6,6.4c-3.6,0-6.6-2.9-6.6-6.4
		C22.2,32.5,25.1,29.6,28.7,29.6"/>
	<path class="st0" d="M28.7,40.8c2.7,0,4.9-2.1,4.9-4.7c0-2.6-2.2-4.7-4.9-4.7c-2.7,0-4.9,2.1-4.9,4.7C23.9,38.7,26,40.8,28.7,40.8"
		/>
</g>
</svg>
