<svg id="Capa_1" enable-background="new 0 0 512 512" height="512" viewBox="0 0 512 512" width="512" xmlns="http://www.w3.org/2000/svg" fill="#775D42"><g><path d="m196 31c-8.291 0-15 6.709-15 15 0 3.021 0 48.021 0 45h150c0-3.021 0-48.021 0-45 0-8.291-6.709-15-15-15s-15 6.709-15 15v15h-30v-15c0-8.291-6.709-15-15-15s-15 6.709-15 15v15h-30v-15c0-8.291-6.709-15-15-15z"/><path d="m271 391h30v90h-30z"/><path d="m211 391h30v90h-30z"/><path d="m256 331c-19.53 0-36.024 12.578-42.237 30h84.474c-6.213-17.422-22.707-30-42.237-30z"/><path d="m241 211h30v30h-30z"/><path d="m392 481v-375c0-8.291-6.709-15-15-15s-15 6.709-15 15v15h-212v-15c0-8.291-6.709-15-15-15s-15 6.709-15 15v375h61v-105c0-41.353 33.633-75 75-75s75 33.647 75 75v105zm-91-225c0 8.291-6.709 15-15 15h-60c-8.291 0-15-6.709-15-15v-60c0-8.291 6.709-15 15-15h60c8.291 0 15 6.709 15 15z"/><path d="m497 181c-8.291 0-15 6.709-15 15v15h-30v-15c0-8.291-6.709-15-15-15s-15 6.709-15 15v285h75c8.291 0 15-6.709 15-15 0-6.544 0-274.081 0-270 0-8.291-6.709-15-15-15zm-15 135c0 8.291-6.709 15-15 15s-15-6.709-15-15v-30c0-8.291 6.709-15 15-15s15 6.709 15 15z"/><path d="m15 481h75c0-79.1 0-221.466 0-285 0-8.291-6.709-15-15-15s-15 6.709-15 15v15h-30v-15c0-8.291-6.709-15-15-15s-15 6.709-15 15c0-4.081 0 263.456 0 270 0 8.291 6.709 15 15 15zm15-195c0-8.291 6.709-15 15-15s15 6.709 15 15v30c0 8.291-6.709 15-15 15s-15-6.709-15-15z"/></g></svg>