
<svg id="Layer_1" xmlns="http://www.w3.org/2000/svg" version="1.1" viewBox="0 0 384 384" fill="#775D42">
  <path d="M63.75,190.5c-22.37,15.25-49.88-12.64-32.56-34.43L175.89,33.01c7.48-6.33,17.34-8.08,26.37-3.9,50.69,40.75,99.29,84.29,149.41,125.84,19.16,20.3-7.35,50.6-30.02,36.02l-129.38-109.17-50.57,43.02c-8.12,6.23-16.48-5.47-8.59-11.59,18.33-13.4,35.11-32.62,53.29-45.71,7.26-5.23,10.04-.82,15.71,3.75,43.02,34.68,83.67,72.54,126.44,107.56,8.89,6.27,18.6-3.98,13.79-13.04L196.78,42.09c-2.57-1.34-5.8-1.04-8.57-.51L42,165.37c-5.1,7.41,2.24,17.99,11.05,14.8,19.44-15.11,38.21-31.3,57.23-47.01,6.99-4.2,14.22,3.09,10.08,10.08-12.8,11.67-28.11,21.79-40.5,33.79-.48.46-1.21.67-1.87.72v165h45.38c.71,0,3.57,2.59,4.03,3.47,2.04,3.93.77,9.96-4.08,10.73h-53.91c-2.23.03-5.67-3.7-5.67-5.58v-160.88Z"/>
  <path d="M186.01,223.5c.1.09,1.63.3,1.54-.47,2.41-4.86,5.5-9.98,8.97-14.13,4.12-4.93,12.89-15.54,19.13-8.68,6.66,7.32-6.83,15.8-11.21,21.85-5.78,7.97-12.43,21.74-9.07,31.43l31.89-34.86c7.64-3.98,13.87,1.86,10.39,9.64l-31.4,34.6c1.77.96,4.3-.14,6.15-.6,34.49-8.5,48.36-41.3,50.09-74.03-.34-.34-7.07.81-8.27,1.1-5,1.18-18.21,7.98-21.28,7.86-5.74-.24-8.5-7.55-5.3-11.94,2.09-2.86,15.96-7.61,19.87-8.63,6.74-1.77,26.85-6.66,29.5,1.99,1.34,4.38-.39,16.81-1.13,21.88-3.88,26.77-16.37,53.62-40.44,67.56-12.49,7.24-26.67,10.35-40.86,12.39l-.4,44.6c-.28,7.81-12.94,9.15-14.14,1.52l-.04-46.83c-8.36.36-39.04-6.93-43.07-13.55-2.81-4.63.87-11.18,5.92-11.22,2.37-.02,13.84,5.92,17.67,7.12,2.65.83,5.4,1.81,8.22,1.9l-32.56-36.05c-3.78-6.78,3.16-12.85,9.73-9.73l32.96,36.04c2.1-7.39-.29-14.67-3.25-21.5-10.08-23.26-39.8-41.93-64.63-44.49,1.35,14.75,4.14,29.32,11.12,42.5,3.07,5.8,13.7,15.93,6.84,21.59-7.74,6.39-14-5.31-17.34-11.09-9.07-15.68-15.99-41.3-15.47-59.38.17-5.91,4.4-8.46,9.9-8.54,27.39-.4,63.26,21.82,77.55,44.69.76,1.22,2.19,5.27,2.41,5.48Z"/>
  <path d="M306,205.88c.13-.45,3.24-3.27,3.94-3.55,5-2.07,9.71,1.39,10.33,6.53v139.55c-.14,2.98-1.37,7.29-4.48,8.26-53.36.41-107.07.87-160.35-.23-3.78-2.13-5.17-6.24-3.1-10.21.46-.88,3.32-3.47,4.03-3.47h149.62v-136.88Z"/>
</svg>