
<svg version="1.1" id="Layer_1" xmlns="http://www.w3.org/2000/svg" xmlns:xlink="http://www.w3.org/1999/xlink" x="0px" y="0px"
	 viewBox="0 0 100 100" style="enable-background:new 0 0 100 100;" xml:space="preserve">
<style type="text/css">
	.st0{fill:#775d42;}
</style>
<g>
	<path class="st0" d="M83.3,35.8L66.6,84.3c-1.7,4.9-6.9,7.4-11.8,5.8l-26.2-9h31.1c6.1,0,11-4.9,11-11V21.6l6.9,2.4
		C82.5,25.6,85,30.9,83.3,35.8"/>
	<path class="st0" d="M59.8,9.4H25.5c-5.2,0-9.3,4.2-9.3,9.3v51.4c0,5.1,4.2,9.3,9.3,9.3h34.3c5.1,0,9.3-4.2,9.3-9.3V18.7
		C69.1,13.6,64.9,9.4,59.8,9.4 M25,24.6c-1.5-0.3-2.5-1.5-2.5-3c0-3.2,3.9-5.9,5.1-6.6c0.2-0.2,0.5-0.2,0.7,0
		c1.2,0.7,5.1,3.4,5.1,6.6c0,1.5-1,2.7-2.4,3c-1.2,0.2-2.2-0.2-2.9-1C27.1,24.4,26.1,24.8,25,24.6 M43.4,56.9
		c-0.5,0.3-1.2,0.3-1.5,0c-3-1.9-13.2-9-13.2-17.3c0-3.9,2.5-7.1,6.3-8c3-0.5,5.9,0.7,7.6,2.7c1.7-2.2,4.6-3.4,7.8-2.7
		c3.7,0.7,6.4,4.1,6.3,8C56.4,48,46.3,55.1,43.4,56.9 M57.6,73.9c-0.2,0.2-0.5,0.2-0.7,0c-1.2-0.7-5.1-3.4-5.1-6.6
		c0-1.5,1-2.7,2.4-3c1.2-0.2,2.2,0.2,2.9,1c0.7-0.8,1.9-1.4,3-1c1.5,0.3,2.4,1.5,2.4,3C62.7,70.5,58.8,73.2,57.6,73.9"/>
</g>
</svg>
