<svg id="Layer_1" enable-background="new 0 0 512.005 512.005" height="512" viewBox="0 0 512.005 512.005" width="512" xmlns="http://www.w3.org/2000/svg" fill="#775D42"><path d="m32.415 397.24h-32.415v30h32.415v38.692h-32.415v30h512v-30h-143.671v-127.161h2.865c24.831 0 45.032-20.201 45.032-45.032v-3.139h-30v3.139c0 8.289-6.744 15.032-15.032 15.032h-2.865v-88.369h22.124c22.705 0 41.959-15.058 48.304-35.709h16.012c31.56 0 57.236-25.676 57.236-57.236v-.38c0-26.839-18.57-49.423-43.536-55.579-6.229-31.555-34.113-55.425-67.468-55.425h-110.937c-32.769 0-60.257 23.037-67.119 53.768h-7.764c-31.561 0-57.237 25.676-57.237 57.236v.38c0 31.561 25.676 57.236 57.237 57.236h18.698c5.585 18.178 21.174 32.016 40.313 35.072v4.879c0 33.229 27.034 60.264 60.264 60.264h3.874v181.026h-77.071v-38.694h32.415v-30h-32.415v-107.46h-228.844zm30-24.891h168.843v24.892h-168.843zm0 54.891h168.843v38.692h-168.843zm275.914-172.334h-3.874c-16.688 0-30.264-13.576-30.264-30.264v-4.241h34.138z"/></svg>