<svg id="Layer_1" enable-background="new 0 0 480 480" height="512" viewBox="0 0 480 480" width="512" xmlns="http://www.w3.org/2000/svg"><path fill="#775D42" d="m0 190v-43.998c0-4.384 3.529-7.997 7.912-8.004 55.995-.087 102.088 45.491 102.088 102.002 0 56.49-46.073 102.09-102.088 102.002-4.383-.006-7.912-3.62-7.912-8.004v-43.998c0-4.418 3.582-8 8-8h50c4.418 0 8-3.582 8-8v-68c0-4.418-3.582-8-8-8h-50c-4.418 0-8-3.582-8-8zm291 50c0-28.122-22.879-51-51-51s-51 22.878-51 51 22.879 51 51 51 51-22.878 51-51zm147 26.001h34c4.418 0 8-3.582 8-8v-36c0-4.418-3.582-8-8-8h-34c-4.418 0-8 3.582-8 8v36c0 4.418 3.582 8 8 8zm34 16h-50c-4.418 0-8-3.582-8-8v-68c0-4.418 3.582-8 8-8h50c4.418 0 8-3.582 8-8v-43.999c0-4.384-3.529-7.997-7.912-8.004-56.015-.088-102.088 45.512-102.088 102.002 0 56.511 46.093 102.089 102.088 102.002 4.384-.007 7.912-3.62 7.912-8.004v-43.998c0-4.418-3.582-7.999-8-7.999zm-118-42.001c0-65.149 53.047-118.004 117.933-117.995 4.444.001 8.067-3.551 8.067-7.995v-33.01c0-4.418-3.582-8-8-8h-216c-4.418 0-8 3.582-8 8v85.74c0 3.722 2.556 7.005 6.194 7.793 30.148 6.528 52.806 33.394 52.806 65.467s-22.658 58.939-52.806 65.467c-3.638.788-6.194 4.07-6.194 7.793v85.74c0 4.418 3.582 8 8 8h216c4.418 0 8-3.582 8-8v-33.009c0-4.444-3.623-7.996-8.067-7.995-64.895.008-117.933-52.855-117.933-117.996zm-312-26h-34c-4.418 0-8 3.582-8 8v36c0 4.418 3.582 8 8 8h34c4.418 0 8-3.582 8-8v-36c0-4.418-3.582-8-8-8zm190 99.26c0-3.722-2.556-7.005-6.194-7.793-30.148-6.528-52.806-33.394-52.806-65.467s22.658-58.939 52.806-65.467c3.638-.788 6.194-4.07 6.194-7.793v-85.74c0-4.418-3.582-8-8-8h-216c-4.418 0-8 3.582-8 8v33.009c0 4.444 3.623 7.996 8.067 7.995 64.895-.008 117.933 52.855 117.933 117.996 0 65.149-53.047 118.004-117.933 117.995-4.444 0-8.067 3.552-8.067 7.996v33.009c0 4.418 3.582 8 8 8h216c4.418 0 8-3.582 8-8z"/></svg>