<svg id="Layer_1" viewBox="0 0 48 48" xmlns="http://www.w3.org/2000/svg" data-name="Layer 1"><path fill="#775D42" d="m46.983 22.66c-.17-1.39-1.419-2.363-2.802-2.162l-6.372.888-2.938-5.427c-.25-.474-.615-.887-1.051-1.186l-4.568-3.2c-.359-.252-.766-.428-1.208-.537l-7.422-1.683c-.69-.151-1.397-.092-2.062.161l-7.33 2.892c-1.3.519-1.961 1.987-1.483 3.293.188.488.505.877.893 1.152.662.469 1.534.596 2.345.275l6.903-2.719 3.534.801-18.105 25.858c-.792 1.131-.517 2.69.614 3.482s2.69.517 3.482-.614l10.661-15.225c.236.232.488.452.768.648l7.367 5.162-4.383 6.272c-.814 1.154-.55 2.732.575 3.524 1.135.792 2.707.498 3.521-.656l5.265-7.52c1.125-1.618.767-3.828-.823-4.94l-4.502-3.154 4.382-6.262 1.615 2.992c.691 1.275 2.075 1.978 3.519 1.773l7.398-1.029c1.383-.2 2.368-1.479 2.208-2.858z"/><circle cx="35" cy="8" r="5"/><path fill="#775D42" d="m11.58 23.998h-9.58c-.552 0-1-.448-1-1s.448-1 1-1h9.58c.552 0 1 .448 1 1s-.448 1-1 1z"/><path fill="#775D42" d="m8.07 28.998h-6.07c-.552 0-1-.447-1-1s.448-1 1-1h6.07c.552 0 1 .447 1 1s-.448 1-1 1z"/><path fill="#775D42" d="m4.57 33.998h-2.57c-.552 0-1-.447-1-1s.448-1 1-1h2.57c.552 0 1 .447 1 1s-.448 1-1 1z"/></svg>