<svg id="Layer_1" viewBox="0 0 64 64" xmlns="http://www.w3.org/2000/svg" data-name="Layer 1" fill="#775D42"><path d="m2 50.6162109c0 2.0571289 1.6767578 3.7304688 3.7382812 3.7304688h24.3808594v3.7202148c0 .5522461.4472656 1 1 1h8.1279297c.003418.000061.0063477.0019531.0097656.0019531h9.8408203c.003418 0 .0063477-.0018921.0097656-.0019531h8.1220703c.5527344 0 1-.4477539 1-1v-14.6279297h2.2080078c.6347656 0 1.2011719-.3813477 1.4433594-.972168.2441406-.5966797.1064453-1.2744141-.3525391-1.7265625-.0039062-.003418-.0068359-.0063477-.0107422-.0097656l-12.5703125-12.036438v-16.0265502c0-2.0571289-1.6777344-3.730957-3.7392578-3.730957h-2.1220703v-2.3500977c0-.9125977-.7421875-1.6552734-1.6552734-1.6552734h-2.9980469c-.9130859 0-1.6552734.7426758-1.6552734 1.6552734v2.3500977h-22.6074218v-2.3500977c0-.9125977-.7421875-1.6552734-1.6552734-1.6552734h-2.9980469c-.9130859 0-1.65625.7426758-1.65625 1.6552734v2.3500977h-2.1220703c-2.0615234 0-3.7382812 1.6738281-3.7382812 3.730957v37.9487304zm46.0976562 6.4506836h-7.8408203v-11.6967773h7.8408203zm9.1318359-15.6279297c-.5527344 0-1 .4477539-1 1v14.6279297h-6.1318359v-12.6967773c0-.5522461-.4472656-1-1-1h-9.8408203c-.5527344 0-1 .4477539-1 1v12.6967773h-6.1376953v-3.7056885c0-.005127.0029297-.0093994.0029297-.0145264s-.0029297-.0093994-.0029297-.0145264v-10.8931885c0-.5522461-.4472656-1-1-1h-2.1259766l15.1806641-14.5463867 3.0609131 2.9307861c.0048828.0050049.0098877.0093994.0150146.0142822l12.1164551 11.6013184h-2.1367188zm-11.96875-16.2749023c-.6074219-.5786133-1.5625-.578125-2.1757812.0024414l-16.2412109 15.5629883c-.4697266.4477539-.6171875 1.1245117-.3779297 1.7241211.2402344.5986328.8144531.9853516 1.4628906.9853516h2.1904297v8.9077148h-24.3808594c-.9580078 0-1.7382812-.7763672-1.7382812-1.7304688v-29.5507812h42.9472656v5.713501l-1.6865234-1.6148682zm-6.4833984-18.2329102h2.3085938v3.0005493c0 .001709-.0009766.0031128-.0009766.0048218v2.9970703h-2.3076172v-6.0024414zm-26.6074219 0v6.0024414h-2.3085938v-2.9970703c0-.001709-.0009766-.0031128-.0009766-.0048218v-3.0005493h2.3095703zm-6.4316406 4.0053711h2.1220703v2.3413086c0 .2288208.046875.4467773.1311035.6452026.2514648.59375.8398438 1.0115356 1.5241699 1.0115356h3c.9121094 0 1.6542969-.7421875 1.6542969-1.6542969v-2.34375h22.6074219v2.34375c0 .9121094.7412109 1.6542969 1.6533203 1.6542969h3.0009766c.6843262 0 1.2724609-.4179077 1.5234375-1.0117798.0842285-.1983032.1308594-.4162598.1308594-.6449585v-2.3413086h2.1220703c.9589844 0 1.7392578.7763672 1.7392578 1.730957v6.3979492h-42.9472656v-6.3979492c0-.9545898.7802734-1.730957 1.7382812-1.730957z"/><path d="m12.6396484 23.8325195h-3.3183594c-1.2636719 0-2.2919922 1.0288086-2.2919922 2.2929688v3.0942383c0 1.2641602 1.0283203 2.2924805 2.2919922 2.2924805h3.3183594c1.2646484 0 2.2929688-1.0283203 2.2929688-2.2924805v-3.0942383c0-1.2641602-1.0283203-2.2929688-2.2929688-2.2929688zm.2929688 5.387207c0 .1611328-.1318359.2924805-.2929688.2924805h-3.3183594c-.1611328 0-.2919922-.1313477-.2919922-.2924805v-3.0942383c0-.1616211.1308594-.2929688.2919922-.2929688h3.3183594c.1611328 0 .2929688.1313477.2929688.2929688z"/><path d="m22.3017578 23.8325195h-3.3183594c-1.2646484 0-2.2929688 1.0288086-2.2929688 2.2929688v3.0942383c0 1.2641602 1.0283203 2.2924805 2.2929688 2.2924805h3.3183594c1.2646484 0 2.2929688-1.0283203 2.2929688-2.2924805v-3.0942383c0-1.2641602-1.0283203-2.2929688-2.2929688-2.2929688zm.2929688 5.387207c0 .1611328-.1318359.2924805-.2929688.2924805h-3.3183594c-.1611328 0-.2929688-.1313477-.2929688-.2924805v-3.0942383c0-.1616211.1318359-.2929688.2929688-.2929688h3.3183594c.1611328 0 .2929688.1313477.2929688.2929688z"/><path d="m31.9628906 23.8325195h-3.3173828c-1.2646484 0-2.2929688 1.0288086-2.2929688 2.2929688v3.0942383c0 1.2641602 1.0283203 2.2924805 2.2929688 2.2924805h3.3173828c1.2646484 0 2.2929688-1.0283203 2.2929688-2.2924805v-3.0942383c0-1.2641602-1.0283203-2.2929688-2.2929688-2.2929688zm.2929688 5.387207c0 .1611328-.1318359.2924805-.2929688.2924805h-3.3173828c-.1611328 0-.2929688-.1313477-.2929688-.2924805v-3.0942383c0-.1616211.1318359-.2929688.2929688-.2929688h3.3173828c.1611328 0 .2929688.1313477.2929688.2929688z"/><path d="m41.3330078 23.8320312h-3.0244141c-1.2636719 0-2.2919922 1.027832-2.2919922 2.2915039v2.8447266c0 .5522461.4472656 1 1 1s1-.4477539 1-1v-2.8447266c0-.1582031.1337891-.2915039.2919922-.2915039h3.0244141c.5527344 0 1-.4477539 1-1s-.4472656-1-1-1z"/><path d="m12.6396484 32.9257812h-3.3183594c-1.2636719 0-2.2919922 1.0283203-2.2919922 2.2924805v3.0942383c0 1.2641602 1.0283203 2.2924805 2.2919922 2.2924805h3.3183594c1.2646484 0 2.2929688-1.0283203 2.2929688-2.2924805v-3.0942383c0-1.2641602-1.0283203-2.2924805-2.2929688-2.2924805zm.2929688 5.3867188c0 .1611328-.1318359.2924805-.2929688.2924805h-3.3183594c-.1611328 0-.2919922-.1313477-.2919922-.2924805v-3.0942383c0-.1611328.1308594-.2924805.2919922-.2924805h3.3183594c.1611328 0 .2929688.1313477.2929688.2924805z"/><path d="m22.3017578 32.9257812h-3.3183594c-1.2646484 0-2.2929688 1.0283203-2.2929688 2.2924805v3.0942383c0 1.2641602 1.0283203 2.2924805 2.2929688 2.2924805h3.3183594c1.2646484 0 2.2929688-1.0283203 2.2929688-2.2924805v-3.0942383c0-1.2641602-1.0283203-2.2924805-2.2929688-2.2924805zm.2929688 5.3867188c0 .1611328-.1318359.2924805-.2929688.2924805h-3.3183594c-.1611328 0-.2929688-.1313477-.2929688-.2924805v-3.0942383c0-.1611328.1318359-.2924805.2929688-.2924805h3.3183594c.1611328 0 .2929688.1313477.2929688.2924805z"/><path d="m31.8496094 32.9223633h-3.2041016c-1.2636719 0-2.2919922 1.0283203-2.2919922 2.2919922v3.0166016c0 .5522461.4472656 1 1 1s1-.4477539 1-1v-3.0166016c0-.1582031.1337891-.2919922.2919922-.2919922h3.2041016c.5527344 0 1-.4477539 1-1s-.4472656-1-1-1z"/><path d="m12.6396484 42.0185547h-3.3183594c-1.2636719 0-2.2919922 1.0283203-2.2919922 2.2924805v3.0942383c0 1.2641602 1.0283203 2.2929688 2.2919922 2.2929688h3.3183594c1.2646484 0 2.2929688-1.0288086 2.2929688-2.2929688v-3.0942383c0-1.2641602-1.0283203-2.2924805-2.2929688-2.2924805zm.2929688 5.3867188c0 .1616211-.1318359.2929688-.2929688.2929688h-3.3183594c-.1611328 0-.2919922-.1313477-.2919922-.2929688v-3.0942383c0-.1611328.1308594-.2924805.2919922-.2924805h3.3183594c.1611328 0 .2929688.1313477.2929688.2924805z"/><path d="m22.3017578 42.0185547h-3.3183594c-1.2646484 0-2.2929688 1.0283203-2.2929688 2.2924805v3.0942383c0 1.2641602 1.0283203 2.2929688 2.2929688 2.2929688h3.3183594c1.2646484 0 2.2929688-1.0288086 2.2929688-2.2929688v-3.0942383c0-1.2641602-1.0283203-2.2924805-2.2929688-2.2924805zm.2929688 5.3867188c0 .1616211-.1318359.2929688-.2929688.2929688h-3.3183594c-.1611328 0-.2929688-.1313477-.2929688-.2929688v-3.0942383c0-.1611328.1318359-.2924805.2929688-.2924805h3.3183594c.1611328 0 .2929688.1313477.2929688.2924805z"/><path d="m26.3525391 47.4052734c0 1.2641602 1.0283203 2.2929688 2.2929688 2.2929688.5527344 0 1-.4477539 1-1s-.4472656-1-1-1c-.1611328 0-.2929688-.1313477-.2929688-.2929688v-2.2563477c0-.5522461-.4472656-1-1-1s-1 .4477539-1 1z"/></svg>