
<svg version="1.1" id="Layer_1" xmlns="http://www.w3.org/2000/svg" xmlns:xlink="http://www.w3.org/1999/xlink" x="0px" y="0px"
	 viewBox="0 0 100 100" style="enable-background:new 0 0 100 100;" xml:space="preserve">
<style type="text/css">
	.st0{fill:#775d42;}
</style>
<g>
	<path class="st0" d="M81.3,79.1c-2.5,1-4.7,1.9-9.3,1.9c-4.6,0-6.8-0.9-9.2-1.9c-2.9-1.2-6.3-2.5-12.6-2.5c-6.4,0-9.7,1.3-12.6,2.5
		c-2.5,1-4.7,1.9-9.3,1.9c-4.6,0-6.8-0.9-9.3-1.9c-2.9-1.2-6.3-2.5-12.6-2.5v8.8c4.7,0,6.9,0.9,9.4,1.9c2.9,1.2,6.2,2.5,12.5,2.5
		c6.3,0,9.6-1.3,12.5-2.5c2.5-1,4.7-1.9,9.4-1.9c4.7,0,6.8,0.9,9.4,1.9c2.9,1.2,6.2,2.5,12.5,2.5c6.3,0,9.6-1.3,12.5-2.5
		c2.5-1,4.7-1.9,9.4-1.9v-8.8C87.6,76.5,84.2,77.9,81.3,79.1"/>
	<path class="st0" d="M28.2,76.5c6.3,0,9.6-1.3,12.5-2.5c2.5-1,4.7-1.9,9.4-1.9c4.7,0,6.9,0.9,9.4,1.9c2.9,1.2,6.2,2.5,12.5,2.5
		c6.3,0,9.6-1.3,12.5-2.5c2.5-1,4.7-1.9,9.4-1.9v-8.7c-6.4,0-9.7,1.3-12.6,2.5c-2.5,1-4.7,1.9-9.3,1.9c-4.6,0-6.8-0.9-9.3-1.9
		c-2.9-1.2-6.3-2.5-12.6-2.5c-6.4,0-9.7,1.3-12.6,2.5c-2.5,1-4.6,1.9-9.2,1.9c-4.6,0-6.8-0.9-9.3-1.9c-2.9-1.2-6.3-2.5-12.6-2.5v8.7
		c4.7,0,6.9,0.9,9.4,1.9C18.6,75.2,21.9,76.5,28.2,76.5"/>
	<path class="st0" d="M67.7,28.3c4.8,0,8.8,3.9,8.8,8.8c0,4.8-3.9,8.8-8.8,8.8c-4.8,0-8.8-3.9-8.8-8.8
		C58.9,32.2,62.9,28.3,67.7,28.3"/>
	<path class="st0" d="M28.2,63.4c3.8,0,5.3-0.6,7.6-1.5C39,60.6,42.9,59,50.1,59c7.3,0,11.2,1.6,14.3,2.8c2.3,0.9,3.9,1.5,7.6,1.5
		c0.9,0,1.6,0,2.3-0.1L47,35.9L46.9,36l-7-7l16.9-10.2c2.1-1.2,2.8-3.9,1.5-6c-1.2-2.1-3.9-2.7-6-1.5l-21.7,13
		c-1.2,0.7-1.9,1.9-2.1,3.2c-0.2,1.3,0.3,2.7,1.3,3.7l10.9,10.9L20.9,61.9C23.1,62.8,24.6,63.4,28.2,63.4"/>
</g>
</svg>
