<svg id="Layer_1" enable-background="new 0 0 512 512" viewBox="0 0 512 512" xmlns="http://www.w3.org/2000/svg" fill="#775D42"><path d="m462.8 321.4v188.5h-11.6v-183.9c4.3 0 10.4 1 11.6-4.6zm-337.7 75.3 12.2 8.7c1.5-.4 3-.8 4.5-1.2l3.3-8.7-15.8-1.9c-1.7-.3-3.2 2.2-4.2 3.1zm257.7-3.1-15.7 1.9 3.3 8.7c1.5.4 2.9.8 4.4 1.2l12.3-8.7c-1.2-.9-2.7-3.4-4.3-3.1zm-65-47.7h-123.6c-10.9 0-20.8 6.9-24.6 17.1l-14.4 38.2-.8 2.1h203c-2.7-7.2-12.3-32.7-15.1-40.3-3.7-10.2-13.6-17.1-24.5-17.1zm32.4 104.4s23.6 3.6 23.6 3.6c7.5 1.3 12.3-4.6 16.4-9.9-.1-5-1.5-9.7-3.9-14.1-10.6 3.8-31.9 11.4-42.5 15.2 1.3 2.8 3.6 4.7 6.4 5.2zm-215.9-30.2 39.8 14.3c.8.2 1.6.6 2.4.8 14.5 7 119.8 2.4 137.2 3.7 16.1.9 37.3-9 52.3-14l12.1-4.4c-.5-.3-1-.7-1.5-1-.1 0-.1-.1-.2-.1-4.3-2.9-9.4-4.3-14.6-4.4h-211.8c-5.7 0-11.1 1.8-15.7 5.1zm-12.6 23.9c4 5.3 9.1 11.3 16.3 9.9l23.7-3.6c3-.5 5.5-2.7 6.6-5.6l-42.4-15.2c-1.9 3.3-3.2 6.9-3.8 10.7-.2 1.2-.3 2.5-.4 3.8zm57.7 4.1c-2.4 7.1-8.4 12.5-15.9 13.7l-23.7 3.6c-6.4 1.1-13-.7-18.2-4.5v27c0 3 2.2 5.5 4.9 5.5h55.4c2.3-5 14.7-39.2 18-42.9-7 0-13.8-.8-20.5-2.4zm125.6 13.4 12.7 31.8h-123.3l12.7-31.8c2.7-6.8 7.8-11 13.2-11h71.5c5.4 0 10.5 4.2 13.2 11zm-75.6 8.3h49.6c7.6-.1 7.6-11.5 0-11.6h-49.6c-7.6.1-7.6 11.4 0 11.6zm63.5 6.6h-77.3c-7.7.1-7.6 11.5 0 11.6h77.3c7.6-.1 7.6-11.4 0-11.6zm79.2-11.1-23.7-3.6c-7.3-1.1-13.2-6.4-15.7-13.4-6.6 1.5-13.6 2.2-20.5 2.1 3.3 3.8 15.6 37.7 18 42.9h55.4c2.7 0 4.9-2.5 4.9-5.5v-27c-5.3 3.8-11.9 5.6-18.4 4.5zm-36.2 39.7c-.2 2.2.2 4.9 3 4.9h35.8c2.7 0 3.2-2.7 3-4.9zm-201.6 0c-.2 2.2.2 4.9 3 4.9h35.8c2.7 0 3.2-2.7 3-4.9zm305.2-286.9h-367v8.8h367.1v-8.8zm-367 37h367.1v-16.6h-367.1zm-2.2 47.2-6 12.1h383.5l-6-12.1zm2.2-11.6h367.1v-23.9h-367.1zm-23.3 30.7v188.5h11.6v-183.9c-4.3 0-10.4 1-11.6-4.6zm0-2.4c.1-.5.3-1 .5-1.4l11.2-22.5v-82.9c0-3.2 2.6-5.8 5.8-5.8h378.7c3.2 0 5.8 2.6 5.8 5.8v82.9l11.2 22.5c.2.5.3.9.5 1.4v-124.1h-413.7zm-48.4-157.9v22.2h510.5v-22.2zm479.9-11.7h-449.4l224.7-147.3zm-224.6-34.2c-15 .3-15 22.6 0 22.9 15-.3 15-22.6 0-22.9zm0-30.3c-11.4 0-22 4.4-30 12.4-3.7 3.5-.8 10.1 4.1 9.9 1.5 0 3-.6 4.1-1.7 5.8-5.8 13.5-9 21.7-9s15.9 3.2 21.7 9c2.3 2.3 5.9 2.3 8.2 0 8.8-10.9-21.6-21.9-29.8-20.6zm51.7-9.4c-27.3-28.5-76.3-28.5-103.5 0-5.4 5.4 2.9 13.5 8.2 8.2 23-23.9 64.2-24 87.1 0 5.4 5.4 13.5-2.8 8.2-8.2z"/></svg>