<svg id="Ñëîé_1" enable-background="new 0 0 5000 5000" height="512" viewBox="0 0 5000 5000" width="512" xmlns="http://www.w3.org/2000/svg"><g>
<path fill="#775D42" d="m2817.051 3144.639c-.028 0-.047.007-.075.007-.019 0-.028-.007-.047-.007h-738.272c-.047 0-.085-.002-.122 0h-8.704c-57.401 0-104.103 46.697-104.103 104.098v61.607c0 57.401 46.702 104.098 104.103 104.098h755.389c57.401 0 104.094-46.697 104.094-104.098v-61.607c0-57.401-46.693-104.098-104.094-104.098z"/>
<path fill="#775D42" d="m4062.334 3348.452v-399.614c0-110.053-89.216-199.269-199.269-199.269h-256.703c-31.305 0-61.461 7.247-89.651 21.541-8.799 4.462-19.144 4.642-27.631-.389l-405.072-240.075c-6.908-4.094-11.801-10.877-13.508-18.723l-84.775-389.732c-5.477-25.306-20.382-46.808-42.016-60.707-21.624-13.899-47.408-18.549-72.617-13.096-22.565 4.856-42.411 17.564-55.924 35.791-17.305 22.756-23.685 51.367-17.719 78.781l96.359 443.254c5.599 26.092 22 48.8 45.017 62.372l454.105 269.261c8.781 5.207 14.166 14.659 14.166 24.868v411.775c0 22.065 17.888 39.953 39.953 39.953h549.294c36.446 0 65.991-29.545 65.991-65.991z"/>
<path fill="#775D42" d="m2023.542 2930.724v61.668c0 41.103 23.901 77.539 61.071 94.432h725.823c37.16-16.893 61.062-53.329 61.062-94.432v-61.668c0-57.382-46.683-104.068-104.065-104.068h-639.815c-57.384 0-104.076 46.685-104.076 104.068z"/><circle fill="#775D42" cx="3734.715" cy="2342.936" r="337.255"/>
<path fill="#775D42" d="m1755.244 2303.144c48.226-12.946 98.542-5.317 139.974 18.874 25.699-42.444 71.93-70.043 123.346-70.043 79.703 0 144.538 64.84 144.538 144.538s-64.835 144.538-144.538 144.538c-14.266 0-28.258-2.125-41.63-6.164-14.567 46.166-47.012 84.982-91.042 107.58 39.315 21.408 83.137 32.766 129.068 33.337.837-.136 1.647-.376 2.512-.44 2.23-.162 4.395-.014 6.512.313 151.567-2.929 274.02-126.911 274.02-279.165 0-154.084-125.36-279.44-279.44-279.44-119.178.001-224.307 77.069-263.32 186.072z"/>
<path fill="#775D42" d="m2788.039 2028.381c19.686-18.008 44.095-30.745 70.857-36.506 40.219-8.711 81.463-1.268 116.063 20.973 28.39 18.234 49.374 44.721 60.883 75.812 144.528-27.115 250.805-153.12 250.805-302.675 0-170.022-138.327-308.347-308.347-308.347s-308.347 138.325-308.347 308.347c0 95.32 43.776 184.174 118.086 242.396zm190.262-415.843c95.634 0 173.445 77.807 173.445 173.445s-77.812 173.445-173.445 173.445c-95.634 0-173.446-77.807-173.446-173.445s77.812-173.445 173.446-173.445z"/>
<path fill="#775D42" d="m773.459 3502.885v139.635c0 16.915 13.712 30.627 30.627 30.627h110.984c.263-.007.508-.078.772-.078s.508.071.772.078h3178.288c.263-.007.508-.078.772-.078s.508.071.772.078h110.927c16.915 0 30.627-13.712 30.627-30.627v-139.635c0-16.915-13.712-30.627-30.627-30.627h-3403.286c-16.915 0-30.628 13.712-30.628 30.627z"/>
<path fill="#775D42" d="m975.377 3963.687h3060.761c16.915 0 30.627-13.712 30.627-30.627v-171.47c0-16.915-13.712-30.627-30.627-30.627h-3060.761c-16.915 0-30.628 13.712-30.628 30.627v171.469c.001 16.915 13.713 30.628 30.628 30.628z"/>
<path fill="#775D42" d="m1907.912 3310.344v-61.607c0-56.891 29.499-107.012 74.003-135.893 11.788-7.65 15.197-23.699 7.813-35.656-15.367-24.886-24.001-54.006-24.001-84.797v-61.668c0-34.05 10.647-65.61 28.693-91.694 3.783-5.468 5.823-11.885 5.272-18.511-1.284-15.453-3.657-45.2-5.289-65.762-.971-12.237-10.093-22.558-22.256-24.217-53.718-7.329-104.135-27.476-148.521-59.227l-674.558 305.325c-12.695 5.746-20.852 18.391-20.852 32.326v339.488c0 36.446 29.545 65.991 65.991 65.991h751.786c-23.722-28.17-38.081-64.472-38.081-104.098z"/>
<path fill="#775D42" d="m1088.676 2940.51 765.721-346.59c42.242-19.227 70.34-60.057 73.266-106.531 1.44-20.218-2.287-40.625-10.756-59.252-28.494-62.932-102.889-90.948-165.889-62.518l-563.472 255.146c-10.784 4.881-23.45 2.691-31.956-5.498-8.526-8.198-11.198-20.763-6.747-31.721l211.02-519.179c6.004-14.79 22.857-21.916 37.668-15.896 14.783 6.013 21.906 22.876 15.894 37.666l-183.749 452.092 458.362-207.554c24.918-124.796 119.074-223.801 238.102-258.22l-18.321-61.424c-35.212-80.611-117.446-128.689-220.335-128.689h-342.844c-111.678 0-210.925 66.964-252.838 170.601l-320.477 793.974c-19.403 47.791-7.961 101.779 29.115 137.595 36.558 34.876 92.924 44.411 138.553 23.751l148.085-67.03c.525-.248 1.052-.504 1.598-.723z"/><circle fill="#775D42" cx="1561.83" cy="1431.383" r="395.07"/>
<path fill="#775D42" d="m2447.519 2903.743c-26.564 0-48.179-21.612-48.179-48.179v-964.143c0-26.567 21.615-48.179 48.179-48.179s48.179 21.612 48.179 48.179v964.143c0 26.566-21.614 48.179-48.179 48.179z"/></g></svg>