
<svg version="1.1" id="Layer_1" xmlns="http://www.w3.org/2000/svg" xmlns:xlink="http://www.w3.org/1999/xlink" x="0px" y="0px"
	 viewBox="0 0 100 100" style="enable-background:new 0 0 100 100;" xml:space="preserve">
<style type="text/css">
	.st0{fill:#775d42;}
</style>
<g>
	<path class="st0" d="M32.9,34.4c4.6,0.5,8.8-2.8,9.3-7.5c0.5-4.6-2.8-8.8-7.5-9.3c-4.6-0.5-8.8,2.8-9.3,7.5
		C24.9,29.7,28.3,34,32.9,34.4"/>
	<path class="st0" d="M33.3,68.2H21.2c-2.8,0-5.3-2.1-5.8-4.9l-4.1-23.5c-0.3-1.6-1.8-2.6-3.4-2.4c-1.6,0.3-2.6,1.8-2.4,3.4
		l4.1,23.5c1,5.6,5.8,9.7,11.6,9.7l10.1,0v10.6c0,1.6,1.3,2.9,2.9,2.9c1.6,0,2.9-1.3,2.9-2.9V72.1C37.1,69.9,35.4,68.2,33.3,68.2z"
		/>
	<path class="st0" d="M42.9,55.9h-7.7l2-9.1l5.5,2.6c0.6,0.3,1.1,0.4,1.7,0.4h0.2l8.2-0.4c2.2-0.1,3.9-1.9,3.8-4
		c-0.1-2.2-2-3.9-4-3.8l-7.2,0.3c0,0-8.2-4.2-9.2-4.5c-1.1-0.3-5.8-1.3-5.8-1.3c-1.6-0.4-3.3-0.1-4.7,0.8c-1.4,0.9-2.4,2.4-2.7,3.9
		l-3.4,16.4c-0.4,1.8,0.1,3.7,1.2,5.1c1.1,1.4,2.9,2.3,4.7,2.3h13.5c0.8,0,1.6,0.8,1.6,1.6v16.9c0,2.4,2,4.4,4.4,4.4
		c2.4,0,4.4-2,4.4-4.4l0-20.9C49.2,58.7,46.4,55.9,42.9,55.9z"/>
	<path class="st0" d="M91.8,52.7H54.6c-1.6,0-2.9,1.3-2.9,2.9c0,1.6,1.3,2.9,2.9,2.9h15.6v26.2c0,1.6,1.3,2.9,2.9,2.9
		c1.6,0,2.9-1.3,2.9-2.9V58.5h15.6c1.6,0,2.9-1.3,2.9-2.9C94.7,54,93.4,52.7,91.8,52.7z"/>
	<path class="st0" d="M59.8,49.4h26.8c0.8,0,1.4-0.7,1.3-1.5c-0.9-5.5-4.7-9.9-9.8-11.6v-2.2c0-2.1-1.7-3.8-3.8-3.8h-2.3
		c-2.1,0-3.8,1.7-3.8,3.8v2.2c-5.1,1.8-8.9,6.2-9.9,11.7C58.4,48.7,59,49.4,59.8,49.4z M71.3,34.2c0-0.5,0.4-0.8,0.8-0.8h2.3
		c0.5,0,0.8,0.4,0.8,0.8v1.5c-0.7-0.1-1.3-0.2-2-0.2c-0.7,0-1.3,0.1-2,0.2V34.2z"/>
	<path class="st0" d="M62.8,26c0.1,0.8,0.8,1.4,1.7,1.4h0.3c0.9-0.2,1.5-1,1.4-2l-0.3-1.9c-0.1-0.8,0.1-1.5,0.6-2.1l0.2-0.3
		c1-1.3,1.4-3,1.2-4.6l-0.4-2.8c-0.1-0.9-1-1.5-1.9-1.4c-0.9,0.1-1.5,1-1.4,1.9l0.4,2.8c0.1,0.8-0.1,1.4-0.6,2.1l-0.2,0.3
		c-1,1.3-1.5,3-1.2,4.7L62.8,26z"/>
	<path class="st0" d="M70.9,26c0.1,0.8,0.8,1.4,1.7,1.4h0.3c0.9-0.2,1.5-1,1.4-2L74,23.5c-0.1-0.8,0.1-1.5,0.6-2.1l0.2-0.3
		c1-1.3,1.4-3,1.2-4.6l-0.4-2.8c-0.1-0.9-1-1.5-1.9-1.4c-0.9,0.1-1.5,1-1.4,1.9l0.4,2.8c0.1,0.8-0.1,1.4-0.6,2.1l-0.2,0.3
		c-1,1.3-1.5,3-1.2,4.7L70.9,26z"/>
	<path class="st0" d="M79,26c0.1,0.8,0.8,1.4,1.7,1.4H81c0.9-0.2,1.5-1,1.4-2l-0.3-1.9c-0.1-0.8,0.1-1.5,0.6-2.1l0.2-0.3
		c1-1.3,1.4-3,1.2-4.6l-0.4-2.8c-0.1-0.9-1-1.5-1.9-1.4c-0.9,0.1-1.5,1-1.4,1.9l0.4,2.8c0.1,0.8-0.1,1.4-0.6,2.1L80,19.4
		c-1,1.3-1.5,3-1.2,4.7L79,26z"/>
</g>
</svg>
