<svg id="Layer_1" enable-background="new 0 0 500 500" viewBox="0 0 500 500" xmlns="http://www.w3.org/2000/svg" fill="#775D42"><path clip-rule="evenodd" d="m105.967 269.319c2.52-2.52 6.606-2.52 9.126 0s2.52 6.606 0 9.126c-25.515 25.516-25.516 66.886 0 92.402 2.52 2.52 2.52 6.606 0 9.126s-6.606 2.52-9.126 0c-30.557-30.558-30.556-80.096 0-110.654zm160.697 165.399h-33.328c-.474 0-.86.386-.86.86v4.11c0 15.358 18.758 23.508 29.895 12.371 3.179-3.179 5.152-7.559 5.152-12.371v-4.11c.001-.474-.385-.86-.859-.86zm78.919-35.401h-191.166c-9.839 0-15.096 12.027-7.938 19.185 2.041 2.041 4.852 3.309 7.938 3.309h191.165c9.839 0 15.095-12.027 7.938-19.185-2.041-2.042-4.851-3.309-7.937-3.309zm-95.583-150.897c-43.167 0-78.509 35.342-78.509 78.508v58.621c0 .474.386.86.86.86h155.297c.474 0 .86-.386.86-.86v-58.621c.001-43.166-35.341-78.508-78.508-78.508zm-.601-205.029c.103-.343.39-.577.747-.609s.68.147.843.466c6.649 13.037 10.214 26.191 10.238 39.478.046 25.357-16.849 51.572-16.849 80.705 0 14.009 11.357 25.367 25.367 25.367 14.009 0 25.367-11.357 25.367-25.367 0-8.531-7.491-24.116-11.008-32.175-.151-.345-.068-.729.211-.982.278-.252.665-.298.994-.117 36.717 20.332 78.982 93.218 78.982 136.392 0 25.704-7.894 49.497-21.306 68.914-.217.315-.599.446-.964.332-.366-.114-.605-.439-.605-.822v-8.046c0-50.292-41.124-91.416-91.416-91.416s-91.416 41.124-91.416 91.416v8.046c0 .383-.239.708-.605.822-.365.114-.746-.018-.964-.332-13.411-19.417-21.306-43.21-21.306-68.914.001-73.54 87.909-137.639 113.69-223.158zm159.453 211.109c-2.52-2.52-2.52-6.606 0-9.126s6.606-2.52 9.126 0c43.782 43.782 43.781 114.763 0 158.544-2.52 2.52-6.606 2.52-9.126 0s-2.52-6.606 0-9.126c38.74-38.739 38.74-101.553 0-140.292zm-23.945 23.945c25.515 25.516 25.516 66.886 0 92.402-2.52 2.52-2.52 6.606 0 9.126s6.606 2.52 9.126 0c30.557-30.557 30.557-80.096 0-110.653-2.52-2.52-6.606-2.52-9.126 0-2.52 2.519-2.52 6.605 0 9.125zm-302.885-33.071c-43.782 43.782-43.781 114.763 0 158.544 2.52 2.52 6.606 2.52 9.126 0s2.52-6.606 0-9.126c-38.74-38.74-38.74-101.553 0-140.293 2.52-2.52 2.52-6.606 0-9.126-2.52-2.519-6.606-2.519-9.126.001z" fill-rule="evenodd"/></svg>