
<svg xmlns="http://www.w3.org/2000/svg" version="1.1" viewBox="0 0 384 384" fill="#775D42">
  <path d="M201,0c4.89,1.22,10.09,1.51,15.03,2.6,65.46,14.49,100.71,87.2,73.37,148.42-6.17,13.81-17.1,25.59-23.2,38.31-.35.72-.94,1.21-.65,2.2l61.37,35.44,57.09,149.53v7.5h-7.5l-91.13-51.47-91.12,51.47h-4.5l-91.13-51.49L7.5,384H0v-7.5l57.09-149.53,3.91-2.84,57.46-32.6c.29-.99-.3-1.47-.65-2.2-4.58-9.54-13.61-20.04-18.94-29.82-34.13-62.74-1.4-138.03,66.72-156.29l17.41-3.22h18ZM187.76,279.49c4.26,3.47,6.85,1.74,9.82-2.04,23.5-39.77,50.96-77.96,74.24-117.76,26.43-45.2,19.34-99.58-24.39-130.73C166.88-28.4,62.81,60.55,106.1,149.27l81.66,130.22ZM186,368.25v-77.25l-7.07-4.56-48.82-77.19c-1.78-.33-.9.81-1.13,1.84-2.87,13.18-5.65,26.38-8.43,39.58-2.71,6.19-11.34,3.96-11.01-2.69l8.58-43.24-51.94,29.43-49.69,131.05,76.85-42.76,11.84-53.41c2.1-5.68,9.16-4.91,10.93.73l-11.11,53.4,80.98,45.05ZM317.78,234.22l-52.27-29.47,24.55,116.82,1.42,1.58,76.02,42.1-49.72-131.03ZM198,291v77.25l81.03-45.44-24.03-113.56-2.12,1.25-47.81,75.94-7.07,4.56Z"/>
  <path d="M185.85,45.22c54.13-5.04,88.29,57.02,54.89,99.89-27.03,34.68-81.66,30.29-102.86-8.11-21.4-38.76,3.97-87.68,47.98-91.78ZM186.6,56.47c-64.78,6.6-56.43,106.06,9.52,101.02,66.26-5.07,58.26-107.93-9.52-101.02Z"/>
  <path d="M187.33,67.71c52.95-5.97,59.76,74.39,8.03,78.53-51.22,4.1-58.15-72.88-8.03-78.53ZM188.07,78.94c-35.73,4.84-29.38,60.09,7.23,55.97s30.19-61.04-7.23-55.97Z"/>
</svg>