<svg id="Layer_1" enable-background="new 0 0 419.502 143.312" height="512" viewBox="0 0 419.502 143.312" width="512" xmlns="http://www.w3.org/2000/svg"><g><path fill="#775D42" d="m119.179 54.114c-7.588 0-14.386-3.429-18.939-8.814-5.521.814-11.284 2.36-11.858 4.718l-13.392 55.004 8.441 3.145c2.578.96 4.628 2.868 5.772 5.37.066.145.117.295.177.442l4.349-17.41h-6.248v-12.406h155.855c1.515-1.093 3.288-1.791 5.195-2.004 2.315-.261 5.555-.774 8.522-1.423h-113.293v-.5-2.392h7.069c.031-.061.063-.122.095-.184 1.371-2.658 2.941-5.345 4.667-8.141 1.55 1.186 2.994 2.356 4.25 3.446.604.526 1.286.952 2.017 1.275 2.305-1.389 4.927-2.129 7.628-2.129 2.859 0 5.64.821 8.041 2.374l4.141 2.679v-7.246h8v7.925h28.5v-7.925h-8v4.518l-41.009-14.553c-4.622-3.879-17.394-13.898-29.299-16.903-4.444 6.703-12.053 11.134-20.681 11.134z"/><path fill="#775D42" d="m240.149 128.346c-.384 1.127-.893 2.228-1.568 3.272-.861 1.331-1.911 2.492-3.102 3.46h15.318l-2.491-.75c-3.44-1.034-6.253-3.205-8.157-5.982z"/><path fill="#775D42" d="m233.379 110.624.816.528c1.617 1.047 2.952 2.364 4.005 3.846.518-1.603 1.285-3.071 2.247-4.374z"/><path fill="#775D42" d="m160.33 110.624-9.865 6.474c.068.227-.603-.482-1.869-1.524l7.542-4.95h-50.667v18.694c2.223 3.461 6.098 5.76 10.516 5.76h100.696l-37.792-24.454z"/><path fill="#775D42" d="m178.484 77.844-2.206-1.427c-4.158-2.689-9.511-2.673-13.649.044l-2.107 1.383z"/><path fill="#775D42" d="m237.523 118.403c-.955-2.103-2.494-3.971-4.577-5.32l-3.801-2.459h-46.02l36.238 23.448c2.1 1.358 4.452 2.007 6.779 2.007 4.099 0 8.114-2.014 10.507-5.711 1.028-1.59 1.636-3.326 1.877-5.086-.846-2.146-1.21-4.492-1.003-6.879z"/><circle cx="119.179" cy="29.314" r="22.5"/><path fill="#775D42" d="m223.835 69.919h8v7.925h-8z"/><path fill="#775D42" d="m234.169 69.919h8v7.925h-8z"/><path fill="#775D42" d="m223.835 60.294h8v8h-8z"/><ellipse fill="#775D42" cx="45.209" cy="22.502" rx="22.5" ry="22.5" transform="matrix(.994 -.108 .108 .994 -2.165 5.013)"/><path fill="#775D42" d="m25.916 138.975h52.504c6.19 0 11.448-4.531 12.363-10.653.362-2.426-.01-4.808-.949-6.918-.066-.148-.132-.296-.204-.442-.049.151-.088.303-.144.453-1.494 4.011-5.373 6.706-9.652 6.706-1.227 0-2.436-.218-3.595-.649l-34.667-12.917c-2.466-.918-4.467-2.723-5.635-5.081l-17.333-35c-1.221-2.465-1.408-5.259-.528-7.865.88-2.607 2.722-4.715 5.188-5.936 1.436-.711 2.972-1.072 4.565-1.072 3.946 0 7.485 2.196 9.236 5.731l5.736 11.583c.294-1.182.581-2.343.849-3.453 3.301-9.818.071-21.883-8.363-24.381-8.436-2.5-21.002 1.592-26.672 16.001-7.678 19.857-9.713 32.911-8.1 55.218 2.423 16.223 13.375 18.355 22.536 18.639 1.018.031 1.97.048 2.865.036z"/><path fill="#775D42" d="m24.284 62.734c-3.959 1.96-5.579 6.76-3.618 10.719l17.333 35c.903 1.824 2.468 3.235 4.376 3.946l34.667 12.917c.921.343 1.864.505 2.792.505 3.245 0 6.298-1.989 7.497-5.209 1.543-4.14-.563-8.747-4.703-10.29l-31.697-11.81-15.927-32.16c-1.961-3.96-6.76-5.58-10.72-3.618z"/><ellipse fill="#775D42" cx="374.292" cy="22.502" rx="22.5" ry="22.5" transform="matrix(.108 -.994 .994 .108 311.511 392.177)"/><path fill="#775D42" d="m388.165 56.267c4.396 0 8.31 2.793 9.74 6.949 1.848 5.371-1.018 11.244-6.387 13.092l-13.79 4.747c1.526 6.156 3.162 13.001 4.327 20.035-.709.088-1.421.225-2.128.442l-21.011 6.422c2.517 2.081 4.37 4.974 5.147 8.372 1.781 7.792-2.818 15.7-10.473 18.002l-13.659 4.11v.485c.379.035.762.052 1.148.052h52.504c.895.012 1.847-.005 2.865-.036 9.161-.283 20.113-2.416 22.536-18.639 1.613-22.307-.422-35.361-8.101-55.219-5.67-14.409-18.235-18.501-26.672-16.001-4.704 1.393-7.785 5.765-9.021 11.061l9.62-3.311c1.089-.373 2.217-.563 3.355-.563z"/><path fill="#775D42" d="m349.366 86.577 1.912.255c.352.047.705.07 1.058.07.884 0 1.764-.146 2.604-.436l35.831-12.333c4.178-1.438 6.398-5.991 4.961-10.168-1.438-4.179-5.993-6.396-10.168-4.96l-34.044 11.718-4.672-.623c.954 4.437 1.763 9.288 2.41 14.613.075.626.106 1.247.108 1.864z"/><path fill="#775D42" d="m336.934 102.372c-1.024.391-2.115.746-3.266 1.067l.196 3.278 3.07-.487z"/><path fill="#775D42" d="m97.382 138.929h4.763v-31.305h141.246c2.585-1.99 5.812-3.151 9.291-3.151.801 0 1.611.064 2.407.191l18.629 2.955-.547-9.165c-6.997 3.64-18.735 5.182-22.191 5.568-.404.045-.82.069-1.234.069-5.603 0-10.298-4.203-10.922-9.776-.284-2.535.306-5.034 1.666-7.151h-150.009v6.406h6.902z"/><path fill="#775D42" d="m280.085 38.585c.254-.015.5-.022.735-.023l34.192-2.042c.08-.204.161-.408.235-.615 1.003-2.785 1.473-5.815 1.285-8.957-.741-12.405-11.397-21.86-23.801-21.119-12.406.741-21.86 11.396-21.119 23.801.213 3.568 1.25 6.89 2.909 9.797.104.183.211.364.32.543 1.939-.933 3.752-1.296 5.244-1.385z"/><path fill="#775D42" d="m248.865 85.14c-4.391.492-7.552 4.45-7.06 8.84.458 4.089 3.921 7.11 7.94 7.11.297 0 .598-.016.9-.05 2.386-.267 14.625-1.779 21.299-5.326l1.806-.96-1.131-18.942c.761-.224 1.486-.546 2.146-.976l2.169 36.329-22.319-3.54c-6.367-1.013-12.424 3.085-13.86 9.368-1.437 6.283 2.24 12.604 8.412 14.461l37.666 11.333c1.177.354 2.365.523 3.534.523 3.361 0 6.56-1.396 8.848-3.784.411.055.826.088 1.247.102.063.003.125-.002.188 0 .272.004.543.011.818-.003.407-.014.81-.048 1.208-.102 2.288 2.39 5.488 3.787 8.85 3.787 1.169 0 2.357-.169 3.534-.523l37.667-11.333c6.172-1.857 9.849-8.178 8.412-14.461-1.437-6.282-7.502-10.38-13.86-9.368l-16.213 2.572-2.401-40.216 2.196-.131 1.836 30.741c4.132-1.131 7.834-2.855 10.266-5.464 2.589-2.776 3.767-6.346 3.316-10.053-2.845-23.418-8.542-37.688-17.417-43.627-4.077-2.729-7.739-2.969-9.945-2.757l-38.023 2.27c-4.649-.007-14.019 2.986-18.341 25.685-.002.008-.002.016-.003.024-.9 4.728-1.579 10.198-2.027 16.313-3.628.985-8.42 1.792-11.658 2.158z"/></g></svg>