
<svg version="1.1" id="Layer_1" xmlns="http://www.w3.org/2000/svg" xmlns:xlink="http://www.w3.org/1999/xlink" x="0px" y="0px"
	 viewBox="0 0 100 100" style="enable-background:new 0 0 100 100;" xml:space="preserve">
<style type="text/css">
	.st0{fill:#775d42;}
</style>
<g>
	<path class="st0" d="M48.8,42.7L59.1,46h0.2c0.3,0,0.7-0.2,0.8-0.6c0.1-0.4-0.1-0.9-0.5-1L49,41c-0.1-0.3-0.2-0.6-0.3-0.9
		c-0.8-1.3-2.5-1.8-3.8-1c-0.2,0.1-0.4,0.2-0.6,0.4l-10.8-3.4c-0.6-0.8-1.3-1.7-1.9-2.5c-0.2-0.3-0.9-1-1.8-1.3
		c-1.7-0.5-5.6-1.6-6.3-1.8c-0.8-0.2-1.7-0.2-2.4,0.3c-0.5,0.3-0.9,0.6-1.4,0.9l-7.1-2.2c-0.4-1.2-1.4-2-2.7-2
		c-1.5,0-2.7,1.3-2.7,2.8c0.1,2.5,0.3,7.1,1.3,8.9c0.5,0.9,1.3,1.5,2.2,1.7c0.3,0.1,0.6,0.1,1,0.1c1.4,0,3.4-0.6,5.8-1.8
		c-0.9,4-1.4,8.9-1.1,12.7c0,0.2,0,0.5,0.1,0.7c0,1.3,0.4,2.7,0.7,3.7c0.1,0.4,0.3,0.9,0.3,1.1c0.5,2.3,0.8,6.7,0.5,7.9
		c-0.5,1.9-2.8,13.9-2.9,14.4c-0.3,1.7,0.8,3.3,2.5,3.7c0.2,0,0.4,0.1,0.6,0.1c1.5,0,2.8-1,3.1-2.5c0.7-3.4,2.5-12.7,2.8-14.1
		c0.4-1.7,0.3-4.7,0.1-7.3c1.3,2.4,2.4,4.6,2.6,5.3c0.2,1.3,0.7,8.9,1.1,15.7c0.1,1.7,1.6,3.1,3.3,3c1.7-0.1,3-1.6,3-3.3
		C34,75.7,33.4,65.2,33,63.5c-0.4-1.6-2.9-6.4-4.7-9.7L31,41.7c2.2,2.8,3.9,4.4,5,4.8c0.8,0.3,1.7,0.5,2.7,0.5c3.9,0,8.3-2.4,9.3-3
		C48.2,43.7,48.6,43.2,48.8,42.7 M12.8,31.2l5.1,1.6c-1.8,1.1-3.6,1.9-4.7,2.4C13,34.2,12.9,32.7,12.8,31.2 M37.9,41.4
		c-0.5-0.4-1.6-1.6-2.8-3.1l6.9,2.2C40.4,41.2,38.7,41.6,37.9,41.4"/>
	<path class="st0" d="M23.1,21.7c0.8-3.6,4.4-5.9,8-5.1c3.6,0.8,5.9,4.4,5.1,8c-0.8,3.6-4.4,5.9-8,5.1
		C24.6,28.9,22.3,25.3,23.1,21.7"/>
	<path class="st0" d="M91.9,51.1H78.3c0.3-0.3,0.5-0.7,0.5-1.2c0-1-0.8-1.7-1.7-1.7c-0.9,0-1.7,0.8-1.7,1.7c0,0.5,0.2,0.9,0.5,1.2
		h-2.4c0.3-0.3,0.5-0.7,0.5-1.2c0-1-0.8-1.7-1.7-1.7c-0.9,0-1.6,0.8-1.6,1.7c0,0.5,0.2,0.9,0.5,1.2H59.5c0.3-0.3,0.5-0.7,0.5-1.2
		c0-1-0.8-1.7-1.7-1.7c-0.9,0-1.7,0.8-1.7,1.7c0,0.5,0.2,0.9,0.5,1.2H40.5c-0.5,0-0.9,0.4-0.9,0.9v1.7c0,0.5,0.4,0.9,0.9,0.9H42v7.2
		v20.6c0,0.6,0.5,1.1,1.1,1.1h0.6c0.5,0,0.9-0.3,1-0.7l5.9-18.4h31l5.9,18.4c0.2,0.5,0.5,0.7,1,0.7h0.6c0.6,0,1.1-0.5,1.1-1.1V61.8
		v-7.2h1.5c0.5,0,0.9-0.4,0.9-0.9V52C92.8,51.6,92.4,51.1,91.9,51.1"/>
</g>
</svg>
