<svg height="512" viewBox="0 0 56 56" width="512" xmlns="http://www.w3.org/2000/svg"><g id="Page-1" fill="none" fill-rule="evenodd"><g id="028---Water-Management" fill="#775D42" fill-rule="nonzero" transform="translate(-1 -1)"><path id="Shape" d="m41.67 37c-.9493371-.0229263-1.8785774.2755442-2.637.847-2.2259503 1.5411258-5.1740497 1.5411258-7.4 0-1.5728319-1.1274197-3.6891681-1.1274197-5.262 0-1.0732583.7733994-2.3683485 1.1779616-3.691 1.153-1.3256504.0253979-2.6238329-.3794947-3.7-1.154-.7594379-.5716031-1.6897829-.8697364-2.64-.846-.9500743-.0228129-1.8802327.2744434-2.641.844-.3653455.2378234-.7469521.4496785-1.142.634.4009368.6901605.84481 1.3544672 1.329 1.989.7768088-.3240106 1.6124791-.48304 2.454-.467 1.3256504-.0253979 2.6238329.3794947 3.7 1.154 1.5730292 1.1268057 3.6889708 1.1268057 5.262 0 2.2259503-1.5411258 5.1740497-1.5411258 7.4 0 1.5728319 1.1274197 3.6891681 1.1274197 5.262 0 1.0776553-.7760742 2.3782577-1.1810647 3.706-1.154.8382389-.0155257 1.6705402.1435106 2.444.467.4841973-.6348755.9280699-1.2995154 1.329-1.99-.3961091-.1838775-.778435-.3960951-1.144-.635-.7569745-.5678154-1.6829963-.8643959-2.629-.842z"/><path id="Shape" d="m29 14.056c-1.54 1.378-6 5.787-6 10.607-.0024577 1.7336817.685133 3.3970683 1.911 4.623 1.097877 1.1121416 2.600338 1.7307383 4.163 1.714 3.3700698-.1481946 6.0032523-2.9635581 5.926-6.336 0-4.818-4.46-9.23-6-10.608zm0 14.944h-.036c-2.1982834-.0121195-3.9717545-1.8016969-3.964-4 0-.5522847.4477153-1 1-1s1 .4477153 1 1c-.0088797 1.0941997.8698195 1.9890054 1.964 2 .5557625-.0016972 1.0093293.4442879 1.017 1 .0042816.2632148-.0970839.5171699-.2814356.7050921-.1843518.1879223-.4363159.2941401-.6995644.2949079z"/><path id="Shape" d="m39.033 42.847c-2.2259503 1.5411258-5.1740497 1.5411258-7.4 0-1.5728319-1.1274197-3.6891681-1.1274197-5.262 0-1.0732583.7733994-2.3683485 1.1779616-3.691 1.153-1.3256504.0253979-2.6238329-.3794947-3.7-1.154-.7594379-.5716031-1.6897829-.8697364-2.64-.846-.3540005-.0016095-.7070035.0376503-1.052.117 3.5718916 3.7571636 8.5289198 5.8842108 13.713 5.8842108s10.1411084-2.1270472 13.713-5.8842108c-.3423184-.0791606-.6926508-.1184219-1.044-.117-.9493371-.0229263-1.8785774.2755442-2.637.847z"/><path id="Shape" d="m53.358 25.292c-.3992049-.0799834-.7100632-.3940056-.786-.794-.6062456-3.219104-1.8721241-6.2779131-3.718-8.984-.2295936-.3366384-.2319672-.7789167-.006-1.118l1.726-2.59c-.3708938-.9998594-.9797815-1.89431326-1.774-2.606-.7117242-.79553276-1.6079903-1.40403217-2.61-1.772l-2.59 1.724c-.337862.22777646-.780138.22777646-1.118 0-2.70486-1.84799983-5.7630495-3.11594659-8.982-3.724-.3999944-.0759368-.7140166-.38679511-.794-.786l-.606-3.056c-.9704738-.44398764-2.0344248-.64510869-3.1-.586-1.0661493-.05998849-2.1307032.14296354-3.1.591l-.61 3.051c-.0799834.39920489-.3940056.7100632-.794.786-3.2189151.60640285-6.2774317 1.87264167-8.983 3.719-.337862.22777646-.780138.22777646-1.118 0l-2.59-1.727c-.9999871.37300575-1.89408411.98394346-2.605 1.78-.7951685.71183759-1.40331797 1.608094-1.771 2.61l1.723 2.59c.22596721.3390833.22359362.7813616-.006 1.118-1.84562278 2.7054896-3.11149098 5.7635929-3.718 8.982-.0759368.3999944-.38679511.7140166-.786.794l-3.056.61c-.44334812.9692604-.64445433 2.0317602-.586 3.096-.06019426 1.0661629.1427672 2.1307662.591 3.1l3.051.61c.39920489.0799834.7100632.3940056.786.794.60624556 3.219104 1.87212407 6.2779131 3.718 8.984.22959362.3366384.23196721.7789167.006 1.118l-1.726 2.59c.37118001.9991387.98004868 1.8928783 1.774 2.604.7113289.7957622 1.607247 1.4046019 2.609 1.773l2.591-1.725c.3388799-.2262682.7811575-.2242902 1.118.005 2.7052697 1.8462317 5.7634334 3.1124654 8.982 3.719.3999944.0759368.7140166.3867951.794.786l.611 3.056c.9689571.4431884 2.031094.6442909 3.095.586 1.0661493.0599885 2.1307032-.1429635 3.1-.591l.61-3.051c.0799834-.3992049.3940056-.7100632.794-.786 3.2189151-.6064028 6.2774317-1.8726417 8.983-3.719.3368425-.2292902.7791201-.2312682 1.118-.005l2.59 1.727c.9994721-.3715746 1.8935218-.9807639 2.605-1.775.7953979-.7114423 1.4038877-1.6073507 1.772-2.609l-1.724-2.591c-.2259672-.3390833-.2235936-.7813616.006-1.118 1.8456228-2.7054896 3.111491-5.7635929 3.718-8.982.0759368-.3999944.3867951-.7140166.786-.794l3.051-.61c.4475866-.9680229.6505328-2.0311724.591-3.096.0601943-1.0661629-.1427672-2.1307662-.591-3.1zm-5.522 12.934c-.0290375.0931754-.0718441.1814851-.127.262-3.5647244 7.0602854-10.8003351 11.5126096-18.7095 11.5126096s-15.1447756-4.4523242-18.7095-11.5126096c-.053367-.0786028-.0951294-.1644852-.124-.255-3.80927882-7.7678308-2.46202816-17.0771433 3.3931695-23.4463238 5.8551976-6.36918052 15.0185611-8.49312828 23.0787382-5.34934956 8.0601771 3.14377876 13.3655672 10.91109616 13.3620923 19.56267336-.003096 3.2007282-.7435807 6.3577114-2.164 9.226z"/><path id="Shape" d="m29 10c-6.4301503-.00992324-12.4276324 3.2380009-15.9331576 8.628569-3.50552531 5.3905681-4.04185757 12.1899173-1.4248424 18.063431.3456119-.152114.6777876-.3330879.993-.541 1.0784016-.7734947 2.3781414-1.1772735 3.705-1.151 1.3256504-.0253979 2.6238329.3794947 3.7 1.154 1.5730292 1.1268057 3.6889708 1.1268057 5.262 0 2.2259503-1.5411258 5.1740497-1.5411258 7.4 0 1.5728319 1.1274197 3.6891681 1.1274197 5.262 0 2.2257804-1.5394801 5.171726-1.5418687 7.4-.006.3155388.2082366.648046.3895433.994.542 2.6161143-5.8733162 2.0793235-12.6719848-1.4260881-18.0619743-3.5054117-5.3899895-9.5023081-8.63764592-15.9319119-8.6280257zm.1 23h-.1c-2.0646142-.0040398-4.0430477-.8281473-5.5-2.291-1.6031531-1.6033782-2.5026169-3.7786415-2.5-6.046 0-5.613 4.741-10.4 6.78-12.2.6975671-.6136987 1.7424329-.6136987 2.44 0 2.039 1.8 6.78 6.589 6.78 12.2.0733128 4.4654405-3.4370806 8.1700164-7.9 8.337z"/></g></g></svg>