<svg id="Pond" enable-background="new 0 0 400 400" height="512" viewBox="0 0 400 400" width="512" xmlns="http://www.w3.org/2000/svg" fill="#775D42"><path d="m388.537 333.394v.156c-.013 7.278-6.174 13.195-13.735 13.195h-47.796c-.672 0-1.298-.34-1.663-.905-.365-.564-.419-1.274-.143-1.887.773-1.717 1.185-3.625 1.195-5.516v-.104c0-15.559-10.036-29.983-24.975-35.892-.622-.246-1.077-.788-1.212-1.444-.134-.655.071-1.333.545-1.804 9.588-9.502 22.957-14.952 36.678-14.952 28.18-.001 51.106 22.049 51.106 49.153zm-102.252-28.312c-19.101 0-34.64 14.915-34.64 33.25v.172c.014 4.55 3.909 8.251 8.683 8.251h51.874c4.775 0 8.669-3.729 8.682-8.319v-.104c-.001-18.335-15.522-33.25-34.599-33.25zm-150.127-178.868-.176 2.674c-.449 7.226-.555 14.403-.325 21.939.016.538.251 1.046.65 1.407.365.331.84.513 1.329.513.044 0 .089-.001.134-.004 4.133-.281 8.711-.521 13.993-.734.923-.037 1.698-.708 1.867-1.616 3.398-18.244 8.539-32.534 11.941-41.991l.069-.192c.935-2.605 1.996-5.557 2.698-7.816.221-.714.022-1.492-.515-2.011-.376-.363-.871-.556-1.377-.556-.218 0-.438.036-.651.11-2.557.891-15.989 6.396-29.332 27.345-.178.279-.284.6-.305.932zm-80.51-15.071.128.396c3.685 11.149 9.255 27.997 12.727 49.81.088.556.41 1.049.884 1.354.323.208.695.315 1.072.315.176 0 .353-.024.526-.071 3.308-.913 6.838-1.792 10.49-2.613.833-.187 1.453-.888 1.536-1.738.891-9.024 2.212-17.698 3.93-25.782.103-.486.02-.993-.234-1.42-10.342-17.462-22.736-27.132-30.885-30.359-.236-.094-.483-.139-.729-.139-.484 0-.962.178-1.333.515-.559.509-.78 1.291-.569 2.017.642 2.205 1.568 5.027 2.457 7.715zm35.135 47.269c.12 0 .242-.011.363-.033 11.343-2.114 23.861-3.767 37.207-4.912 1.05-.09 1.845-.986 1.81-2.039-.111-3.323-.155-6.307-.134-9.131.011-4.411.163-9.039.452-13.739.114-1.645.228-3.258.351-4.869 1.735-22.238 5.528-40.952 8.037-53.334 1.138-5.58 2.284-11.328 2.703-14.896.087-.737-.246-1.46-.861-1.874-.333-.224-.719-.337-1.106-.337-.328 0-.657.081-.954.245-10.426 5.736-31.163 26.145-42.748 66.255-1.119 3.87-2.048 7.457-2.838 10.957-.949 4.118-1.791 8.367-2.503 12.629-.659 3.922-1.231 8.136-1.749 12.885-.068.623.163 1.241.622 1.667.371.34.853.526 1.348.526zm155.578 175.868c-.101.929-.836 1.661-1.765 1.757-15.713 1.624-32.147 2.647-48.846 3.039-4.61.108-9.231.162-13.736.162-66.105 0-108.284-11.604-132.028-21.338-30.902-12.661-49.587-30.15-49.98-46.781-.402-16.636 19.366-28.005 35.25-37.14 11.216-6.45 20.076-11.546 21.685-17.882 1.873-7.387-4.019-11.077-12.546-15.482-5.341-2.716-9.476-5.017-10.214-7.874-.375-1.427.135-3.171 1.564-5.325 9.791-14.605 50.004-25.856 104.95-29.371 11.243-.718 22.874-1.083 34.57-1.083 47.944 0 94.819 5.968 131.992 16.804 41.71 12.126 91.658 36.245 92.734 82.28.316 13.021-7.106 25.964-21.462 37.427-.363.29-.8.433-1.236.433-.475 0-.949-.17-1.324-.508-10.524-9.46-24.209-14.671-38.536-14.671-17.227 0-33.326 7.465-44.169 20.483-.379.454-.938.713-1.522.713-.081 0-.162-.005-.245-.015-1.798-.223-3.552-.336-5.213-.336-20.28-.001-37.817 15.245-39.923 34.708zm27.629-106.419c0 1.517 1.234 2.751 2.751 2.751h23.81c1.517 0 2.751-1.234 2.751-2.751 0-1.522-1.234-2.76-2.751-2.76h-23.81c-1.518 0-2.751 1.238-2.751 2.76zm-79.523-7.719c0 1.523 1.239 2.761 2.761 2.761h23.8c1.522 0 2.76-1.239 2.76-2.761 0-1.517-1.239-2.751-2.76-2.751h-23.8c-1.522.001-2.761 1.234-2.761 2.751zm-40.565-25.791c0 1.522 1.234 2.761 2.75 2.761h23.8c1.523 0 2.761-1.239 2.761-2.761 0-1.517-1.239-2.751-2.761-2.751h-23.8c-1.516 0-2.75 1.234-2.75 2.751zm71.422 91.869c0-16.288-31.65-26.022-62.25-26.022s-62.25 9.734-62.25 26.022c0 16.281 31.651 26.01 62.25 26.01s62.25-9.729 62.25-26.01zm43.012-85.86c1.517 0 2.751-1.234 2.751-2.751 0-1.522-1.234-2.761-2.751-2.761h-23.81c-1.517 0-2.751 1.239-2.751 2.761 0 1.517 1.234 2.751 2.751 2.751zm-105.262 65.35c-30.225 0-56.738 9.584-56.738 20.51 0 10.92 26.513 20.499 56.738 20.499s56.738-9.579 56.738-20.499c.001-10.926-26.513-20.51-56.738-20.51z" /></svg>