
<svg xmlns="http://www.w3.org/2000/svg" version="1.1" viewBox="0 0 48 48" fill="#775D42">
  <rect x="24.1" y="10.62" width="2.15" height="1.07"/>
  <path d="M45.78,20.63c-.27-.64-1.69-.14-2.2-.42-.1-.06-1.38-1.72-1.38-1.84v-6.67h3.22c-.08-.64.18-1.52-.14-2.08-.13-.23-3.14-2.55-3.46-2.67L15.36,1.02c-.9.2-1.74-.24-2.37.56-.54.68-3.11,5.23-3.41,5.33-.16.05-1.68.09-1.74.03-.16-.17.41-1.37-.7-1.52-1.14-.16-4.19-.14-5.36-.01-.28.03-.63.05-.74.34l.06,10.62c.12.23.3.23.52.25,1.2.14,4.17.12,5.38,0,.31-.03.84-.15.84-.54v-4.37h1.53v30.99c-1.09-.13-3.22-.09-3.22,1.46v2.84h12.58v-2.99s-.32-.76-.39-.84c-.59-.7-2.01-.41-2.83-.47V11.69h6.14v-1.07H7.84v-2.61h33.67c.16,0,2.47,1.81,2.62,1.98.17.21.27.33.22.62h-15.65v1.07h12.43v6.67c0,.12-1.31,1.82-1.41,1.88-.36.21-1.81-.22-2.13.29-.23.37-.23,3.58,0,3.94.15.24.59.24.85.26,1.72.14,4.57.12,6.3,0,.42-.03.94.04,1.08-.45.14-.51.15-3.23-.03-3.66ZM6.77,15.53H2.01V6.48h4.76v9.05ZM17.43,43.76c.35,0,.35,2.3,0,2.3H7.46c-.39,0-.25-1.94-.08-2.3h10.05ZM13.21,31.24c-.03-.47.88-1.66,1.23-2.06v3.99c-.34-.3-1.2-1.54-1.23-1.93ZM14.44,37.16v3.99l-1.33-1.92,1.33-2.07ZM12.6,22.12c-.14.11-2-2.74-1.99-2.99.02-.56,1.55-2.13,1.68-2.84.23-.06.25.03.37.16.21.21,1.61,2.49,1.61,2.68,0,.64-1.58,2.2-1.68,2.99ZM14.44,21.2v3.99l-1.33-2.07,1.33-1.92ZM12.52,24.27c.38.18,1.41,2.41,1.87,2.84,0,.17-1.54,2.63-1.72,2.83-.13.14-.15.21-.37.16-.08-.75-1.7-2.4-1.68-2.99,0-.24,1.38-2.28,1.64-2.64.05-.08.03-.31.27-.19ZM12.59,32.25c.43,1.05,1.35,1.92,1.7,2.98-.01.16-1.45,2.5-1.62,2.69-.1.11-.23.26-.37.16-.14-.1-1.46-2.57-1.66-2.97l1.65-2.77.31-.09ZM12.59,40.23l1.38,2.45h-3.07c.13-.25,1.48-2.59,1.68-2.45ZM14.44,17.22l-1.33-2.07,1.33-1.92v3.99ZM13.98,11.69c-.14.33-1.31,2.26-1.46,2.3-.29.07-1.36-1.96-1.61-2.3h3.07ZM10.45,13.07l1.33,2.07-1.33,2.07v-4.14ZM10.45,21.05l1.35,2.1-1.35,2.05v-4.14ZM10.45,29.18c.3.28,1.31,1.67,1.36,1.95.03.17-1.05,1.85-1.36,2.04v-3.99ZM10.45,37.16c.29.2,1.37,1.89,1.35,2.05-.03.3-1.06,1.65-1.35,1.94v-3.99ZM14.44,6.94h-3.53l2.91-4.68.62-.23v4.91ZM15.51,6.94V2.34l20.86,4.6H15.51ZM41.67,19.52l.54.76c-1.06.04-1.52.11-.54-.76ZM44.81,23.66h-6.29v-2.3h6.29v2.3Z"/>
  <path d="M43.28,32.25v-2.3h-1.07v2.3h-2.15v-3.84h-1.07v3.84h-2.91v-2.3h-1.07v2.3h-1.99v-4.76h-3.99v-2.76h-1.07v2.76h-2.15v-4.3h-1.07v4.3h-3.68v19.48h25.93v-14.73h-3.68ZM25.79,28.64h2.15v3.61h-2.15v-3.61ZM45.89,45.83s-.21.23-.23.23h-23.32s-.23-.21-.23-.23v-17.41h2.61v4.91h4.3v-4.91h2.91v4.91h13.96v12.5Z"/>
  <path d="M43.05,36.85h-3.84s-.23.21-.23.23v5.75h4.3v-5.75s-.21-.23-.23-.23ZM42.2,41.76h-2.15v-3.84h2.15v3.84Z"/>
  <path d="M28.78,36.85h-3.84c-.05.08-.23.19-.23.23v5.52s.21.23.23.23h3.84s.23-.21.23-.23v-5.52s-.21-.23-.23-.23ZM27.94,41.76h-2.15v-3.84h2.15v3.84Z"/>
  <path d="M31.93,36.85v5.98h4.14v-5.98h-4.14ZM34.99,41.76h-1.99v-3.84h1.99v3.84Z"/>
</svg>