
<svg id="Layer_1" xmlns="http://www.w3.org/2000/svg" version="1.1" viewBox="0 0 384 384" fill="#775D42">
  <path d="M114.75,293.26l13.4,15.46c1.14,1.84,1.2,4.14.28,6.09l-29.44,26.05c-4.35,1.69-5.99-.61-8.62-3.35-28.12-29.21-53.09-63.34-81.35-92.65-2.46-3.2-4.11-5.78-1.09-9.3l29.54-25.25c.81-.36,1.61-.35,2.47-.19,4.41.81,20.33,23.12,21.93,23.12,27.9-28.48,77.85-67.69,118.82-42.3,2.44,1.51,7.63,6.46,9.59,6.91,5.66,1.28,24.73.77,32.06.94,14.17.33,27.47-4.21,36.27,10.23.86,1.41,1.89,5.84,3.51,5.48l57.9-45.61c15.05-10.24,33.86-11.16,48.92-.45,4.48,3.19,12.1,9.48,6.83,14.95l-119.84,110.41c-2.78,1.26-4.6.12-7.26.16-44.6.66-89.41.03-133.91-.7ZM364.5,177.76c-16.16-10.83-28.82-7.07-43.42,3.44-20.18,14.54-39.51,31.41-58.74,47.01-5.97,26.67-41.37,18.88-61.68,18.51-11.87-.22-23.79.55-35.64-.36-4.52-3.07-3.42-8.95,1.91-10.07,22.92-1.87,47.86,2.68,70.48.73,9.23-.79,15.54-5.37,14.51-15.32-.7-6.78-5.16-12.94-12.36-13.14-8.72-.25-18.05.08-26.9-.1-7.21-.14-19.97,1.22-26.26.01-1.63-.31-6.45-5.25-8.39-6.61-37.31-25.99-82.17,13.4-108.65,38.11l-.26,1.75,36.44,40.86c48.58,1.22,97.27,1.05,145.94.75,34.88-32.32,71.13-63.97,105.54-96.96,1.22-1.17,8.2-7.6,7.48-8.62ZM96.01,328.5l1.08-.02c2.29-2.39,19.41-15.77,19.11-17.49l-77.57-88.22-19.04,16.97.26.98,76.17,87.79Z"/>
  <path d="M243.77,63.75c5.51-3.24,22.02-12.91,27.93-11.88,3.27.57,7.63,10.42,8.94,13.62,2.24,5.48,3.71,11.29,5.12,17.02,7.42-1.82,26.45-4.27,32.95-1.09,4.03,1.97,3.94,14.48,3.78,18.71-1.42,38.15-29.48,73.11-66.74,81.76-14.16,3.29-28.17,2.02-42.39,2.62-47.57,1.99-89.35-35.11-91.9-82.84-.2-3.69-.12-17.63,2.49-19.69,4.83-3.8,26.22-.98,32.79-.21.37-5.96,2.71-12.33,5.12-17.76,1.22-2.75,4.31-10.2,7.29-10.74,6.2-1.13,23.71,7.98,29.22,11.92,4.69-5.96,9.18-12.21,14.98-17.19,8.51-7.31,9.38-6.8,17.66.38,4.78,4.15,9.65,9.84,12.76,15.38ZM222.74,140.25c.32-.33,2.06-7,2.88-8.76,4.28-9.2,10.7-18.48,17.72-25.78,1.16-1.2,3.42-2.1,4.24-3.32,1.2-1.78-2.14-12.35-3.07-15.04-4.27-12.29-12.44-24.62-22.78-32.56-13.87,11.85-22.78,28.15-25.92,46.13,4.13,5.12,9.26,9.57,13.3,15.08,5.95,8.13,7.8,14.77,12.07,23.17.29.57.29,2.4,1.56,1.07ZM268.43,63.81c-1.73-1.27-15.96,7.26-18.64,8.26l7.47,22.44c5.63-3.9,11.99-6.17,17.94-9.48-.59-7.52-4.01-14.35-6.77-21.21ZM186.74,94.5c.78-6.94,3.68-13.66,6.67-19.89-.12-1.41-18.76-10.64-20.19-9.78-3.41,6.14-5.28,13.04-6.7,19.87,7.14,2.4,13.76,6.02,20.22,9.81ZM215.25,173.25v-14.62c0-30.54-38.21-67.88-68.62-67.88h-13.5c-1.65,0-1.23,9.11-1.12,10.87,2.62,42.12,40.9,76.33,83.24,71.63ZM311.25,90.75h-13.88c-29.96,0-68.62,36.92-68.62,67.12v15c0,2.25,14.57.59,16.78.28,39.24-5.49,70.26-42.44,65.72-82.41Z"/>
</svg>