<svg id="Layer_1" height="512" viewBox="0 0 512 512" width="512" xmlns="http://www.w3.org/2000/svg" data-name="Layer 1" fill="#775D42"><path d="m351.674 401.144a256.222 256.222 0 0 0 29.245-111.1h-115.947v99.271a369.918 369.918 0 0 1 86.7 11.825zm-303.228-179.412a7.967 7.967 0 1 1 -15.875-1.374 225.4 225.4 0 0 1 129.68-184.092l-12.275-2.123a7.988 7.988 0 0 1 2.687-15.749l40.649 7.03a8 8 0 0 1 5.3 12.316l-19.623 31.441a7.987 7.987 0 1 1 -13.563-8.437l7.326-11.739a209.585 209.585 0 0 0 -124.306 172.727zm166.562-69.674h20.01a5.01 5.01 0 0 1 5 5v98.205a5.01 5.01 0 0 1 -5 5h-20.01a5.01 5.01 0 0 1 -5-5v-98.205a5.01 5.01 0 0 1 5-5zm-63.919 50.632a5.009 5.009 0 0 0 -5 5v47.574a5.01 5.01 0 0 0 5 5h20.011a5.01 5.01 0 0 0 5-5v-47.575a5.009 5.009 0 0 0 -5-5zm191.758-90h20.011a5.01 5.01 0 0 1 5 5v137.573a5.01 5.01 0 0 1 -5 5h-20.011a5.01 5.01 0 0 1 -5-5v-137.571a5.01 5.01 0 0 1 5-5zm-63.92 59.833h20.011a5.01 5.01 0 0 1 5 5v77.738a5.01 5.01 0 0 1 -5 5h-20.011a5.01 5.01 0 0 1 -5-5v-77.736a5.01 5.01 0 0 1 5-5zm44.1-98.643 3.172-.011-38.829 35.331-59.2-25.456-.012.027a7.956 7.956 0 0 0 -7.956.973l-63.92 48.534a7.962 7.962 0 0 0 9.625 12.687l60.2-45.708 59.674 25.66a7.994 7.994 0 0 0 8.811-1.692l39.8-36.2a7.992 7.992 0 0 0 15.739 2.767l4.61-23.432a7.974 7.974 0 0 0 -7.822-9.5l-23.882.087a7.969 7.969 0 0 0 0 15.937zm140.565 59.886-2.122 12.272a225.353 225.353 0 0 0 -204.5-130.633 8 8 0 0 0 0 16 209.432 209.432 0 0 1 191.765 125.14l-11.741-7.327a7.987 7.987 0 1 0 -8.437 13.563l31.443 19.619a8 8 0 0 0 12.316-5.3l7.03-40.649a7.989 7.989 0 0 0 -15.75-2.687zm-330.566 156.282a256.221 256.221 0 0 0 29.244 111.1 369.971 369.971 0 0 1 86.7-11.825v-99.275zm37.414 125.483a255.921 255.921 0 0 0 78.532 80.755v-90.964a356.255 356.255 0 0 0 -78.532 10.209zm51.485 81.061a216.7 216.7 0 0 1 -114.388-56.7 241.646 241.646 0 0 1 46.949-19.893 271.218 271.218 0 0 0 67.439 76.6zm-75.277-90.867a251.787 251.787 0 0 0 -50.658 22.375 216.527 216.527 0 0 1 -56.261-138.052h77.352a272.272 272.272 0 0 0 29.567 115.677zm250.215-115.677h77.324a216.52 216.52 0 0 1 -56.231 138.052 251.821 251.821 0 0 0 -50.659-22.37 272.257 272.257 0 0 0 29.566-115.677zm-37.4 129.946a271.215 271.215 0 0 1 -67.441 76.6 216.711 216.711 0 0 0 114.391-56.705 241.534 241.534 0 0 0 -46.95-19.894zm-94.487 76.292v-90.964a356.255 356.255 0 0 1 78.524 10.209 255.889 255.889 0 0 1 -78.528 80.755z" fill-rule="evenodd"/></svg>