
<svg version="1.1" id="Layer_1" xmlns="http://www.w3.org/2000/svg" xmlns:xlink="http://www.w3.org/1999/xlink" x="0px" y="0px"
	 viewBox="0 0 100 100" style="enable-background:new 0 0 100 100;" xml:space="preserve">
<style type="text/css">
	.st0{fill:#775d42;}
</style>
<g>
	<path class="st0" d="M81.4,42.2L80,43.3c7.2,2.2,11.7,5.1,11.7,8.4c0,6.6-18.6,12-41.6,12c-23,0-41.6-5.4-41.6-12
		c0-3.7,5.7-7,14.7-9.2l-1.3-1.3C11.5,44.2,4.9,48.8,4.9,54c0,9.1,20.2,16.5,45.1,16.5c24.9,0,45.1-7.4,45.1-16.5
		C95.1,49.4,89.9,45.2,81.4,42.2"/>
	<path class="st0" d="M42.5,39.8c2.5-0.1,5-0.2,7.5-0.2c4.5,0,8.9,0.2,12.9,0.6l-1.9-1.9c-0.1-0.1-0.2-0.2-0.3-0.3
		c-3.5-0.3-7.1-0.5-10.8-0.5c-1.6,0-3.2,0-4.8,0.1c-0.1,0.2-0.3,0.3-0.4,0.4L42.5,39.8z"/>
	<path class="st0" d="M29,40.1l-5.8-5.8c-0.7-0.7-1.9-0.7-2.7,0c-0.7,0.7-0.7,1.9,0,2.7l5.9,5.9v4.7c-1.1,0.1-2.1,0.3-3.1,0.5
		l0.2,0.9c0.9-0.2,1.8-0.4,2.8-0.5v3.1h9v-1.8c0.2,0,0.4,0.1,0.5,0.1l0.1-0.5c-0.2,0-0.4-0.1-0.7-0.1v-0.9c1.4,0.1,2.7,0.3,3.8,0.6
		l0.2-0.9c-1.2-0.3-2.6-0.5-4-0.6v-4.3l8.9-6.7c0.8-0.6,1-1.8,0.4-2.6c-0.6-0.8-1.8-1-2.6-0.4l-8.7,6.6H29z"/>
	<path class="st0" d="M18.3,36.5c-0.1-0.3-0.1-0.5-0.1-0.8c0-1,0.4-2,1.1-2.7c0.7-0.7,1.7-1.1,2.6-1.1c0.8,0,1.4,0.2,2,0.6
		c-0.4-1.7-1.9-3-3.7-3c-2.1,0-3.8,1.7-3.8,3.8C16.5,34.6,17.2,35.8,18.3,36.5"/>
	<path class="st0" d="M31,31.1c2.1,0,3.8,1.7,3.8,3.8c0,2.1-1.7,3.8-3.8,3.8c-2.1,0-3.8-1.7-3.8-3.8C27.2,32.8,28.9,31.1,31,31.1"/>
	<path class="st0" d="M19.7,51.3l-0.9,0c0.1,1.6,2.6,2.6,4.7,3.1l0.2-0.9C20.8,52.8,19.8,51.8,19.7,51.3"/>
	<path class="st0" d="M39.4,53.4l0.2,0.9c2.1-0.5,4.7-1.5,4.7-3.1v-0.1l-0.9,0.1C43.4,51.8,42.3,52.7,39.4,53.4"/>
	<path class="st0" d="M28.9,55.1c0.9,0.1,1.8,0.1,2.7,0.1c0.9,0,1.8,0,2.7-0.1l-0.1-0.9c-1.7,0.1-3.5,0.1-5.3,0L28.9,55.1z"/>
	<path class="st0" d="M36.1,52.5l0.1,0.5c1.2-0.3,2.7-0.9,2.7-1.8v-0.1l-0.5,0.1C38.4,51.6,37.8,52.1,36.1,52.5"/>
	<path class="st0" d="M24.7,51.3l-0.5,0c0,0.9,1.5,1.5,2.7,1.8l0.1-0.5C25.3,52.1,24.7,51.6,24.7,51.3"/>
	<path class="st0" d="M33.1,53C32.1,53,31,53,30,53l0,0.5c0.5,0,1,0,1.6,0c0.5,0,1.1,0,1.6,0L33.1,53z"/>
	<path class="st0" d="M69.4,42.9v4.7c-1.1,0.1-2.1,0.3-3.1,0.5l0.2,0.9c0.9-0.2,1.8-0.4,2.8-0.5v3.1h9v-1.8c0.2,0,0.4,0.1,0.5,0.1
		l0.1-0.5c-0.2,0-0.4-0.1-0.7-0.1v-0.9c1.4,0.1,2.7,0.3,3.8,0.6l0.2-0.9c-1.2-0.3-2.6-0.5-4-0.6v-4.3l8.9-6.7c0.8-0.6,1-1.8,0.4-2.6
		c-0.6-0.8-1.8-1-2.6-0.4l-8.7,6.6h-4.4l-5.8-5.7c-0.7-0.7-1.9-0.7-2.7,0c-0.7,0.7-0.7,1.9,0,2.7L69.4,42.9z"/>
	<path class="st0" d="M73.9,31.1c2.1,0,3.8,1.7,3.8,3.8c0,2.1-1.7,3.8-3.8,3.8c-2.1,0-3.8-1.7-3.8-3.8
		C70.1,32.8,71.8,31.1,73.9,31.1"/>
	<path class="st0" d="M62.6,51.3l-0.9,0c0.1,1.6,2.6,2.6,4.7,3.1l0.2-0.9C63.7,52.8,62.6,51.8,62.6,51.3"/>
	<path class="st0" d="M87.2,51.3v-0.1l-0.9,0.1c0,0.6-1,1.5-4,2.2l0.2,0.9C84.6,53.8,87.2,52.9,87.2,51.3"/>
	<path class="st0" d="M71.7,55.1c0.9,0.1,1.8,0.1,2.7,0.1c0.9,0,1.8,0,2.7-0.1l-0.1-0.9c-1.7,0.1-3.5,0.1-5.3,0L71.7,55.1z"/>
	<path class="st0" d="M79,52.5l0.1,0.5c1.2-0.3,2.7-0.9,2.7-1.8v-0.1l-0.5,0.1C81.3,51.6,80.7,52.1,79,52.5"/>
	<path class="st0" d="M76,53c-1,0.1-2.1,0.1-3.1,0l0,0.5c0.5,0,1,0,1.6,0c0.5,0,1.1,0,1.6,0L76,53z"/>
	<path class="st0" d="M67.6,51.3l-0.5,0c0,0.9,1.5,1.5,2.7,1.8l0.1-0.5C68.2,52.1,67.6,51.6,67.6,51.3"/>
</g>
</svg>
