<svg id="Capa_1" enable-background="new 0 0 512.001 512.001" height="512" viewBox="0 0 512.001 512.001" width="512" xmlns="http://www.w3.org/2000/svg" fill="#775D42"><g><path d="m286 286c8.291 0 15-6.709 15-15v-240c0-8.291-6.709-15-15-15h-30c-8.291 0-15 6.709-15 15v240c0 8.291 6.709 15 15 15z"/><path d="m331 106.76v152.003c17.422 6.213 30 22.707 30 42.237v102.82c-16.712 5.026-34.406 1.339-49.556-11.486-32.725-27.715-76.67-27.715-109.395 0-21.768 18.428-48.838 18.428-70.605 0-32.725-27.715-77.685-27.671-110.38-.015-4.014 3.384-8.276 6.211-12.671 8.364-7.441 3.647-10.503 12.627-6.855 20.068 3.647 7.427 12.612 10.547 20.068 6.855 6.606-3.237 12.935-7.397 18.838-12.393 21.768-18.428 49.838-18.428 71.605 0 32.725 27.715 76.67 27.715 109.395 0 21.768-18.428 48.838-18.428 70.605 0 16.363 13.859 35.523 20.787 54.698 20.787s38.335-6.929 54.697-20.786c4.788-4.054 9.862-7.059 15.051-9.329l23.959-4.14c10.959.839 22.815 5.189 32.595 13.469 5.273 4.482 11.001 8.35 17.007 11.484 7.31 3.809 16.406.996 20.244-6.357 3.823-7.339.981-16.406-6.357-20.244-4.043-2.109-7.91-4.717-11.499-7.764-3.351-2.836-6.883-5.193-10.444-7.449v-113.884c0-85.918-67.031-156.626-151-164.24z"/><path d="m15 256h196v-210h-196c-8.291 0-15 6.709-15 15v180c0 8.291 6.709 15 15 15z"/><path d="m503.943 460.097c-4.043-2.109-7.91-4.717-11.499-7.764-32.725-27.715-77.67-27.715-110.395 0-21.768 18.428-48.838 18.428-70.605 0-32.725-27.715-76.67-27.715-109.395 0-11.396 9.648-24.249 14.246-37.031 13.79-11.629-.414-23.203-5.012-33.574-13.79-32.725-27.715-77.685-27.671-110.38-.015-4.014 3.384-8.276 6.211-12.671 8.364-7.441 3.647-10.503 12.627-6.855 20.068 3.647 7.427 12.612 10.547 20.068 6.855 6.606-3.237 12.935-7.397 18.838-12.393 21.768-18.428 49.838-18.428 71.605 0 16.401 13.89 35.62 20.819 54.833 20.786 19.122-.033 38.238-6.962 54.562-20.786 21.768-18.428 48.838-18.428 70.605 0 16.363 13.86 35.523 20.788 54.698 20.788s38.335-6.929 54.697-20.786c21.768-18.428 49.838-18.428 71.605 0 5.273 4.482 11.001 8.35 17.007 11.484 7.31 3.823 16.406.996 20.244-6.357 3.824-7.339.982-16.406-6.357-20.244z"/></g></svg>