<svg id="Capa_1" enable-background="new 0 0 512 512" height="512" viewBox="0 0 512 512" width="512" xmlns="http://www.w3.org/2000/svg"><g><path fill="#775D42" d="m474.89 152.9-150.39-57.95v-23.51c0-39.39-32.04-71.44-71.43-71.44h-154.13c-39.39 0-71.44 32.05-71.44 71.44v425.56c0 8.28 6.72 15 15 15s15-6.72 15-15v-425.56c0-22.85 18.59-41.44 41.44-41.44h154.13c22.84 0 41.43 18.59 41.43 41.44v23.36l-157.19 58.03c-5.9 2.17-9.81 7.79-9.81 14.07v29.26h357v-29.26c0-6.2-3.82-11.77-9.61-14z"/><path fill="#775D42" d="m306 362c3.09 0 18.55-.86 18.99-17.89.4-15.79-9.74-34.78-18.97-48.34-9.24 13.6-19.41 32.63-19.01 48.34.44 17.03 15.9 17.89 18.99 17.89z"/><path fill="#775D42" d="m127.5 422h357v-195.84h-357zm167.3-160.82c2.85-3.19 6.92-5.02 11.2-5.02s8.35 1.83 11.2 5.02c3.97 4.46 38.77 44.67 37.78 83.7-.79 30.93-25.24 47.12-48.98 47.12s-48.19-16.19-48.98-47.12c-.99-39.03 33.81-79.24 37.78-83.7z"/><path fill="#775D42" d="m127.5 497c0 8.28 6.72 15 15 15h327c8.28 0 15-6.72 15-15v-45h-357z"/></g></svg>