<?xml version="1.0" encoding="UTF-8" standalone="no"?>
<!-- Created with Inkscape (http://www.inkscape.org/) -->

<svg
   version="1.1"
   id="svg972"
   xml:space="preserve"
   width="682.66669"
   height="682.66669"
   viewBox="0 0 682.66669 682.66669"
   xmlns="http://www.w3.org/2000/svg"
   xmlns:svg="http://www.w3.org/2000/svg"><defs
     id="defs976"><clipPath
       clipPathUnits="userSpaceOnUse"
       id="clipPath986"><path
         d="M 0,512 H 512 V 0 H 0 Z"
         id="path984" /></clipPath></defs><g
     id="g978"
     transform="matrix(1.3333333,0,0,-1.3333333,0,682.66667)"><g
       id="g980"><g
         id="g982"
         clip-path="url(#clipPath986)"><g
           id="g988"
           transform="translate(70.0498,308.7334)"><path
             d="m 0,0 c -5.859,5.85 -5.859,15.35 0,21.21 5.851,5.86 15.351,5.86 21.21,0 L 47.83,-5.41 v 76.621 c 0,8.29 6.72,15 15,15 8.28,0 15,-6.71 15,-15 v -26.62 l 26.62,26.62 c 5.861,5.86 15.361,5.86 21.21,0 5.861,-5.86 5.861,-15.36 0,-21.211 L 77.83,2.16 v -129.001 c 56.635,6.504 101.64,50.36 114.731,104.641 7.899,32.72 3.519,66.631 -13.021,100.781 -12.6,26.02 -31.88,51.891 -58.939,79.081 -17.161,17.25 -32.881,31.12 -48.051,42.41 -5.524,4.173 -12.995,4.345 -18.76,0 C 38.62,188.782 22.91,174.912 5.74,157.662 -21.319,130.472 -40.6,104.601 -53.2,78.581 -69.74,44.431 -74.12,10.52 -66.22,-22.2 -53.11,-76.55 -8.224,-119.965 47.83,-126.781 v 78.941 z"
             style="fill:#775D42;fill-opacity:1;fill-rule:nonzero;stroke:none"
             id="path990" /></g><path
           d="M 452,96.792 H 298.01 v 30 H 452 Z M 452,30 H 298.01 V 66.791 H 452 Z m 45,96.792 c 8.28,0 15,6.72 15,15 v 60 c 0,8.28 -6.72,15 -15,15 H 253.01 c -8.28,0 -15,-6.72 -15,-15 v -60 c 0,-8.28 6.72,-15 15,-15 h 15 v -30 h -15 c -8.284,0 -15,-6.716 -15,-15 0,-8.285 6.716,-15 15,-15 h 15 V 30 H 147.88 v 151.892 c -9.883,-1.14 -19.953,-1.173 -30,0.06 V 30 H 15 C 6.716,30 0,23.285 0,15 0,6.716 6.716,0 15,0 h 482 c 8.284,0 15,6.716 15,15 0,8.285 -6.716,15 -15,15 h -15 v 36.792 h 15 c 8.284,0 15,6.715 15,15 0,8.284 -6.716,15 -15,15 h -15 v 30 z"
           style="fill:#775D42;fill-opacity:1;fill-rule:nonzero;stroke:none"
           id="path992" /></g></g></g></svg>
