
<svg version="1.1" id="Layer_1" xmlns="http://www.w3.org/2000/svg" xmlns:xlink="http://www.w3.org/1999/xlink" x="0px" y="0px"
	 viewBox="0 0 100 100" style="enable-background:new 0 0 100 100;" xml:space="preserve">
<style type="text/css">
	.st0{fill:#775d42;}
</style>
<g>
	<path class="st0" d="M20.2,62c3.2,0,5.9,2.6,5.9,5.9c0,3.2-2.6,5.9-5.9,5.9c-3.2,0-5.9-2.6-5.9-5.9C14.4,64.6,17,62,20.2,62"/>
	<path class="st0" d="M92.7,50.5c-0.1-1.7-3.5-8.2-3.6-8.4c0.1,0,1-0.5,1.1-0.6c1.3-0.5-1.3-6.9-2.8-6.4c0,0-1.1,0.4-1.3,0.5
		c0-0.4-2.8-9.5-4.9-9.4c-0.6,0-1.1,0.5-1.2,1.1c-0.6,2.1,2.5,5.7,3.2,8.5c0.1,0.3,0.1,0.6,0.3,0.8l-0.3,0.1
		c-0.9-1.2-2.4-2.1-4.9-1.7l-3.5,0.2c4.3,5.8,6.7,16.2,6.7,16.2s4.4-2.5,3.9-7.6l0.3-0.1c0.1,0.2,0.3,0.2,0.4,0.4
		c0.7,0.5,1.1,3.5,2.7,7c1,2.2,2.5,2.1,3.3,1.2C92.6,51.9,92.7,51.2,92.7,50.5"/>
	<path class="st0" d="M69.5,60.2c3.6,0,6.5,2.9,6.5,6.5c0,3.6-2.9,6.5-6.5,6.5c-3.6,0-6.5-2.9-6.5-6.5C63,63.1,65.9,60.2,69.5,60.2"
		/>
	<path class="st0" d="M73.4,36.4L73.1,36l-0.4-0.5c-2.2,0.2-4.4,0.5-6.6,0.9c-0.2-0.6-1.5-2.4-7.2-0.3c0,0-15,5.4-15.9,9.3l-1.8,1
		l-1.5,1l-0.1,0.1l-12.9,9l0,0l0,0c-3.6,2.6-5.7,0.3-8.2-0.9c-0.2-0.1-0.5-0.2-0.7-0.3c-0.5-0.2-1-0.4-1.5-0.6
		c-2.9-1-6.4-1.4-8.2,1.2c0,0.2-2.9,2.9,3.6,13l1-0.4v0c0-0.2,0-0.5,0-0.8c0-4.2,3.4-7.6,7.6-7.6c2.4,0,4.5,1.1,5.9,2.9l50.5-20.7
		C75.8,40.2,74.7,38.1,73.4,36.4"/>
	<path class="st0" d="M77.4,44L27.1,64.6c0.5,1,0.7,2.1,0.7,3.2c0,0.8-0.1,1.5-0.3,2.2c4.5-0.9,24.5-5.2,33-9.3l1.5,2.5
		c1.3-2.9,4.2-4.8,7.5-4.8c0.8,0,1.5,0.1,2.3,0.3l-0.6-2.3c3.2-1.2,6.3-2.4,8.8-3.9l-0.2-0.7C79.8,51.9,78.9,48.1,77.4,44"/>
</g>
</svg>
