<svg id="Layer_1" enable-background="new 0 0 480.01 480.01" height="512" viewBox="0 0 480.01 480.01" width="512" xmlns="http://www.w3.org/2000/svg" fill="#775D42"><g><path d="m188.534 95.665h102.941c4.304 0 5.572-5.866 1.652-7.643l-51.471-23.336c-1.05-.476-2.254-.476-3.303 0l-51.471 23.336c-3.919 1.777-2.652 7.643 1.652 7.643z"/><path d="m448.325 96.53-198-94.19c-6.56-3.12-14.08-3.12-20.64 0l-198 94.19c-8.31 3.95-13.68 12.44-13.68 21.64v13.87c0 13.22 10.77 23.97 24 23.97h396c13.23 0 24-10.75 24-23.97v-13.87c0-9.2-5.37-17.69-13.68-21.64zm-93.501 8.825c-.795 3.683-4.052 6.311-7.819 6.311h-214c-3.767 0-7.024-2.628-7.819-6.311-.796-3.682 1.085-7.42 4.516-8.976l107-48.512c2.099-.951 4.508-.951 6.606 0l107 48.512c3.431 1.556 5.312 5.294 4.516 8.976z"/><path d="m271.334 398.01h-62.657c-4.485 0-8.093-3.686-7.998-8.17l3.648-172.036c.093-4.373 3.674-7.861 8.048-7.83 13.7.098 41.561.097 55.261 0 4.374-.031 7.956 3.457 8.048 7.83l3.648 172.036c.095 4.484-3.514 8.17-7.998 8.17z"/><path d="m139.005 217.979v172.031c0 4.418-3.582 8-8 8h-62.644c-4.551 0-8.186-3.792-7.993-8.339l7.295-172.037c.183-4.312 3.751-7.7 8.067-7.661 13.651.125 41.468.086 55.232.006 4.436-.025 8.043 3.565 8.043 8z"/><path d="m411.649 398.01h-62.644c-4.418 0-8-3.582-8-8v-172.031c0-4.436 3.607-8.026 8.043-8 13.765.08 41.583.117 55.232-.007 4.316-.039 7.884 3.348 8.067 7.661l7.295 172.038c.192 4.547-3.442 8.339-7.993 8.339z"/><path d="m480.005 438.01v18c0 13.23-10.77 24-24 24h-432c-13.23 0-24-10.77-24-24v-18c0-13.23 10.77-24 24-24h432c13.23 0 24 10.77 24 24z"/><path d="m148.482 172.01c6.591 0 10.474 7.615 6.404 12.799-4.396 5.599-11.226 9.201-18.881 9.201h-64c-7.655 0-14.485-3.603-18.881-9.202-4.07-5.184-.187-12.798 6.404-12.798z"/><path d="m284.482 172.01c6.591 0 10.474 7.615 6.404 12.799-4.396 5.599-11.226 9.201-18.881 9.201h-64c-7.655 0-14.485-3.603-18.881-9.202-4.07-5.184-.187-12.798 6.404-12.798z"/><path d="m420.482 172.01c6.591 0 10.474 7.615 6.404 12.799-4.396 5.599-11.226 9.201-18.881 9.201h-64c-7.655 0-14.485-3.603-18.881-9.202-4.07-5.184-.187-12.798 6.404-12.798z"/></g></svg>