<svg id="Layer_1" enable-background="new 0 0 512 512" height="512" viewBox="0 0 512 512" width="512" xmlns="http://www.w3.org/2000/svg" fill="#775D42"><path clip-rule="evenodd" d="m256 9.9c7.22 0 13.126 5.906 13.126 13.125h71.143l-14.942 26.625 14.941 26.625h-71.143v21.682h-26.251v-74.932c.001-7.218 5.907-13.125 13.126-13.125zm140.25 275.276v216.924h98.25c4.406 0 8-3.594 8-8v-200.924c0-4.406-3.594-8-8-8zm37.924 49.242h30.4c2.091 0 3.8 1.709 3.8 3.799v30.4c0 2.09-1.709 3.801-3.8 3.801h-30.4c-2.09 0-3.8-1.711-3.8-3.801v-30.4c.001-2.09 1.71-3.799 3.8-3.799zm0 80.437h30.4c2.091 0 3.8 1.711 3.8 3.801v30.4c0 2.09-1.709 3.799-3.8 3.799h-30.4c-2.09 0-3.8-1.709-3.8-3.799v-30.4c.001-2.09 1.71-3.801 3.8-3.801zm-318.424 87.245v-216.924h-98.25c-4.406 0-8 3.594-8 8v200.924c0 4.406 3.594 8 8 8zm-68.325-167.682h30.4c2.09 0 3.8 1.709 3.8 3.799v30.4c0 2.09-1.71 3.801-3.8 3.801h-30.4c-2.091 0-3.8-1.711-3.8-3.801v-30.4c0-2.09 1.709-3.799 3.8-3.799zm0 80.437h30.4c2.09 0 3.8 1.711 3.8 3.801v30.4c0 2.09-1.71 3.799-3.8 3.799h-30.4c-2.091 0-3.8-1.709-3.8-3.799v-30.4c0-2.09 1.709-3.801 3.8-3.801zm80.911-299.898h255.328c8.992 0 16.349 7.357 16.349 16.35s-7.356 16.35-16.349 16.35h-255.328c-8.993 0-16.35-7.357-16.35-16.35s7.358-16.35 16.35-16.35zm250.914 49.699v337.441h-53.125v-108.46c0-4.693-3.806-8.5-8.5-8.5h-123.25c-4.694 0-8.501 3.807-8.501 8.5v108.461h-53.124v-337.442zm-70.125 337.442v-99.961h-106.25v99.961zm-139.942-298.198c-2.09 0-3.8 1.711-3.8 3.801v30.4c0 2.09 1.71 3.799 3.8 3.799h30.4c2.091 0 3.8-1.709 3.8-3.799v-30.4c0-2.09-1.709-3.801-3.8-3.801zm0 80.44c-2.09 0-3.8 1.709-3.8 3.799v30.4c0 2.09 1.71 3.801 3.8 3.801h30.4c2.091 0 3.8-1.711 3.8-3.801v-30.4c0-2.09-1.709-3.799-3.8-3.799zm71.616-80.44c-2.089 0-3.8 1.711-3.8 3.801v30.4c0 2.09 1.711 3.799 3.8 3.799h30.401c2.09 0 3.799-1.709 3.799-3.799v-30.4c0-2.09-1.709-3.801-3.799-3.801zm0 80.44c-2.089 0-3.8 1.709-3.8 3.799v30.4c0 2.09 1.711 3.801 3.8 3.801h30.401c2.09 0 3.799-1.711 3.799-3.801v-30.4c0-2.09-1.709-3.799-3.799-3.799zm71.618-80.44c-2.091 0-3.8 1.711-3.8 3.801v30.4c0 2.09 1.709 3.799 3.8 3.799h30.4c2.09 0 3.8-1.709 3.8-3.799v-30.4c0-2.09-1.71-3.801-3.8-3.801zm0 80.44c-2.091 0-3.8 1.709-3.8 3.799v30.4c0 2.09 1.709 3.801 3.8 3.801h30.4c2.09 0 3.8-1.711 3.8-3.801v-30.4c0-2.09-1.71-3.799-3.8-3.799z" fill-rule="evenodd"/></svg>