<svg id="Layer_1_copy_2" height="512" viewBox="0 0 64 64" width="512" xmlns="http://www.w3.org/2000/svg" data-name="Layer 1 copy 2"><path fill="#775D42" d="m32 4a28 28 0 1 0 28 28 28.03075 28.03075 0 0 0 -28-28zm-16 20.21a1 1 0 0 1 -2 0v-9.21a1.003 1.003 0 0 1 1-1h9.21a1 1 0 0 1 0 2h-8.21zm9.79 18a4.01179 4.01179 0 0 1 -4-4v-12.42a4.01179 4.01179 0 0 1 4-4h12.42a4.01179 4.01179 0 0 1 4 4v12.42a4.01179 4.01179 0 0 1 -4 4zm24.21 6.79a1.003 1.003 0 0 1 -1 1h-9.21a1 1 0 0 1 0-2h8.21v-8.21a1 1 0 0 1 2 0z"/><rect fill="#775D42" height="16.42" rx="2" width="16.42" x="23.79" y="23.79"/></svg>