<svg clip-rule="evenodd" fill="#775D42" fill-rule="evenodd" height="512" image-rendering="optimizeQuality" shape-rendering="geometricPrecision" text-rendering="geometricPrecision" viewBox="0 0 43.3492 43.3492" width="512" xmlns="http://www.w3.org/2000/svg"><g id="Layer_x0020_1"><g id="_314651056"><path id="_314652352" d="m28.6126 39.6522v-28.8102h-13.8759v28.8102zm-2.4157-.7572v-5.7621c0-.2867-.2346-.5212-.5213-.5212h-8.002c-.2867 0-.5213.2345-.5213.5212v5.7621zm-1.459-12.2163v4.2333h-6.1383v-4.2333zm0-6.6896v4.2333h-6.1383v-4.2333zm0-6.6903v4.2334h-6.1383v-4.2334z"/><path id="_314653072" d="m38.8948 39.6522v-23.7538l-9.5251 3.7631v19.9907zm-3.8018-4.5861h2.2342v2.2343h-2.2342zm-4.1557 0h2.2343v2.2343h-2.2343zm4.1557-4.5861h2.2342v2.2343h-2.2342zm-4.1557 0h2.2343v2.2343h-2.2343zm4.1557-4.5861h2.2342v2.2342h-2.2342zm-4.1557 0h2.2343v2.2342h-2.2343zm4.1557-4.5861h2.2342v2.2342h-2.2342zm-4.1557 0h2.2343v2.2342h-2.2343z"/><path id="_314652664" d="m13.9795 39.6522v-19.9907l-9.5251-3.7631v23.7538zm-3.8018-4.5861h2.2342v2.2343h-2.2342zm-4.1557 0h2.2343v2.2343h-2.2343zm4.1557-4.5861h2.2342v2.2343h-2.2342zm-4.1557 0h2.2343v2.2343h-2.2343zm4.1557-4.5861h2.2342v2.2342h-2.2342zm-4.1557 0h2.2343v2.2342h-2.2343zm4.1557-4.5861h2.2342v2.2342h-2.2342zm-4.1557 0h2.2343v2.2342h-2.2343z"/><path id="_314652736" d="m2.095 40.409h39.158v2.94h-39.158z"/><g fill-rule="nonzero"><path id="_314652856" d="m22.2526 32.6117c0-.3193-.2588-.578-.578-.578s-.578.2587-.578.578v6.2834c0 .3192.2588.5779.578.5779s.578-.2587.578-.5779z"/><path id="_314653048" d="m22.2467 13.2988c0-.3192-.2588-.578-.578-.578s-.578.2588-.578.578v4.2334c0 .3192.2588.5779.578.5779s.578-.2587.578-.5779z"/><path id="_314651728" d="m22.2468 19.9891c0-.3192-.2588-.578-.578-.578s-.578.2588-.578.578v4.2333c0 .3192.2588.578.578.578s.578-.2588.578-.578z"/><path id="_314652160" d="m22.2468 26.6787c0-.3192-.2588-.578-.578-.578s-.578.2588-.578.578v4.2333c0 .3192.2588.578.578.578s.578-.2588.578-.578z"/></g><path id="_314651992" d="m21.6914-.0001c.2777.8601.5553 1.7202.8329 2.5803.9038-.0017 1.8076-.0035 2.7114-.0052-.7322.5298-1.4644 1.0597-2.1966 1.5895.2809.859.5619 1.718.8428 2.577-.7301-.5326-1.4603-1.0652-2.1905-1.5979-.7301.5327-1.4603 1.0653-2.1904 1.5979.2809-.859.5619-1.718.8428-2.577-.7322-.5298-1.4644-1.0597-2.1966-1.5895.9038.0017 1.8076.0035 2.7114.0052.2776-.8601.5552-1.7202.8328-2.5803z"/><path id="_314651584" d="m14.194 1.717c.262.8117.5241 1.6234.7861 2.4351.8529-.0016 1.7059-.0032 2.5589-.0049-.691.5001-1.3821 1.0001-2.0731 1.5001.2651.8108.5303 1.6215.7954 2.4322-.6891-.5027-1.3782-1.0054-2.0673-1.5081-.6891.5027-1.3782 1.0054-2.0673 1.5081.2651-.8107.5303-1.6214.7954-2.4322-.691-.5-1.3821-1-2.0731-1.5001.853.0017 1.706.0033 2.559.0049.262-.8117.524-1.6234.786-2.4351z"/><path id="_314651632" d="m29.2063 1.6029c.262.8118.524 1.6235.7861 2.4352.8529-.0016 1.7059-.0033 2.5589-.0049-.6911.5-1.3821 1.0001-2.0731 1.5001.2651.8107.5302 1.6215.7954 2.4322-.6891-.5027-1.3782-1.0054-2.0673-1.5081-.6891.5027-1.3782 1.0054-2.0673 1.5081.2651-.8107.5302-1.6215.7954-2.4322-.691-.5-1.3821-1.0001-2.0731-1.5001.853.0016 1.7059.0033 2.5589.0049.2621-.8117.5241-1.6234.7861-2.4352z"/><path id="_314651656" d="m7.5256 5.9531.6775 2.0988 2.2055-.0042-1.7867 1.2929.6855 2.0962-1.7818-1.2997-1.7817 1.2997.6855-2.0962-1.7867-1.2929 2.2054.0042z"/><path id="_314652208" d="m35.833 5.8999.6775 2.0989 2.2054-.0043-1.7867 1.2929.6855 2.0963-1.7817-1.2998-1.7818 1.2998.6856-2.0963-1.7868-1.2929 2.2055.0043z"/></g></g></svg>