
<svg version="1.1" id="Layer_1" xmlns="http://www.w3.org/2000/svg" xmlns:xlink="http://www.w3.org/1999/xlink" x="0px" y="0px"
	 viewBox="0 0 512 512" style="enable-background:new 0 0 512 512;" xml:space="preserve" fill="#775D42">
<g>
	<g>
		<rect width="512" height="307"/>
	</g>
</g>
<g>
	<g>
		<path d="M196,337h-60.667c-24.75,0-45,16.875-45,37.5v7.5h15.334c24.508,0,46.306,10.636,60,27.047
			c13.694-16.411,35.492-27.047,60-27.047H241v-7.5C241,353.875,220.75,337,196,337z"/>
	</g>
</g>
<g>
	<g>
		<path d="M376.667,337H316c-24.75,0-45,16.875-45,37.5v7.5h15.333c24.508,0,46.306,10.636,60,27.047
			c13.694-16.411,35.492-27.047,60-27.047h15.334v-7.5C421.667,353.875,401.417,337,376.667,337z"/>
	</g>
</g>
<g>
	<g>
		<path d="M467,412h-60.667c-24.75,0-45,16.875-45,37.5s0,62.5,0,62.5H512c0,0,0-41.875,0-62.5S491.75,412,467,412z"/>
	</g>
</g>
<g>
	<g>
		<path d="M105.667,412H45c-24.75,0-45,16.875-45,37.5S0,512,0,512h150.667c0,0,0-41.875,0-62.5S130.417,412,105.667,412z"/>
	</g>
</g>
<g>
	<g>
		<path d="M286.333,412h-60.667c-24.75,0-45,16.875-45,37.5s0,62.5,0,62.5h150.667c0,0,0-41.875,0-62.5S311.083,412,286.333,412z"/>
	</g>
</g>
</svg>
