<svg id="Layer_2" height="512" viewBox="0 0 64 64" width="512" xmlns="http://www.w3.org/2000/svg" data-name="Layer 2" fill="#775D42"><path d="m32 29c-2.168 0-4 3.206-4 7v6h8v-6c0-3.794-1.832-7-4-7z"/><path d="m0 44v19a1 1 0 0 0 1 1h62a1 1 0 0 0 1-1v-19zm19 18h-2v-5c0-3.794-1.832-7-4-7s-4 3.206-4 7v5h-2v-5c0-5.047 2.636-9 6-9s6 3.953 6 9zm14-2a1 1 0 0 1 -2 0v-3a1 1 0 0 1 2 0zm8 2h-2v-5a7 7 0 0 0 -14 0v5h-2v-5a9 9 0 0 1 18 0zm-1-14h-1a1 1 0 0 1 0-2h1a1 1 0 0 1 0 2zm4 0h-1a1 1 0 0 1 0-2h1a1 1 0 0 1 0 2zm13 14h-2v-5c0-3.794-1.832-7-4-7s-4 3.206-4 7v5h-2v-5c0-5.047 2.636-9 6-9s6 3.953 6 9z"/><path d="m13 32h-10v-10a1 1 0 0 0 -2 0v10a1 1 0 0 0 -1 1v9h7v-5a1 1 0 0 1 2 0v5h4v-5a1 1 0 0 1 2 0v5h4v-5a1 1 0 0 1 2 0v5h5v-6a13 13 0 0 1 .608-4z"/><path d="m63 32v-10a1 1 0 0 0 -2 0v10h-23.608a13 13 0 0 1 .608 4v6h5v-5a1 1 0 0 1 2 0v5h4v-5a1 1 0 0 1 2 0v5h4v-5a1 1 0 0 1 2 0v5h7v-9a1 1 0 0 0 -1-1z"/><path d="m51 30v-8a1 1 0 0 0 -1-1h-3v-7a1 1 0 0 0 -2 0v7h-4v-4a9.011 9.011 0 0 0 -8-8.941v-7.059a1 1 0 0 0 -2 0v7.059a9.011 9.011 0 0 0 -8 8.941v4h-4v-7a1 1 0 0 0 -2 0v7h-3a1 1 0 0 0 -1 1v8h14.5a5.822 5.822 0 0 1 3.5-2.87v-3.13a1 1 0 0 1 2 0v3.13a5.822 5.822 0 0 1 3.5 2.87z"/></svg>