<svg id="Layer_1" enable-background="new 0 0 400 400" height="512" viewBox="0 0 400 400" width="512" xmlns="http://www.w3.org/2000/svg"><g><g clip-rule="evenodd" fill="#775D42" fill-rule="evenodd"><path d="m185.8 69.4h28.9v-17.5l-13.9-14.1c-.2-.2-.4-.2-.5-.2s-.4 0-.5.2l-13.9 14.1v17.5z"/><path d="m106.1 151.3-13.9-14.1c-.2-.2-.4-.2-.5-.2s-.4 0-.5.2l-13.9 14.1v15.9h28.9v-15.9z"/><path d="m323.3 151.3-13.9-14.1c-.2-.2-.4-.2-.5-.2s-.4 0-.5.2l-13.9 14.1v15.9h28.9z"/><path d="m52.3 223-15.8 16.6h327.5l-15.7-16.6h-91.7-112.7z"/><path d="m346 385.1v-137.6h-74.3v137.6zm-37.1-99c5.7 0 11 2.2 15.1 6.2 4 4 6.2 9.4 6.2 15.1v48.6c0 2.2-1.8 4-4 4h-34.7c-2.2 0-4-1.8-4-4v-48.5c.1-11.8 9.6-21.4 21.4-21.4z"/><path d="m294.4 198.9h28.9v16.2h-28.9z"/><path d="m294.4 175.2h28.9v15.8h-28.9z"/><path d="m322.2 307.4c0-3.6-1.4-6.9-3.9-9.5-2.5-2.5-5.9-3.9-9.5-3.9-7.4 0-13.4 6-13.4 13.4v44.6h26.8z"/><path d="m157.2 385.1v-69.4c0-23.8 19.3-43.1 43.1-43.1 11.5 0 22.3 4.5 30.5 12.6 8.1 8.1 12.6 19 12.6 30.5v69.4h20.5v-137.6h-127.2v137.6z"/><path d="m148.6 215.1h103.4l-6.5-40.7h-90.4zm51.7-30.1c2.2 0 4 1.8 4 4v11.6c0 2.2-1.8 4-4 4s-4-1.8-4-4v-11.6c0-2.3 1.8-4 4-4z"/><path d="m156.3 166.5h87.8l-6.5-40.5h-74.9zm44-30c2.2 0 4 1.8 4 4v11.6c0 2.2-1.8 4-4 4s-4-1.8-4-4v-11.6c0-2.2 1.8-4 4-4z"/><path d="m170.6 77.3-6.5 40.7h72.4l-6.5-40.7h-11.3-36.8zm25.7 14.6c0-2.2 1.8-4 4-4s4 1.8 4 4v11.6c0 2.2-1.8 4-4 4s-4-1.8-4-4z"/><path d="m225.1 290.8c-6.6-6.6-15.5-10.3-24.9-10.3-19.4 0-35.1 15.8-35.1 35.1v69.4h70.3v-69.4c0-9.3-3.6-18.1-10.3-24.8z"/><path d="m128.8 385.1v-137.6h-74.3v137.6zm-37.1-99.1c5.7 0 11 2.2 15.1 6.2 4 4 6.2 9.4 6.2 15.1v48.5c0 2.2-1.8 4-4 4h-34.7c-2.2 0-4-1.8-4-4v-48.5c0-11.7 9.6-21.3 21.4-21.3z"/><path d="m77.2 198.9h28.9v16.2h-28.9z"/><path d="m77.2 175.2h28.9v15.8h-28.9z"/><path d="m105 307.3c0-3.6-1.4-6.9-3.9-9.5-2.5-2.5-5.9-3.9-9.5-3.9-7.4 0-13.4 6-13.4 13.4v44.6h26.8z"/><path d="m91.7 127.9c1.4 0 2.8 1.6 4 2.2v-9.8c0-2.2-1.8-4-4-4s-4 1.8-4 4v9.8c1.2-.6 2.6-2.2 4-2.2z"/><path d="m312.8 130.1v-9.8c0-2.2-1.8-4-4-4s-4 1.8-4 4v9.8c1.2-.6 2.6-2.2 4-2.2 1.5 0 2.8 1.6 4 2.2z"/><path d="m200.3 28.5c1.4 0 2.8 1.6 4 2.2v-10.3c0-2.2-1.8-4-4-4s-4 1.8-4 4v10.3c1.2-.7 2.6-2.2 4-2.2z"/></g></g></svg>