<svg id="Soild" enable-background="new 0 0 512 512" height="512" viewBox="0 0 512 512" width="512" xmlns="http://www.w3.org/2000/svg" fill="#775D42"><path d="m168 104v.618c3.478-2.768 7.283-5.204 11.378-7.252l1.044-.522c2.252-1.126 4.903-1.126 7.155 0l1.044.522c7.511 3.756 14.043 8.818 19.38 14.836.167-27.795 16.907-52.382 42.744-62.717l2.282-.914c1.908-.763 4.036-.763 5.944 0l2.283.914c25.836 10.334 42.576 34.921 42.743 62.717 5.337-6.019 11.869-11.081 19.38-14.836l1.044-.522c2.252-1.126 4.903-1.126 7.155 0l1.044.522c4.096 2.048 7.9 4.484 11.378 7.252v-.618h16v-24h-16c0-9.006-2.977-17.317-8-24.003v-31.997h-16v19.328c-4.898-2.14-10.309-3.328-15.998-3.328-.672 0-1.34.017-2.003.05-8.674-12.464-22.283-21.235-37.997-23.483v-16.567h-16v16.567c-15.714 2.248-29.323 11.019-37.997 23.482-.663-.032-1.331-.049-2.003-.049-2.74 0-5.415.276-8 .801v-16.801h-16v23.998c-9.715 7.298-16 18.916-16 32.002h-16v24zm144-32h8v16h-8zm-120 0h8v16h-8z"/><path d="m135.976 104c-.425-11.572-6.516-22.017-15.976-28.152v-19.848h-16v19.848c-9.46 6.135-15.551 16.58-15.976 28.152z"/><path d="m376.024 104c.425-11.572 6.516-22.017 15.976-28.152v-19.848h16v19.848c9.46 6.135 15.551 16.58 15.976 28.152z"/><path d="m144 168v-13.39c0-12.583 3.606-24.511 10.092-34.61h-78.651c-2.762-4.874-6.674-9.06-11.441-12.152v-19.848h-16v19.848c-9.46 6.135-15.551 16.58-15.976 28.152h39.976v16h-48l-8 8v8zm-40-32h16v24h-16z"/><path d="m208 168v-13.39c0-17.334-9.125-33.011-24-41.572-14.875 8.561-24 24.237-24 41.572v13.39z"/><path d="m288 168v-55.378c0-21.139-12.535-39.898-32-48-19.466 8.102-32 26.861-32 48v55.378z"/><path d="m352 168v-13.39c0-17.334-9.125-33.011-24-41.572-14.875 8.561-24 24.237-24 41.572v13.39z"/><path d="m368 168h128v-8l-8-8h-48v-16h39.976c-.425-11.572-6.516-22.017-15.976-28.152v-19.848h-16v19.848c-4.767 3.092-8.679 7.278-11.441 12.152h-78.651c6.486 10.098 10.092 22.026 10.092 34.61zm24-32h16v24h-16z"/><path d="m465.75 386.782-1.75-1.167-1.75 1.167c-8.922 5.948-14.25 15.902-14.25 26.625v50.593h32v-50.593c0-10.723-5.327-20.677-14.25-26.625z"/><path d="m385.75 386.782-1.75-1.167-1.75 1.167c-8.922 5.948-14.25 15.902-14.25 26.625v50.593h32v-50.593c0-10.723-5.327-20.677-14.25-26.625z"/><path d="m210.025 328h-210.025v136h16v-50.593c0-16.085 7.99-31.016 21.375-39.938l6.188-4.125c2.687-1.792 6.188-1.792 8.875 0l6.188 4.125c13.384 8.923 21.374 23.853 21.374 39.938v50.593h16v-50.593c0-16.085 7.99-31.016 21.375-39.938l6.188-4.125c2.687-1.792 6.188-1.792 8.875 0l6.188 4.125c13.384 8.923 21.374 23.853 21.374 39.938v50.593h16v-88c0-17.968 11.798-33.426 28.646-38.369 1.488-3.418 3.295-6.638 5.379-9.631z"/><path d="m512 464v-136h-210.025c2.084 2.993 3.891 6.213 5.378 9.631 16.85 4.943 28.647 20.401 28.647 38.369v88h16v-50.593c0-16.085 7.99-31.016 21.375-39.938l6.188-4.125c2.687-1.792 6.188-1.792 8.875 0l6.188 4.125c13.384 8.923 21.374 23.853 21.374 39.938v50.593h16v-50.593c0-16.085 7.99-31.016 21.375-39.938l6.188-4.125c2.687-1.792 6.188-1.792 8.875 0l6.188 4.125c13.384 8.923 21.374 23.853 21.374 39.938v50.593z"/><path d="m227.144 312c8.518-5.119 18.436-8 28.856-8s20.338 2.881 28.856 8h227.144v-128h-512v128zm-99.144-16h-16v-16h16zm336-96h16v96h-16zm-80 53.407c0-16.085 7.99-31.016 21.375-39.938l6.188-4.125c2.687-1.792 6.188-1.792 8.875 0l6.188 4.125c13.384 8.923 21.374 23.853 21.374 39.938v42.593h-16v-42.593c0-10.724-5.327-20.677-14.25-26.625l-1.75-1.167-1.75 1.167c-8.922 5.948-14.25 15.902-14.25 26.625v42.593h-16zm-40-53.407h16v96h-16zm-32 0h16v96h-16zm-88 53.407c0-16.085 7.99-31.016 21.375-39.938l6.188-4.125c2.687-1.792 6.188-1.792 8.875 0l6.188 4.125c13.384 8.923 21.374 23.853 21.374 39.938v42.593h-16v-42.593c0-10.724-5.327-20.677-14.25-26.625l-1.75-1.167-1.75 1.167c-8.922 5.948-14.25 15.902-14.25 26.625v42.593h-16zm-40-53.407h16v96h-16zm-32 0h16v96h-16zm-88 53.407c0-16.085 7.99-31.016 21.375-39.938l6.188-4.125c2.687-1.792 6.188-1.792 8.875 0l6.188 4.125c13.384 8.923 21.374 23.853 21.374 39.938v10.593h-16v-10.593c0-10.724-5.327-20.677-14.25-26.625l-1.75-1.167-1.75 1.167c-8.923 5.948-14.25 15.902-14.25 26.625v42.593h-16zm-32-53.407h16v96h-16z"/><path d="m129.75 386.782-1.75-1.167-1.75 1.167c-8.922 5.948-14.25 15.902-14.25 26.625v50.593h32v-50.593c0-10.723-5.327-20.677-14.25-26.625z"/><path d="m336 480h176v32h-176z"/><path d="m300.08 352.345c-2.887-.494-5.274-2.525-6.222-5.297-2.663-7.785-7.568-14.341-13.847-19.048h-.011v-.009c-6.767-5.069-15.128-7.991-24-7.991-8.871 0-17.233 2.922-24 7.991v.009h-.011c-6.279 4.707-11.184 11.263-13.847 19.048-.948 2.771-3.334 4.803-6.222 5.297-11.543 1.972-19.92 11.921-19.92 23.655v136h16v-72h16v72h64v-111.969c0-12.829-5.745-24.783-15.763-32.796l-16.237-12.99-16.237 12.99c-10.018 8.014-15.763 19.968-15.763 32.796v23.969h-16v-23.969c0-17.716 7.934-34.224 21.768-45.291l21.235-16.988c2.922-2.337 7.073-2.337 9.995 0l21.235 16.988c13.833 11.068 21.767 27.575 21.767 45.291v111.969h16v-136c0-11.734-8.377-21.683-19.92-23.655z"/><path d="m49.75 386.782-1.75-1.167-1.75 1.167c-8.923 5.948-14.25 15.902-14.25 26.625v50.593h32v-50.593c0-10.723-5.327-20.677-14.25-26.625z"/><path d="m0 480h176v32h-176z"/></svg>