
<svg id="Layer_1" xmlns="http://www.w3.org/2000/svg" version="1.1" viewBox="0 0 384 384" fill="#775D42">
  <path d="M208.27,98.48c2.44,2.26,4.45,13.09,6.24,14.39.88.64,10.95,3.8,13.26,4.74,1.46.59,3.16,2.28,4.4,2.4,3.94.38,10.6-6.94,16.87-4.92,4.21,1.36,14.61,15.32,19.05,18.45,4.65,5.36-4.89,14.5-3.98,18.92.28,1.36,3.15,6.08,3.99,8.08.77,1.84,2.55,8.31,3.03,8.97,2.88,3.98,15.21,1.15,16.16,11.59.48,5.27.62,18.18-.09,23.24-1.12,7.96-13.7,6.91-16.07,10.18-.48.66-2.26,7.14-3.03,8.97s-4.02,7.48-4.1,8.7c-.28,4.23,6.94,10.58,4.91,16.87-1.36,4.21-15.32,14.61-18.45,19.05-5.14,4.7-14.8-4.99-18.89-3.96-.97.24-2.45,1.71-3.81,2.26-4.34,1.77-8.68,3.63-13.26,4.74-4.12,6.35-2.48,15.32-11.59,16.16-5.26.48-18.19.62-23.24-.09-7.88-1.1-6.8-13.63-10.18-16.07-.67-.48-7.13-2.26-8.97-3.03s-7.48-4.02-8.7-4.1c-4.23-.28-10.58,6.94-16.87,4.91-4.21-1.36-14.61-15.32-19.05-18.45-4.65-5.36,4.89-14.5,3.98-18.92-.28-1.36-3.15-6.08-3.99-8.08-1.23-2.92-2.34-5.86-3.03-8.97-6.35-4.12-15.32-2.48-16.16-11.59-.48-5.26-.62-18.19.09-23.24,1.1-7.88,13.63-6.8,16.07-10.18.48-.67,2.26-7.13,3.03-8.97s4.02-7.48,4.1-8.7c.28-4.23-6.94-10.58-4.91-16.87,1.36-4.21,15.32-14.61,18.45-19.05,5.36-4.65,14.5,4.89,18.92,3.98,1.36-.28,6.08-3.15,8.08-3.99,1.84-.77,8.3-2.55,8.97-3.03,2.91-2.11,2.86-14.33,8.98-15.75,4.24-.99,20.48-.91,25.17-.39,1.36.15,3.65.85,4.63,1.75ZM200.16,108.84h-16.33c-1.32,3.6-3.06,11.47-6.1,13.77-2.3,1.74-8.08,2.48-11.22,3.78-4.89,2.03-11.7,7.24-16.72,6.2-1.95-.41-9.97-5.23-11.06-4.73l-11.03,11.27c1.46,4.33,5.65,9.61,5.01,14.2-.3,2.19-5.05,10.07-6.33,13.2s-1.9,8.27-3.49,10.76c-2.34,3.68-13.97,6.09-14.2,6.93l.14,15.96c3.6,1.32,11.47,3.06,13.77,6.1,1.72,2.28,2.5,8.1,3.78,11.22,1.97,4.82,7.18,12.01,6.2,16.72-.41,1.95-5.23,9.96-4.73,11.06l11.27,11.03c4.33-1.46,9.61-5.65,14.2-5.01,2.19.3,10.07,5.05,13.2,6.33s8.27,1.9,10.76,3.49c3.68,2.34,6.09,13.97,6.93,14.2l15.96-.14c1.25-3.34,3.36-11.82,6.1-13.77,2.08-1.49,8.26-2.55,11.23-3.77,4.8-1.98,12.03-7.17,16.72-6.2,1.95.41,9.96,5.23,11.06,4.73l11.03-11.27c-1.46-4.33-5.65-9.61-5.01-14.2.31-2.2,5.05-10.07,6.33-13.2s1.9-8.26,3.49-10.76c2.75-4.33,13.48-4.73,14.15-8.35.75-4.06-.47-10.22-.09-14.54-3.46-1.31-11.64-3.27-13.77-6.1-1.73-2.31-2.49-8.08-3.78-11.22-1.97-4.82-7.18-12.01-6.2-16.72.41-1.95,5.23-9.96,4.73-11.06-1.86-1.27-10.2-10.94-11.26-11.03-.77-.06-8.24,4.21-10.11,4.69-5.32,1.37-12.03-3.84-17.29-6.01-3.04-1.25-8.44-2.09-10.77-3.48-3.3-1.96-5.25-10.42-6.55-14.07Z"/>
  <path d="M42.58,6.21C99.03-.14,105.78,85.08,51.36,89.24-3.68,93.45-9.77,12.1,42.58,6.21ZM68.73,68.73C94.75,42.72,58.16.96,28.89,24.77c-31.91,25.97,10.97,72.84,39.84,43.97Z"/>
  <path d="M42.58,294.96c56.36-6.36,63.34,78.44,8.78,83.03-54.01,4.55-61.98-77.03-8.78-83.03ZM68.73,315.27c-28.87-28.87-71.76,18-39.84,43.97,29.2,23.76,65.9-17.91,39.84-43.97Z"/>
  <path d="M331.35,294.97c56.72-6.1,62.75,78.47,8.77,83.02-54.53,4.59-61.73-77.32-8.77-83.02ZM315.27,315.27c-29.4,29.41,19.33,72.2,44.73,39.11,22.19-28.9-18.79-65.05-44.73-39.11Z"/>
  <path d="M331.33,6.21c56.2-6.32,63.13,78.89,8.78,83.03-55.04,4.2-61.38-77.11-8.78-83.03ZM315.27,68.73c29.42,29.43,72.23-19.3,39.11-44.73-28.97-22.24-64.99,18.86-39.11,44.73Z"/>
  <path d="M253.5,42c-.66-1.85-3.13-2.18-3.95-3.92-2.32-4.95,1.14-9.57,6.52-8.79,2.15.31,20.88,10.99,23.18,12.84,4.81,3.88,4.81,7.11,0,10.99-2.51,2.02-21.17,12.78-23.62,13.15-4.99.76-8.15-3.96-6.23-8.51.74-1.75,3.41-2.26,4.1-3.77H106.88c-1.56,0-5.33-3.1-5.63-4.91-.34-2.04,1.75-7.09,3.38-7.09h148.88Z"/>
  <path d="M253.5,342H104.62c-1.64,0-3.72-5.05-3.38-7.09.3-1.82,4.08-4.91,5.63-4.91h146.62c-.7-1.5-3.36-2.02-4.1-3.77-1.92-4.54,1.24-9.27,6.23-8.51,2.45.37,21.11,11.13,23.62,13.15,4.81,3.88,4.81,7.11,0,10.99-2.3,1.85-21.03,12.53-23.18,12.84-5.37.78-8.83-3.84-6.52-8.79.82-1.75,3.29-2.08,3.95-3.92Z"/>
  <path d="M322.5,198c1.04,1.67,3.16,1.25,4.41,3.46,2.88,5.08-1.33,10.48-6.87,9.15l-24.58-14.45c-3.92-5.45-.82-7.86,3.56-10.76s15.67-9.91,19.93-11.56c6.4-2.47,11.45,3.9,7.65,9.15-1.31,1.81-3.29,1.47-4.1,3.01h7.5s0-81.37,0-81.37c0-5.47,10.18-8.25,11.98-1.48l.06,90.02c.55,1.59-3.26,4.84-4.16,4.84h-15.38Z"/>
  <path d="M42,189.38c.44-1.56,3.92-3.19,5.61-3.39,6.09-.72,27.86-.83,33.59.2,4.7.84,6.64,6.78,3.34,10.12-.18.18-2.99,1.71-3.17,1.71h-27.38v54c1.5-.7,2.02-3.36,3.77-4.1,4.54-1.92,9.27,1.24,8.51,6.23-.42,2.75-10.1,19.18-12.25,22.26-3.46,4.94-6.82,7.6-11.6,1.81-1.74-2.11-12.57-20.94-13-23-1.19-5.63,3.35-9.64,8.66-7.15,1.75.82,2.08,3.29,3.92,3.95v-62.62Z"/>
  <path d="M189.6,137.47c43.68-1.71,71.49,45.81,48.76,83.25-20.15,33.19-69.4,34.35-91.21,2.26-23.98-35.28-.15-83.84,42.46-85.51ZM191.12,149.42c-38.59.8-56.17,49.74-26.51,74.84,34.04,28.81,83.65-7.77,66.29-49.04-6.5-15.45-22.92-26.15-39.78-25.81Z"/>
  <path d="M357.54,321.21c2.6,2.61,1.68,6.65-.53,9.18-3.69,4.22-18.27,17.3-22.89,20.61-4.73,3.39-6.18,2.55-10.48-.76-4.06-3.13-15.66-14.39-6.96-18.16,6.04-2.62,9.04,3.62,12.94,6.92l20.34-18.64c1.89-1.55,6.05-.67,7.57.86Z"/>
</svg>