<?xml version="1.0" encoding="UTF-8"?>
<svg id="Layer_1" xmlns="http://www.w3.org/2000/svg" version="1.1" viewBox="0 0 384 384" fill="#775D42">
  <path d="M352.5,351.75c4.28.25,9.14-1.03,12.78,1.84,4.71,3.71,3.64,11.59-1.85,13.97-113.13,1.62-226.56.24-339.8.69-6.28-.42-9.65-6.5-6.95-12.2s9.83-4.19,14.83-4.3v-121.12c0-2.86,6.04-7.94,9.35-7.15,24.98,2.1,54.32-2.7,78.78.03,1.7.19,4.27.87,5.61,1.89.72.55,3.02,4,3.02,4.48v121.88h15.75v-170.62c0-3.6,7.21-5.44,10.09-5.66,24.93-1.84,52.11,1.44,77.28.03,2.47-.33,8.62,3.33,8.62,5.63v170.62h15.75v-217.88c0-.48,2.29-3.93,3.02-4.48,1.34-1.03,3.91-1.7,5.61-1.89,24.46-2.73,53.8,2.07,78.78-.03,3.31-.79,9.35,4.29,9.35,7.15v217.12ZM336,144h-63.75v207.75h63.75v-207.75ZM223.5,192h-63v159.75h63v-159.75ZM111.75,240h-63.75v111.75h63.75v-111.75Z"/>
  <path d="M293.62,32.25c-7.1-1.53-7.82-14.32.16-16.34l65.87-.19c5.98-.04,9.61,4.94,8.41,10.71-6.69,19.59-8.74,43.91-15.77,62.99-3.55,9.64-15.31,8.36-16.33.24s6.98-29.22,8.69-38.62c.12-.66.89-1.99-.03-2.28-78.91,67.64-174.85,115.19-276.99,136.26-11.6,2.39-31.27,7.07-42.51,7.02-9.95-.04-12.98-10.23-4.89-15.42,106.78-14.97,208.25-56.98,292.85-123.4,8.4-6.59,16.87-13.5,24.41-20.97h-43.88Z"/>
</svg>