
<svg id="Layer_1" xmlns="http://www.w3.org/2000/svg" version="1.1" viewBox="0 0 384 384" fill="#775D42">
  <path d="M243.76,201c15.43-8.74,32.51-15.45,50.09-18.53,6.49-1.14,16.22-4.36,18.57,3.49,4.25,14.17,2.55,38.09.1,52.68-8.66,51.43-45.64,95.56-94.14,113.98-.51,5.22-.12,22.79-5.39,24.99s-27.63-3.57-34.12-5.59c-67.94-21.22-117.47-95.11-102.88-166.66.77-3.79,2.11-8.12,6.88-8.12,6.61,0,19.21,3.07,25.89,4.9,15.6,4.26,30.97,11.5,44.24,20.62.71-4.1-.95-2.47-3.26-3.85-12.67-7.54-8.74-19.54-9.49-31.77-1.69-27.57-9.76-38.86-21.38-61.87C84.63,57.54,151.06-15.22,221.64,11.24c42.59,15.96,64.79,66.4,46.24,108.52-3.96,9-10.23,17.19-14.27,26.23-7.66,17.1-10.32,36.34-9.85,55.02ZM231.75,183.75c.76-11.51,2.84-23.28,6.74-34.14,11.83-32.98,33.89-45.51,18.78-86.25C232.99-2.08,135.98,6.44,123.34,74.96c-6.53,35.38,12.03,45.87,22.18,74.65,3.82,10.83,5.9,22.7,6.74,34.14h20.25v-71.25h-16.12c-1.96,0-9.09-4.09-10.88-5.62-19.85-16.88-1.48-49.44,23.67-40.92,7.1,2.4,16.09,12.21,16.09,19.91v13.88h13.5v-13.88c0-7.7,8.99-17.51,16.09-19.91,25.15-8.52,43.52,24.04,23.67,40.92-1.8,1.53-8.92,5.62-10.88,5.62h-16.12v71.25h20.25ZM157.88,99.75c4.01.81,10.32-.59,14.62,0v-13.88c0-.31-2.76-4.88-3.25-5.37-7.93-7.99-21.57-.81-19.07,11.2.59,2.85,4.94,7.49,7.7,8.05ZM211.5,99.75h14.62c.64,0,4.17-2.58,4.91-3.34,10.29-10.72-5.93-26.32-16.28-15.9-.49.49-3.25,5.06-3.25,5.37v13.88ZM198.75,112.5h-13.5v71.25h13.5v-71.25ZM300.68,194.31c-36.88,4.92-71.58,26.33-92.79,56.7-2.15,3.08-9.72,14.59-10.33,17.48-.36,1.73,6.03,12.38,7.32,15.25,2.59,5.75,4.91,11.68,6.63,17.76l27.36-35.25c4.85-3.69,11.33,1.04,9.81,6.76l-32.51,44.07c.12,7.36,2.58,14.54,2.09,21.93,55.57-22.87,91.79-84.79,82.42-144.69ZM231,196.5h-78c-.03,4.87-1.16,10.73,4.92,11.96,21.47-1.4,45.58,2.01,66.74.08,7.56-.69,6.39-5.93,6.34-12.04ZM205.49,354.75c1.44-11.63-.08-24.67-2.48-36.14-11.71-55.9-58.42-100.35-115.26-107.86-9.43,69.6,38.28,138.57,107.25,152.24l-54.16-72.2c-2.79-5.96,3.4-11.53,8.96-8.21l55.7,72.16ZM216.75,221.25h-51c.11,4.41-1.23,9.61,3.71,11.66,10.79-.23,23.63,1.45,34.21.38,1.06-.11,2.15.11,3.01-.74l10.07-11.3ZM195.75,246h-15.75l9.74,11.25,6.01-11.25Z"/>
  <path d="M97.27,39.23c4.07,4.45.23,11.54-5.81,10.69-1.23-.17-16.54-8.68-17.93-9.82-5.59-4.56-2-12.39,4.78-11.58,1.22.15,18.06,9.73,18.96,10.71Z"/>
  <path d="M286.73,39.23c.9-.98,17.74-10.56,18.96-10.71,6.78-.81,10.37,7.02,4.78,11.58-1.4,1.14-16.71,9.65-17.93,9.82-6.04.85-9.88-6.24-5.81-10.69Z"/>
  <path d="M54.97,96.22c3.01-2.55,21.78-2.45,25.22-.54,5.09,2.83,3.82,10.63-1.86,11.52-3.17.5-17.87.54-20.8-.12-4.61-1.03-5.84-8.09-2.57-10.87Z"/>
  <path d="M329.03,96.22c3.27,2.77,2.04,9.84-2.57,10.87-2.92.65-17.62.61-20.8.12-5.67-.89-6.95-8.68-1.86-11.52,3.44-1.91,22.21-2.01,25.22.54Z"/>
  <path d="M90.54,152.39c6.02-1.36,11.26,5.31,6.62,10.39-1.36,1.49-16.55,10.23-18.57,10.73-6.99,1.73-11.33-6.71-3.84-12.14,1.46-1.06,14.83-8.76,15.79-8.98Z"/>
  <path d="M290.04,152.4c1.46-.32,2.58-.24,3.99.19,1.17.35,15.38,8.77,16.49,9.76,5.77,5.14,1.2,12.72-5.11,11.16-2.01-.5-16.62-8.85-18.2-10.35-3.9-3.7-2.02-9.69,2.83-10.76Z"/>
</svg>