<svg id="Glyph" enable-background="new 0 0 32 32" viewBox="0 0 32 32" xmlns="http://www.w3.org/2000/svg" fill="#775D42"><path d="m10.75 6h10.5l.15 3h-10.8z"/><path d="m9.8 25 .35-7h11.7l.35 7z"/><path d="m10.95 2h10.1l.15 3h-10.4z"/><path d="m22.45 30h-12.9l.2-4h12.5z"/><path d="m8.8 25h-3.443l.5-7h3.293z"/><path d="m9.6 9h-3.1l.214-3h3.036z"/><path d="m22.05 2h2.484c.262 0 .48.203.499.464l.181 2.536h-3.014z"/><path d="m22.25 6h3.035l.215 3h-3.1z"/><path d="m26.714 26 .247 3.464c.021.29-.208.536-.498.536h-3.013l-.2-4z"/><path d="m8.55 30h-3.013c-.29 0-.519-.246-.499-.536l.248-3.464h3.464z"/><path d="m6.786 5 .181-2.536c.019-.261.236-.464.499-.464h2.484l-.15 3z"/><path d="m26.643 25h-3.443l-.35-7h3.293z"/><path d="m28.25 8.5c-.414 0-.75.336-.75.75v.75h-23v-.75c0-.414-.336-.75-.75-.75s-.75.336-.75.75v11.5c0 .414.336.75.75.75s.75-.336.75-.75v-3.75h23v3.75c0 .414.336.75.75.75s.75-.336.75-.75v-11.5c0-.414-.336-.75-.75-.75zm-12.75 4.5h-3v-2h3zm1-2h3v2h-3zm-5 2h-3v-2h3zm0 1v2h-3v-2zm1 0h3v2h-3zm4 0h3v2h-3zm4 0h3v2h-3zm0-1v-2h3v2zm-16-2h3v2h-1c-.276 0-.5.224-.5.5s.224.5.5.5h1v2h-3zm20 5v-2h1c.276 0 .5-.224.5-.5s-.224-.5-.5-.5h-1v-2h3v5z"/></svg>