<svg clip-rule="evenodd" fill-rule="evenodd" height="512" image-rendering="optimizeQuality" shape-rendering="geometricPrecision" text-rendering="geometricPrecision" viewBox="0 0 1706.66 1706.66" width="512" xmlns="http://www.w3.org/2000/svg" xmlns:xodm="http://www.corel.com/coreldraw/odm/2003" fill="#775D42"><g id="Layer_x0020_1"><path d="m1441.6 1405.9c-9.3 0-30.04-11.69-45.61-11.69-5.4 0-46.23-20.59-89.56-44.42h150.39c2.74 19.81 13.54 56.11-15.22 56.11zm-202.44-94.87c-25.3-15.46-43.21-27.97-42.7-31.69l10.62-76.77h229.38l14.83 107.22c-26.82 0-200.44-1.54-212.13 1.24zm-26.55-148.45 14.83-107.21h188.67l14.82 107.21h-218.31zm20.36-147.2 10.43-75.41c1.99-14.39 41.56-58.78 78.48-55.78 9.22.75 50.64 8.79 78.27 55.81l10.42 75.38z"/><path d="m1499.2 1150.64c-6.78 0-13.2-3.46-16.9-9.32l-160.54-253.77-160.54 253.77c-9.37 14.8-31.86 11.18-36.25-5.66-24.51-94.2-.6-186.28 58.29-249.99l-195.15 51.19c-16.82 4.43-30.91-13.63-22.65-28.87 44.93-82.79 125.43-136.26 213.19-142.87l-177.41-95.81c-15.36-8.3-13.36-31.05 3.18-36.58 120.06-40.09 249.44 1.54 317.34 109.51 67.9-107.96 197.27-149.62 317.33-109.51 16.56 5.53 18.54 28.28 3.18 36.58l-177.42 95.81c86.8 6.53 166.5 58.91 211.7 140.15 12.32 18.63-4.88 35.88-21.15 31.58l-195.15-51.19c58.88 63.71 82.78 155.8 58.27 249.99-2.28 8.74-10.26 14.99-19.32 14.99zm-177.35-280.21c-69.87 0-69.84-106.16 0-106.16 69.85 0 69.9 106.16 0 106.16z"/><path d="m1686.54 1495.37h-805.65c-18.18 0-26.9-22.48-13.53-34.75 90.09-82.63 260.96-118.66 318.96-188.4 24.42-29.36 51.58.28 87.1 28.2 32.15 25.26 78.54 61.73 119.85 84.82 111.44-39.88 111.91-93.48 137.31-93.68 6.94.1 12.48 2.69 16.4 7.76 70.82 91.61 90.37 90.66 154.49 162.74 11.46 12.89 2.24 33.3-14.95 33.3z"/><path d="m1321.85 804.27c-17.2 0-17.2 26.18 0 26.18 17.21 0 17.23-26.18 0-26.18z"/><path d="m160.11 1512.03c-20.23 0-36.67-16.43-36.67-36.66v-107.12c0-48.28 73.33-48.28 73.33 0v107.12c0 20.23-16.43 36.66-36.66 36.66zm302.02 0c-20.23 0-36.67-16.43-36.67-36.66v-107.12c0-48.28 73.33-48.28 73.33 0v107.12c0 20.23-16.43 36.66-36.66 36.66zm302.02 0c-20.23 0-36.67-16.43-36.67-36.66v-107.12c0-48.28 73.33-48.28 73.33 0v107.12c0 20.24-16.42 36.66-36.66 36.66z"/><path d="m880.87 1512.04-840.13-.02c-48.28 0-48.28-73.33 0-73.33l840.13.02c48.28 0 48.28 73.33 0 73.33z"/><path d="m884.79 480.11c-41.79 0-75.81-34-75.81-75.81s34-75.81 75.81-75.81 75.81 34 75.81 75.81-34.01 75.81-75.81 75.81z"/><path d="m853.11 891.35c-10.93 0-21.36-3.24-30.15-9.39l-360.83-252.14-360.85 252.16c-43.59 30.43-73.32-12.82-90.41-33.8-17.85-21.92-12.78-53.34 10.13-69.35l429.69-300.26c6.88-4.81 16.02-4.81 22.9 0l429.69 300.26c22.91 16 28 47.44 10.13 69.35-18.13 22.25-29.86 43.18-60.3 43.18z"/><path d="m808.7 1388.25h-376.57c11.05 0 20-8.97 19.99-20v-76.54h376.59v76.53c-.02 11.04-8.96 20-20.02 20zm-356.57-136.53v-98.1c0-57.64-46.91-104.55-104.55-104.55h-61.17c-57.66 0-104.55 46.91-104.55 104.55v98.1h-86.29v-404.11c0-26.3 327.5-204.06 372.06-235.68 43.4 31.86 361.1 209.39 361.1 235.68v404.11h-376.59zm-270.28 40v76.54c0 11.03 8.96 20 20 20h-86.29c-11.04 0-20-8.97-20-20v-76.54zm86.56-32.38c-26.26 0-20-34.14-20-61.37 0-26.33 39.99-26.32 39.99 0 0 27.24 6.26 61.37-20 61.37zm-46.57 88.91h190.29v-194.64c0-35.59-28.95-64.55-64.56-64.55h-61.18c-35.59 0-64.56 28.96-64.56 64.55v194.64zm484.89-153.09h-172.61c-18.5 0-33.55-15.06-33.55-33.55v-118.63c0-18.5 15.04-33.55 33.55-33.55h172.61c18.5 0 33.54 15.05 33.54 33.55v118.63c0 18.5-15.06 33.56-33.54 33.56zm-166.16-40h159.7v-105.72h-159.7zm-78.44-226.45c-56.66 0-102.75-46.09-102.75-102.76 0-56.66 46.09-102.75 102.75-102.75s102.75 46.09 102.75 102.75-46.09 102.76-102.75 102.76zm0-165.53c-82.6 0-82.63 125.53 0 125.53s82.59-125.53 0-125.53z"/><path d="m883.5 1404.91h-842.74c-48.28 0-48.28-73.32 0-73.32h842.74c48.28 0 48.28 73.32 0 73.32z"/><path d="m784.57 358.33c-22.78 0-45.43-30.27-60.46-45.3-34.03-34 17.85-85.87 51.84-51.84 21.39 21.41 66.69 54.29 34.54 86.4-6.89 6.88-16.19 10.74-25.92 10.74z"/><path d="m743.06 458.55c-30.26 0-85.53 8.76-85.53-36.66 0-46.41 59.93-36.67 85.53-36.67 48.28 0 48.28 73.33 0 73.33z"/><path d="m750.02 558.17c-32.53 0-48.95-39.56-25.94-62.59 21.4-21.43 54.31-66.67 86.42-34.56s-13.59 65.51-34.57 86.43c-6.89 6.87-16.17 10.73-25.91 10.73z"/><path d="m884.79 613.99c-46.41 0-36.66-59.94-36.66-85.53 0-48.28 73.33-48.28 73.33 0 0 30.26 8.76 85.53-36.67 85.53z"/><path d="m1021.19 580.94c-22.79 0-45.43-30.26-60.48-45.29-34.04-34.01 17.86-85.88 51.86-51.85 21.36 21.4 66.69 54.26 34.54 86.39-6.89 6.88-16.18 10.74-25.92 10.74z"/><path d="m1075.37 458.55c-30.26 0-85.53 8.76-85.53-36.66 0-46.41 59.94-36.67 85.53-36.67 48.28 0 48.28 73.33 0 73.33z"/><path d="m985 358.33c-32.54 0-48.97-39.57-25.93-62.59 21.42-21.39 54.27-66.68 86.41-34.54 32.83 32.83-16.44 68.27-34.54 86.39-6.89 6.89-16.19 10.75-25.93 10.75z"/><path d="m884.79 316.81c-46.41 0-36.66-59.94-36.66-85.53 0-48.28 73.33-48.28 73.33 0 0 30.28 8.75 85.53-36.67 85.53z"/></g></svg>