
<svg version="1.1" id="Layer_1" xmlns="http://www.w3.org/2000/svg" xmlns:xlink="http://www.w3.org/1999/xlink" x="0px" y="0px"
	 viewBox="0 0 100 100" style="enable-background:new 0 0 100 100;" xml:space="preserve">
<style type="text/css">
	.st0{fill:#775d42;}
</style>
<g>
	<polygon class="st0" points="68.1,82.4 72,83.7 75.3,69.5 70.3,69.5 68.1,74.1 	"/>
	<path class="st0" d="M51.8,89.2c0,2,1.6,3.6,3.6,3.6c2,0,3.6-1.6,3.6-3.6V69.5h-7.2V89.2z"/>
	<path class="st0" d="M63.8,92.8c2,0,3.6-1.6,3.6-3.6V69.5h-7.2v19.7C60.2,91.2,61.8,92.8,63.8,92.8z"/>
	<path class="st0" d="M31.1,92.8c2.5,0,4.5-2,4.5-4.5v-6.5l-0.1,0l-7.2,2.5l-0.8,0.3l-0.2-0.8l-0.7-3v7.4
		C26.6,90.8,28.6,92.8,31.1,92.8z"/>
	<path class="st0" d="M44.5,15.3c0,4.5-3.6,8.1-8.1,8.1c-4.5,0-8.1-3.6-8.1-8.1c0-4.5,3.6-8.1,8.1-8.1C40.9,7.2,44.5,10.8,44.5,15.3
		"/>
	<path class="st0" d="M61.4,10.8c4.2,1,6.8,5.1,5.8,9.3c-1,4.2-5.1,6.8-9.3,5.8c-4.2-1-6.8-5.1-5.8-9.3C53,12.5,57.2,9.9,61.4,10.8"
		/>
	<path class="st0" d="M18.6,57.7l-4.1,8.7l0.4,0.1L8,81.2l7.2,2.5l3.7-15.7l0.3,0.1l0,0.3h0.5l-1.7,16.1h7.6l-1.7-16.1h0.5l0-0.3
		l0.3-0.1l0,0L28,83.7l7.2-2.5l-6.9-14.6l0.4-0.2l-4.3-9.2c0-0.1,0-0.2,0-0.3c0-0.5-0.1-0.9-0.1-1.4c-0.1-1.8-0.1-3.6-0.1-5.2
		c0-7,0.8-11.6,1.8-14.4c0.2-0.7,0.5-1.3,0.7-1.8v26.3l2.7,5.7l0.3,0.7L29.3,67l6.3,13.3V55.8h1.7v32.6c0,2.5,2,4.5,4.5,4.5
		c2.5,0,4.5-2,4.5-4.5V69.5h-3.1l0.2-0.9l2.9-15V53l0-22.5c1.3-0.4,3.3-0.9,5.6-1.3c-1.3,0.6-3,1.7-4.7,3.8c0,0-0.1,0.1-0.1,0.1v9.2
		c1.1-2.7,2.3-4.6,3.4-5.9L49,42.8l0,0l-5,25.9h31.3L69,36.4c0.1,0.1,0.1,0.1,0.2,0.2c2.4,3.1,5.3,9,6.8,20.1l-1.6,3.4l0.2,1.2
		l1.7-3.5c0.2,0.3,0.4,0.6,0.7,0.8l-0.5,4.5l-0.6,2.4l-0.6-0.2l0.5,2.7l0.1,0l0,0.3h0.5l-1.7,16.1h7.6l-1.7-16.1h0.5l0-0.3l0.3-0.1
		l0,0l3.7,15.7l7.2-2.5l-6.9-14.6l0.4-0.2l-4.7-10l-0.2,0.1c0-0.1,0-0.1,0-0.2c-1.4-10.4-3.9-16.9-6.6-21c-0.1,0-0.2,0-0.4,0
		c-1,0-1.9-0.4-2.6-1.1c-0.7-0.8-1.5-1.4-2.4-2l-0.1-0.9c1.1,0.6,2.1,1.4,3,2.4c0.6,0.6,1.3,0.9,2.1,0.9c0.7,0,1.5-0.3,2-0.8
		c1.1-1.1,1.1-3,0-4.1c-2.6-2.7-5.7-4.4-8.9-5.4c-0.3-0.1-0.6-0.2-0.9-0.3c-1.6,1.7-3.8,2.8-6.3,2.8c-0.6,0-1.3-0.1-1.9-0.2
		c-2.1-0.5-3.8-1.7-5-3.4c-4.8,0.6-8.5,1.8-9.9,2.2H29.4c0,0-0.1,0-0.1,0c-0.6,0-1.5,0.1-2.6,0.6c-0.1,0.1-0.2,0.1-0.3,0.2
		c-1.9,1-4,3.1-5.5,6.8c-1.5,3.7-2.5,9.2-2.5,17.3c0,1.8,0.1,3.7,0.2,5.8c0,0.4,0,0.7,0.1,1.1C18.6,57.5,18.6,57.6,18.6,57.7z
		 M76.9,66l0.3-2.7l1-4.2c0,0,0.1,0,0.1,0c0.1,0,0.2,0,0.3,0c0,0,0.1,0,0.1,0l1,4.3l0.3,2.7H76.9z M80.9,65.5l-0.6-2.4l-0.5-4.7
		c0.3-0.3,0.5-0.6,0.6-0.9l3.3,7L80.9,65.5z M19.1,65.5l-2.9-1l2.8-5.9c0.3,0.4,0.6,0.8,1,1l-0.4,3.5L19.1,65.5z M20.1,66l0.3-2.7
		l0.8-3.2c0.1,0,0.2,0,0.4,0c0.1,0,0.1,0,0.2,0c0.1,0,0.3,0,0.4-0.1l0.8,3.3l0.3,2.7L20.1,66L20.1,66z M27,64.5l-2.9,1l-0.6-2.4
		l-0.4-3.6c0.4-0.3,0.7-0.7,0.9-1.1L27,64.5z"/>
</g>
</svg>
