<svg id="Layer_1" enable-background="new 0 0 512 512" viewBox="0 0 512 512" xmlns="http://www.w3.org/2000/svg"><path fill="#775D42" d="m158.44 178.18h-4.5v-3.18h4.5zm-38.66-3.18v3.18h4.5v-3.18zm-34.22 0v3.18h4.55v-3.18zm237.67-26.15c9.24-3.54 32.49-7.63 40.2-13.93 4.8-3.09 9.46 2.62 14.26 3.23 5.67 1.58 11.63 2.73 15.85 7.29.53-10.7-7.69-21.67-16.95-22.92-1.21-.28-2.3-.93-3.07-1.92-22.31-26.43-54.8-1.79-50.29 28.25zm63.78 12.94c.75-4.24.09-9.75-4.83-10.97-4.63-1.3-10.92-2.93-15.24-5.05-7.32 5.05-27.15 9.32-35.7 12.06.18 15.83 11.02 35.19 28.19 36.52 15.52-1.46 25.93-18.09 27.58-32.56zm-17.38 41.56c-7.32 3.06-15.91 2.55-23.03-.93l-1.48 6.14c8.61 3.95 17.6 3.51 26.21 0l-.11-.44c0-.05-1.15-4.94-1.15-4.94-.17.07-.28.12-.44.17zm51.16 69.76-3.45-35.37c-.27-6.73-7.67-10.4-13.22-13.11l-13.11 28.19c7.71-1 15.31 4.25 15.25 12.45v7.84zm-25.5-7.84c0-.82-.66-1.48-1.43-1.48h-71.24c-.77 0-1.43.66-1.43 1.48v7.84h74.09v-7.84zm-67.12-43.71c-1.37-1.05-2.45-2.31-3.73-3.4l-2.41 1.32 15.52 33.34h41.4l15.52-33.4-2.41-1.26c-14.54 15.22-40.39 17.54-58.35 7.24-1.98-1.15-3.8-2.42-5.54-3.84zm-21.94 6.31c-4.06 2.14-6.69 5.87-7.07 9.87l-3.46 35.37h14.53v-7.84c-.06-8.16 7.5-13.44 15.19-12.45l-13.11-28.19zm159.31 283.13h10.64v-196.49h-10.64zm-75.62-138.91v-8.39c0-.55-.44-.99-.99-.99h-92.57c-.55 0-.99.44-.99.99v8.39c0 .55.44.99.99.99h92.57c.55 0 .99-.44.99-.99zm-74.69 38.88h54.84l-5.04-26.93h-44.75zm64.65 52.48-7.79-41.51h-58.9l-7.79 41.51zm-76.55 10.97-2.69 14.31h83.96l-2.63-14.31zm-183.05 0-2.63 14.31h83.96l-2.69-14.31zm76.55-10.97-7.79-41.51h-58.9l-7.79 41.51zm-64.65-52.48h54.84l-5.04-26.93h-44.75zm74.68-38.88v-8.39c0-.55-.44-.99-.99-.99h-92.57c-.55 0-.99.44-.99.99v8.39c0 .55.44.99.99.99h92.57c.56 0 .99-.44.99-.99zm-149.43 116.65h49.03l19.58-104.69h-12.72c-6.58 0-11.96-5.37-11.96-11.95v-8.39c0-6.58 5.37-11.95 11.96-11.95h92.57c6.58 0 11.95 5.37 11.95 11.95v8.39c0 6.58-5.37 11.95-11.95 11.95h-12.72c4.06 21.63 15.36 82.1 19.58 104.69h76.77l19.58-104.69h-12.72c-6.58 0-11.95-5.37-11.95-11.95v-8.39c0-6.58 5.37-11.95 11.95-11.95h92.57c6.58 0 11.96 5.37 11.96 11.95v8.39c0 6.58-5.37 11.95-11.96 11.95h-12.72c4.06 21.63 15.36 82.11 19.58 104.69h58.79v-174.23h-397.17zm-21.55 22.26h10.58v-196.49h-10.58zm454.99-226.92c-1.23 1.09-470.98-2.09-470.84 1.09v17.28c0 .6.49 1.1 1.1 1.1h469.75c.6 0 1.1-.49 1.1-1.1v-17.27c-.01-.61-.5-1.1-1.11-1.1zm-422.53-91.75h107.32c.6 0 1.04.49 1.04 1.04v79.74h-109.4v-79.74c0-.54.44-1.04 1.04-1.04zm6.25 34.28c0 3.02 2.47 5.48 5.48 5.48h49.74c3.02 0 5.48-2.47 5.48-5.48v-19.36c0-3.02-2.47-5.48-5.48-5.48h-49.73c-3.02 0-5.48 2.47-5.48 5.48v19.36zm49.74-13.88h-38.77v8.39h38.77zm360.4-186.72h-146.8v39.1h146.8zm-330.78 56.75v-74.36c0-4.06 3.35-7.4 7.4-7.4h158.21c4.06 0 7.4 3.35 7.4 7.4v74.36c0 4.06-3.35 7.4-7.4 7.4h-158.21c-4.06.01-7.4-3.34-7.4-7.4zm39.31-35.15c2.45 21.54 18.18 37.42 35.97 31.26 25.87 11.87 63.56-26.84 42.17-50.12 0 0 0-.05-.05-.05-.05-.05-.11-.05-.11-.05-7.07-6.91-18.21-8.01-28.95-3.73-6.27-11.11-16.68-17.32-27.42-15.24 0 .01-.11-.03-.11.05-14.24 2.78-23.47 19.07-21.5 37.88zm63.4 15.41c7.12-6.01 12.78-16.26 8.56-24.46-2.84.35-5.72 1.35-8.12 2.91-3.84 2.58-4.5 6.53-4.83 10.8-.12 4.84-1.84 12.48-6.58 16.78 3.73-1.09 7.51-3.18 10.97-6.03zm-28.85-6.47c-.45 2.64-.36 7.09 1.59 8.88 3.9-.91 7.96-2.71 10.09-6.25 2.03-3.4 1.7-7.51 2.14-11.3.49-5.09 2.88-10.02 6.69-13.49-9.73 3.29-18.93 11.55-20.51 22.16zm-5.43-16.89c.16.16.38.27.55.44-.55-.44 9.76-9.98 9.76-9.93-3.35-5.98-8.23-9.71-13.22-9.93-.55 0-1.86 4.83-1.97 5.37-1.61 5.3.43 10.87 4.88 14.05zm-3.83 29.12c-2.63-5.54-2.8-12.12-.71-18.64-5.07-3.68-11.6-10.49-11.84-18.7-5.54 11.99.88 34.3 12.55 37.34zm-75.57-42.77h-122.95v39.1h122.95z"/></svg>