
<svg xmlns="http://www.w3.org/2000/svg" version="1.1" viewBox="0 0 48 48" fill="#775D42">
  <path d="M38.75,2.8h6.45v6.45c-.17.16-.25.43-.53.42-1.84-.13-3.9.17-5.71,0-.47-.04-.58-.14-.62-.62-.17-1.81.13-3.87,0-5.71,0-.28.25-.36.42-.53ZM43.88,4.12h-4.22v4.22h4.22v-4.22Z"/>
  <path d="M9.31,2.8c.16.17.43.25.42.53-.13,1.84.17,3.9,0,5.71-.04.48-.15.58-.62.62-1.79.16-3.82-.13-5.63,0-.37.03-.58-.29-.62-.62-.21-1.73.16-3.85,0-5.63,0-.3.2-.45.42-.62h6.04ZM8.4,4.12h-4.22v4.22h4.22v-4.22Z"/>
  <path d="M45.2,38.69v6.04c-.17.21-.31.42-.62.42-1.77-.16-3.9.21-5.63,0-.33-.04-.65-.24-.62-.62.13-1.81-.16-3.84,0-5.63.04-.47.14-.58.62-.62,1.81-.17,3.87.13,5.71,0,.28,0,.36.25.53.42ZM43.88,39.6h-4.22v4.22h4.22v-4.22Z"/>
  <path d="M14.69,13.63l9.37,9.34,9.31-9.3c-.67-.1-2.45.66-2.63-.35-.13-.7.54-.76,1.03-.84,1.14-.18,2.32-.21,3.46-.41.39.03.65.3.69.69-.2,1.14-.22,2.32-.41,3.46-.08.49-.13,1.16-.84,1.03-1.01-.18-.25-1.97-.35-2.63l-9.3,9.31,9.3,9.37c.1-.67-.66-2.45.35-2.63.71-.13.75.54.84,1.03.19,1.14.21,2.32.41,3.46-.03.39-.3.65-.69.69-1.14-.2-2.32-.23-3.46-.41-.49-.08-1.16-.14-1.03-.84.18-1.01,1.97-.25,2.63-.35l-9.31-9.3-9.37,9.3c.67.1,2.45-.66,2.63.35.12.68-.56.76-1.03.84-1.14.18-2.32.22-3.46.41-.39-.03-.65-.3-.69-.69.2-1.14.22-2.32.41-3.46.08-.49.13-1.16.84-1.03,1.01.18.25,1.97.35,2.63l9.3-9.31-9.3-9.37c-.12.66.67,2.45-.35,2.63-.71.13-.75-.54-.84-1.03-.19-1.14-.21-2.32-.41-3.46.03-.39.3-.65.69-.69l4.16.54c.65.4.29,1.28-.43,1.26-.57-.01-1.28-.23-1.86-.25Z"/>
  <path d="M3.25,38.29l6.15.02c.28.1.31.31.33.58.17,1.81-.13,3.87,0,5.71-.04.39-.36.51-.7.54-1.76.16-3.76-.13-5.55,0-.38-.03-.58-.26-.62-.62-.2-1.74.16-3.85,0-5.63,0-.25.17-.48.39-.6ZM8.4,39.6h-4.22v4.22h4.22v-4.22Z"/>
  <path d="M22.44,5.63c.34-.08,2.85-.08,3.19,0,.71.16.56,1.19-.15,1.3-.41.06-2.59.07-2.95-.01-.65-.15-.77-1.13-.08-1.29Z"/>
  <path d="M6.15,21.91c.44-.09.8.27.85.69.06.47.07,2.47-.02,2.88-.15.68-1.21.8-1.31-.06-.07-.57-.08-2.42,0-2.97.04-.24.23-.48.47-.53Z"/>
  <path d="M41.62,21.91c.43-.09.72.19.77.6.07.57.08,2.43,0,2.97-.12.79-1.22.68-1.32-.16-.06-.54-.07-2.29,0-2.81.04-.25.3-.56.55-.61Z"/>
  <path d="M22.52,41.02c.32-.07,2.7-.07,3.02,0,.68.15.77,1.18.01,1.3-.43.07-2.73.07-3.12-.01-.69-.15-.56-1.14.08-1.29Z"/>
  <path d="M20.45,41.19c.39.36.18,1.04-.35,1.13-.5.08-2.55.08-3.05,0-.72-.11-.67-1.19.08-1.31.52-.08,2.26-.07,2.81,0,.15.02.4.09.51.19Z"/>
  <path d="M20.45,6.74c-.11.1-.36.18-.51.19-.57.06-2.16.07-2.72,0-.9-.13-.87-1.2-.17-1.31.49-.08,2.55-.08,3.05,0,.53.08.74.77.35,1.13Z"/>
  <path d="M27.62,6.74c-.39-.36-.18-1.04.35-1.13.5-.08,2.55-.08,3.05,0,.7.11.73,1.18-.17,1.31-.56.08-2.15.07-2.72,0-.15-.02-.4-.09-.51-.19Z"/>
  <path d="M6.81,20.38c-.36.39-1.04.18-1.13-.35-.08-.5-.08-2.55,0-3.05.11-.7,1.18-.73,1.31.17.08.56.07,2.15,0,2.72-.02.15-.09.4-.19.51Z"/>
  <path d="M41.26,20.38c-.1-.11-.18-.36-.19-.51-.06-.57-.07-2.16,0-2.72.13-.9,1.2-.87,1.31-.17.08.49.08,2.55,0,3.05-.08.53-.77.74-1.13.35Z"/>
  <path d="M6.81,27.55c.1.11.18.36.19.51.06.57.07,2.16,0,2.72-.13.9-1.2.87-1.31.17-.08-.49-.08-2.55,0-3.05.08-.53.77-.74,1.13-.35Z"/>
  <path d="M41.26,27.55c.36-.39,1.04-.18,1.13.35.08.5.08,2.55,0,3.05-.11.7-1.18.73-1.31-.17-.08-.56-.07-2.15,0-2.72.02-.15.09-.4.19-.51Z"/>
  <path d="M27.62,41.19c.11-.1.36-.18.51-.19.57-.06,2.16-.07,2.72,0,.9.13.87,1.2.17,1.31-.49.08-2.55.08-3.05,0-.53-.08-.74-.77-.35-1.13Z"/>
  <path d="M11.69,41.02c.44-.08,2.51-.09,2.94,0,.62.13.79.94.27,1.23-.49.27-2.69-.03-3.38.06-.6-.33-.56-1.16.17-1.29Z"/>
  <path d="M11.52,5.63h3.27c.64.35.5,1.19-.24,1.3-.48.07-2.39.07-2.87-.01-.7-.12-.77-.98-.17-1.29Z"/>
  <path d="M33.27,5.63h3.27c.64.36.52,1.19-.24,1.3-.48.07-2.42.08-2.87-.01-.69-.14-.78-.98-.17-1.29Z"/>
  <path d="M6.07,11.08c.55-.16.87.17.93.69.06.55.08,2.2,0,2.72-.13.86-1.23.82-1.32.09-.06-.46-.07-2.64,0-3.06.03-.14.25-.4.39-.44Z"/>
  <path d="M41.54,11.08c.41-.09.8.09.85.52.06.46.07,2.64,0,3.06-.12.63-1.21.7-1.32-.24-.07-.56-.07-2.17,0-2.72.04-.29.16-.54.46-.61Z"/>
  <path d="M6.07,32.83c.53-.16.88.18.94.68.06.53.07,2.29-.02,2.79-.14.79-1.21.73-1.31.02-.06-.46-.07-2.64,0-3.06.03-.14.25-.4.39-.44Z"/>
  <path d="M41.54,32.83c.41-.1.8.09.85.52.06.46.07,2.64,0,3.06-.12.62-1.21.73-1.32-.25-.06-.55-.08-2.19,0-2.72.04-.25.21-.55.47-.61Z"/>
  <path d="M33.44,41.02c.4-.08,2.62-.08,3,.02.58.14.69.94.21,1.21s-2.69-.03-3.38.06c-.61-.31-.52-1.15.17-1.29Z"/>
</svg>