
<svg version="1.1" id="Layer_1" xmlns="http://www.w3.org/2000/svg" xmlns:xlink="http://www.w3.org/1999/xlink" x="0px" y="0px"
	 viewBox="0 0 100 100" style="enable-background:new 0 0 100 100;" xml:space="preserve">
<style type="text/css">
	.st0{fill:#775d42;}
</style>
<g>
	<path class="st0" d="M53.9,86.7H47V74c-0.2-0.2-0.5-0.4-0.8-0.4h-0.1c-0.2,0-0.5,0-0.7,0.1v12.9h-5.8c-0.5,0-0.8,0.4-0.8,0.8
		c0,0.5,0.4,0.8,0.8,0.8h14.4c0.5,0,0.8-0.4,0.8-0.8C54.8,87,54.4,86.7,53.9,86.7"/>
	<path class="st0" d="M62,64.2H30.9c-0.1,0-0.2,0.1-0.2,0.2v11.3c1-1.4,3.1-3.9,4.9-3.9c1.4,0,2,1.1,2.6,1.9c0.6,1,1.2,1.8,2.5,1.8
		c0.8,0,1.2-0.5,1.8-1.3c0.6-0.8,1.3-1.9,2.9-2.1h0.7h0.1c0.4,0,0.6,0.1,0.8,0.1c1.1,0.4,1.7,1.2,2.4,1.9c0.7,0.8,1.3,1.5,2.3,1.7
		c1.4,0.1,2.3-1,3.2-2.1c0.7-1,1.5-1.9,2.6-2c2.1-0.2,3.9,2.3,4.8,3.8v-11C62.3,64.3,62.1,64.2,62,64.2"/>
	<polygon class="st0" points="35.7,62.6 36.2,62.6 36.7,62.6 36.7,62.5 36.7,58.7 39.4,56.5 33.2,56.5 35.7,58.7 35.7,62.5 	"/>
	<polygon class="st0" points="57,62.6 57.6,62.6 58.1,62.6 58.1,62.5 58.1,58.7 60.7,56.5 54.5,56.5 57,58.7 57,62.5 	"/>
	<path class="st0" d="M41.8,58.9v3.3c0,0.1,0.1,0.2,0.1,0.2l0.1,0.1h8.8c0,0,0.1,0,0.1-0.1c0.1,0,0.1-0.1,0.1-0.2v-3.3
		c0-0.1-0.1-0.4-0.4-0.4h-1.3v-2.7h-0.5h-0.5v2.9h-1.5v-2.9h-0.5h-0.4v2.9h-1.5v-2.9H44h-0.5v2.9h-1.4
		C41.9,58.7,41.8,58.8,41.8,58.9"/>
	<path class="st0" d="M44.8,54.4c0-0.8-0.8-2.6-0.8-2.6s-0.7,1.7-0.7,2.5c0,0.6,0.4,1,0.7,1C44.5,55.2,44.8,54.9,44.8,54.4"/>
	<path class="st0" d="M47.3,54.4c0-0.8-0.8-2.6-0.8-2.6s-0.7,1.7-0.7,2.5c0,0.6,0.4,1,0.7,1C47,55.2,47.3,54.9,47.3,54.4"/>
	<path class="st0" d="M49.8,54.4c0-0.8-0.8-2.6-0.8-2.6s-0.7,1.7-0.7,2.5c0,0.6,0.4,1,0.7,1C49.5,55.2,49.8,54.9,49.8,54.4"/>
	<path class="st0" d="M79.2,35.2c2.1,0,3.9-1.3,4.8-3.1l-8.5-5.7c-1,1-1.5,2.3-1.5,3.7C73.9,32.8,76.3,35.2,79.2,35.2"/>
	<path class="st0" d="M57.7,39.3c-1.2-2.1-2.1-3.9-2.7-5c-0.7,0.8-1.4,1.5-2,2.3C53.9,37.1,55.7,38.1,57.7,39.3"/>
	<path class="st0" d="M50.6,35.1l0.5,0.1l0.5-1.1L51,33.9c-1.2-0.2-3.9-1-5.6-2.3c1.4,0.1,2.1-0.6,2.5-1.3c0.4-1.2-0.4-3-1.9-3.6
		c-0.6-0.2-1.8-0.4-2.5,0.4c-0.4,0.4-0.7,0.8-0.7,1.8c0,0.2,0.1,0.6,0.1,0.8c-2-0.8-3.9-1.9-3.9-1.9l-0.6,1.1
		c0.1,0.1,2.5,1.4,5.1,2.4C44.6,33.6,48.9,34.6,50.6,35.1 M44,28c0.4-0.4,1.1-0.2,1.3-0.1c1,0.4,1.4,1.4,1.2,2.1
		c-0.2,0.7-1,0.6-1.4,0.5c-0.4-0.1-0.7-0.2-1.1-0.4L43.9,30c-0.1-0.4-0.2-0.8-0.2-1.1C43.7,28.4,43.8,28.2,44,28"/>
	<rect x="49.3" y="11" transform="matrix(-0.7659 0.643 -0.643 -0.7659 96.438 -11.16)" class="st0" width="1.9" height="1.9"/>
	
		<rect x="33.4" y="24.6" transform="matrix(-6.515538e-002 0.9979 -0.9979 -6.515538e-002 62.0675 -7.0439)" class="st0" width="1.9" height="1.9"/>
	
		<rect x="52" y="24.8" transform="matrix(-0.9781 0.2083 -0.2083 -0.9781 110.0911 45.9567)" class="st0" width="1.2" height="7.9"/>
	<path class="st0" d="M43.1,22.2c0.6,0,1.1-0.5,1.1-1.1c0-0.6-0.5-1.1-1-1.1c-0.6,0-1.1,0.5-1.1,1.1C42.1,21.8,42.6,22.2,43.1,22.2"
		/>
	<path class="st0" d="M38.7,37.5c0.6,0,1.1-0.5,1.1-1c0-0.6-0.5-1.1-1-1.1c-0.6,0-1.1,0.5-1.1,1C37.7,37,38.1,37.5,38.7,37.5"/>
	<path class="st0" d="M76.9,25.3c1.8,1.2,6,4,7.4,5c0-0.1,0-0.2,0.1-0.5c0.4-2.5,1.4-10.1,1.8-13c-2.3,1.9-8.5,7-9.8,8
		C76.6,25.1,76.8,25.2,76.9,25.3"/>
	<polygon class="st0" points="88.1,15.6 87.7,15.6 88.1,15.7 91.3,17.4 92.2,15.3 	"/>
	<path class="st0" d="M9.2,29.6c0,2.9,2.4,5.2,5.2,5.2c2.9,0,5.2-2.4,5.2-5.2c0-0.7-0.1-1.4-0.5-2.1L9.2,29.6z"/>
	<path class="st0" d="M15.9,37.5c-1.7-0.1-1.2-0.1-1.7-0.1c-3.5,0-6.3,2.9-6.3,6.3c0,0-0.1,13.3-0.1,16.1c0,3.8,3.7,5.2,3.7,5.2
		s-0.4,16.5,0,21.1c0.4,4.2,6.8,3.2,6.8,3.2V65c1.5-0.8,2.4-2.3,2.4-4V43.7C20.7,42.8,20.5,38.6,15.9,37.5"/>
	<polygon class="st0" points="12.4,19.5 9.8,23.9 16.3,22.5 	"/>
	<path class="st0" d="M9.5,27.8c2.1-0.5,6.7-1.4,8.6-1.8c0.2-0.1,0.5-0.1,0.7-0.1c-0.1-0.7-0.2-1.3-0.5-2c-0.5,0.1-1.7,0.4-3.2,0.7
		c-1.2,0.2-2.5,0.5-3.7,0.7c-1.5,0.4-2.9,0.6-3.3,0.7c0.1,0.7,0.2,1.3,0.5,2C8.8,28,9.2,27.8,9.5,27.8"/>
	<polygon class="st0" points="34.8,14.6 32.3,15.5 34.8,17.4 	"/>
	<polygon class="st0" points="50.8,20.7 51.4,18.2 49.5,19.1 	"/>
	<path class="st0" d="M79.4,37.4c-0.5,0,0-0.1-1.7,0.1c-3.2,0.8-4.3,3.2-4.5,4.9l-3.2,2l-0.4-0.1c-0.6-0.2-6.3-2.3-7-2.6
		c-0.7-0.4-1.4-0.5-2-0.6c-0.4,0-0.6,0-1,0.1h-0.1h-0.1c-0.2,0.1-0.5,0.4-0.7,0.6c-0.1,0.2-0.2,0.4-0.4,0.7c-0.7,1.8,1,2.9,2,3.3
		c0.6,0.2,5,2,8.7,3.3c1.3,0.5,1.9,0.6,3.8-0.5l0.2-0.1l5.7-3.9l0.5-0.4c0.2-0.2,0.8-0.2,1.1,0.1c0.2,0.5,0.1,1-0.1,1.2L73.8,50
		l-0.7,0.4v10.4c0,1.8,0.8,3.2,2.4,4V89c0,0,6.4,1.1,6.8-3.2c0.4-4.5-0.1-21.1-0.1-21.1s3.7-1.4,3.7-5.2c0-2.7-0.1-16.1-0.1-16.1
		C85.7,40.2,83,37.4,79.4,37.4"/>
	<path class="st0" d="M26.4,29.7L24.3,30l-0.1-1l-1.4,0.1l0.1,1l-1.8,0.1c-0.4,0-0.7,0.4-0.7,0.8c0,0.4,0.4,0.7,0.8,0.7l5.2-0.5
		c0.4,0,0.7-0.4,0.7-0.8C27.3,30,26.9,29.7,26.4,29.7"/>
</g>
</svg>
