<svg id="Capa_1" enable-background="new 0 0 512 512" height="512" viewBox="0 0 512 512" width="512" xmlns="http://www.w3.org/2000/svg" fill="#775D42"><g><path d="m497 177h-58v-36.469c18.58-6.276 32-23.86 32-44.531v-40c0-8.284-6.716-15-15-15h-64c-8.284 0-15 6.716-15 15v40c0 20.671 13.42 38.255 32 44.531v36.469h-90v-36.469c18.58-6.276 32-23.86 32-44.531v-40c0-8.284-6.716-15-15-15h-64c-8.284 0-15 6.716-15 15v40c0 20.671 13.42 38.255 32 44.531v36.469h-66v-41c0-8.284-6.716-15-15-15h-105v-26h9c8.284 0 15-6.716 15-15s-6.716-15-15-15h-48c-8.284 0-15 6.716-15 15s6.716 15 15 15h9v26h-25c-8.284 0-15 6.716-15 15v41h-18c-8.284 0-15 6.716-15 15v25.999c0 8.284 6.716 15 15 15h482c8.284 0 15-6.716 15-15v-25.999c0-8.284-6.716-15-15-15z"/><path d="m111 339.001h74v26h-74z"/><path d="m132.707 395.001-12.667 75.999h55.92l-12.667-75.999z"/><path d="m25 456c0 8.284 6.716 15 15 15h49.627l12.666-75.999h-6.293c-8.284 0-15-6.716-15-15v-56c0-8.284 6.716-15 15-15h104c8.284 0 15 6.716 15 15v56c0 8.284-6.716 15-15 15h-6.293l12.666 75.999h99.254l12.666-75.999h-6.293c-8.284 0-15-6.716-15-15v-56c0-8.284 6.716-15 15-15h104c8.284 0 15 6.716 15 15v56c0 8.284-6.716 15-15 15h-6.293l12.666 75.999h49.627c8.284 0 15-6.716 15-15v-193.001h-462z"/><path d="m348.707 395.001-12.667 75.999h55.92l-12.667-75.999z"/><path d="m327 339.001h74v26h-74z"/></g></svg>