
<svg id="Layer_1" xmlns="http://www.w3.org/2000/svg" version="1.1" viewBox="0 0 384 384" fill="#775D42">
  <path d="M158.07,117.94c14.94-2.04,24.2,5.21,33.66,15.5,4.53-2.89,7.37-7.47,11.88-10.46,23.87-15.84,53.15,5.2,46.53,33.04-.4,1.7-2.51,5.27-2.39,6.38.09.79,8.63,9.1,9.89,9.34h59.22c2.99-.57,23.28-23.48,28.13-27.37,18.14-14.56,41.02,5.48,29.57,25.07-15.08,17.28-32.56,32.47-48.16,49.34l-.49,85.76c-.61,1.56-1.82,2.76-3.38,3.38h-70.58c-2.26-.72-3.07-3-2.99-5.25l-.12-83.13c-7.61-10.08-17.89-18.19-26.43-27.58l-1.53-.73c-2.95,0-23.97,25.99-28.55,26.27-1.46.09-2.64-.57-3.7-1.5l-23.97-24.04c-.61-.62-1.27-.85-2.13-.63-3.26.86-21.72,23.01-26.37,26.2-1.09,1.22-1.06,2.55-1.19,4.06-2.37,25.93,1.84,55.48.05,81.8-.46,3.87-1.94,4.56-5.6,4.9-20.72,1.9-44.29-1.52-65.32,0-2.72.13-4.98-1.23-6-3.75l-.49-85.76-46.97-47.53c-11.03-14.56.47-34.48,18.82-31.56,12.08,1.92,26.82,24.7,37.08,31.92l59.83.14c1.26-.24,9.8-8.55,9.89-9.34.11-.98-2.1-5.19-2.53-6.99-3.98-16.76,6.85-35.07,24.35-37.46ZM240,153.75c4.73-19.44-16.26-33.53-32.25-20.63-3.81,3.07-10.97,13-15.38,13.19-5.75.24-14.06-13.2-20.57-16.21-14.77-6.84-32.06,6.07-27.89,21.9.19.74-.29,2.39,1.22,1.75,2.08-.87,8.07-8.82,10.93-10.82,17.88-12.49,39.88,9.39,27.28,27.28-2.79,3.96-9.11,7.91-11.62,11.64-.51.76-.9,1.09-.63,2.13.76,2.87,18.81,16.5,21.3,20.76l20.65-21.36c-4.23-6.79-13.71-11.4-15.45-19.83-2.96-14.41,8.46-26.24,22.96-23.71,8.84,1.55,11.12,8.12,17.2,12.8.75.58.95,1.45,2.25,1.12ZM124.5,297.75v-81.38c0-.73,1.86-4.1,2.6-4.9l48.3-48.45c3.93-8.54-5.09-16.69-13.03-11.54l-31.08,30.42-69.26.18-30.58-30.17c-8.59-6.24-18.57,3.41-13.04,12.3l49.85,49.9v83.62h56.25ZM315.75,297.75v-83.62l49.06-49.19c6.44-8.78-2.62-19.45-12.25-13l-30.58,30.17-69.26-.18-31.08-30.42c-7.94-5.16-16.97,3-13.03,11.54l48.3,48.45c.75.8,2.6,4.17,2.6,4.9v81.38h56.25Z"/>
  <path d="M96.5,107.54c35.96-.33,41.96,52.39,7.16,60.25-43.85,9.91-51.84-59.84-7.16-60.25ZM96.37,118.18c-26.7.34-25.13,40.04,0,40.13,26.2.09,26.82-40.47,0-40.13Z"/>
  <path d="M287,107.54c45-.39,37.55,70.25-6.67,60.25-34.38-7.77-29.05-59.94,6.67-60.25ZM287.63,118.18c-26.8-.36-26.22,40.22,0,40.13,25.08-.09,26.78-39.76,0-40.13Z"/>
  <path d="M188.82,75.95c27.73-3.64,37.13,36.07,11.64,45.38-33.34,12.18-45.05-40.99-11.64-45.38ZM189.55,86.43c-15.83,2.66-12.82,28.06,4.25,26.01,16.46-1.98,13.86-29.05-4.25-26.01Z"/>
</svg>