<svg id="Layer_1" enable-background="new 0 0 500 500" viewBox="0 0 500 500" xmlns="http://www.w3.org/2000/svg"><path fill="#775D42" clip-rule="evenodd" d="m49.028 248.34v169.901c0 .537.438.974.974.974h49.675c.537 0 .974-.438.974-.974v-163.597c0-3.99-3.289-7.279-7.279-7.279h-43.37c-.537 0-.974.438-.974.975zm32.122-14.619v-110.276c0-.488.354-.895.837-.964 24.521-3.488 43.132-24.573 43.132-49.776 0-27.77-22.51-50.279-50.279-50.279-27.77 0-50.279 22.51-50.279 50.279 0 25.203 18.611 46.287 43.132 49.776.483.069.837.476.837.964v110.275c0 .537.438.974.974.974h10.672c.536.001.974-.437.974-.973zm265.424-71.883h89.821c14.587 0 27.887 6.12 37.365 16.043.281.294.69.383 1.067.231.377-.151.612-.498.612-.904v-25.932c0-21.461-17.583-39.044-39.044-39.044h-192.313c-21.462 0-39.044 17.583-39.044 39.044v25.932c0 .406.234.753.612.904.377.151.787.062 1.067-.231 9.478-9.923 22.779-16.043 37.366-16.043zm-12.67 129.239c0 .537-.438.974-.974.974h-126.918c-.537 0-.974-.438-.974-.974v-77.524c0-21.462 17.583-39.044 39.044-39.044h88.847c.537 0 .974.438.974.974v115.594zm13.644.974c-.537 0-.974-.438-.974-.974v-115.594c0-.537.438-.974.974-.974h88.847c21.461 0 39.044 17.583 39.044 39.044v77.524c0 .537-.438.974-.974.974zm101.441 142.884h-36.334c-.537 0-.974.438-.974.974v27.818c0 2.731 2.258 4.988 4.988 4.988h28.307c2.73 0 4.988-2.257 4.988-4.988v-27.818c0-.536-.438-.974-.975-.974zm-173.857-12.67h191.92c4.612 0 8.388-3.776 8.388-8.388v-108.181c0-.537-.438-.974-.974-.974-89.484 0-178.969 0-268.453 0-.537 0-.974.438-.974.974v108.181c0 4.612 3.776 8.388 8.388 8.388zm36.8-38.283c-3.499 0-6.335-2.836-6.335-6.335s2.836-6.335 6.335-6.335h56.615c3.499 0 6.335 2.836 6.335 6.335s-2.836 6.335-6.335 6.335zm50.953-28.307h-45.291c-3.499 0-6.335-2.837-6.335-6.335s2.837-6.335 6.335-6.335h45.291c3.499 0 6.335 2.836 6.335 6.335s-2.837 6.335-6.335 6.335zm-103.322 26.96c-10.573 0-19.141-8.568-19.141-19.141 0-17.005 20.653-25.56 32.677-13.536s3.469 32.677-13.536 32.677zm142.21-19.142c0-10.573 8.569-19.141 19.141-19.141 17.003 0 25.561 20.652 13.536 32.677-12.024 12.024-32.677 3.469-32.677-13.536zm-171.259 72.416v27.818c0 2.731 2.258 4.988 4.988 4.988h28.307c2.73 0 4.988-2.257 4.988-4.988v-27.818c0-.537-.438-.974-.974-.974h-36.334c-.537 0-.975.438-.975.974zm-123.527-4.023h-56.985c-.537 0-.974.438-.974.974v42.218c0 1.359 1.136 2.495 2.495 2.495h100.527c1.359 0 2.495-1.136 2.495-2.495v-40.698c0-1.359-1.135-2.495-2.495-2.495-15.022.001-30.043.001-45.063.001z" fill-rule="evenodd"/></svg>