<svg id="Layer_1" viewBox="0 0 1000 1000" xmlns="http://www.w3.org/2000/svg" data-name="Layer 1" fill="#775D42"><path d="m480.44 261.33a17.51 17.51 0 0 1 -7.1-33.51c8.94-4 14.83-9.68 17-16.55 2-6.19.91-13.07-3.13-19.92-8.31-14.08-23.77-40.31-5.72-68 6.95-10.55 17.71-19.55 30.33-25.35.15-.08.35-.16.56-.25a17.5 17.5 0 0 1 14.32 31.93l-.29.13c-6.53 3-12.33 7.71-15.57 12.67-4.73 7.25-3.2 14.51 6.56 31.06 9.12 15.47 11.36 32.65 6.3 48.39-5.27 16.42-18.12 29.86-36.19 37.85a17.43 17.43 0 0 1 -7.07 1.55z"/><path d="m608.36 261.33a17.51 17.51 0 0 1 -7.09-33.51c8.94-4 14.83-9.68 17-16.55 2-6.19.9-13.07-3.13-19.92-8.31-14.08-23.77-40.31-5.72-68 6.91-10.59 17.67-19.59 30.28-25.35.15-.08.36-.16.56-.25a17.5 17.5 0 1 1 14.33 31.93l-.3.13c-6.52 3-12.32 7.71-15.57 12.68-4.72 7.24-3.19 14.5 6.57 31.05 9.12 15.47 11.36 32.65 6.3 48.39-5.27 16.42-18.13 29.86-36.2 37.85a17.4 17.4 0 0 1 -7.03 1.55z"/><path d="m352.51 261.33a17.51 17.51 0 0 1 -7.09-33.51c8.94-4 14.83-9.68 17-16.55 2-6.19.91-13.07-3.12-19.92-8.31-14.08-23.77-40.31-5.73-68 6.92-10.59 17.67-19.59 30.29-25.35l.57-.26a17.5 17.5 0 0 1 14.3 31.95l-.27.12c-6.53 3-12.34 7.71-15.58 12.67-4.73 7.25-3.19 14.51 6.57 31.06 9.11 15.47 11.35 32.65 6.3 48.39-5.27 16.42-18.13 29.86-36.2 37.85a17.4 17.4 0 0 1 -7.04 1.55z"/><path d="m100 799.31h800a0 0 0 0 1 0 0 104.4 104.4 0 0 1 -104.4 104.4h-591.2a104.4 104.4 0 0 1 -104.4-104.37 0 0 0 0 1 0-.03z"/><path d="m252.44 297h495.12a12.1 12.1 0 0 1 12.1 12.1v300.98a169.23 169.23 0 0 1 -169.22 169.23h-180.88a169.23 169.23 0 0 1 -169.22-169.23v-300.94a12.1 12.1 0 0 1 12.1-12.14z"/><path d="m805 337.84h-.6a77.18 77.18 0 0 0 -24.77 4.09v59.43a36 36 0 0 1 21-6.84h2c21.54 0 39 19.37 39 43.28v46.91c0 23.9-17.45 43.28-39 43.28h-2a36 36 0 0 1 -21-6.85v59.45a77.4 77.4 0 0 0 24.77 4.07h.6c47 0 85.07-42.29 85.07-94.45v-57.92c.03-52.16-38.07-94.45-85.07-94.45z"/></svg>