
<svg id="Layer_1" xmlns="http://www.w3.org/2000/svg" version="1.1" viewBox="0 0 361.41 361.41" fill="#775D42">
  <path d="M38.04,0c6.78,3.61,7.77,13.21,12.27,19.08,6.56,2.86,23.81-.69,22.22,10.1-.68,4.63-13.14,12.58-13.96,15.71-1.39,5.28,8.76,24.25-3.27,24.21-4.88-.01-13.85-8.22-18.37-8.51-5.39-.35-18.47,14.44-23.84,5.57-2.55-4.21,2.23-16.1,2.24-21.35-2.33-3.93-13.73-12.03-14.5-15.74-2-9.6,16.84-7.93,22.43-9.69,4.39-6.2,5.55-15.79,12.67-19.39h2.11ZM53.54,31.71c-9.71.42-13.61-2.92-16.21-11.98-3.09,2.32-2.8,7.34-6.08,9.76-2.61,1.92-7.6,2.01-10.81,2.22-1.15.96,6.48,6.85,6.9,8.24,1.05,3.55-.82,7.88-.56,11.48.61.68,7.92-4.27,10.14-4.2,3.15.11,7.43,3.57,10.28,4.91-.02-5.87-3.32-9.04.72-14.44.8-1.07,6.63-5.15,5.63-5.99Z"/>
  <path d="M135.97,0c13.57,4.42,11.08,24.07-3.17,24.01s-16.09-20.38-2.47-24.01h5.64Z"/>
  <path d="M361.41,118.36v3.52c-1.99,5.46-13.52,5.78-16.6,2.16-7.94-9.34,12.62-14.48,16.6-5.68Z"/>
  <path d="M302.94,0c8.46,3.28,4.5,24.14-5.62,16.54-3.78-2.84-3.18-14.48,2.1-16.54h3.52Z"/>
  <path d="M15.5,344.5l50.02-18.32c-17.43-16.09-28.42-36.65-31.61-60.31-1.29-9.55-2.59-22.76-2.9-32.33-.07-2.06-.29-4.96.14-6.89,1.3-5.83,10.39-5.66,11.67.72,2.28,11.38,1.41,25.91,3.06,37.8,3.1,22.33,14.53,41.47,31.64,55.78l70.43-25.76c-.06-.87-1-1.15-1.62-1.54-5.88-3.69-12.95-6.49-19.17-10.41-37.03-23.34-65.17-60.93-77.31-103.04-1.68-5.82-6.17-21.2-4.09-26.33,1.64-4.04,8.46-3.9,10.45.24,1.63,3.4,2.65,13.32,3.88,17.96,14.02,52.95,52.28,96.95,103.8,116.06,14.46-4.01,28.27-10.65,42.53-15.48l-19.03-8.78c-40.82-21.48-82.32-62.09-106.66-101.17-10.78-17.32-32.35-58.02-9.09-73.08,6.62-4.29,28.54-8.58,24.73,4.31-1.45,4.89-6.88,3.08-10.07,3.26-14.04.81-14.07,12.25-11.84,23.17,9.92,48.69,93.28,131.34,141.69,142.23,15.89,3.57,24.99,1.19,23.38-17.04-.6-6.76-8.51-19.92-.36-22.98,4.52-1.7,6.66,1.77,8.14,5.34,6.07,14.64,8.41,38.39-9.18,45.8L7.31,360.68c-3.52.3-6.9-3.02-6.56-6.56,4.88-14.92,6.35-33.81,11.73-48.22,2.78-7.45,10.05-7.18,12.15.24l-9.13,38.35Z"/>
  <path d="M346.13,359.07c-4.52-4.13,1.71-11.35,2.41-16.51.99-7.34.24-15.3-4.4-21.3-.98,10.76-5.35,20.71-15.86,24.99-22.17,9.04-42.01-15.39-29.16-35.5,5.13-8.03,13.95-12.62,22.83-15.2-8.16-8.74-18.21-16.19-29.4-20.62-4.6-1.82-15.58-3.62-18.48-5.47-5.81-3.71-2.37-11.45,5.17-10.81,17.89,1.52,41,16.51,52.55,29.87,5.48,6.34,7.89,10.14,14.12,16.18,11.53,11.18,16.55,22.08,14.71,38.68-.65,5.84-6.25,23.24-14.5,15.7ZM322.48,308.04c-5.34.9-14,7.55-15.15,13.02-3.08,14.69,16.17,20.93,22.51,8.42,3.53-6.98,4.09-23.36-7.36-21.44Z"/>
  <path d="M318.27,114.27c7.72-1.09,9.88,9.41,2.2,12.11l-124.6,59.27c-8.25,2.67-12.15-7-4.74-11.08l127.14-60.31Z"/>
  <path d="M139.31,36.05c8.48-1.72,9.12,12.18,9.95,17.95,4.54,31.59.41,62.34-10.64,92.01-1.9,5.1-8.52,22.8-11.19,26.15-3.69,4.62-12.18.8-10.32-5.36,18.55-39.23,28.18-81.73,17.58-124.89.05-2.43,2.2-5.36,4.62-5.85Z"/>
  <path d="M226.71,198.17c17.35-.68,35.92,1.22,52.85,5.21,5.38,1.26,20.61,5.13,24.74,7.67,5.54,3.41,2.47,11.95-3.66,11.43-3.8-.32-13.9-4.72-18.68-5.99-20.29-5.4-42.25-7.6-63.2-5.83-11.73.99-25.73,5.24-36.68,5.65-8.24.3-8.67-9.77-3.16-11.67,15.86-2.58,31.67-5.82,47.79-6.46Z"/>
  <path d="M226.64,66.37l35.42.22c1.54,1.28,2.59,2.08,2.87,4.17.78,5.83.78,26.66,0,32.48-.5,3.74-4.07,4.9-7.44,5.24-4.74.48-27.45.59-30.8-.88-1.8-.79-3.14-2.41-3.4-4.35-.78-5.85-.78-26.64,0-32.48.29-2.14,1.57-3.3,3.35-4.4ZM252.92,78.2h-17.61v17.61h17.61v-17.61Z"/>
  <path d="M146.76,178.72c-2.9-2.65-1.92-7.87,1.17-10,19.64-15.68,37.33-35.35,56.75-51.04,3.43-2.78,6.74-5.67,10.58-1.46,2.92,3.21,2.14,6.94-1.07,9.55-19.64,15.7-37.33,35.32-56.75,51.04-3.19,2.58-6.74,5.51-10.68,1.91Z"/>
  <path d="M328.83,216.47c24.27-3.01,27.51,33.04,5.38,35.67-25.17,2.99-27.98-32.86-5.38-35.67ZM327.11,229.89c-4.59,4.2.09,12.82,6.81,9.97,8.02-3.4.32-16.49-6.81-9.97Z"/>
  <path d="M185.12,48.08c22.94-2.75,27.2,32.65,5.39,35.69-25.74,3.59-28.84-32.88-5.39-35.69ZM186.51,60.03c-7.47.73-7.66,13.19,1.89,11.8,7.42-1.08,5.27-12.5-1.89-11.8Z"/>
  <path d="M325.24,84.05c7.65-.4,7.47,14.36,3.75,17.03-10.22,7.34-14.81-16.45-3.75-17.03Z"/>
  <path d="M311.19,18.47c4.56-1.02,13.93-1.2,14.28,5.19.39,7.17-11.59,8.42-15.86,5.25-3.65-2.72-2.74-9.47,1.58-10.43Z"/>
  <path d="M345.01,93.13c6.3-1.4,9.3,5.07,5.83,10.08-2.96,4.28-9.86,9.41-13.68,3.12-2.84-4.68,4.11-12.37,7.85-13.19Z"/>
  <path d="M329.49,139.72c2.04,1.86,2.22,10.16,1.49,12.66-1.18,4.04-7.64,5.34-10.44,1.57-5.02-6.76,1.27-21.26,8.95-14.24Z"/>
  <path d="M296.82,46.28c-3.89-4.25-2.45-19.66,7.35-15.45,3.82,1.64,3.83,10.88,2.46,14.08-1.51,3.54-7.33,4.08-9.81,1.37Z"/>
  <path d="M280.89,18.46c3.63-1.06,13.09-.99,14.16,3.89,2.24,10.23-15.88,9.97-17.32,3.92-.67-2.82.05-6.9,3.16-7.81Z"/>
  <path d="M302.75,93.12c6.52-1.33,17,11.57,7.75,15.55-4.54,1.95-12.54-5.9-12.54-9.68,0-2.39,2.46-5.39,4.78-5.87Z"/>
  <path d="M341.52,131.16c6.13-.99,15.95,12,7.74,15.55-8.01,3.47-19.43-13.66-7.74-15.55Z"/>
</svg>