<svg height="512pt" viewBox="0 0 512 512" width="512pt" xmlns="http://www.w3.org/2000/svg"><path fill="#775D42" d="m510.417969 158.289062c-2.550781-5.082031-7.734375-8.289062-13.417969-8.289062h-136v45c0 24.8125-20.1875 45-45 45h-15v45c0 8.289062 6.710938 15 15 15h181c5.683594 0 10.867188-3.207031 13.417969-8.289062 2.535156-5.085938 1.992187-11.164063-1.421875-15.703126l-38.246094-51.007812 38.246094-51.007812c3.414062-4.539063 3.957031-10.617188 1.421875-15.703126zm0 0"/><path fill="#775D42" d="m497 482h-228.054688c-8.535156-31.171875-43.410156-54.539062-87.945312-58.949219v-213.050781h135c8.289062 0 15-6.710938 15-15v-120c0-8.289062-6.710938-15-15-15h-107.761719c1.679688-4.714844 2.761719-9.714844 2.761719-15 0-24.8125-20.1875-45-45-45s-45 20.1875-45 45c0 19.53125 12.578125 36.023438 30 42.238281v335.8125c-44.535156 4.410157-79.410156 27.777344-87.945312 58.949219h-48.054688c-8.289062 0-15 6.710938-15 15s6.710938 15 15 15h482c8.289062 0 15-6.710938 15-15s-6.710938-15-15-15zm0 0"/></svg>