<svg id="Layer_1" viewBox="0 0 512 512" xmlns="http://www.w3.org/2000/svg" data-name="Layer 1"><path fill="#775D42" d="m426.463 361.89c-13.202 21.194-30.456 39.934-50.46 54.921l2.736.519c3.798.721 6.293 4.384 5.572 8.182-.637 3.357-3.573 5.697-6.869 5.697-.433 0-.871-.041-1.312-.124l-19.275-3.657c-1.824-.346-3.436-1.403-4.48-2.937-1.046-1.535-1.438-3.421-1.092-5.245l3.657-19.276c.72-3.798 4.381-6.294 8.182-5.573 3.799.721 6.293 4.384 5.572 8.182l-.488 2.571c18.366-13.873 34.218-31.148 46.374-50.663 2.043-3.282 6.361-4.286 9.643-2.24 3.281 2.044 4.284 6.361 2.24 9.643zm-268.951 52.719c-19.515-12.156-36.79-28.009-50.663-46.374l2.572.488c3.803.718 7.462-1.775 8.182-5.573.721-3.798-1.774-7.461-5.572-8.182l-19.276-3.657c-1.827-.346-3.711.046-5.245 1.092s-2.591 2.657-2.937 4.481l-3.656 19.276c-.721 3.798 1.774 7.461 5.572 8.182.441.083.88.124 1.312.124 3.296 0 6.232-2.34 6.869-5.697l.519-2.737c14.987 20.004 33.727 37.258 54.921 50.46 1.151.718 2.431 1.06 3.694 1.06 2.337 0 4.622-1.17 5.948-3.3 2.044-3.282 1.041-7.599-2.24-9.643zm-69.764-254.828c1.151.718 2.431 1.06 3.694 1.06 2.337 0 4.622-1.17 5.948-3.3 12.156-19.516 28.009-36.79 46.375-50.664l-.488 2.572c-.721 3.798 1.774 7.461 5.572 8.182.441.083.88.124 1.312.124 3.296 0 6.232-2.34 6.869-5.697l3.656-19.276c.721-3.798-1.774-7.461-5.572-8.182l-19.275-3.657c-3.807-.722-7.461 1.774-8.182 5.573s1.774 7.461 5.572 8.182l2.736.519c-20.004 14.987-37.258 33.727-50.46 54.921-2.044 3.282-1.041 7.599 2.24 9.643zm266.715-62.359c19.531 12.144 36.81 27.997 50.675 46.374l-2.588-.491c-3.808-.718-7.461 1.774-8.182 5.573s1.774 7.461 5.572 8.182l19.275 3.657c.434.082.87.123 1.305.123 1.395 0 2.77-.417 3.94-1.214 1.534-1.045 2.591-2.657 2.937-4.481l3.656-19.275c.721-3.798-1.774-7.461-5.572-8.182-3.804-.721-7.462 1.775-8.182 5.573l-.517 2.721c-14.978-20.011-33.721-37.262-54.928-50.448-3.282-2.041-7.599-1.034-9.641 2.249s-1.035 7.6 2.248 9.641zm-265.281 77.396c-44.764 0-81.182 36.418-81.182 81.182 0 20.588 7.712 39.399 20.381 53.728v-2.62c0-.146.005-.292.014-.437 1.262-20.147 19.048-35.929 40.492-35.929h3.728c-10.31-7.462-15.745-21.685-15.745-35.321 0-17.818 14.496-32.313 32.313-32.313s32.313 14.496 32.313 32.313c0 13.636-5.435 27.86-15.745 35.321h3.728c21.444 0 39.23 15.782 40.492 35.929.009.146.014.292.014.437v2.644c12.685-14.332 20.409-33.153 20.409-53.753 0-44.764-36.43-81.182-81.21-81.182zm185.103 227.392c0-10.082-8.203-18.285-18.285-18.285s-18.313 8.203-18.313 18.285c0 11.065 5.682 26.647 18.313 26.647 13.815 0 18.285-17.953 18.285-26.647zm-18.285-60.603c-44.78 0-81.21 36.431-81.21 81.21 0 20.585 7.718 39.392 20.394 53.717v-2.609c0-.146.005-.292.014-.437 1.262-20.147 19.048-35.929 40.492-35.929h3.748c-10.313-7.466-15.75-21.701-15.75-35.349 0-17.802 14.496-32.284 32.313-32.284s32.285 14.483 32.285 32.284c0 13.648-5.432 27.884-15.736 35.349h3.733c21.444 0 39.23 15.782 40.492 35.929.009.146.014.292.014.437v2.618c12.677-14.326 20.395-33.137 20.395-53.726 0-44.78-36.418-81.21-81.182-81.21zm-148.505-106.187c0-10.098-8.216-18.313-18.313-18.313s-18.313 8.215-18.313 18.313c0 11.053 5.682 26.619 18.313 26.619 13.837 0 18.313-17.934 18.313-26.619zm-65.115 71.922v14.952c13.238 9.38 29.381 14.916 46.801 14.916s33.562-5.531 46.801-14.904v-14.964c-.911-12.69-12.511-22.601-26.506-22.601h-40.592c-13.995 0-25.595 9.911-26.506 22.601zm233.901 144.217h-40.592c-13.995 0-25.595 9.911-26.506 22.601v14.93c13.242 9.376 29.39 14.909 46.816 14.909s33.552-5.53 46.787-14.9v-14.94c-.911-12.69-12.511-22.601-26.506-22.601zm164.821-216.139c0-10.098-8.216-18.313-18.313-18.313s-18.313 8.215-18.313 18.313c0 11.053 5.682 26.619 18.313 26.619 13.837 0 18.313-17.934 18.313-26.619zm62.897 20.579c0-44.764-36.43-81.182-81.21-81.182s-81.21 36.418-81.21 81.182c0 20.6 7.724 39.422 20.41 53.754v-2.645c0-.146.005-.292.014-.437 1.262-20.147 19.047-35.929 40.491-35.929h3.728c-10.31-7.462-15.745-21.685-15.745-35.321 0-17.818 14.496-32.313 32.313-32.313s32.313 14.496 32.313 32.313c0 13.636-5.435 27.86-15.745 35.321h3.728c21.444 0 39.229 15.782 40.491 35.929.009.146.014.292.014.437v2.644c12.685-14.332 20.409-33.153 20.409-53.753zm-60.914 28.742h-40.593c-13.995 0-25.594 9.911-26.505 22.601v14.965c13.24 9.372 29.381 14.903 46.801 14.903s33.562-5.531 46.801-14.904v-14.964c-.911-12.69-12.51-22.601-26.505-22.601zm-168.801-216.111c0-10.098-8.203-18.313-18.285-18.313s-18.313 8.215-18.313 18.313c0 11.053 5.682 26.619 18.313 26.619 13.815 0 18.285-17.934 18.285-26.619zm-65.087 71.922v14.941c13.24 9.369 29.382 14.899 46.801 14.899s33.563-5.534 46.801-14.911v-14.929c-.911-12.69-12.511-22.601-26.506-22.601h-40.592c-13.995 0-25.595 9.911-26.506 22.601zm46.803-132.552c-44.78 0-81.21 36.431-81.21 81.21 0 20.593 7.724 39.407 20.409 53.734v-2.626c0-.146.005-.292.014-.437 1.262-20.147 19.048-35.929 40.492-35.929h3.728c-10.31-7.462-15.745-21.685-15.745-35.321 0-17.818 14.496-32.313 32.313-32.313s32.285 14.496 32.285 32.313c0 13.636-5.43 27.86-15.731 35.321h3.742c21.444 0 39.23 15.782 40.492 35.929.009.146.014.292.014.437v2.601c12.668-14.324 20.381-33.129 20.381-53.71 0-44.78-36.418-81.21-81.182-81.21z"/></svg>