<svg id="Layer_1" viewBox="0 0 95 95" xmlns="http://www.w3.org/2000/svg" data-name="Layer 1" fill="#775D42"><path d="m79.489 40.655h-13.375a3.218 3.218 0 0 0 -3.209 3.209v.736a4.54 4.54 0 0 1 4.405 3.37l3.39 12.478h.758a8.813 8.813 0 0 1 11.242-12.805v-3.779a3.218 3.218 0 0 0 -3.209-3.209zm-6.133 38.769a2.147 2.147 0 0 1 -2.074 2.711h-46.908a2.147 2.147 0 0 1 -2.074-2.711l3.642-13.4 4.736-17.424a2.125 2.125 0 0 1 2.074-1.584h30.153a2.125 2.125 0 0 1 2.073 1.584l4.736 17.423 3.642 13.4zm-62.995-15.745a2.822 2.822 0 0 0 -2.813 2.814v11.728a2.821 2.821 0 0 0 2.813 2.813h9.563c-.022-.089-.039-.179-.055-.269l-.006-.033v-.035l-.005-.032v-.035-.033-.006l-.008-.057v-.021-.048-.015-.029-.034-.03-.035-.032-.05-.031-.035-.316-.028-.044-.022-.047-.016-.044-.01-.015-.032-.03-.042-.021l.006-.051v-.011l.006-.052v-.018l.006-.047v-.008-.006c0-.02 0-.039.009-.057l.012-.065.011-.056v-.015l.011-.052v-.009l.012-.055v-.013l.013-.055v-.012c.01-.041.02-.082.031-.123l3.933-14.461a2.8 2.8 0 0 0 -1.807-.662zm5.864-14.541a6.4 6.4 0 1 0 6.4 6.4 6.4 6.4 0 0 0 -6.4-6.4zm-.714-8.483a3.218 3.218 0 0 0 -3.211 3.209v3.779a8.813 8.813 0 0 1 11.241 12.805h1.414l3.392-12.478.025-.089.008-.026.018-.062.011-.031.018-.056.013-.036.016-.049.013-.037.019-.05.012-.034.022-.051.013-.033c.007-.018.014-.035.022-.053l.013-.031.025-.056.012-.026c.012-.027.025-.054.038-.081l.01-.021a.6.6 0 0 0 .028-.057l.017-.032.025-.048.018-.034.025-.043.019-.036.026-.044.019-.032.025-.042.021-.035.026-.041.02-.032.036-.054.013-.019c.017-.024.032-.048.049-.071l.014-.018.035-.049.026-.036.028-.035.026-.035.025-.032.032-.039.022-.028.031-.038.026-.03c.01-.012.021-.023.03-.035l.029-.032.029-.032.031-.034.029-.03.04-.042.018-.019.022-.023.037-.037.037-.034.025-.024.039-.038.023-.02.04-.036.025-.022.037-.032.029-.025.04-.033.022-.018.042-.034.03-.023.039-.03.023-.018c.054-.04.109-.08.165-.118l.015-.01.049-.033.022-.015.051-.032.021-.013.047-.029.028-.017.047-.028.025-.013.05-.029.021-.011c.11-.061.224-.118.34-.169l.014-.006.062-.027.017-.007c.019-.009.039-.016.059-.024l.022-.009.057-.022.022-.008.06-.022.015-.006.067-.023c.1-.034.2-.065.309-.091h.008l.067-.016.018-.005.068-.015h.015l.067-.014h.021c.021 0 .043-.008.064-.012h.017l.069-.011h.015c.024-.005.048-.008.072-.012v-.785a3.219 3.219 0 0 0 -3.21-3.209zm6.689-16.582a7.293 7.293 0 1 1 -7.293 7.293 7.293 7.293 0 0 1 7.293-7.293zm18.943 5.373h13.373a3.219 3.219 0 0 1 3.209 3.21v11.944h-19.793v-11.944a3.219 3.219 0 0 1 3.209-3.21zm6.688-16.581a7.293 7.293 0 1 1 -7.294 7.293 7.292 7.292 0 0 1 7.294-7.293zm36.81 50.814h-11.731a2.8 2.8 0 0 0 -1.25.295l4.028 14.816c.011.041.022.082.031.123v.012l.011.055v.013l.012.055v.009l.011.052v.015l.011.056.011.065.008.057v.006.008l.007.047v.018l.007.052v.011.051.021l.005.042v.03.032.015.01.044.016.047.022.044.028.316.035.034.035.032.035.03.034.029.015.048.021l-.007.057v.006.033.035.032l-.006.035v.033c-.016.09-.035.18-.056.269h8.907a2.821 2.821 0 0 0 2.813-2.813v-11.704a2.822 2.822 0 0 0 -2.813-2.814zm-11.841-39.606a7.293 7.293 0 1 0 7.3 7.293 7.293 7.293 0 0 0 -7.3-7.293zm5.973 25.065a6.4 6.4 0 1 1 -6.4 6.4 6.4 6.4 0 0 1 6.402-6.4z" fill-rule="evenodd"/></svg>