<svg id="OBJECT" viewBox="0 0 32 32" xmlns="http://www.w3.org/2000/svg"><path fill="#775D42" d="m5.69 5.69c-.74.74-1.13 1.72-1.12 2.77 0 .55.45.99 1 .99h.01c.55 0 1-.46.99-1.01 0-.51.18-.98.54-1.33.35-.35.81-.54 1.31-.54h.03c.55 0 .99-.44 1-.99 0-.55-.44-1-.99-1.01-1.07-.01-2.03.39-2.77 1.12z"/><path fill="#775D42" d="m2 8.76h.01c.55 0 .99-.46.99-1.01-.01-1.28.47-2.48 1.37-3.38s2.1-1.42 3.38-1.37c.59-.01 1-.44 1.01-.99 0-.55-.44-1-.99-1.01-1.79-.02-3.54.67-4.81 1.95-1.28 1.28-1.97 2.99-1.95 4.81 0 .55.45.99 1 .99z"/><path fill="#775D42" d="m8.29 7.97-.32.32c-.39.39-.39 1.02 0 1.41.2.2.45.29.71.29s.51-.1.71-.29l.32-.32c.39-.39.39-1.02 0-1.41s-1.02-.39-1.41 0z"/><path fill="#775D42" d="m23.58 27.43c1.03 0 2-.4 2.72-1.12.74-.74 1.13-1.72 1.12-2.77 0-.55-.45-.99-1-.99h-.01c-.55 0-1 .46-.99 1.01 0 .51-.18.98-.54 1.33-.35.35-.81.54-1.31.54-.01 0-.02 0-.03 0-.55 0-.99.44-1 .99 0 .55.44 1 .99 1.01z"/><path fill="#775D42" d="m30 23.24h-.01c-.55 0-.99.46-.99 1.01.01 1.28-.47 2.48-1.37 3.38-.88.88-2.06 1.37-3.32 1.37-.02 0-.05 0-.07 0-.55 0-.99.44-1 .99 0 .55.44 1 .99 1.01h.08c1.8 0 3.48-.69 4.74-1.95 1.28-1.28 1.97-2.99 1.95-4.81 0-.55-.45-.99-1-.99z"/><path fill="#775D42" d="m23.71 24.03.32-.32c.39-.39.39-1.02 0-1.41s-1.02-.39-1.41 0l-.32.32c-.39.39-.39 1.02 0 1.41.2.2.45.29.71.29s.51-.1.71-.29z"/><path fill="#775D42" d="m30 1h-4.32l-24.68 24.68v4.32c0 .55.45 1 1 1h4.32l24.68-24.68v-4.32c0-.55-.45-1-1-1zm-23.02 25.43-.64.64c-.2.2-.45.29-.71.29s-.51-.1-.71-.29c-.39-.39-.39-1.02 0-1.41l.64-.64c.39-.39 1.02-.39 1.41 0s.39 1.02 0 1.41zm4.02-4.02-.64.64c-.2.2-.45.29-.71.29s-.51-.1-.71-.29c-.39-.39-.39-1.02 0-1.41l.64-.64c.39-.39 1.02-.39 1.41 0s.39 1.02 0 1.41zm4.02-4.02-.64.64c-.2.2-.45.29-.71.29s-.51-.1-.71-.29c-.39-.39-.39-1.02 0-1.41l.64-.64c.39-.39 1.02-.39 1.41 0s.39 1.02 0 1.41zm4.02-4.02-.64.64c-.2.2-.45.29-.71.29s-.51-.1-.71-.29c-.39-.39-.39-1.02 0-1.41l.64-.64c.39-.39 1.02-.39 1.41 0s.39 1.02 0 1.41zm4.02-4.02-.64.64c-.2.2-.45.29-.71.29s-.51-.1-.71-.29c-.39-.39-.39-1.02 0-1.41l.64-.64c.39-.39 1.02-.39 1.41 0s.39 1.02 0 1.41zm4.02-4.02-.64.64c-.2.2-.45.29-.71.29s-.51-.1-.71-.29c-.39-.39-.39-1.02 0-1.41l.64-.64c.39-.39 1.02-.39 1.41 0s.39 1.02 0 1.41z"/><path fill="#775D42" d="m19.82 1c-.27 0-.52.11-.71.29l-17.82 17.82c-.19.19-.29.44-.29.71v3.04l21.86-21.86z"/><path fill="#775D42" d="m12.18 31c.27 0 .52-.11.71-.29l17.82-17.82c.19-.19.29-.44.29-.71v-3.04l-21.86 21.86z"/></svg>