
<svg version="1.1" id="Capa_1" xmlns="http://www.w3.org/2000/svg" xmlns:xlink="http://www.w3.org/1999/xlink" x="0px" y="0px"
	 viewBox="0 0 490.667 490.667" style="enable-background:new 0 0 490.667 490.667;" xml:space="preserve" fill="#775D42">
<g>
	<g>
		<rect x="256" y="128" width="128" height="341.333"/>
	</g>
</g>
<g>
	<g>
		<rect x="106.667" y="128" width="128" height="341.333"/>
	</g>
</g>
<g>
	<g>
		<path d="M480,0H10.667C4.779,0,0,4.779,0,10.667V480c0,5.888,4.779,10.667,10.667,10.667h74.667V117.333
			c0-5.888,4.779-10.667,10.667-10.667h298.667c5.888,0,10.667,4.779,10.667,10.667v373.333H480c5.888,0,10.667-4.779,10.667-10.667
			V10.667C490.667,4.779,485.888,0,480,0z M210.219,82.219c-2.091,2.069-4.821,3.115-7.552,3.115c-2.731,0-5.461-1.045-7.552-3.115
			l-13.781-13.803l-13.781,13.803c-4.16,4.16-10.923,4.16-15.083,0c-4.16-4.16-4.16-10.923,0-15.083l21.333-21.333
			c4.16-4.16,10.923-4.16,15.083,0l21.333,21.333C214.379,71.296,214.379,78.037,210.219,82.219z M338.219,60.885l-21.333,21.333
			c-2.091,2.069-4.821,3.115-7.552,3.115s-5.461-1.045-7.552-3.115l-21.333-21.333c-4.16-4.16-4.16-10.923,0-15.083
			c4.16-4.16,10.923-4.16,15.083,0l13.803,13.781l13.781-13.781c4.16-4.16,10.923-4.16,15.083,0
			C342.357,49.963,342.379,56.704,338.219,60.885z M437.333,277.333c-5.888,0-10.667-4.779-10.667-10.667S431.445,256,437.333,256
			c5.888,0,10.667,4.779,10.667,10.667S443.221,277.333,437.333,277.333z M437.333,234.667c-5.888,0-10.667-4.779-10.667-10.667
			s4.779-10.667,10.667-10.667c5.888,0,10.667,4.779,10.667,10.667S443.221,234.667,437.333,234.667z"/>
	</g>
</g>
</svg>
