
<svg xmlns="http://www.w3.org/2000/svg" xmlns:xlink="http://www.w3.org/1999/xlink" version="1.1" id="Capa_1" x="0px" y="0px" viewBox="0 0 512 512" style="enable-background:new 0 0 512 512;" xml:space="preserve" width="512" height="512" fill="#775D42">
	<g>
		<path d="M19.552,178.918c-4.084,2.358-7.006,6.165-8.226,10.72c-1.219,4.555-0.594,9.313,1.764,13.397    c2.359,4.084,6.166,7.006,10.721,8.226c4.554,1.219,9.311,0.594,13.397-1.764c8.431-4.867,11.33-15.687,6.462-24.117    C38.802,176.949,27.985,174.05,19.552,178.918z"/>
		<polygon points="374.862,317.793 388.414,317.793 388.414,229.517 370.759,229.517 370.759,317.793   "/>
		<path d="M317.793,317.793v-88.237c-5.93,0.1-11.819,0.473-17.655,1.11v86.421c5.418,0.465,10.857,0.706,16.296,0.706H317.793z"/>
		<path d="M247.172,282.483v-38.137c-6.02,2.528-11.915,5.361-17.655,8.505v29.632H247.172z"/>
		<path d="M441.379,299.187c6.935-7.086,12.179-15.827,15.082-25.569c-2.934-9.858-8.195-18.558-15.082-25.575V299.187z"/>
		<path d="M324.366,194.207c-57.321,0-112.413,20.527-155.71,57.9c5.031,3.687,9.918,7.606,14.638,11.763    c38.116-33.591,86.718-52.008,137.778-52.008h76.169c23.199,0,44.491,10.035,59.198,26.441    c-7.63-25.474-31.274-44.096-59.198-44.096H324.366z"/>
		<path d="M408.277,43.987l6.62-7.505l6.62,7.505c5.035,5.706,12.274,8.979,19.863,8.979s14.828-3.273,19.863-8.979l6.62-7.505    l6.62,7.505c5.035,5.706,12.274,8.979,19.863,8.979c5.209,0,10.21-1.515,14.487-4.324C499.996,20.484,473.658,0,442.625,0h-2.492    c-31.033,0-57.37,20.484-66.208,48.641c4.278,2.808,9.279,4.324,14.488,4.324C396.003,52.966,403.242,49.693,408.277,43.987z"/>
		<path d="M229.504,194.763c0.201-6.387-3.091-12.538-8.819-15.846c-8.43-4.868-19.25-1.967-24.118,6.462    c-4.467,7.74-2.377,17.478,4.515,22.791C210.282,203.111,219.777,198.644,229.504,194.763z"/>
		<path d="M459.034,377.501v-36.244c-6.458,7.997-14.479,14.758-23.717,19.796C442.51,367.479,450.484,373.014,459.034,377.501z"/>
		<path d="M412.719,333.923l3.267,4.9c2.046,3.068,4.249,6.017,6.571,8.866c16.6-7.444,28.884-21.743,33.935-38.837    C445.209,321.489,429.963,330.504,412.719,333.923z"/>
		<path d="M450.207,185.379h-16.639c6.035,3.117,11.625,6.973,16.639,11.467V185.379z"/>
		<path d="M345.792,357.046c5.614-5.551,10.664-11.644,15.049-18.222l2.25-3.375h-46.658c-5.332,0-10.66-0.227-15.976-0.636    c10.319,6.495,21.557,11.577,33.439,14.973C338.548,351.114,342.607,353.681,345.792,357.046z"/>
		<path d="M335.448,375.249c0-3.921-2.633-7.411-6.402-8.488c-33.603-9.601-62.784-30.902-82.169-59.98l-4.429-6.643h-8.207    l-4.429,6.644c-19.384,29.077-48.566,50.378-82.168,59.979c-3.77,1.077-6.403,4.567-6.403,8.488v13.165h194.207v-13.165H335.448z"/>
		<polygon points="158.897,512 194.207,512 194.207,423.724 282.483,423.724 282.483,512 317.793,512 317.793,406.069     158.897,406.069   "/>
		<path d="M161.015,288.761l16.638,13.311c6.681,5.345,13.713,10.348,20.961,14.936c3.633-3.609,7.066-7.428,10.264-11.465    c-12.118-7.297-23.498-15.799-33.9-25.402c-35.368-32.646-81.35-50.624-129.481-50.624h-16.6c-0.153,0.002-0.307,0.015-0.46,0.015    c-0.152,0-0.306-0.013-0.459-0.015H0v17.655h42.452C85.385,247.172,127.49,261.942,161.015,288.761z"/>
		<path d="M123.586,375.249c0-0.27,0.025-0.535,0.033-0.803c-8.562-7.622-16.104-16.292-22.462-25.827l-8.778-13.17h-8.207    l-8.779,13.169C58.891,373.37,34.26,392.184,6.036,401.591C2.426,402.795,0,406.161,0,409.966v13.758h141.241v-17.655h-17.655    V375.249z"/>
		<polygon points="335.448,512 353.103,512 353.103,459.034 423.724,459.034 423.724,512 459.034,512 459.034,441.379     335.448,441.379   "/>
		<path d="M470.653,401.591c-28.223-9.407-52.854-28.221-69.356-52.974l-8.779-13.169h-8.207l-8.779,13.169    c-6.357,9.536-13.899,18.206-22.462,25.828c0.009,0.268,0.033,0.534,0.033,0.803v30.82h-17.655v17.655h141.241v-13.758    C476.69,406.161,474.264,402.795,470.653,401.591z"/>
		<path d="M511.938,66.962c-5.49,2.39-11.453,3.659-17.593,3.659c-9.621,0-18.902-3.151-26.483-8.839    c-7.581,5.687-16.862,8.839-26.483,8.839c-9.621,0-18.902-3.151-26.483-8.839c-7.581,5.687-16.862,8.839-26.483,8.839    c-6.141,0-12.104-1.269-17.593-3.659c-0.029,0.802-0.062,1.604-0.062,2.414c0,24.833,13.395,47.914,34.955,60.235    c14.169,8.096,23.721,22.25,26.186,38.114h18.961c2.465-15.864,12.017-30.018,26.186-38.114    C498.605,117.289,512,94.208,512,69.376C512,68.566,511.967,67.764,511.938,66.962z"/>
		<polygon points="17.655,512 52.966,512 52.966,459.034 123.586,459.034 123.586,512 141.241,512 141.241,441.379 17.655,441.379       "/>
		<rect x="370.759" y="476.69" width="35.31" height="35.31"/>
		<rect x="211.862" y="441.379" width="52.966" height="70.621"/>
		<path d="M158.897,309.677v34.328c9.17-3.991,17.814-9.036,25.79-14.982c-6.215-4.122-12.26-8.525-18.062-13.166L158.897,309.677z"/>
		<rect x="70.621" y="476.69" width="35.31" height="35.31"/>
		<path d="M35.31,366.104V264.828H17.655v112.673C23.873,374.238,29.781,370.415,35.31,366.104z"/>
		<path d="M105.931,317.793v-40.792c-5.773-2.289-11.669-4.264-17.655-5.92v46.712H105.931z"/>
		<circle cx="120.118" cy="141.241" r="17.655"/>
		<circle cx="120.118" cy="35.31" r="17.655"/>
		<path d="M19.552,103.565c8.43,4.87,19.25,1.967,24.118-6.462c4.866-8.431,1.967-19.25-6.463-24.117    c-2.72-1.57-5.739-2.372-8.799-2.372c-1.534,0-3.078,0.202-4.598,0.609c-4.555,1.219-8.362,4.141-10.72,8.225    c-2.359,4.084-2.985,8.842-1.766,13.397C12.546,97.4,15.468,101.208,19.552,103.565z"/>
		<path d="M196.568,97.103c4.867,8.431,15.687,11.331,24.117,6.462c4.084-2.358,7.006-6.165,8.226-10.72    c1.219-4.555,0.594-9.313-1.764-13.397c-2.359-4.084-6.166-7.006-10.721-8.226c-1.521-0.407-3.064-0.609-4.598-0.609    c-3.059,0-6.078,0.802-8.799,2.372C194.599,77.854,191.701,88.672,196.568,97.103z"/>
		<path d="M56.938,67.528c9.139-7.842,19.619-13.906,30.921-17.888c-1.955-4.382-3.051-9.229-3.051-14.329    c0-1.122,0.058-2.231,0.161-3.327c-15.49,4.981-29.761,13.234-41.876,24.214c0.999,0.459,1.985,0.948,2.942,1.5    C50.462,60.253,54.118,63.634,56.938,67.528z"/>
		<path d="M10.724,163.627c4.29-2.476,9.054-3.999,13.949-4.515c-1.092-5.873-1.658-11.853-1.658-17.87s0.565-11.998,1.657-17.869    c-4.898-0.516-9.663-2.041-13.952-4.518c-0.964-0.557-1.894-1.158-2.792-1.793c-1.699,7.919-2.57,16.023-2.57,24.18    s0.871,16.26,2.57,24.18C8.829,164.786,9.759,164.184,10.724,163.627z"/>
		<path d="M62.406,97.728c-0.779,2.808-1.922,5.564-3.445,8.202c-1.507,2.611-3.335,4.975-5.405,7.075l32.545,18.79    c1.624-5.839,4.71-11.074,8.842-15.282L62.406,97.728z"/>
		<path d="M53.557,169.478c2.069,2.1,3.895,4.465,5.402,7.074c1.51,2.614,2.659,5.368,3.45,8.202l32.535-18.784    c-4.134-4.207-7.219-9.442-8.842-15.282L53.557,169.478z"/>
		<path d="M111.29,69.503v37.545c2.823-0.729,5.781-1.118,8.828-1.118s6.005,0.388,8.828,1.118V69.503    c-2.823,0.729-5.781,1.118-8.828,1.118S114.113,70.232,111.29,69.503z"/>
		<path d="M183.288,67.518c2.87-3.957,6.557-7.307,10.914-9.822c0.957-0.552,1.942-1.041,2.941-1.498    c-12.115-10.98-26.386-19.233-41.876-24.214c0.103,1.096,0.161,2.205,0.161,3.327c0,5.1-1.096,9.948-3.05,14.33    C163.676,53.62,174.153,59.68,183.288,67.518z"/>
		<path d="M217.222,141.241c0,6.017-0.565,11.998-1.657,17.87c4.897,0.516,9.662,2.04,13.95,4.516    c0.967,0.558,1.892,1.167,2.791,1.805c1.702-7.924,2.572-16.031,2.572-24.192c0-8.157-0.871-16.26-2.57-24.18    c-0.898,0.636-1.828,1.237-2.794,1.794c-4.288,2.476-9.052,4-13.949,4.516C216.657,129.244,217.222,135.224,217.222,141.241z"/>
		<path d="M186.68,113.005c-2.069-2.1-3.895-4.465-5.402-7.074c-1.51-2.614-2.658-5.367-3.45-8.201l-32.535,18.784    c4.134,4.207,7.219,9.442,8.842,15.282L186.68,113.005z"/>
		<path d="M181.276,176.554c1.507-2.611,3.335-4.977,5.405-7.076l-32.545-18.791c-1.623,5.839-4.708,11.074-8.842,15.282    l32.563,18.801C178.633,181.948,179.757,179.185,181.276,176.554z"/>
		<path d="M111.292,175.435v47.073c5.986,1.988,11.876,4.247,17.655,6.772v-53.846c-2.823,0.729-5.781,1.118-8.829,1.118    C117.071,176.552,114.114,176.163,111.292,175.435z"/>
	</g>
</svg>
