<svg id="Layer_1_7_" enable-background="new 0 0 48 48" viewBox="0 0 48 48" xmlns="http://www.w3.org/2000/svg"><path fill="#775D42" d="m16 46.148v.852c0 .552-.448 1-1 1h-2c-.552 0-1-.448-1-1v-8c0-.032.015-.059.018-.09l2.175 5.25c.362.875 1.011 1.561 1.807 1.988zm9-8.148h-2c-.552 0-1 .448-1 1v8c0 .552.448 1 1 1h2c.552 0 1-.448 1-1v-8c0-.552-.448-1-1-1zm-22.419 8.325c-.208-.086-.396-.197-.581-.312v.987c0 .552.448 1 1 1h2c.552 0 1-.448 1-1v-.852c-.57.306-1.212.482-1.89.482-.526 0-1.041-.102-1.529-.305zm12.419-40.325c0-2.209-1.791-4-4-4s-4 1.791-4 4 1.791 4 4 4 4-1.791 4-4zm-12.736 35.865c-.423 1.021.062 2.19 1.082 2.613s2.19-.062 2.613-1.082l6.494-15.677c.621-.243 1.161-.642 1.586-1.14l-4.478-10.813c-.211-.51.031-1.095.541-1.307.512-.212 1.095.031 1.307.541l4.049 9.776c.423 1.02 1.593 1.505 2.613 1.082s1.505-1.593 1.082-2.613l-4.419-10.676c-.585-1.484-2.042-2.569-3.734-2.569-2.209 0-4 1.791-4 4v10c0 1.216.554 2.292 1.41 3.025zm.665-16.007c.803.333 1.693.097 2.244-.513-.103-.438-.173-.887-.173-1.345v-8.367l-3.153 7.612c-.423 1.021.062 2.19 1.082 2.613zm11.447 3.065c-.124.084-.234.184-.365.259l-1.929 4.656 3.958 9.557c.423 1.021 1.593 1.505 2.613 1.082 1.021-.423 1.505-1.593 1.082-2.613zm30.278 15.555c1.021-.423 1.505-1.593 1.082-2.613l-5.361-12.942c-.124.084-.234.184-.365.259l-1.929 4.656 3.958 9.557c.424 1.021 1.594 1.505 2.615 1.083zm-15.725-18.62c.803.333 1.693.097 2.244-.513-.103-.438-.173-.887-.173-1.345v-8.367l-3.153 7.612c-.423 1.021.062 2.19 1.082 2.613zm4.878 18.303c-.362.874-1.011 1.56-1.807 1.987v.852c0 .552.448 1 1 1h2c.552 0 1-.448 1-1v-8c0-.032-.015-.059-.018-.09zm11.612 2.164c-.489.202-1.003.305-1.53.305-.677 0-1.32-.177-1.889-.482v.852c0 .552.448 1 1 1h2c.552 0 1-.448 1-1v-.987c-.185.115-.373.226-.581.312zm-4.419-40.325c0-2.209-1.791-4-4-4s-4 1.791-4 4 1.791 4 4 4 4-1.791 4-4zm-.961 20.578-4.479-10.812c-.211-.51.031-1.095.541-1.307.512-.212 1.095.031 1.307.541l4.049 9.776c.423 1.02 1.593 1.505 2.613 1.082s1.505-1.593 1.082-2.613l-4.419-10.676c-.584-1.484-2.041-2.569-3.733-2.569-2.209 0-4 1.791-4 4v10c0 1.216.554 2.292 1.41 3.025l-6.147 14.839c-.423 1.021.062 2.19 1.082 2.613s2.19-.062 2.613-1.082l6.494-15.677c.622-.243 1.161-.642 1.587-1.14z"/></svg>