<svg xmlns="http://www.w3.org/2000/svg" xmlns:xlink="http://www.w3.org/1999/xlink" x="0px" y="0px" viewBox="0 0 512 512" style="enable-background:new 0 0 512 512;" xml:space="preserve">

	<g>
		<path style="fill:none;stroke:#775D42;stroke-width:15;stroke-linejoin:round;stroke-miterlimit:10;" d="M120.608,171.867&#10;&#9;&#9;&#9;c-0.282,3.548-0.432,7.134-0.432,10.755c0,73.812,59.836,133.648,133.648,133.648c73.812,0,133.648-59.836,133.648-133.648&#10;&#9;&#9;&#9;c0-3.621-0.149-7.207-0.432-10.755"/>
		<path style="fill:none;stroke:#775D42;stroke-width:15;stroke-linecap:round;stroke-linejoin:round;stroke-miterlimit:10;" d="&#10;&#9;&#9;&#9;M353.821,93.962c-24.483-27.594-60.205-44.989-99.996-44.989c-39.791,0-75.513,17.396-99.996,44.989"/>
		
			<line style="fill:none;stroke:#775D42;stroke-width:15;stroke-linecap:round;stroke-linejoin:round;stroke-miterlimit:10;" x1="348.383" y1="142.063" x2="253.825" y2="236.622"/>
		<path style="fill:none;stroke:#775D42;stroke-width:15;stroke-linecap:round;stroke-linejoin:round;stroke-miterlimit:10;" d="&#10;&#9;&#9;&#9;M399.547,81.71l-81.209,21.76c-41.672,11.166-55.629,63.256-25.123,93.762l0,0c30.506,30.506,82.596,16.549,93.762-25.123&#10;&#9;&#9;&#9;l21.76-81.209C410.231,85.321,405.126,80.215,399.547,81.71z"/>
		
			<line style="fill:none;stroke:#775D42;stroke-width:15;stroke-linecap:round;stroke-linejoin:round;stroke-miterlimit:10;" x1="159.266" y1="142.063" x2="253.825" y2="236.622"/>
		
			<line style="fill:none;stroke:#775D42;stroke-width:15;stroke-linecap:round;stroke-linejoin:round;stroke-miterlimit:10;" x1="253.825" y1="236.622" x2="253.825" y2="316.27"/>
		<path style="fill:none;stroke:#775D42;stroke-width:15;stroke-linecap:round;stroke-linejoin:round;stroke-miterlimit:10;" d="&#10;&#9;&#9;&#9;M113.42,145.041l7.253,27.068c11.166,41.672,63.256,55.629,93.762,25.123l0,0c30.506-30.506,16.548-82.596-25.123-93.762&#10;&#9;&#9;&#9;l-81.209-21.76c-5.579-1.495-10.685,3.61-9.19,9.189l5.448,20.333"/>
		<path style="fill:none;stroke:#775D42;stroke-width:15;stroke-linecap:round;stroke-linejoin:round;stroke-miterlimit:10;" d="&#10;&#9;&#9;&#9;M416.474,342.662l32.148-32.148c12.577-12.577,12.577-32.969,0-45.546l0,0"/>
		<path style="fill:none;stroke:#775D42;stroke-width:15;stroke-linecap:round;stroke-linejoin:round;stroke-miterlimit:10;" d="&#10;&#9;&#9;&#9;M95.526,342.662l-32.148-32.148c-12.577-12.577-12.577-32.969,0-45.546l0,0"/>
		<path style="fill:none;stroke:#775D42;stroke-width:15;stroke-linecap:round;stroke-linejoin:round;stroke-miterlimit:10;" d="&#10;&#9;&#9;&#9;M452.232,238v31.278c-1.078-1.537-2.297-3.005-3.675-4.376c-4.125-4.101-10.813-4.048-14.926,0.065l-74.243,74.243&#10;&#9;&#9;&#9;c-7.204,7.204-11.252,16.975-11.252,27.164l0,91.291c0,2.96,2.4,5.36,5.36,5.36h60.093c2.96,0,5.36-2.4,5.36-5.36v-38.259&#10;&#9;&#9;&#9;c0-6.368,2.53-12.475,7.032-16.977l66.561-66.561c7.656-7.656,11.958-18.041,11.958-28.868l0-129.472&#10;&#9;&#9;&#9;c0-8.465-6.927-15.299-15.391-15.259c-20.383,0.096-36.876,16.649-36.876,37.055V203"/>
		<path style="fill:none;stroke:#775D42;stroke-width:15;stroke-linecap:round;stroke-linejoin:round;stroke-miterlimit:10;" d="&#10;&#9;&#9;&#9;M62.783,379.195l23.236,23.235c4.503,4.503,7.032,10.61,7.032,16.977v38.259c0,2.96,2.4,5.36,5.36,5.36h60.093&#10;&#9;&#9;&#9;c2.96,0,5.36-2.4,5.36-5.36l0-91.291c0-10.188-4.047-19.959-11.252-27.164L78.37,264.968c-4.113-4.113-10.801-4.166-14.926-0.065&#10;&#9;&#9;&#9;c-1.378,1.37-2.597,2.839-3.675,4.376l0-69.954c0-20.405-16.494-36.958-36.876-37.055C14.427,162.23,7.5,169.064,7.5,177.529&#10;&#9;&#9;&#9;l0,129.472c0,10.828,4.302,21.212,11.958,28.868l18.559,18.559"/>
	</g>
</svg>