<svg id="Layer_1" height="512" viewBox="0 0 512 512" width="512" xmlns="http://www.w3.org/2000/svg" data-name="Layer 1" fill="#775D42"><path d="m421.7 273.762h64.6l-30.685-91.813h-52.404l18.49 91.813zm66.555 14h-64.511a33.009 33.009 0 0 0 64.512 0zm-80 0h-64.511a33.009 33.009 0 0 0 64.512 0zm-80 0h-64.511a33.009 33.009 0 0 0 64.512 0zm-80 0h-64.511a33.009 33.009 0 0 0 64.512 0zm-80 0h-64.511c7.425 34.38 57.087 34.379 64.512 0zm-80 0h-64.511a33.009 33.009 0 0 0 64.512 0zm365.381 39.938v128.36h-40.536v-37.071c0-48.345-40.682-80.551-87.117-80.551s-87.116 32.206-87.116 80.551v37.071h-34.357v-64.816a52.806 52.806 0 1 0 -105.612 0v64.816h-40.534v-128.36a46.979 46.979 0 0 0 37.636-22.251 47.01 47.01 0 0 0 80 0 47.01 47.01 0 0 0 80 0 47.01 47.01 0 0 0 80 0 47.01 47.01 0 0 0 80 0 46.977 46.977 0 0 0 37.636 22.251zm-308.825-248.579h-76.447a10.019 10.019 0 0 0 -10 10v78.83h79.746a123.876 123.876 0 0 1 6.7-88.829zm-1.5 102.828h-20.3l-18.49 91.813h65.118l4.537-49.529a123.547 123.547 0 0 1 -30.87-42.284zm43.946 52.433-3.608 39.38h65.351v-18.62a122.49 122.49 0 0 1 -61.748-20.76zm75.743 20.76v18.62h65.355l-3.607-39.38a122.5 122.5 0 0 1 -61.748 20.76zm74.823-30.909a123.547 123.547 0 0 0 30.87-42.284h20.3l18.49 91.813h-65.122zm36.067-56.283h79.746v-78.83a10.019 10.019 0 0 0 -10-10h-76.447a123.871 123.871 0 0 1 6.7 88.829zm-117.89-144.95a109.17 109.17 0 1 1 -109.17 109.17 109.168 109.168 0 0 1 109.17-109.17zm53.7 177.874v-137.408a7 7 0 0 0 -6.972-7c-27.653 0-32.471 34.186-32.471 55.177 0 16.142 9.67 26.939 22.884 34.113a4.89 4.89 0 0 1 2.614 4.394v50.724a6.973 6.973 0 1 0 13.945 0zm-76.789 1.471v-86.67a4.91 4.91 0 0 1 3.016-4.589 22.623 22.623 0 0 0 13.63-20.722v-28.364a7 7 0 0 0 -14 0v28.364a8.533 8.533 0 0 1 -2.646 6.176v-34.54a7 7 0 0 0 -14 0v34.54a8.534 8.534 0 0 1 -2.645-6.176v-28.364a7 7 0 0 0 -14 0v28.364a22.624 22.624 0 0 0 13.634 20.722 4.907 4.907 0 0 1 3.016 4.589v86.67a7 7 0 1 0 14 0zm-204.911 286.655h456a5.01 5.01 0 0 0 5-5v-8.94a5.01 5.01 0 0 0 -5-5h-456a5.01 5.01 0 0 0 -5 5v8.94a5.01 5.01 0 0 0 5 5zm84.9-32.94h77.61v-64.816a38.806 38.806 0 1 0 -77.612 0v64.816zm139.971 0h66.116v-39.811h-66.061q-.057 1.363-.057 2.74v37.071zm80.116 0h66.113v-37.071q0-1.375-.057-2.74h-66.06v39.811zm63.943-53.811c-7.851-29.458-34.311-47.247-63.943-49.543v49.543zm-77.943-49.543c-29.632 2.3-56.091 20.085-63.942 49.543h63.942zm-210.2-170.757-18.487 91.813h-64.6l30.685-91.813z" fill-rule="evenodd"/></svg>