
<svg id="Layer_1" xmlns="http://www.w3.org/2000/svg" version="1.1" viewBox="0 0 384 384" fill="#775D42">
  <path d="M219,0c3.49,1.85,6.58,4.35,6.75,8.63-1.69,24.11,2.26,51.29.03,75.03-.33,3.57-1.69,6.74-5.07,8.43-4.45,2.22-14.28,3.31-20.1,5.4-87.71,31.62-87.65,157.6,0,189.03,5.72,2.05,15.65,3.19,20.09,5.41,3.39,1.69,4.74,4.86,5.07,8.43,2.23,23.74-1.72,50.92-.03,75.03-.17,4.27-3.26,6.78-6.75,8.63h-34.5c-3.06-1.54-5.17-3.44-6.37-6.75-1.79-4.95-6.77-32.54-8.64-34.11l-27.19-10.78c-9.78,4.56-19.83,13.66-29.5,17.8-5.37,2.3-7.6,1.37-11.94-2.15-14.31-11.6-27.46-29.36-41.49-41.76-2.11-2.81-2.85-6.14-1.39-9.4,5.75-10.7,13.38-20.66,18.41-31.55-4.67-8.4-7.77-17.46-11.16-26.42-10.48-3.98-23.93-4.55-34.15-8.6-4.43-1.76-5.92-3.89-6.37-8.63-1.43-15.22-1.08-43.08,0-58.56.28-3.98.92-6.75,4.75-8.75,8.74-4.55,25.11-5,34.73-8.77.85-.17,1.25-.6,1.67-1.33,1.77-3.01,4.07-11.85,5.78-15.97,1.43-3.46,3.64-6.58,4.82-10.16l-18.48-30.97c-1.79-4.83-.22-7.38,2.75-11.04,8-9.88,30.25-32.12,40.12-40.12,4.79-3.88,6.75-4.52,12.42-1.89,9.68,4.5,19.25,12.78,29.01,17.54l27.19-10.78c1.88-1.57,6.85-29.16,8.64-34.11,1.2-3.31,3.31-5.21,6.37-6.75h34.5ZM207.75,18h-13.12c-4.66,9.84-4.6,22.65-8.59,32.66-.82,2.07-1.51,3.52-3.52,4.73-4.68,2.82-15.12,4.98-21.02,7.48-4.95,2.1-14.85,8.58-19.37,8.45-6.63-.19-29.79-18.77-32.84-17.99l-30.93,30.7c-.69,1.02-.17,1.8.22,2.75,3.56,8.52,12.82,18.63,16.85,27.42,2.44,6.49-3.06,11.67-5.56,17.29s-4.56,11.04-6.65,16.6c-2.53,6.76-.86,10.73-8.97,13.53-4.3,1.49-30.25,6.51-31.17,7.83v45.09c9.82,3.49,21.34,4.43,31.17,7.83,8.11,2.8,6.44,6.78,8.97,13.53,2.08,5.56,4.24,11.18,6.65,16.6s8.01,10.84,5.56,17.29l-17.41,29.09.69,1.51,30.58,30.27c9.82-3.55,19.25-12.76,28.69-16.83,7.68-3.32,16.21,4.18,23.53,7.29,5.11,2.17,20.97,6.21,23.35,9.65.57.83.83,1.65,1.19,2.56,3.99,10.01,3.93,22.82,8.59,32.66h13.12v-58.12c-7.14-2.68-14.52-4.61-21.51-7.74-92.54-41.55-92.61-174.95,0-216.26,6.99-3.12,14.36-5.08,21.51-7.74V18Z"/>
  <path d="M276.75,262.5h-84.38c-2.03,0-5.3-4.1-5.87-6.13-1.84-6.57,2.63-11.03,8.96-11.78,27.55-3.28,61.02,2.31,89.2-.11,5.04.16,9.85,3.31,10.09,8.66l.1,61.4c6.38,3.44,12.18,6.96,15.52,13.73,13.54,27.4-19.62,52.82-42.23,33.98-16.92-14.1-10.9-39.61,8.61-47.61v-52.12ZM284.06,331.66c-10.33,1.71-10.05,17.44-.21,18.61,15.79,1.87,14.55-20.99.21-18.61Z"/>
  <path d="M276.75,121.5v-52.12c-19.26-7.94-25.51-32.92-9.01-47.26,20.87-18.14,52.78,2.75,44.3,29.3-2.79,8.72-9.2,14.18-17.19,18.06l-.1,61.4c-.25,5.34-5.05,8.5-10.09,8.66-28.18-2.42-61.64,3.17-89.2-.11-6.32-.75-10.8-5.21-8.96-11.78.57-2.03,3.84-6.13,5.87-6.13h84.38ZM282.53,33.91c-9.39,2.14-7.91,19.71,4.25,18.55,13.11-1.25,10.72-21.98-4.25-18.55Z"/>
  <path d="M305.88,201.12l-145.02-.11c-11-1.32-10.99-16.71,0-18.03l144.64.05c8.43-23.09,41.06-25.28,51.41-2.56,15.65,34.35-37.85,56.53-51.03,20.65ZM330.58,182.4c-10.5,1.44-11.04,17.05-.61,19.04,14.64,2.78,14.88-20.99.61-19.04Z"/>
  <path d="M169.32,216.2l99.49-.13c10.82,1.47,12.33,15.45,1.58,17.95l-102.72-.06c-10.73-2.66-8.89-16.72,1.65-17.76Z"/>
  <path d="M167.05,150.17l104.04-.13c10.91,3.87,7.49,17.74-3.72,17.95-30.96-2.25-66.29,3.04-96.73,0-11.51-1.15-14.32-13.45-3.59-17.82Z"/>
</svg>