<svg height="426pt" viewBox="0 -10 426.66667 426" width="426pt" xmlns="http://www.w3.org/2000/svg"><path fill="#775D42" d="m313.667969 129.25-89.667969-39.851562v-25.066407h42.667969c2.828125.003907 5.542969-1.121093 7.542969-3.121093s3.125-4.714844 3.121093-7.542969v-42.667969c.003907-2.828125-1.121093-5.542969-3.121093-7.542969-2-2.003906-4.714844-3.125-7.542969-3.125h-53.335938c-2.828125 0-5.542969 1.121094-7.542969 3.125-2 2-3.125 4.714844-3.121093 7.542969v78.398438l-89.667969 39.851562c-3.851562 1.710938-6.335938 5.535156-6.332031 9.75v32h213.332031v-32c0-4.214844-2.480469-8.039062-6.332031-9.75zm0 0"/><path fill="#775D42" d="m192 299h42.667969v106.667969h-42.667969zm0 0"/><path fill="#775D42" d="m106.667969 405.667969h64v-117.335938c0-5.890625 4.773437-10.664062 10.664062-10.664062h64c5.890625 0 10.667969 4.773437 10.667969 10.664062v117.335938h64v-213.335938h-213.332031zm0 0"/><path fill="#775D42" d="m0 203v192c0 2.828125 1.121094 5.542969 3.121094 7.542969 2.003906 2.003906 4.714844 3.125 7.546875 3.125h74.664062v-213.335938h-74.664062c-2.832031 0-5.542969 1.121094-7.546875 3.125-2 2-3.121094 4.714844-3.121094 7.542969zm0 0"/><path fill="#775D42" d="m416 192.332031h-74.667969v213.335938h74.667969c2.828125 0 5.542969-1.121094 7.542969-3.125 2.003906-2 3.125-4.714844 3.125-7.542969v-192c0-2.828125-1.121094-5.542969-3.125-7.542969-2-2.003906-4.714844-3.125-7.542969-3.125zm0 0"/></svg>