<svg id="mountain" enable-background="new 0 0 512 512" height="512" viewBox="0 0 512 512" width="512" xmlns="http://www.w3.org/2000/svg" fill="#775D42"><path id="_x31_6_1_" d="m463.197 337.583-21.997-48.387-13.41-40.227c-.469-1.414-1.484-2.582-2.82-3.25l-25.871-12.934-48.723-62.012c-1.141-1.453-2.906-2.293-4.77-2.137-1.848.117-3.52 1.129-4.473 2.719l-9.688 16.148-75.906-80.121c-1.195-1.266-2.926-1.91-4.645-1.73-1.73.176-3.285 1.141-4.207 2.617l-41.832 66.926-26.629-19.023c-1.234-.883-2.777-1.215-4.27-.961-1.492.273-2.813 1.137-3.664 2.391l-121.5 180c-1.164 1.727-1.281 3.953-.305 5.789s2.887 2.984 4.969 2.984h405c.027-.004.051 0 .086 0 3.113 0 5.625-2.52 5.625-5.625.002-1.171-.357-2.261-.97-3.167zm-288.239-163.332-9 22.5v18h13.5v9l-18 4.5-31.5 31.5-4.5 18-40.5 31.5zm40.5 90-31.5 4.5-45 45h-18l63-63 4.5-13.5 9-4.5v-13.5l9-13.5v-13.5l49.5-63v9l-4.5 4.5v40.5l-22.5 22.5zm130.5-18h-4.5l-13.5 22.5h13.5v9l-9 4.5-36 18-54 18 58.5-40.5 27-72 18 31.5z" /></svg>