
<svg id="Layer_1" xmlns="http://www.w3.org/2000/svg" version="1.1" viewBox="0 0 384 384" fill="#775D42">
  <path d="M166.31,207.93l180.6-.21c16.05.58,29.86,13.58,31.12,29.63,1.97,24.99-.91,46.95-29.74,51.31l-181.83-.24c-26.18-13.08-60.46-20.67-85.74-34.26-5.41-2.91-6.33-7.93-.75-11.07l86.34-35.16ZM311.25,219h-140.25l-9,23.25h149.25v-23.25ZM337.5,276v-55.88c0-.08-1.05-1.12-1.12-1.12h-13.12v57h14.25ZM348.75,276c10.49-.95,18.16-11.15,18.06-21.39-.02-2.13-.78-3.95-.84-5.96-.32-10.6.85-19.28-9.48-25.77-.99-.62-7.74-4.32-7.74-2.01v55.12ZM155.99,271.5c1.5-1.91-8.29-19.92-8.31-23.62-.02-4.05,9.37-22.29,8.31-23.63l-58.49,23.26,58.49,23.99ZM311.25,253.5h-149.25c2.65,7.62,5.65,15.44,9.38,22.5h139.88v-22.5Z"/>
  <path d="M133.6,33.64c2.76.19,10.06,4.89,12.09,4.48,3.32-.69,14.48-11.98,19.05-14,3.41-1.5,4.23-1.1,7.02.99,3.67,2.75,19.96,18.93,22.48,22.51.54.76,1.22,1.47,1.39,2.43.82,4.53-11.83,17.55-14.51,21.98-.63,1.47,3.29,12.39,3.84,12.78,1.95,1.38,19.23,2.41,23.7,3.88,3.38,1.11,4.06,2.81,4.36,6.14.89,9.91-.6,21.31-.19,31.38-.71,2.23-2.24,3.8-4.46,4.54-3.85,1.28-22.04,2.55-23.51,4.24-.68.78-4.23,10.42-3.99,11.43.63,2.59,10.28,12.74,12.49,16.08s4.07,5.44,1.28,9.28c-2.18,3-20.42,21.31-23.27,23.22-2.43,1.63-3.63,1.3-6.13.13-3.49-1.63-18.09-14.33-19.79-14.05-2.48.41-7.6,4.56-11.11,4.27-1.54,5.57-1.61,24.27-6.14,27.23-1.38.9-3.2,1.05-4.81,1.19-6.16.57-24.18.82-29.86-.21-2.38-.43-4.04-1.92-4.8-4.17-1.29-3.81-2.92-22.85-4.19-23.96-.46-.4-10.84-4.49-11.45-4.42-.97.11-13.09,10.3-15.57,11.9-4.24,2.75-5.81,4.82-10.67,1.34-2.71-1.94-20.86-20.03-22.45-22.54-.71-1.11-1.21-1.94-1.2-3.34.01-5.55,13.41-17.16,14.94-23.07-1.52-1.55-3.75-10.31-4.56-10.91-1.44-1.07-18.84-2.46-22.53-3.34-2.83-.67-4.46-1.52-4.69-4.66-.73-10.25,1.3-22.48.39-33.01.35-1.83,2.42-3.5,4.12-4.13,3.82-1.4,22.48-2.66,23.67-4.26.35-.47,4.37-10.42,4.28-11-.41-2.83-12.59-15.12-14.25-19.47-1.32-3.46-.78-5.29,1.27-8.06,3-4.03,15.4-16.24,19.5-19.51,1.7-1.36,3.71-3.03,6.02-3.02,5.24,0,18.5,14.48,22.14,14.01,2.9-.38,7.67-4.02,11.14-4.32,1.31-7.04,1.28-16.67,3.29-23.34,1-3.33,2.97-4.06,6.15-4.35,6.62-.6,25.32-.89,31.49.08,1.02.16,1.84.44,2.64,1.11,3.64,3.04,4.19,21.23,5.38,26.49ZM119.99,18.01l-20.91.08c-1.38,1.17-1.71,20.75-3.9,24.22-1.04,1.65-10.03,4.3-12.66,5.34-2.43.96-5.88,3.48-8.07,3.93-6.86,1.43-14.99-9.11-20.96-12.47-.87-.49-1.38-1.06-2.48-.52-.86.43-13.28,12.7-13.44,13.64,1.8,5.25,13.69,16.4,13.96,21.01.2,3.44-8.16,15.7-8.46,20.46-.68,1.11-2.07,2.27-3.29,2.71-5.52,1.96-15.25,1.51-21.3,2.7-.97.25-1.07.92-1.23,1.77-.96,5.17.44,13.66.33,19.18,1.22,1.69,20.56,2.39,24.4,4.85,2.48,1.6,4.61,9.61,5.9,12.85,1.68,4.22,5.18,7.11,3.29,12.04s-10.59,12.43-13.32,17.5c-.42.54-.3.89-.02,1.44.43.85,12.72,13.22,13.66,13.4,5.45-1.36,15.58-13.39,20.2-14.13,3.48-.55,8.48,3.19,11.81,4.62,4.23,1.82,10.77,2.58,12.3,7.2,1.01,3.05,2.28,20.87,3.7,21.2l21.25-.03c.8-7.99,1.43-16.23,3.42-23.96l21.13-9.65c4.62-1.2,20.93,15.32,22.71,14.53l14.12-14.29c.01-1.79-14.51-16.8-14.86-20.33-.29-2.93,3.35-8.06,4.63-11.05,1.35-3.16,3-9.99,5.48-11.77,3.95-2.83,18.27-2.62,23.64-3.73l-.33-21.05c-1.2-1.69-20.46-1.67-23.67-4.08-1.67-1.26-4.01-9.42-5.13-12.12-.94-2.29-4.25-7.24-4.49-9.04-.64-4.73,10.85-16.24,13.74-20.47.65-1.02.49-1.93,0-2.97-1.47-3.14-11.11-10.01-13.61-13.46-1.73-.3-15.78,13.52-20.2,14.17-4.15.62-10.06-3.58-14.06-5.36-2.34-1.05-6.53-1.71-8.3-2.95-3.62-2.53-3.88-20.46-4.97-25.41Z"/>
  <path d="M9.54,294.16h260.68c2.5.68,4.23,2.85,4.3,5.45l-.35,74.69c-.74,2.28-3.04,3.07-5.26,2.99l-259.95-.37c-2-.72-2.9-2.47-2.97-4.53,1.64-23.44-2.13-49.7-.02-72.8.25-2.71.58-4.65,3.57-5.43ZM263.25,366v-59.62c0-.08-1.05-1.12-1.12-1.12H17.25v60.75h20.25v-14.62c0-2.88,5.73-4.13,8.24-2.98.39.18,3.01,2.77,3.01,2.98v14.62h27v-22.88c0-1.07,4.07-3.42,5.62-3.42s5.62,2.34,5.62,3.42v22.88h27.75v-14.62c0-.21,2.62-2.8,3.01-2.98,2.51-1.15,8.24.1,8.24,2.98v14.62h27.75v-22.88c0-1.07,4.07-3.42,5.62-3.42s5.62,2.34,5.62,3.42v22.88h27.75v-14.62c0-.21,2.64-2.82,3.01-2.98,2.46-1.06,8.24.26,8.24,2.98v14.62h27.75v-22.88c0-1.07,4.07-3.42,5.62-3.42s5.62,2.34,5.62,3.42v22.88h20.25Z"/>
  <path d="M104.85,67.72c56.86-5.65,62.83,79.58,9.52,84.52-57.33,5.31-63.96-79.11-9.52-84.52ZM103.32,79.7c-38.34,5.57-28.94,69.84,13.1,60.35,36.81-8.31,28.83-66.44-13.1-60.35Z"/>
</svg>