<svg height="464pt" viewBox="0 0 464 464" width="464pt" xmlns="http://www.w3.org/2000/svg" fill="#775D42"><path d="m64 217.160156c0 23.910156 6.695312 47.273438 19.367188 67.542969 10.6875 17.089844 29.105468 27.296875 49.257812 27.296875 15.511719 0 30.101562-6.039062 41.078125-17.007812l2.296875-2.304688v-12.6875h-2.390625c-21.257813 0-41.074219-9.519531-54.363281-26.128906-9.832032-12.285156-15.246094-27.726563-15.246094-43.488282 0-33.984374 18.457031-65.34375 48.167969-81.847656l23.832031-13.238281v-89.96875l-5.136719 3.078125c-65.917969 39.554688-106.863281 111.882812-106.863281 188.753906zm0 0"/><path d="m120 210.382812c0 12.136719 4.167969 24.023438 11.742188 33.488282 3.53125 4.417968 7.691406 8.121094 12.257812 11.160156v-47.03125h32v-74.40625l-16.070312 8.925781c-24.625 13.6875-39.929688 39.6875-39.929688 67.863281zm0 0"/><path d="m144 384h32v80h-32zm0 0"/><path d="m112 325.007812v138.992188h16v-96h48v-54.113281c-12.550781 9.121093-27.558594 14.113281-43.375 14.113281-7.113281 0-14.015625-1.089844-20.625-2.992188zm0 0"/><path d="m160 262.191406c4.390625 1.152344 8.945312 1.808594 13.609375 1.808594h2.390625v-40h-16zm0 0"/><path d="m224 384h16v16h-16zm0 0"/><path d="m80 464h16v-145.671875c-5.863281-3.335937-11.207031-7.527344-16-12.398437zm0 0"/><path d="m224 352h16v16h-16zm0 0"/><path d="m224 320h16v16h-16zm0 0"/><path d="m224 416h16v16h-16zm0 0"/><path d="m192 464h16v-457.871094l-16 9.597656zm0 0"/><path d="m224 448h16v16h-16zm0 0"/><path d="m331.375 312c20.160156 0 38.570312-10.207031 49.257812-27.304688 12.671876-20.269531 19.367188-43.632812 19.367188-67.535156 0-76.871094-40.945312-149.191406-106.863281-188.746094l-5.136719-3.085937v89.96875l23.832031 13.238281c29.710938 16.503906 48.167969 47.863282 48.167969 81.847656 0 15.753907-5.414062 31.203126-15.257812 43.488282-13.277344 16.609375-33.09375 26.128906-54.351563 26.128906h-2.390625v12.6875l2.296875 2.296875c10.976563 10.976563 25.558594 17.015625 41.078125 17.015625zm0 0"/><path d="m48 217.160156c0-62.984375 25.6875-123.0625 69.296875-166.855468l-85.296875 42.640624v131.054688h16.238281c-.109375-2.28125-.238281-4.550781-.238281-6.839844zm0 0"/><path d="m49.894531 240h-17.894531v24h23.921875c-2.699219-7.808594-4.707031-15.832031-6.027344-24zm0 0"/><path d="m320 255.03125c4.558594-3.039062 8.71875-6.742188 12.246094-11.152344 7.585937-9.464844 11.753906-21.359375 11.753906-33.496094 0-28.175781-15.304688-54.175781-39.929688-67.863281l-16.070312-8.925781v74.40625h32zm0 0"/><path d="m304 262.191406v-38.191406h-16v40h2.390625c4.664063 0 9.21875-.65625 13.609375-1.808594zm0 0"/><path d="m32 440h32v24h-32zm0 0"/><path d="m32 360h32v24h-32zm0 0"/><path d="m32 320h32v24h-32zm0 0"/><path d="m32 400h32v24h-32zm0 0"/><path d="m32 280v24h32v-21.113281c-.488281-.949219-.9375-1.917969-1.40625-2.886719zm0 0"/><path d="m0 96h16v368h-16zm0 0"/><path d="m400 400h32v24h-32zm0 0"/><path d="m288 384h32v80h-32zm0 0"/><path d="m400 440h32v24h-32zm0 0"/><path d="m288 313.886719v54.113281h48v96h16v-138.992188c-6.609375 1.902344-13.511719 2.992188-20.625 2.992188-15.816406 0-30.824219-4.992188-43.375-14.113281zm0 0"/><path d="m368 464h16v-158.070312c-4.792969 4.871093-10.136719 9.0625-16 12.398437zm0 0"/><path d="m400 360h32v24h-32zm0 0"/><path d="m400 320h32v24h-32zm0 0"/><path d="m416 217.160156c0 2.289063-.128906 4.566406-.238281 6.839844h16.238281v-131.054688l-85.296875-42.648437c43.609375 43.800781 69.296875 103.878906 69.296875 166.863281zm0 0"/><path d="m448 96h16v368h-16zm0 0"/><path d="m408.078125 264h23.921875v-24h-17.894531c-1.320313 8.167969-3.328125 16.191406-6.027344 24zm0 0"/><path d="m400 282.878906v21.121094h32v-24h-30.59375c-.46875.960938-.917969 1.929688-1.40625 2.878906zm0 0"/><path d="m224 224h16v16h-16zm0 0"/><path d="m224 128h16v16h-16zm0 0"/><path d="m224 160h16v16h-16zm0 0"/><path d="m224 192h16v16h-16zm0 0"/><path d="m256 464h16v-448.273438l-16-9.597656zm0 0"/><path d="m224 256h16v16h-16zm0 0"/><path d="m224 288h16v16h-16zm0 0"/><path d="m224 32h16v16h-16zm0 0"/><path d="m224 96h16v16h-16zm0 0"/><path d="m224 0h16v16h-16zm0 0"/><path d="m224 64h16v16h-16zm0 0"/></svg>