<svg id="Layer_1" enable-background="new 0 0 500 500" viewBox="0 0 500 500" xmlns="http://www.w3.org/2000/svg"><path fill="#775D42" clip-rule="evenodd" d="m334.689 130.181-5.183 11.472c-.115.255-.119.518-.012.776s.296.441.559.538c16.856 6.291 33.489 6.027 50.361-.092.265-.096.456-.278.566-.537.109-.259.106-.523-.01-.78l-5.141-11.377c-.21-.465-.739-.688-1.218-.515-12.501 4.509-26.203 4.509-38.703 0-.48-.173-1.009.051-1.219.515zm105.76 175.107h-380.898c-.537 0-.974.438-.974.974v164.001c0 .537-.438.974-.974.974h-37.258c-3.499 0-6.335 2.837-6.335 6.335s2.836 6.335 6.335 6.335h459.31c3.499 0 6.335-2.836 6.335-6.335s-2.837-6.335-6.335-6.335h-37.257c-.537 0-.974-.438-.974-.974v-164.001c0-.537-.438-.974-.975-.974zm-313.725 44.743h246.553c9.377 0 17.024 7.647 17.024 17.024v42.415c0 9.376-7.648 17.024-17.024 17.024h-246.553c-9.376 0-17.024-7.648-17.024-17.024v-42.415c0-9.376 7.647-17.024 17.024-17.024zm-92.69-223.275h176.76c.537 0 .974-.438.974-.974v-14.154c0-2.241-1.857-4.098-4.098-4.098h-170.513c-2.241 0-4.098 1.857-4.098 4.098v14.154c0 .536.438.974.975.974zm109.874 50 5.207 32.112c.077.475.48.818.962.818h57.593c2.241 0 4.098-1.857 4.098-4.098v-65.188c0-.537-.438-.974-.974-.974h-176.76c-.537 0-.974.438-.974.974v65.188c0 2.241 1.857 4.098 4.098 4.098h57.592c.482 0 .885-.343.962-.818l5.122-31.584c.004-.026.007-.048.009-.075.272-3.248 2.995-5.799 6.313-5.799h30.517v.02c3.053-.002 5.741 2.215 6.235 5.326zm-5.398 45.601 2.935 18.096c.047.292-.028.562-.22.787s-.446.343-.742.343h-36.138c-.296 0-.551-.118-.742-.343-.192-.225-.267-.495-.22-.787l9.009-55.553c.077-.476.48-.818.962-.818h18.121c.482 0 .885.343.962.818zm200.307 31.896h-302.425c-1.82 0-3.333 1.513-3.333 3.333v31.699c0 1.82 1.513 3.333 3.333 3.333h427.216c1.82 0 3.333-1.513 3.333-3.333v-31.699c0-1.82-1.513-3.333-3.333-3.333-41.597 0-83.194 0-124.791 0zm-37.883-70.582c-1.805-1.918-2.178-4.666-1.163-6.929l10.475-23.183c.14-.311.115-.643-.069-.93-.185-.286-.478-.446-.819-.446h-9.502c-16.907 0-30.763 13.856-30.763 30.763v57.662c0 .537.438.974.974.974h55.644c.39 0 .724-.215.886-.57s.106-.748-.15-1.043l-20.163-23.282c-1.937-2.239-2.022-5.451-.391-7.767l-.005-.004 7.616-10.803c.27-.383.234-.89-.088-1.231zm49.07 56.938c0 .537-.438.974-.974.974h-4.03c-.293 0-.545-.115-.737-.336l-24.688-28.508c-.297-.343-.321-.829-.06-1.199l7.768-11.018c1.802-2.561 1.434-5.998-.721-8.129-.008-.008-.015-.015-.023-.024l-13.046-13.809c-.277-.293-.346-.702-.18-1.07l10.172-22.513c.213-.471.756-.694 1.238-.508 7.997 3.08 16.119 4.936 24.375 5.525.511.037.905.459.905.972v79.643zm33.8-48.056 13.221-13.994c.277-.293.346-.702.18-1.07l-10.209-22.595c-.212-.469-.748-.692-1.23-.511-7.286 2.73-14.706 4.553-22.22 5.352-.498.053-.871.468-.871.969v79.904c0 .537.438.974.974.974h1.87c.293 0 .545-.115.737-.336l24.688-28.508c.297-.343.321-.829.06-1.199l-7.768-11.018c-1.693-2.403-1.525-5.743.568-7.968zm26.943-15.81-10.475-23.183c-.14-.311-.115-.643.069-.93.185-.286.478-.446.819-.446h9.501c16.907 0 30.763 13.856 30.763 30.763v57.662c0 .537-.438.974-.974.974h-55.644c-.39 0-.724-.215-.886-.57s-.106-.748.15-1.043l19.936-23.02c.011-.012.02-.023.031-.035 2.04-2.139 2.356-5.488.591-7.998l-7.616-10.803c-.27-.383-.234-.89.088-1.231l12.273-12.99c.009-.01.018-.018.028-.028 1.845-1.801 2.467-4.633 1.346-7.122zm-284.023 186.34h246.553c2.185 0 3.972 1.787 3.972 3.972v42.415c0 2.185-1.787 3.972-3.972 3.972h-246.553c-2.185 0-3.972-1.787-3.972-3.972v-42.415c0-2.185 1.787-3.972 3.972-3.972zm262.25-331.893c-18.666-20.13-48.764-20.13-67.43 0-18.903 20.386-18.903 53.702 0 74.088 18.666 20.13 48.764 20.13 67.43 0 18.903-20.387 18.903-53.702 0-74.088z" fill-rule="evenodd"/></svg>