<svg id="Layer_17" enable-background="new 0 0 2000 2000" height="512" viewBox="0 0 2000 2000" width="512" xmlns="http://www.w3.org/2000/svg" fill="#775d42"><path d="m1971.796 794.255c.206-2.012.234-4.038.111-6.062.707-11.664-4.048-23.479-13.865-31.335l-232.37-185.973v-91.792c0-86.281-70.193-156.474-156.474-156.474h-153.726l-385.645-308.64c-.013-.017-.023-.035-.036-.053-7.51-9.383-18.637-14.13-29.792-13.917-11.154-.213-22.281 4.533-29.79 13.917-.014.017-.024.035-.037.053l-385.641 308.64h-153.729c-86.281 0-156.474 70.193-156.474 156.474v91.793l-232.37 185.971c-9.818 7.856-14.572 19.671-13.865 31.335-.124 2.024-.095 4.05.11 6.062-.132 1.279-.205 2.577-.205 3.891v1025.649c0 97.16 83.422 176.204 185.96 176.204h1572.083c102.538 0 185.96-79.045 185.96-176.204v-1025.648c.001-1.314-.071-2.612-.205-3.891zm-246.123-128.04 152.408 121.977-152.408 121.978zm-725.673-580.78 296.357 237.182h-592.712zm-651.243 393.656c0-45.238 36.807-82.045 82.045-82.045h1138.396c45.238 0 82.045 36.807 82.045 82.045v110.138c0 .035-.001.071 0 .105v380.404l-651.243 521.213-651.243-521.212zm-74.429 187.124v243.955l-152.409-121.978zm-171.9 1157.581v-955.872l605.701 484.764-594.932 514.698c-6.897-13.221-10.769-27.999-10.769-43.59zm1683.614 101.775h-1572.083c-15.802 0-30.836-3.032-44.469-8.464l597.735-517.123 202.948 162.427c.013.016.023.034.037.051 7.349 9.182 18.163 13.959 29.078 13.959.237 0 .474-.024.712-.028.238.004.476.028.714.028 10.915 0 21.729-4.777 29.078-13.959.013-.016.023-.034.036-.051l202.948-162.427 597.734 517.123c-13.633 5.431-28.667 8.464-44.468 8.464zm111.53-101.775c0 15.591-3.874 30.369-10.77 43.591l-594.932-514.698 605.702-484.764zm-1280.571-1074.623h769.927c20.553 0 37.215-16.661 37.215-37.215s-16.661-37.215-37.215-37.215h-769.927c-20.554 0-37.215 16.661-37.215 37.215 0 20.553 16.661 37.215 37.215 37.215zm807.142 186.691c0-20.554-16.661-37.215-37.215-37.215h-769.927c-20.554 0-37.215 16.661-37.215 37.215s16.661 37.215 37.215 37.215h769.927c20.554 0 37.215-16.661 37.215-37.215z"/></svg>