<svg id="Capa_1" enable-background="new 0 0 512 512" height="512" viewBox="0 0 512 512" width="512" xmlns="http://www.w3.org/2000/svg"><g><path fill="#775D42" d="m256 376c24.814 0 45-20.186 45-45h-90c0 24.814 20.186 45 45 45z"/><path fill="#775D42" d="m361 331h-30c0 41.353-33.633 75-75 75s-75-33.647-75-75h-30v105h210z"/><path fill="#775D42" d="m481 391c0-33.091-26.924-60-60-60h-30v181h90z"/><path fill="#775D42" d="m151 466h210v46h-210z"/><path fill="#775D42" d="m31 391v121h90v-181h-30c-33.076 0-60 26.909-60 60z"/><path fill="#775D42" d="m346 211v-15.194c-23.809 7.837-55.142 15.194-90 15.194-35.006 0-66.292-7.242-90-15.04v15.04c0 49.706 40.294 90 90 90s90-40.294 90-90z"/><path fill="#775D42" d="m301 8.925v82.075h70.739c-9.582-36.863-35.938-67.925-70.739-82.075z"/><path fill="#775D42" d="m256 0c-5.136 0-10.032.886-15 1.516v89.484h30v-89.484c-4.968-.63-9.864-1.516-15-1.516z"/><path fill="#775D42" d="m136 151c2.637 1.465 54.961 30 120 30 65.303 0 117.773-28.755 120-30v-30h-240z"/><path fill="#775D42" d="m140.261 91h70.739v-82.075c-34.801 14.15-61.157 45.212-70.739 82.075z"/></g></svg>