<svg id="Artboard_30" height="512" viewBox="0 0 64 64" width="512" xmlns="http://www.w3.org/2000/svg" data-name="Artboard 30" fill="#775D42"><path d="m21 58h5v-1.494l-.159-.117a17.252 17.252 0 0 0 -4.841-2.495z"/><path d="m26 45.506-.159-.117a17.252 17.252 0 0 0 -4.841-2.495v8.918a19.28 19.28 0 0 1 5 2.271z"/><path d="m21 12.764v8.048a19.28 19.28 0 0 1 5 2.271v-6.445a3 3 0 0 0 -1.818-2.758l-.44-.189a20.76 20.76 0 0 0 -2.742-.927z"/><path d="m24 11.642v-6.2a1 1 0 0 0 -.684-.949l-1.316-.438a20.669 20.669 0 0 0 -13 .001l-1.312.436a1 1 0 0 0 -.688.949v6.2a23.015 23.015 0 0 1 17 .001z"/><path d="m26 35.506-.159-.117a17.252 17.252 0 0 0 -4.841-2.495v7.918a19.28 19.28 0 0 1 5 2.271z"/><path d="m26 25.506-.159-.117a17.252 17.252 0 0 0 -4.841-2.495v7.918a19.28 19.28 0 0 1 5 2.271z"/><path d="m37 44h5v14h-5z"/><path d="m52 41.5a.5.5 0 0 0 -.5-.5h-17a.5.5 0 0 0 0 1h17a.5.5 0 0 0 .5-.5z"/><path d="m35 44h-.5a2.5 2.5 0 0 1 0-5h17a2.5 2.5 0 0 1 0 5h-.5v14h8v-34.28a1 1 0 0 0 -.85-.99l-30.15-4.568v39.838h7zm18-20h2v7h3v2h-4a1 1 0 0 1 -1-1zm-6 0h2v7h3v2h-4a1 1 0 0 1 -1-1zm-6.97.758a1 1 0 0 1 .97-.758h2a1 1 0 0 1 .97.758l2 8-1.94.484-.811-3.242h-2.438l-.811 3.242-1.94-.484zm-9.03 8.242h-2v-8a1 1 0 0 1 1-1h1a1 1 0 0 1 .929.629l1.071 2.679 1.071-2.679a1 1 0 0 1 .929-.629h1a1 1 0 0 1 1 1v8h-2v-5.308l-1.071 2.679a1 1 0 0 1 -1.858 0l-1.071-2.679z"/><path d="m44 44h5v14h-5z"/><path d="m42.219 26h-.438l-.5 2h1.438z"/><path d="m10 42.929a17.261 17.261 0 0 0 -4.175 2.047l-.825.556v8.6a19.276 19.276 0 0 1 5-2.312z"/><path d="m10 32.929a17.261 17.261 0 0 0 -4.175 2.047l-.825.556v7.6a19.276 19.276 0 0 1 5-2.312z"/><path d="m60.5 60h-57a.5.5 0 0 0 0 1h57a.5.5 0 0 0 0-1z"/><path d="m10 22.929a17.261 17.261 0 0 0 -4.175 2.047l-.825.556v7.6a19.276 19.276 0 0 1 5-2.312z"/><path d="m19 42.373a17.479 17.479 0 0 0 -7 .005v8.973a19.511 19.511 0 0 1 7-.02z"/><path d="m10 53.929a17.261 17.261 0 0 0 -4.175 2.047l-.825.556v1.468h5z"/><path d="m10 12.764a20.724 20.724 0 0 0 -2.743.927l-.439.189a3 3 0 0 0 -1.818 2.758v6.5a19.276 19.276 0 0 1 5-2.312z"/><path d="m19 32.373a17.479 17.479 0 0 0 -7 .005v7.973a19.511 19.511 0 0 1 7-.02z"/><path d="m12 53.378v4.622h7v-4.627a17.479 17.479 0 0 0 -7 .005z"/><path d="m19 12.324a21.086 21.086 0 0 0 -7 0v8.027a19.488 19.488 0 0 1 7-.02z"/><path d="m19 22.373a17.479 17.479 0 0 0 -7 0v7.974a19.511 19.511 0 0 1 7-.02z"/></svg>