<svg id="Layer_1" enable-background="new 0 0 512 512" viewBox="0 0 512 512" xmlns="http://www.w3.org/2000/svg"><path fill="#775D42" clip-rule="evenodd" d="m85.46 193.166v-21.808h-67.667v21.808c0 9.296 3.809 17.754 9.944 23.889 6.136 6.135 14.593 9.944 23.889 9.944 9.297 0 17.755-3.809 23.89-9.944 6.136-6.135 9.944-14.593 9.944-23.889zm14 0v-21.808h67.667v21.808c0 9.297-3.809 17.754-9.944 23.889s-14.592 9.944-23.89 9.944c-9.297 0-17.754-3.809-23.889-9.944s-9.944-14.592-9.944-23.889zm81.667 0v-21.808h67.667v21.808c0 9.297-3.809 17.754-9.944 23.889s-14.592 9.944-23.89 9.944c-9.296 0-17.754-3.809-23.889-9.944-6.136-6.135-9.944-14.592-9.944-23.889zm81.666 0v-21.808h67.667v21.808c0 9.296-3.808 17.754-9.944 23.889-6.135 6.135-14.592 9.944-23.89 9.944-9.296 0-17.754-3.809-23.889-9.944-6.135-6.136-9.944-14.593-9.944-23.889zm81.667 0v-21.808h67.667v21.808c0 9.297-3.809 17.754-9.944 23.889s-14.592 9.944-23.89 9.944c-9.297 0-17.754-3.809-23.889-9.944s-9.944-14.592-9.944-23.889zm81.667 0v-21.808h67.667v21.808c0 9.297-3.809 17.754-9.944 23.889s-14.592 9.944-23.89 9.944c-9.296 0-17.754-3.809-23.889-9.944-6.136-6.135-9.944-14.592-9.944-23.889zm-17.853-35.808h-65.163l-21.474-100.625h40.796zm55.927 83.451v214.458h-255.159v-166.798c0-3.866-3.134-7-7-7h-103.2c-3.866 0-7 3.134-7 7v166.799h-44.456v-214.459c1.403.125 2.818.189 4.241.189 12.709 0 24.81-5.066 33.789-14.044 2.717-2.717 5.076-5.721 7.045-8.94 1.968 3.22 4.327 6.223 7.045 8.94 8.979 8.978 21.08 14.044 33.788 14.044 12.709 0 24.81-5.065 33.789-14.044 2.717-2.717 5.076-5.721 7.045-8.94 1.969 3.22 4.328 6.223 7.045 8.94 8.979 8.978 21.08 14.044 33.788 14.044 12.709 0 24.81-5.066 33.789-14.044 2.717-2.717 5.076-5.721 7.045-8.94 1.969 3.22 4.328 6.223 7.045 8.94 8.979 8.978 21.08 14.044 33.788 14.044 12.709 0 24.81-5.066 33.789-14.044 2.717-2.717 5.076-5.721 7.045-8.94 1.969 3.22 4.328 6.223 7.045 8.94 8.979 8.978 21.08 14.044 33.788 14.044 12.709 0 24.81-5.066 33.789-14.044 2.717-2.717 5.076-5.721 7.045-8.94 1.969 3.22 4.328 6.223 7.045 8.94 8.979 8.978 21.079 14.044 33.788 14.044 1.42 0 2.835-.064 4.239-.189zm-228.558 40.66c-3.866 0-7 3.134-7 7v72c0 3.866 3.134 7 7 7h193.199c3.866 0 7-3.134 7-7v-72c0-3.866-3.134-7-7-7zm186.2 14h-179.2v58h179.2zm-226.801 159.798v-159.798h-89.2v159.799h89.2zm182.719-398.534 45.841 100.625h72.293l-70.416-100.625zm-48.94 100.625-21.474-100.625h-44.553v100.625zm-80.027 0h-65.543l27.317-100.625h38.226zm-79.991 0 27.317-100.625h-40.042l-52.128 100.625zm-80.581 0h-72.117l76.355-100.625h47.89z" fill-rule="evenodd"/></svg>