<svg id="Layer_1" fill="#775D42" height="512" viewBox="0 0 32 32" width="512" xmlns="http://www.w3.org/2000/svg"><g><g><path d="m7.247 23.586h17.507c1.313 0 2.38-1.064 2.38-2.379v-14.379c0-3.287-2.664-5.951-5.95-5.951h-10.368c-3.285 0-5.949 2.664-5.949 5.951v14.379c0 1.314 1.066 2.379 2.38 2.379zm15.199-3.272c-.876 0-1.587-.711-1.587-1.588 0-.875.711-1.586 1.587-1.586.877 0 1.587.711 1.587 1.586 0 .878-.71 1.588-1.587 1.588zm1.586-13.289v6.545h-6.782v-6.545zm-16.064 0h6.781v6.545h-6.781zm1.587 10.116c.876 0 1.586.711 1.586 1.586 0 .877-.71 1.588-1.586 1.588-.877 0-1.587-.711-1.587-1.588 0-.875.71-1.586 1.587-1.586z"/></g><g><path d="m25.254 31.123h2.991l-4.395-5.752h-2.992l1.194 1.563h-12.105l1.194-1.563h-2.991l-4.395 5.752h2.99l1.546-2.023h15.418z"/></g></g></svg>