<svg id="Layer_1" enable-background="new 0 0 66 66" viewBox="0 0 66 66" xmlns="http://www.w3.org/2000/svg" fill="#775D42"><g><g><path d="m56.8 11.35v5.42h-1.43v-5.42c.23.1.47.14.72.14.24 0 .48-.05.71-.14z"/></g><g><path d="m30.67 55.18h-6.17c-.72 0-1.3.58-1.3 1.3s.58 1.3 1.3 1.3h17.6c.72 0 1.3-.58 1.3-1.3s-.58-1.3-1.3-1.3h-6.17z"/><path d="m50.54 18.94h11.08c.34 0 .61-.28.61-.61s-.28-.61-.61-.61h-11.08c-.34 0-.61.28-.61.61s.27.61.61.61z"/><path d="m31.39 46.31h3.83v7.43h-3.83z"/><path d="m40.5 59.21c-1.05 0-1.9.85-1.9 1.9s.85 1.9 1.9 1.9 1.9-.85 1.9-1.9c-.01-1.05-.86-1.9-1.9-1.9z"/><path d="m59.68 14.5c.73-.59 1.13-1.53 1.15-2.69-1.14-.24-2.14-.05-2.87.53s-1.13 1.53-1.15 2.69c1.13.23 2.14.05 2.87-.53z"/><path d="m56.08 10.54c.89-.74 1.38-1.64 1.38-2.58s-.49-1.84-1.38-2.58c-.9.75-1.38 1.65-1.38 2.58.01.94.49 1.84 1.38 2.58z"/><path d="m24.24 61.1c0 1.05.85 1.9 1.9 1.9s1.9-.85 1.9-1.9-.85-1.9-1.9-1.9c-1.05.01-1.9.86-1.9 1.9z"/><path d="m59.85 26.42 1.03-6.04h-9.61l1.03 6.04c.09.55.57.95 1.12.95h5.29c.58 0 1.05-.4 1.14-.95z"/><path d="m55.37 15.03c-.02-1.16-.42-2.1-1.15-2.69-.73-.58-1.73-.77-2.87-.53.02 1.16.42 2.1 1.15 2.69.72.58 1.73.76 2.87.53z"/><path d="m17.46 28.8h-12.29c-1.12 0-2.04.91-2.04 2.04 0 1.12.91 2.04 2.04 2.04h1.6 5.5 9.24l-.59-4.07h-3.46z"/><path d="m44.84 17.09c-.59-.68-1.45-1.08-2.36-1.08h-18.36c-.91 0-1.76.39-2.36 1.08-.59.68-.86 1.59-.73 2.49l1.99 13.67c.06.1.1.21.1.34 0 .05-.02.09-.03.14l.67 4.6h19.08l2.73-18.75c.13-.9-.14-1.8-.73-2.49z"/><path d="m54.44 34.3h4.07v28.42h-4.07z"/><path d="m23.14 39.76h-2.42c-1.41 0-2.56 1.15-2.56 2.56s1.15 2.56 2.56 2.56h25.16c1.41 0 2.56-1.15 2.56-2.56s-1.15-2.56-2.56-2.56h-2.42z"/><path d="m60.83 28.8h-2.09-5.29-7.76l-.59 4.07h8.64 5.5 1.6c1.12 0 2.04-.91 2.04-2.04-.02-1.12-.93-2.03-2.05-2.03z"/><path d="m19.97 22.24-.36-2.45c-.19-1.31.2-2.63 1.06-3.63.87-1 2.12-1.57 3.44-1.57h11.62v-8.48c0-1.71-1.39-3.11-3.11-3.11h-22.34c-1.71 0-3.11 1.39-3.11 3.11v13.02c0 1.71 1.39 3.11 3.11 3.11h8.47zm9.74-17.19c.28-.28.73-.28 1.01 0l2.3 2.3c.28.28.28.73 0 1.01-.14.14-.32.21-.51.21s-.37-.07-.51-.21l-2.3-2.3c-.27-.27-.27-.73.01-1.01zm-3.04.38c.28-.28.73-.28 1.01 0l4.97 4.97c.28.28.28.73 0 1.01-.14.14-.32.21-.51.21s-.37-.07-.51-.21l-4.97-4.97c-.27-.28-.27-.73.01-1.01z"/><path d="m7.49 34.3h4.07v28.42h-4.07z"/><path d="m20.18 23.67h-.87l-.93 3.7h2.34z"/></g></g></svg>