
<svg version="1.1" id="Layer_1" xmlns="http://www.w3.org/2000/svg" xmlns:xlink="http://www.w3.org/1999/xlink" x="0px" y="0px"
	 viewBox="0 0 100 100" style="enable-background:new 0 0 100 100;" xml:space="preserve">
<style type="text/css">
	.st0{fill:#775d42;}
</style>
<g>
	<path class="st0" d="M15.1,34.5c0.6,0.5,1.5,0.4,2.2-0.2c1-0.9,2.9-1.5,5-1.5c1.7,0,3.5,0.5,4.6,1.1c1.5,1,3.3,1,4.7,0
		c1.1-0.7,2.7-1.1,4.6-1.1c1.8,0,3.5,0.5,4.6,1.1c1.5,1,3.3,1,4.7,0c0.6-0.4,1.4-0.6,2.3-0.9v24.5h4.6V33.1c0.9,0.2,1.6,0.5,2.3,0.9
		c1.5,1,3.3,1,4.7,0c1.1-0.7,2.7-1.1,4.6-1.1c1.7,0,3.5,0.5,4.6,1.1c1.5,1,3.3,1,4.7,0c1.1-0.7,2.7-1.1,4.6-1.1c2,0,4,0.5,5,1.5
		c0.4,0.3,0.7,0.5,1.2,0.5c0.4,0,0.6-0.1,0.9-0.3c0.7-0.5,1.1-1.4,0.8-2.3C82.8,23,68.6,12.8,52.1,11.9V9c0-1.3-1-2.3-2.3-2.3
		c-1.3,0-2.3,1-2.3,2.3v2.8C31.1,12.7,17,22.9,14.2,32.2C14,33.1,14.3,34,15.1,34.5"/>
	<path class="st0" d="M33.7,76.2h0.6c1.3,0,2.3-1,2.3-2.3s-1-2.3-2.3-2.3H22.5c-1.5,0-2.8-1.1-3.1-2.6l-3-17.4
		c-0.2-1.3-1.4-2.1-2.6-1.8c-1.3,0.2-2.1,1.4-1.8,2.6l3,17.4c0.5,2.4,1.9,4.3,3.8,5.4l-3.1,15.2c-0.3,1.3,0.5,2.5,1.8,2.7
		c0.2,0,0.3,0.1,0.5,0.1c1.1,0,2-0.7,2.3-1.8l3.1-15.1h5.8l3.1,15.1c0.2,1.1,1.2,1.8,2.3,1.8c0.2,0,0.3,0,0.5-0.1
		c1.3-0.3,2-1.5,1.8-2.7L33.7,76.2z"/>
	<path class="st0" d="M86.1,49.8c-1.3-0.2-2.5,0.6-2.6,1.8l-3,17.5c-0.3,1.5-1.5,2.6-3.1,2.6H65.5c-1.3,0-2.3,1-2.3,2.3
		c0,1.3,1,2.3,2.3,2.3h0.6l-2.9,14.2c-0.3,1.3,0.5,2.5,1.8,2.7c0.2,0,0.3,0.1,0.5,0.1c1.1,0,2-0.7,2.3-1.8l3.1-15.1h5.8l3.1,15.1
		c0.2,1.1,1.2,1.8,2.3,1.8c0.2,0,0.3,0,0.5-0.1c1.3-0.3,2-1.5,1.8-2.7l-3.1-15.2c2-1.1,3.5-3,3.8-5.4l3-17.4
		C88.2,51.2,87.4,50,86.1,49.8"/>
	<path class="st0" d="M55.9,88.6h-3.6v-23h13.6c1.3,0,2.3-1,2.3-2.3c0-1.3-1-2.3-2.3-2.3H34.1c-1.3,0-2.3,1-2.3,2.3
		c0,1.3,1,2.3,2.3,2.3h13.6v22.9H44c-1.3,0-2.3,1-2.3,2.3c0,1.3,1,2.3,2.3,2.3h11.8c1.3,0,2.3-1,2.3-2.3
		C58.1,89.6,57.1,88.6,55.9,88.6"/>
</g>
</svg>
