<svg id="Capa_1" enable-background="new 0 0 512.48 512.48" height="512" viewBox="0 0 512.48 512.48" width="512" xmlns="http://www.w3.org/2000/svg"><g><path fill="#775D42" d="m271.24 350.24h149v-30h-74-75v-153.22h-30v153.22h-75-74v30h149v98.09l-46.8 63.91h37.18l24.62-33.61 24.62 33.61h37.18l-46.8-63.91z"/><path fill="#775D42" d="m222.638.24-222.638 136.78h150.54z"/><path fill="#775D42" d="m328.05 137.02-71.81-136.55-71.81 136.55z"/><path fill="#775D42" d="m512.48 137.02-222.503-136.78 71.963 136.78z"/><path fill="#775D42" d="m462.055 380.24h-88.182v132h30v-62h56v62h30v-115.823l20.816-131.837-29.633-4.68z"/><path fill="#775D42" d="m31.056 259.9-29.632 4.68 20.816 131.837v115.823h30v-62h56v62h30v-132h-88.183z"/><path fill="#775D42" d="m376.24 290.24v-30h-60v30c0 16.569 13.431 30 30 30s30-13.431 30-30z"/><path fill="#775D42" d="m196.24 290.24v-30h-60v30c0 16.569 13.431 30 30 30s30-13.431 30-30z"/></g></svg>