<svg id="Layer_3" height="512" viewBox="0 0 64 64" width="512" xmlns="http://www.w3.org/2000/svg" data-name="Layer 3" fill="#775D42"><path d="m16 51a5 5 0 1 0 5 5 5.006 5.006 0 0 0 -5-5zm0 8a3 3 0 1 1 3-3 3 3 0 0 1 -3 3z"/><circle cx="16" cy="56" r="1"/><path d="m16 33h10v4h-10z"/><path d="m33 15v1.7l3.131-4.7h-4.131a1 1 0 0 1 -1-1v-1.7l-3.131 4.7h4.131a1 1 0 0 1 1 1z"/><path d="m6 51v3a1 1 0 0 0 1 1h2.08a6.98 6.98 0 0 1 2.03-4z"/><path d="m32 23a10 10 0 1 0 -10-10 10.011 10.011 0 0 0 10 10zm-6.832-8.555 6-9a1 1 0 0 1 1.832.555v4h5a1 1 0 0 1 .832 1.555l-6 9a1 1 0 0 1 -1.832-.555v-4h-5a1 1 0 0 1 -.832-1.555z"/><path d="m46 57h6v4h-6z"/><path d="m20.7 17h-16.7a1 1 0 0 0 -1 1v4a1 1 0 0 0 1 1h21.381a12.052 12.052 0 0 1 -4.681-6z"/><path d="m30 29h-18v20h18zm-2 9a1 1 0 0 1 -1 1h-12a1 1 0 0 1 -1-1v-6a1 1 0 0 1 1-1h12a1 1 0 0 1 1 1z"/><path d="m39 32h2v2h-2z"/><path d="m51 29h-8v16h8zm-2 13h-4v-2h4zm0-8h-4v-2h4z"/><path d="m39 40h2v2h-2z"/><path d="m6 49h4v-21a1 1 0 0 1 1-1h20a1 1 0 0 1 1 1v21h26v-24h-52zm31-10a1 1 0 0 1 1-1h3v-2h-3a1 1 0 0 1 -1-1v-4a1 1 0 0 1 1-1h3v-2a1 1 0 0 1 1-1h10a1 1 0 0 1 1 1v18a1 1 0 0 1 -1 1h-10a1 1 0 0 1 -1-1v-2h-3a1 1 0 0 1 -1-1z"/><path d="m22.92 55h34.08a1 1 0 0 0 1-1v-3h-37.11a6.98 6.98 0 0 1 2.03 4z"/><path d="m60 17h-16.7a12.052 12.052 0 0 1 -4.681 6h21.381a1 1 0 0 0 1-1v-4a1 1 0 0 0 -1-1z"/></svg>