
<svg id="Layer_1" xmlns="http://www.w3.org/2000/svg" version="1.1" viewBox="0 0 384 384" fill="#775D42">
  <path d="M341.26,80.77v252.35c2.51-.13,10.85-.66,10.85,3.05v18.65c6.18-1.19,15.66,1.43,8.18,7.84l-336.88.33c-7.92-.72-4.71-8.17-2-8.17h13.23V86.53c0-.37,1.28-2,1.77-2.3,1.71-1.07,16.21-1.13,18.88-.71,4.58.72,3.46,6.06,4.79,6.06h12.55c-2.43-15.54,10.57-15.56,8.14,0h18.99v-30.53c0-.39-4.79,1.21-5.44-4.4-.49-4.21-.59-17.67.06-21.68.21-1.34,1.68-3.77,3.01-3.77h192.32c.26-3.98-1.54-9.97,3.77-10.81,17.24,1.11,36.6-1.62,53.58-.07,3.91.36,4.74,1.24,5.09,5.09,1.55,16.98-1.19,36.34-.07,53.58-.84,5.31-6.83,3.51-10.81,3.77ZM343.97,26.5h-46.13v46.13h46.13V26.5ZM135.04,50.92l-15.94-13.57h-16.62v13.57h32.56ZM162.17,37.35h-29.85l14.69,12.13c1.07.19,13.72-10.26,15.16-12.13ZM216.44,37.35h-29.85l14.69,12.13c1.07.19,13.72-10.26,15.16-12.13ZM270.71,37.35h-29.85l14.69,12.13c1.07.19,13.72-10.26,15.16-12.13ZM289.7,37.35c-2.13.06-4.45-.42-6.36.76l-15.35,12.8h21.71v-13.57ZM189.3,50.92c-1.44-1.87-14.09-12.32-15.16-12.13l-14.69,12.13h29.85ZM243.57,50.92c-1.44-1.87-14.09-12.32-15.16-12.13l-14.69,12.13h29.85ZM289.7,59.06H107.9v30.53h18.99c-2.43-15.56,10.57-15.54,8.14,0h18.99c-2.43-15.56,10.57-15.54,8.14,0h18.99c-2.43-15.56,10.57-15.54,8.14,0h18.99c-2.43-15.56,10.58-15.54,8.14,0,16-2.52,15.32,10.36,0,8.14v13.57c15.98-2.52,15.33,10.36,0,8.14v12.89c14.63-2.32,14.61,10.46,0,8.14v13.57c14.63-2.32,14.61,10.46,0,8.14v13.57c14.63-2.32,14.61,10.46,0,8.14v13.57c2.51-.13,10.85-.66,10.85,3.05v24.08h29.51c.68,0,3.05,2.37,3.05,3.05v18.65h13.23c1.26,0,3.39,2.92,3.06,4.4-1.45,20.52,1.89,43.59.02,63.81-.16,1.69-.99,5.06-3.08,5.06h-13.23v13.57h13.23c.68,0,3.05,2.37,3.05,3.05v18.65h13.57v-18.65c0-3.71,8.34-3.18,10.85-3.05V80.77c-2.51.13-10.85.66-10.85-3.05v-18.65ZM308.7,116.72l21.68-18.59-21.68-17.36v35.95ZM333.12,80.77h-10.18l10.17,8.82v-8.82ZM42.78,91.62v225.22h51.56v-40.36c0-2.09,3.36-2.93,5.06-3.08,20.22-1.87,43.28,1.47,63.81.02,1.48-.33,4.4,1.81,4.4,3.06v40.36h51.56v-111.25h-29.51c-.54,0-2.25-1.5-2.52-2.22l-20.31-41.08c-6.01-1.34-28.72,1.72-32.72-.86-1.21-.78-1.32-1.81-1.73-3.02-1.09-3.24-3.88-22.64-4.88-23.28l-35.38-.23c-3.99-.89-9-13.08-12.47-16.02-6.02-.74-13,.59-18.89-.1-2.57-.3-3.3-.81-4.22-3.24-1.25-3.31-3.99-23.16-5.02-23.82s-6.96.29-8.73-.09ZM72.63,97.73h-11.53c.73,1.78,2.08,12.33,2.8,12.8,1.01.65,6.96-.29,8.73.09v-12.89ZM99.76,97.73h-18.99v12.89c0,.26,2.74-.31,4.75,1.69,2.4,2.4,7.75,13.2,9.5,14.24,1.27.76,3.3.21,4.75.34v-29.17ZM126.89,97.73h-18.99v13.57h18.99v-13.57ZM154.03,97.73h-18.99v13.57h18.99v-13.57ZM181.16,97.73h-18.99v13.57h18.99v-13.57ZM208.3,97.73h-18.99v13.57h18.99v-13.57ZM333.12,143.85v-36.63l-21.68,18.59,21.68,18.04ZM126.89,119.43h-18.99v7.46h18.99v-7.46ZM154.03,119.43h-18.99v12.89h18.99v-12.89ZM181.16,119.43h-18.99v12.89h18.99v-12.89ZM208.3,119.43h-18.99v12.89h18.99v-12.89ZM308.7,170.99l21.68-18.59-21.68-18.04v36.63ZM154.03,140.46h-16.96l2.71,13.57h14.25v-13.57ZM181.16,140.46h-18.99v13.57c2.79.3,7.24-.85,9.47,1.04l9.52,17.95v-32.56ZM208.3,140.46h-18.99v13.57h18.99v-13.57ZM333.12,198.12v-36.63l-21.68,18.59,21.68,18.04ZM208.3,162.17h-18.99v13.57h18.99v-13.57ZM208.3,183.88h-18.99c-1.04,5.51,1.63,8.8,3.39,13.57h15.6v-13.57ZM308.7,225.26l21.68-18.59-21.68-18.04v36.63ZM333.12,252.39v-36.63l-21.68,18.59,21.68,18.04ZM251.71,232.72h-24.42v13.57h24.42v-13.57ZM308.7,279.53l21.68-18.59-21.68-18.04v36.63ZM235.43,254.43h-8.14v13.57h8.14v-13.57ZM267.99,254.43h-24.42v13.57h24.42v-13.57ZM333.12,306.66v-36.63l-21.68,18.59,21.68,18.04ZM251.71,276.13h-24.42v13.57h24.42v-13.57ZM267.99,276.13h-8.14v13.57h8.14v-13.57ZM126.89,281.56h-24.42v56.98h24.42v-56.98ZM159.46,281.56h-24.42v56.98h24.42v-56.98ZM308.7,333.12l21.68-17.91-21.68-18.04v35.95ZM235.43,297.84h-8.14v13.57h8.14v-13.57ZM267.99,297.84h-24.42v13.57h24.42v-13.57ZM251.71,319.55h-24.42v13.57h24.42v-13.57ZM333.12,333.12v-8.82s-10.18,8.82-10.18,8.82h10.18ZM94.33,324.98h-51.56v29.85h40.7v-13.23c0-3.71,8.34-3.18,10.85-3.05v-13.57ZM219.15,324.98h-51.56v13.57c2.51-.13,10.85-.66,10.85,3.05v13.23h40.7v-29.85ZM235.43,341.26h-8.14v13.57h8.14v-13.57ZM267.99,341.26h-24.42v13.57h24.42v-13.57ZM343.97,341.26h-46.13v13.57h46.13v-13.57ZM170.31,346.68h-78.69v8.14h78.69v-8.14Z"/>
  <path d="M59.54,213.87c10.42.62,22.94-1.34,33.11-.16,3.51.41,4.13,1.79,4.43,5.07.81,9,.82,27.03,0,36.02-.3,3.28-.9,4.65-4.43,5.07-7.09.83-23.99.68-31.25.02-3.85-.35-4.73-1.18-5.09-5.09-.77-8.48-.95-28.39.02-36.68.26-2.2.92-3.68,3.21-4.25ZM88.91,221.87h-24.42v29.85h24.42v-29.85Z"/>
  <path d="M168.08,213.87c10.42.62,22.94-1.34,33.11-.16,3.51.41,4.13,1.79,4.43,5.07.81,9,.82,27.03,0,36.02-.3,3.28-.9,4.65-4.43,5.07-7.09.83-23.99.68-31.25.02-3.85-.35-4.73-1.18-5.09-5.09-.77-8.48-.95-28.39.02-36.68.26-2.2.92-3.68,3.21-4.25ZM197.44,221.87h-24.42v29.85h24.42v-29.85Z"/>
  <path d="M59.54,154.17c10.42.62,22.94-1.34,33.11-.16,3.51.41,4.13,1.79,4.43,5.07.81,9,.82,27.03,0,36.02-.3,3.28-.9,4.65-4.43,5.07-7.09.83-23.99.68-31.25.02-3.85-.35-4.73-1.18-5.09-5.09-.77-8.48-.95-28.39.02-36.68.26-2.2.92-3.68,3.21-4.25ZM88.91,162.17h-24.42v29.85h24.42v-29.85Z"/>
  <path d="M113.81,213.87c10.42.62,22.94-1.34,33.11-.16,3.51.41,4.13,1.79,4.43,5.07.81,9,.82,27.03,0,36.02-.3,3.28-.9,4.65-4.43,5.07-7.09.83-23.99.68-31.25.02-3.85-.35-4.73-1.18-5.09-5.09-.77-8.48-.95-28.39.02-36.68.26-2.2.92-3.68,3.21-4.25ZM143.18,221.87h-24.42v29.85h24.42v-29.85Z"/>
  <path d="M310.29,60.17c-14.15-14.15,7.87-35.22,21.46-21.12,13.43,13.94-7.62,34.96-21.46,21.12ZM319.38,42.92c-7.99,1.53-6.46,14.44,2.48,13.41,8.76-1.02,7.19-15.26-2.48-13.41Z"/>
</svg>