
<svg xmlns="http://www.w3.org/2000/svg" version="1.1" viewBox="0 0 48 48" fill="#775D42">
  <path d="M23.6,1.52c1.49-.24,2.84,1.03,2.62,2.53-.05.34-.34.73-.21,1.01l11.81,14.35c.08.08.18.08.28.09,1.95.26,4.5-.26,6.47,0,.99.13,1.88,1.1,1.93,2.1v22.88c-.15,1.07-1.03,1.93-2.11,2.02l-41.19-.07c-.92-.25-1.64-1.08-1.71-2.04v-22.79c.06-.99.94-1.97,1.93-2.1,1.97-.26,4.51.25,6.47,0,.1-.01.2-.01.28-.09l11.81-14.35c.12-.26-.25-.91-.24-1.36,0-.99.87-2.02,1.86-2.18ZM23.79,3.02c-.86.19-.67,1.7.43,1.46.86-.19.67-1.7-.43-1.46ZM35.91,19.5l-10.97-13.46-.24-.14c-.48.13-.93.13-1.4,0l-.19.09-11.01,13.51h23.81ZM8.81,21H3.52c-.21,0-.6.54-.52.79l.08,22.81c.14.28.41.42.72.4l40.74-.05.42-.42.05-22.74c.08-.26-.31-.79-.52-.79h-5.3l1.22,1.55c.93-.08,1.56-.13,2.3.51,2.83,2.44-2.1,5.92-3.52,2.58-.36-.85-.12-1.33.08-2.14l-1.95-2.37-.24-.13H11.1s-.42.13-.42.13l-1.92,2.31c-.13.28.16.67.21,1.01.26,1.8-1.7,3.17-3.31,2.28s-1.53-3.23.12-4.01c.65-.31,1.12-.19,1.8-.16l1.22-1.55ZM6.54,24.02c-.86.19-.67,1.7.43,1.46.86-.19.67-1.7-.43-1.46ZM41.04,24.02c-.86.19-.67,1.7.43,1.46.86-.19.67-1.7-.43-1.46Z"/>
  <path d="M5.04,34.52h37.93c.31.09.53.36.54.68l-.02,7.76c-.1.35-.4.56-.77.54l-37.67-.02c-.41-.13-.5-.38-.54-.77-.21-2.38.17-5.09,0-7.51,0-.32.23-.6.54-.68ZM7.41,36h-1.41v3.94l1.41-3.94ZM10.59,36h-1.55l-2.11,6h1.59l2.06-6ZM13.69,36h-1.45l-2.11,6h1.59l1.97-6ZM16.88,36h-1.59l-1.97,6h1.45l2.11-6ZM20.06,36h-1.59l-2.06,6h1.55l2.11-6ZM23.25,36h-1.59l-2.06,6h1.55l2.11-6ZM26.44,36h-1.59l-2.06,6h1.59l2.06-6ZM29.62,36h-1.59l-2.06,6h1.59l2.06-6ZM32.81,36h-1.55l-2.11,6h1.59l2.06-6ZM35.91,36h-1.45l-2.11,6h1.59l1.97-6ZM42,36h-4.5l-1.97,6h6.47v-6Z"/>
  <path d="M28.65,22.04c.09-.02.97.82,1.02.93.04.07.06.12,0,.19l-10.41,10.32-.99-.99,10.38-10.45Z"/>
  <path d="M20.6,22.52c3.06-.49,3.6,4.11.72,4.47s-3.49-4.03-.72-4.47ZM20.79,24.02c-.86.19-.67,1.7.43,1.46.86-.19.67-1.7-.43-1.46Z"/>
  <path d="M26.6,28.52c3.06-.49,3.6,4.11.72,4.47s-3.49-4.03-.72-4.47ZM26.79,30.02c-.86.19-.67,1.7.43,1.46.86-.19.67-1.7-.43-1.46Z"/>
</svg>