<svg height="512" viewBox="0 0 32 32" width="512" xmlns="http://www.w3.org/2000/svg"><g id="Railway_Station" data-name="Railway Station"><path fill="#775D42" d="m26 19v-12a5.006 5.006 0 0 0 -5-5h-10a5.006 5.006 0 0 0 -5 5v12a5.006 5.006 0 0 0 3.955 4.886l-2.808 4.593a1 1 0 1 0 1.706 1.042l.931-1.521h12.433l.93 1.521a1 1 0 1 0 1.706-1.042l-2.808-4.593a5.006 5.006 0 0 0 3.955-4.886zm-15 1a1 1 0 1 1 1-1 1 1 0 0 1 -1 1zm.007 6 1.223-2h7.541l1.223 2zm8.993-7a1 1 0 1 1 1 1 1 1 0 0 1 -1-1zm3-6a2 2 0 0 1 -2 2h-10a2 2 0 0 1 -2-2v-6a2 2 0 0 1 2-2h10a2 2 0 0 1 2 2z"/></g></svg>