<svg id="Layer_3" enable-background="new 0 0 60 60" height="512" viewBox="0 0 60 60" width="512" xmlns="http://www.w3.org/2000/svg" fill="#775D42"><path d="m40.35 16.58c3.19 0 5.78-2.6 5.78-5.79s-2.59-5.79-5.78-5.79-5.79 2.6-5.79 5.79 2.6 5.79 5.79 5.79z"/><path d="m49.55 19c-.69-.07-1.36.17-1.85.66l-3.11 3.11-2.02-2.11c-.99-1.02-2.21-1.81-3.54-2.28l-4.18-1.5c-1.18-.42-2.41-.6-3.66-.52l-3.87.23c-2.69.16-5.16 1.62-6.61 3.89l-3.34 5.28c-.37.58-.48 1.29-.3 1.95s.63 1.21 1.24 1.53c1.05.54 2.34.25 3.06-.69l4.2-5.49 3.89-.48-3.88 13.27-5.47 4.98-7.59-4.47c-1.04-.62-2.34-.49-3.24.32-.62.56-.95 1.36-.9 2.2.05.83.46 1.59 1.14 2.07l9.98 7.2c.35.25.83.25 1.18-.02l10.29-7.77 6.54 3.06 2.56 9.63c.19.72.68 1.33 1.35 1.67.38.19.78.28 1.19.28.33 0 .66-.06.97-.18 1.14-.45 1.82-1.62 1.63-2.84l-1.88-12.61c-.03-.24-.16-.46-.35-.62l-5.41-4.54 1.93-7.1.55.39c2.35 1.65 5.57 1.29 7.49-.84l3.48-3.84c.71-.78.8-1.93.21-2.81-.38-.58-1-.94-1.68-1.01z"/></svg>