<?xml version="1.0" encoding="iso-8859-1"?>
<!-- Generator: Adobe Illustrator 19.0.0, SVG Export Plug-In . SVG Version: 6.00 Build 0)  -->
<svg version="1.1" id="Capa_1" xmlns="http://www.w3.org/2000/svg" xmlns:xlink="http://www.w3.org/1999/xlink" x="0px" y="0px"
	 viewBox="0 0 512 512" style="enable-background:new 0 0 512 512;" xml:space="preserve">
<g>
	<g>
		<path fill="#775D42" d="M486.4,204.8H384v-51.2c0-15.36-10.24-25.6-25.6-25.6h-76.8v-25.6L384,64L281.6,25.6C281.6,10.24,271.36,0,256,0
			s-25.6,10.24-25.6,25.6V128h-76.8c-15.36,0-25.6,10.24-25.6,25.6v51.2H25.6C10.24,204.8,0,215.04,0,230.4V512h204.8V409.6
			c0-15.36,10.24-25.6,25.6-25.6h51.2c15.36,0,25.6,10.24,25.6,25.6V512H512V230.4C512,215.04,501.76,204.8,486.4,204.8z
			 M102.4,460.8H51.2v-51.2h51.2V460.8z M102.4,358.4H51.2v-51.2h51.2V358.4z M256,281.6c-28.16,0-51.2-23.04-51.2-51.2
			c0-28.16,23.04-51.2,51.2-51.2s51.2,23.04,51.2,51.2C307.2,258.56,284.16,281.6,256,281.6z M460.8,460.8h-51.2v-51.2h51.2V460.8z
			 M460.8,358.4h-51.2v-51.2h51.2V358.4z"/>
	</g>
</g>
<g>
</g>
<g>
</g>
<g>
</g>
<g>
</g>
<g>
</g>
<g>
</g>
<g>
</g>
<g>
</g>
<g>
</g>
<g>
</g>
<g>
</g>
<g>
</g>
<g>
</g>
<g>
</g>
<g>
</g>
</svg>
