<svg id="Capa_1" enable-background="new 0 0 512 512" viewBox="0 0 512 512" xmlns="http://www.w3.org/2000/svg" fill="#775D42"><g><path d="m512 .001h-512v30h32.087c-1.665 4.695-2.572 9.745-2.572 15.004v45.002h90.004v-45.002c0-5.259-.907-10.309-2.572-15.004h96.623c-1.665 4.695-2.572 9.745-2.572 15.004v45.002h90.004v-45.002c0-5.259-.907-10.309-2.572-15.004h96.623c-1.665 4.695-2.572 9.745-2.572 15.004v45.002h90.004v-45.002c0-5.259-.907-10.309-2.572-15.004h32.087z"/><path d="m216.09 224.816h-42.141c-8.845 5.334-18.771 8.002-28.692 8.002-9.924 0-19.845-2.667-28.689-8.002h-42.144l9.638 36.924c-11.998 31.85-18.082 65.257-18.082 99.294v25.882h64.277v35.079h-130.256v90.004h511.998v-90.004h-130.256v-35.079h64.277v-25.882c0-34.037-6.083-67.443-18.082-99.293l9.638-34.891v-14.617c-11.346 7.928-25.141 12.583-40.002 12.583h-61.663c-14.861 0-28.655-4.655-40.001-12.583v14.617l9.638 34.892c-11.999 31.851-18.083 65.257-18.083 99.292v25.882h64.278v35.079h-191.486v-35.079h64.278v-25.882c0-34.035-6.084-67.443-18.083-99.292z"/><path d="m335.911 194.816h61.663c21.957 0 39.837-17.78 40.002-39.697v-.305h-40.583v-34.804h-60.501v34.804h-40.582v.305c.165 21.918 18.046 39.697 40.001 39.697z"/><path d="m131.042 198.48c8.637 5.764 19.797 5.762 28.432-.001l5.486-3.663h51.13v-40.002h-40.582v-34.804h-60.501v34.804h-40.583v40.002h51.128z"/></g><g/><g/><g/><g/><g/><g/><g/><g/><g/><g/><g/><g/><g/><g/><g/></svg>