
<svg id="Layer_1" xmlns="http://www.w3.org/2000/svg" version="1.1" viewBox="0 0 384 384" fill="#775D42">
  <path d="M200.25,0c5.51,1.31,11.16,1.78,16.66,3.21,36.56,9.52,64.83,42.39,68.84,80.03,1.1,1.18,5.43-6.43,10.48-4.1.53.24,7.4,6.69,8.66,7.84,7.78,7.14,14.92,15.16,22.3,22.72,1.33,2.36-.1,4.5-1.36,6.5l-27.98,34.33c1.9,5.74,5.43,10.96,7.77,16.73s3.78,11.45,5.74,17.14l46.61,4.76c2.2,1.13,3.27,3.05,3.55,5.45,1.45,12.27-1.15,27.23.02,39.81-.05,2.1-2.18,4.27-4.2,4.8l-46.13,5.62c-2.23,6.88-4.4,13.8-7.32,20.43-1.22,2.77-6.72,10.91-5.78,12.97l28.03,34.28c1.84,3.15,2.19,4.65.14,7.94-8.71,6.84-15.73,16.23-24.01,23.44-2.57,2.23-6.44,6.41-9.78,5.3l-36.51-28.84c-10.94,4.31-21.37,10.68-33.24,13.01-1.97,1.49-4.26,42.98-7.12,48.39l-2.61,2.26h-42c-1.56-1.36-3.02-2.12-3.58-4.29-2.98-11.49-2.83-27.98-4.77-40.23-.23-1.43-.61-5.44-1.39-6.11-11.44-3.13-22.45-7.63-32.65-13.65-12.38,9.78-24.27,20.3-37.09,29.48-1.99.83-3.84-.11-5.28-1.55l-29.27-28.47c-1.16-1.57-1.04-3.74-.02-5.35,9.53-12.57,20.29-24.34,29.18-37.32-6.13-9.77-10.05-20.62-13.37-31.63-1.36-.47-2.8-.8-4.22-1.03-12.5-2.03-30.21-1.6-41.75-4.75-2.05-.56-4.34-2.42-4.33-4.67,1.17-12.83-1.44-28.03.02-40.55.28-2.42,1.02-4.12,3.58-4.67l44.8-4.7c.84-.06,1.4-.45,1.94-1.06,1-1.13,4.98-15.14,6.35-18.4.97-2.3,7.18-13.53,6.98-14.54l-29.19-36.05c-1.18-1.82-.94-4.18.15-5.97l30.22-29.02c4.78-2.85,7.01,2.47,10.93,3.8,3.79-38.76,33.64-71.57,71.25-80.62l14.25-2.62h16.5ZM231.75,209.25c2.63-19.78,8.71-37.8,19.19-54.69,17.71-28.54,31.09-39.56,23.34-77.46C255.01-17.07,114.86-7.95,108.01,88.13c-2.89,40.55,18.27,49.28,32.37,80.86,5.69,12.74,9,26.49,11.12,40.26h18l-5.25-74.25h-17.62c-1.28,0-7.1-1.36-8.6-1.9-4.85-1.74-7.63-5.9-4.83-10.79,4.49-7.86,25.49-12.92,33.77-16.52,8.71-.84,6.23,12.98,7.03,18.72h36v-10.88c0-.76,1.3-5.64,1.9-6.35,1.08-1.28,2.78-1.61,4.39-1.5,4.99.35,27.6,10.02,31.57,13.49,5.2,4.55,5.04,11.33-1.88,13.84-1.49.54-7.33,1.9-8.6,1.9h-17.62l-5.25,74.25h17.25ZM351,198.75c-15.57-1.7-31.44-2.64-46.8-5.33-2.96-1.63-5.81-15.38-7.4-19.6-1.92-5.11-4.44-9.98-6.92-14.83-1.49-2.91-4.67-5.93-4.13-9.3l29.19-37.45-19.79-20.02c-1.44-2.31-8.14,3.95-8.5,5.08-1.32,4.23-1.02,11.68-2.01,16.74-3.07,15.6-11.47,27.61-20.52,40.22,43.6,54.4,15.41,138.42-53.97,151.53-86.85,16.42-144.2-82.77-90.4-150.91-12.4-16.8-19.6-30.7-22.25-51.75-.24-1.88.37-4.03-.16-5.84-.58-2-5.75-4.32-6.97-6.52-2.21,3.24-21.4,19.82-21.4,21.36,0,3.01,28.96,33.16,29.27,38.31.13,2.19-7.8,15.46-9.34,19.09-1.89,4.46-6.35,21.52-8.25,23.25-.7.64-1.51,1.1-2.44,1.31l-45.21,4.67v30.76s45.19,5.43,45.19,5.43c1.53.34,2.64,1.23,3.46,2.54,2.09,3.34,3.91,13.52,5.74,18.26,1.3,3.37,3.07,7.04,4.73,10.27s6.46,8.6,6.13,11.81l-29.2,38.21,20.21,20.38h2.22s33.48-27.3,33.48-27.3c5.06-2.82,10.01,2.6,14.52,4.79,5.64,2.75,11.49,5.28,17.43,7.32,3.23,1.12,12.48,2.33,14.02,4.73l6.08,47.55h30s5.95-46.91,5.95-46.91c.88-.84,1.7-1.88,2.84-2.41,4.45-2.1,12.96-3.44,18.41-5.59,2.95-1.17,5.95-2.55,8.82-3.93,3.75-1.81,9.77-7.02,13.8-6.38l36.81,28.52,21.05-20.28v-1.47c-9.67-12.1-20.14-23.76-28.91-36.45-.55-3.4,6.16-12.75,8.02-16.66,1.45-3.05,2.83-6.34,3.98-9.52,1.39-3.83,3.4-14.63,6-16.5l47.24-6.39v-30.76ZM148.5,124.5h15l-.38-6.01c-3.45.68-6.89,2.01-10.09,3.41-1.29.56-3.92,1.37-4.52,2.6ZM220.5,124.5h15c-.61-1.23-3.23-2.04-4.52-2.6-3.2-1.4-6.65-2.73-10.09-3.41l-.38,6.01ZM209.25,135h-34.5l4.6,73.02c.25.97.91,1.07,1.77,1.23,2.12.39,21.98.33,22.92-.33l.7-1.55,4.5-72.38ZM242.25,209.25h10.88c.88,0,4.87,3.1,5.63,4.12,3.14,4.21,3.22,19.64.89,24.15-3.85,7.48-13.58,5.15-20.4,5.47-.19,12.41,3.45,21.95-13.5,19.5v13.12c0,1-2.71,5.85-3.71,6.79-1.94,1.82-5.27,3.12-7.87,3.38-9.8.96-36.25,1.18-45.72-.1-3.88-.53-10.19-5.36-10.19-9.31v-13.88c-3.13-.44-7.87.69-10.72-.15-.68-.2-3.53-2.98-3.53-3.22v-16.12c-6.52-.44-14.21,1.99-18.76-4.12-3.28-4.4-3.33-20.58-.33-25.09,3.78-5.68,10.13-4.54,16.08-4.54-2.68-14.95-6.55-29.39-13.89-42.77-.32-.58-.19-2.09-1.48-1.48-1.37.65-7.77,12.29-8.76,14.49-21.66,48.06,6.24,104.96,57.87,115.64,75.34,15.59,128.72-70.09,82.88-130.87-8.46,13.57-12.63,29.36-15.37,44.99ZM250.5,219.75h-117v12.75h117v-12.75ZM228.75,243h-74.25v9h74.25v-9ZM215.25,262.5h-46.5v11.62c0,.82,1.83,1.07,2.59,1.16,8.46.99,32.87.99,41.33,0,.76-.09,2.59-.34,2.59-1.16v-11.62Z"/>
</svg>