<svg id="Capa_1" enable-background="new 0 0 512 512" height="512" viewBox="0 0 512 512" width="512" xmlns="http://www.w3.org/2000/svg"><g><path fill="#775D42" d="m14.505 350h50.99v30h-50.99z" transform="matrix(.196 -.981 .981 .196 -325.757 332.65)"/><path fill="#775D42" d="m95 339.505h30v50.99h-30z" transform="matrix(.981 -.196 .196 .981 -69.446 28.661)"/><path fill="#775D42" d="m376.505 350h50.99v30h-50.99z" transform="matrix(.196 -.981 .981 .196 -34.742 687.622)"/><path fill="#775D42" d="m457 339.505h30v50.99h-30z" transform="matrix(.981 -.196 .196 .981 -62.417 99.655)"/><path fill="#775D42" d="m284.058 0h-56.115l-4.465 62.5h65.044z"/><path fill="#775D42" d="m391.519 62.5-13.393-62.5h-63.992l4.464 62.5z"/><path fill="#775D42" d="m290.665 92.5h-69.33l-4.464 62.5h78.258z"/><path fill="#775D42" d="m325.205 155h86.135l-13.392-62.5h-77.207z"/><path fill="#775D42" d="m197.866 0h-63.992l-13.393 62.5h72.921z"/><path fill="#775D42" d="m191.259 92.5h-77.207l-13.392 62.5h86.135z"/><path fill="#775D42" d="m377 210c-35.258 0-68.139 15.17-91 40.496v-65.496h-60v65.496c-22.861-25.326-55.742-40.496-91-40.496h-135v55c0 24.853 20.147 45 45 45h60c24.853 0 45-20.147 45-45v-23.762c30.457 5.007 56.869 25.026 69.63 53.84l6.37 14.385v202.537h60v-202.537l6.37-14.385c12.761-28.814 39.173-48.833 69.63-53.84v23.762c0 24.853 20.147 45 45 45h60c24.853 0 45-20.147 45-45v-55z"/></g></svg>