
<svg version="1.1" id="Layer_1" xmlns="http://www.w3.org/2000/svg" xmlns:xlink="http://www.w3.org/1999/xlink" x="0px" y="0px"
	 viewBox="0 0 100 100" style="enable-background:new 0 0 100 100;" xml:space="preserve">
<style type="text/css">
	.st0{fill:#775d42;}
</style>
<g>
	<path class="st0" d="M9,77.1c-1.4,0-2.5,1.1-2.5,2.5c0,1.4,1.1,2.5,2.5,2.5h61c-1-1.5-1.9-3.1-2.9-5L9,77.1L9,77.1z"/>
	<path class="st0" d="M42.4,49.5c1.2,2,2.6,3.6,4.5,4.2c3.9,1.3,9.4,2.8,9.7,2.9c0.4,0.1,0.6,0.2,1,0.2c1.7,0,3.1-1.1,3.6-2.7
		c0.5-2-0.6-4-2.6-4.7c-0.1,0-5.4-1.6-9.1-2.8c-0.6-0.7-1.8-2.9-2.5-4.1c-1.7-3.4-2.6-5.1-6.7-7c-4.1-1.8-8.6-2-11.6,1.4
		c-2.8,3.3-4.6,14.5-4.7,23.2l17-1.5L42.4,49.5z"/>
	<path class="st0" d="M39.7,33.3c4.7,1,9.3-1.8,10.3-6.5c1-4.7-1.8-9.3-6.5-10.3c-4.7-1-9.3,1.8-10.3,6.5
		C32.2,27.6,35,32.2,39.7,33.3"/>
	<path class="st0" d="M93.5,76c-0.5-2-2.6-3.2-4.6-2.8c-0.3,0.1-6.4,1.6-9.9,2.5c-1-1.6-2.6-4.4-3.6-6.2c-2.7-5-4-7.4-5.8-8.5
		c-1-0.6-2.2-1.1-3.5-1l-56.8,5c-1.7,0.2-2.9,1.6-2.9,3.2v2.1c0,1.8,1.5,3.3,3.3,3.3h59.4c3.3,6.1,5.5,10.2,8.8,10.2
		c0.5,0,0.8-0.1,1.3-0.2c2.2-0.6,11.4-2.9,11.5-2.9C92.8,80,94,78,93.5,76z"/>
	<path class="st0" d="M84.1,69.6c4.8,0,8.6-3.9,8.6-8.6c0-4.8-3.9-8.6-8.6-8.6c-4.8,0-8.6,3.9-8.6,8.6
		C75.4,65.6,79.3,69.6,84.1,69.6"/>
	<path class="st0" d="M60.9,44c0.7-0.3,1.1-1,0.8-1.7v-0.1c-0.5-1.3-0.7-2.5-0.6-3.6c0.1-1.1,0.5-2.2,1-3.5c0.3-0.6,0.5-1.3,0.8-2
		c0.3-0.8,0.5-1.7,0.6-2.8c0.1-0.9-0.1-1.9-0.4-2.8c-0.2-0.5-0.4-0.8-0.5-1.3c-0.3-0.5-0.5-0.7-0.9-1.2c-0.3-0.4-0.8-0.5-1.3-0.4
		c-0.7,0.2-1.2,0.8-1,1.6l0.1,0.5c0,0.2,0.2,0.5,0.2,0.7c0.1,0.3,0.1,0.5,0.2,0.8c0.1,0.6,0,1.1-0.1,1.7s-0.3,1-0.5,1.6l-0.9,2
		c-0.3,0.7-0.6,1.5-0.8,2.4c-0.2,0.8-0.3,1.8-0.3,2.8c0.1,1.9,1,3.6,2.1,4.9C59.7,44,60.3,44.2,60.9,44z"/>
	<path class="st0" d="M81.9,44c0.7-0.3,1.1-1,0.8-1.7v-0.1c-0.5-1.3-0.7-2.5-0.6-3.6c0.1-1.1,0.5-2.2,1-3.5c0.3-0.6,0.5-1.3,0.8-2
		c0.3-0.8,0.5-1.7,0.6-2.8c0.1-0.9-0.1-1.9-0.4-2.8c-0.2-0.5-0.4-0.8-0.5-1.3c-0.3-0.5-0.5-0.7-0.9-1.2c-0.3-0.4-0.8-0.5-1.3-0.4
		c-0.7,0.2-1.2,0.8-1,1.6l0.1,0.5c0,0.2,0.2,0.5,0.2,0.7c0.1,0.3,0.1,0.5,0.2,0.8c0.1,0.6,0,1.1-0.1,1.7c-0.1,0.5-0.3,1-0.5,1.6
		l-0.9,2c-0.3,0.7-0.6,1.5-0.8,2.4c-0.2,0.8-0.3,1.8-0.3,2.8c0.1,1.9,1,3.6,2.1,4.9C80.7,44,81.3,44.2,81.9,44z"/>
	<path class="st0" d="M71.3,47.3c0.7-0.3,1.1-1,0.8-1.7v-0.1c-0.5-1.3-0.7-2.5-0.6-3.6c0.1-1.1,0.5-2.2,1-3.5c0.3-0.6,0.5-1.3,0.8-2
		c0.3-0.8,0.5-1.7,0.6-2.8c0.1-0.9-0.1-1.9-0.4-2.8c-0.2-0.5-0.4-0.8-0.5-1.3c-0.3-0.5-0.5-0.7-0.9-1.2c-0.3-0.4-0.8-0.5-1.3-0.4
		c-0.7,0.2-1.2,0.8-1,1.6l0.1,0.5c0,0.2,0.2,0.5,0.2,0.7c0.1,0.3,0.1,0.5,0.2,0.8c0.1,0.6,0,1.1-0.1,1.7c-0.1,0.5-0.3,1-0.5,1.6
		l-0.9,2c-0.3,0.7-0.6,1.5-0.8,2.4c-0.2,0.8-0.3,1.8-0.3,2.8c0.1,1.9,1,3.6,2.1,4.9C70.2,47.3,70.8,47.5,71.3,47.3z"/>
</g>
</svg>
