
<svg version="1.1" id="Layer_1" xmlns="http://www.w3.org/2000/svg" xmlns:xlink="http://www.w3.org/1999/xlink" x="0px" y="0px"
	 viewBox="0 0 100 100" style="enable-background:new 0 0 100 100;" xml:space="preserve">
<style type="text/css">
	.st0{fill:#775d42;}
</style>
<g>
	<ellipse class="st0" cx="52.4" cy="27.1" rx="7.3" ry="7.3"/>
	<path class="st0" d="M31.5,72.8L17.3,86.6c-1.6,1.5-1.6,4.1-0.1,5.7c0.8,0.8,1.8,1.2,2.9,1.2c1,0,2-0.4,2.8-1.1l15.3-15
		c0.7-0.7,1.2-1.7,1.2-2.7l0.4-10.8c0.3,0.4,0.7,0.8,1.2,1.1l13.4,7.8l1.3,16.9c0.2,2.1,1.9,3.7,4,3.7c0.1,0,0.2,0,0.3,0
		c2.2-0.2,3.9-2.1,3.7-4.3l-1.4-19c-0.1-1.3-0.8-2.5-2-3.2l-9.8-5.7c-0.2,0-0.3,0-0.5,0h0c-0.6,0-1.2-0.2-1.8-0.5l-14.5-8.9
		l-1.5,4.6c-0.1,0.3-0.1,0.5-0.1,0.8c0,0.2-0.1,0.4-0.1,0.6L31.5,72.8z"/>
	<path class="st0" d="M38.9,42.9C38,44,37.3,45,36.8,45.8l14.6,8.9l1.1-3.5c-0.3-0.1-0.5-0.2-0.7-0.3L38.9,42.9z"/>
	<path class="st0" d="M33.8,32.8L32.2,29l-0.1,0c-0.6-1.9-0.1-5.1,0.4-7.6c0.1-0.6,0.2-1.1,0.3-1.6c0.5-3.2-0.6-8.6-2.9-11.5
		c-1.3-1.6-2.9-1.9-4.5-1.7l0,0l0,0c-1.3,0.2-2.5,0.7-3.5,1.1c-0.9,0.4-2.2,0.9-3.2,1.7l0,0l0,0c-1.2,1-2.2,2.4-1.9,4.4
		c0.5,3.8,3.7,8.2,6.3,10.1c0.4,0.3,0.9,0.6,1.3,0.9c2.2,1.5,4.8,3.2,5.8,5l-0.1,0l1.7,4.1C32.4,33.3,33.1,33,33.8,32.8L33.8,32.8z
		 M31.2,29.4l-2.1-5L30,24l1.1,2.7c0,1,0.1,1.9,0.3,2.6L31.2,29.4z M22.9,22.3l0.7-0.3l0.6,1.1l-0.6,0.3L22.9,22.3z M17.4,12.4
		l0.3,0.6l-0.4,0.2C17.3,12.9,17.4,12.7,17.4,12.4z M17.5,12.1c0-0.1,0.1-0.3,0.1-0.4l0.7-0.3l0.6,1.1L17.9,13L17.5,12.1z
		 M17.7,11.5c0.1-0.2,0.2-0.3,0.3-0.5l0.2,0.3L17.7,11.5z M27.7,7.4c0.1,0,0.3,0.1,0.4,0.2l0.3,0.9l-0.9,0.4L27,7.7L27.7,7.4z
		 M26.9,7.5l-0.1-0.3c0.2,0,0.4,0.1,0.6,0.1L26.9,7.5z M25.8,24l-0.5-1.2l0.6-0.3l0.5,1.2L25.8,24z M26.5,23.9l0.5,1.2l-0.6,0.3
		l-0.5-1.2L26.5,23.9z M25.3,10.1l0.5,1.2l-0.8,0.3l-0.5-1.2L25.3,10.1z M24.3,10.2l-0.5-1.2l0.9-0.4l0.5,1.2L24.3,10.2z M22.1,16.2
		l0.8-0.3l0.5,1.2l-0.7,0.3L22.1,16.2z M22.4,17.5l-0.7,0.3l-0.6-1.1l0.8-0.3L22.4,17.5z M30.6,20.4l-0.5-1.2l0.6-0.3l0.4,1.2
		L30.6,20.4z M31.3,20.3l0.4,1.2l-0.6,0.2l-0.5-1.2L31.3,20.3z M30.1,19l-0.5-1.2l0.7-0.3l0.4,1.2L30.1,19z M25.1,14.9l0.9-0.4
		l0.5,1.2l-0.9,0.4L25.1,14.9z M25.4,16.2l-0.9,0.4L24,15.4l0.9-0.4L25.4,16.2z M26.6,15.9l0.5,1.2l-0.9,0.4l-0.5-1.2L26.6,15.9z
		 M27.1,17.3l0.5,1.2l-0.9,0.4l-0.5-1.2L27.1,17.3z M27.3,17.2l0.7-0.3l0.5,1.2l-0.7,0.3L27.3,17.2z M28.2,16.8l0.7-0.3l0.5,1.2
		L28.7,18L28.2,16.8z M28.1,16.6l-0.5-1.2l0.7-0.3l0.5,1.2L28.1,16.6z M28,16.7L27.2,17l-0.5-1.2l0.7-0.3L28,16.7z M26.7,15.6
		l-0.5-1.2l0.8-0.3l0.5,1.2L26.7,15.6z M26.1,14.3l-0.5-1.2l0.8-0.3l0.5,1.2L26.1,14.3z M25.9,14.4L25,14.8l-0.5-1.2l0.9-0.4
		L25.9,14.4z M24.8,14.8l-0.9,0.4l-0.5-1.2l0.9-0.4L24.8,14.8z M23.7,15.3l-0.8,0.3l-0.5-1.2l0.8-0.3L23.7,15.3z M23.8,15.5l0.5,1.2
		L23.5,17L23,15.8L23.8,15.5z M24.4,16.8l0.5,1.2l-0.7,0.3l-0.5-1.2L24.4,16.8z M24.5,16.8l0.9-0.4l0.5,1.2L25,17.9L24.5,16.8z
		 M26,17.7l0.5,1.2l-0.9,0.4l-0.5-1.2L26,17.7z M26.6,19.1l0.5,1.2l-0.9,0.4l-0.5-1.2L26.6,19.1z M26.8,19l0.9-0.4l0.5,1.2l-0.9,0.4
		L26.8,19z M27.9,18.5l0.7-0.3l0.5,1.2l-0.7,0.3L27.9,18.5z M28.8,18.2l0.7-0.3l0.5,1.2l-0.7,0.3L28.8,18.2z M29.6,17.6l-0.5-1.2
		l0.7-0.3l0.4,1.2L29.6,17.6z M29,16.2L28.6,15l0.7-0.3l0.4,1.2L29,16.2z M28.5,14.9L28,13.7l0.8-0.3l0.4,1.2L28.5,14.9z M28.3,14.9
		l-0.7,0.3l-0.5-1.2l0.8-0.3L28.3,14.9z M27,13.9l-0.5-1.2l0.8-0.3l0.5,1.2L27,13.9z M26.5,12.5L26,11.3l0.8-0.3l0.5,1.2L26.5,12.5z
		 M26.3,12.6l-0.8,0.3L25,11.8l0.8-0.3L26.3,12.6z M25.3,13l-0.9,0.4l-0.5-1.2l0.9-0.4L25.3,13z M24.2,13.5l-0.9,0.4l-0.5-1.2
		l0.9-0.4L24.2,13.5z M23.1,14l-0.8,0.3l-0.5-1.2l0.8-0.3L23.1,14z M22.1,14.4l-0.8,0.3l-0.5-1.2l0.8-0.3L22.1,14.4z M22.2,14.6
		l0.5,1.2L22,16l-0.5-1.2L22.2,14.6z M23.4,17.2l0.5,1.2l-0.7,0.3l-0.5-1.2L23.4,17.2z M24,18.6l0.5,1.2L23.9,20l-0.5-1.2L24,18.6z
		 M24.2,18.5l0.7-0.3l0.5,1.2l-0.7,0.3L24.2,18.5z M25.5,19.6l0.5,1.2L25.4,21l-0.5-1.2L25.5,19.6z M26.1,20.9l0.5,1.2L26,22.3
		l-0.5-1.2L26.1,20.9z M26.3,20.8l0.9-0.4l0.5,1.2L26.8,22L26.3,20.8z M27.4,20.4l0.9-0.4l0.5,1.2l-0.9,0.4L27.4,20.4z M28.5,19.9
		l0.7-0.3l0.5,1.2L29,21.1L28.5,19.9z M29.3,19.5l0.7-0.3l0.5,1.2l-0.6,0.3L29.3,19.5z M30.5,20.6l0.5,1.2l-0.6,0.3l-0.5-1.2
		L30.5,20.6z M31,22l0.5,1.2l-0.6,0.3l-0.5-1.2L31,22z M31.5,23.4c-0.1,0.4-0.1,0.7-0.1,1.1L31,23.6L31.5,23.4z M31.2,21.9l0.5-0.2
		c-0.1,0.4-0.1,0.8-0.2,1.2L31.2,21.9z M31.5,20.2L32,20c-0.1,0.4-0.1,0.8-0.2,1.3L31.5,20.2z M31.4,20L31,18.8l0.7-0.3l0.4,1.2
		L31.4,20z M30.9,18.6l-0.4-1.2l0.7-0.3l0.4,1.2L30.9,18.6z M30.4,17.2L30,16l0.7-0.3l0.4,1.2L30.4,17.2z M29.9,15.9l-0.4-1.2
		l0.8-0.3l0.4,1.2L29.9,15.9z M29.4,14.5L29,13.3l0.8-0.3l0.4,1.2L29.4,14.5z M28.9,13.1l-0.4-1.2l0.8-0.4l0.4,1.2L28.9,13.1z
		 M28.7,13.2L28,13.5l-0.5-1.2l0.8-0.3L28.7,13.2z M27.4,12.1L27,10.9l0.8-0.4l0.4,1.2L27.4,12.1z M26.9,10.7l-0.5-1.2l0.9-0.4
		l0.4,1.2L26.9,10.7z M26.7,10.8l-0.8,0.4L25.4,10l0.8-0.4L26.7,10.8z M24.7,11.7l-0.9,0.4l-0.5-1.2l0.9-0.4L24.7,11.7z M23.6,12.1
		l-0.9,0.4l-0.5-1.2l0.9-0.4L23.6,12.1z M22.5,12.6L21.7,13l-0.5-1.2l0.8-0.4L22.5,12.6z M21.5,13l-0.8,0.4l-0.5-1.2l0.8-0.4
		L21.5,13z M20.5,13.5l-0.8,0.4l-0.6-1.1l0.9-0.4L20.5,13.5z M20.6,13.6l0.5,1.2l-0.8,0.3L19.8,14L20.6,13.6z M21.3,15l0.5,1.2
		L21,16.5l-0.6-1.1L21.3,15z M20.9,16.5L20,16.9l-0.6-1.1l0.8-0.4L20.9,16.5z M20.9,16.7l0.6,1.1l-0.8,0.3L20.1,17L20.9,16.7z
		 M21.6,18l0.6,1.1l-0.7,0.3l-0.6-1.1L21.6,18z M21.8,17.9l0.7-0.3l0.5,1.2l-0.7,0.3L21.8,17.9z M23.2,19l0.5,1.2L23,20.4l-0.6-1.1
		L23.2,19z M23.8,20.3l0.5,1.2l-0.6,0.3l-0.6-1.1L23.8,20.3z M24,20.2l0.7-0.3l0.5,1.2l-0.7,0.3L24,20.2z M25.3,21.3l0.5,1.2
		l-0.6,0.3l-0.5-1.2L25.3,21.3z M26,22.5l0.6-0.3l0.5,1.2l-0.6,0.3L26,22.5z M26.9,22.2l0.9-0.4l0.5,1.2l-0.9,0.4L26.9,22.2z
		 M28,21.7l0.9-0.4l0.5,1.2l-0.9,0.4L28,21.7z M29.1,21.2l0.6-0.3l0.5,1.2l-0.6,0.3L29.1,21.2z M30.2,22.3l0.5,1.2l-0.6,0.2
		l-0.5-1.2L30.2,22.3z M30.8,23.7l0.5,1.2c0,0.4-0.1,0.9-0.1,1.3l-1-2.3L30.8,23.7z M32.1,19.4l-0.3-1l0.4-0.2
		C32.2,18.7,32.2,19.1,32.1,19.4z M32.2,18.1l-0.4,0.2l-0.4-1.2l0.8-0.3C32.2,17.2,32.2,17.6,32.2,18.1z M31.3,16.9l-0.4-1.2l1-0.4
		c0.1,0.4,0.1,0.9,0.2,1.3L31.3,16.9z M30.8,15.5l-0.4-1.2l1.2-0.5c0.1,0.4,0.2,0.8,0.3,1.3L30.8,15.5z M30.4,14.1L30,12.8l1.2-0.5
		c0.1,0.4,0.3,0.8,0.4,1.2L30.4,14.1z M29.9,12.6l-0.4-1.2l1.1-0.5c0.2,0.4,0.3,0.8,0.5,1.2L29.9,12.6z M29.5,11.2L29.1,10L30,9.6
		c0.2,0.4,0.4,0.7,0.6,1.1L29.5,11.2z M29.3,11.3l-0.8,0.4L28,10.5l0.9-0.4L29.3,11.3z M27.9,10.3l-0.4-1.2l0.9-0.4l0.4,1.2
		L27.9,10.3z M27.3,9l-0.9,0.4l-0.5-1.2l0.9-0.4L27.3,9z M26.2,9.4l-0.8,0.4l-0.5-1.2l0.9-0.4L26.2,9.4z M24.8,8.4l-0.4-1
		c0.3-0.1,0.6-0.2,1-0.2l0.3,0.8L24.8,8.4z M24.6,8.5l-0.9,0.4l-0.5-1.1c0.3-0.1,0.6-0.2,0.9-0.3L24.6,8.5z M23.6,9l-0.9,0.4
		l-0.5-1.1c0.3-0.1,0.6-0.3,0.9-0.4L23.6,9z M23.7,9.1l0.5,1.2l-0.9,0.4l-0.5-1.2L23.7,9.1z M23.1,10.8l-0.9,0.4L21.6,10l0.9-0.4
		L23.1,10.8z M22,11.3l-0.8,0.4l-0.5-1.2l0.9-0.4L22,11.3z M20.5,10.3l-0.4-1c0.3-0.2,0.6-0.3,0.9-0.5l0.5,1.1L20.5,10.3z
		 M20.3,10.3l-0.9,0.4l-0.4-0.8c0.3-0.2,0.5-0.4,0.8-0.5L20.3,10.3z M20.4,10.5l0.5,1.2l-0.8,0.4l-0.5-1.2L20.4,10.5z M19.9,12.1
		L19,12.5l-0.6-1.1l0.9-0.4L19.9,12.1z M19,12.8l0.6,1.1l-0.9,0.4L18,13.1L19,12.8z M19.6,14.1l0.6,1.1l-0.8,0.4l-0.6-1.1L19.6,14.1
		z M19.2,15.7l-1.1,0.5c-0.2-0.4-0.3-0.8-0.4-1.2l0.9-0.4L19.2,15.7z M19.3,15.8l0.6,1.1l-1.2,0.5c-0.2-0.4-0.4-0.8-0.5-1.2
		L19.3,15.8z M20,17.1l0.6,1.1l-1.2,0.5c-0.2-0.4-0.4-0.7-0.6-1.1L20,17.1z M20.7,18.4l0.6,1.1L20.2,20c-0.3-0.3-0.5-0.7-0.7-1.1
		L20.7,18.4z M21.4,19.7l0.6,1.1l-0.8,0.4c-0.3-0.3-0.6-0.7-0.8-1L21.4,19.7z M21.5,19.6l0.7-0.3l0.6,1.1l-0.7,0.3L21.5,19.6z
		 M22.9,20.7l0.6,1.1l-0.7,0.3L22.2,21L22.9,20.7z M23.8,21.9l0.6-0.3l0.5,1.2L24.4,23L23.8,21.9z M25,23l0.5,1.2L25,24.4l-0.6-1.1
		L25,23z M25.7,24.3l0.4,0.9c-0.3-0.2-0.7-0.4-1-0.7L25.7,24.3z M27.1,25.3l0.4,0.9c-0.3-0.2-0.6-0.4-0.9-0.6L27.1,25.3z M27.3,25.2
		l0.6-0.2l1,2.3c-0.3-0.3-0.7-0.6-1-0.8L27.3,25.2z M27.2,25l-0.5-1.2l0.6-0.3l0.5,1.2L27.2,25z M27.4,23.5l0.9-0.4l0.5,1.2
		l-0.9,0.4L27.4,23.5z M28.5,23.1l0.9-0.4l0.5,1.2L29,24.2L28.5,23.1z M29.9,9.5L29,9.8l-0.4-1.2l0.5-0.2c0.1,0.1,0.1,0.2,0.2,0.2
		C29.5,8.9,29.7,9.2,29.9,9.5z M29,8.3l-0.4,0.2l-0.2-0.7C28.5,7.9,28.8,8.1,29,8.3z M26.6,7.2l0.1,0.4L25.9,8l-0.3-0.8
		C25.9,7.2,26.3,7.1,26.6,7.2z M22,8.3l0.5,1.1l-0.9,0.4l-0.5-1.1C21.4,8.6,21.7,8.5,22,8.3z M18.9,10.1l0.4,0.7l-0.9,0.4l-0.2-0.4
		C18.4,10.5,18.6,10.3,18.9,10.1z M17.4,13.4l0.5-0.2l0.6,1.1l-0.9,0.4c-0.1-0.3-0.2-0.7-0.2-1C17.4,13.6,17.4,13.5,17.4,13.4z
		 M21.3,21.4l0.8-0.3l0.6,1.1l-0.4,0.2C21.9,22,21.6,21.7,21.3,21.4z M22.4,22.5l0.4-0.2l0.5,0.9C23,23,22.7,22.8,22.4,22.5z
		 M23.7,23.5l0.6-0.2l0.5,1C24.4,24,24,23.8,23.7,23.5z M29.1,27.5L28,24.9l0.9-0.4l2.1,5l-0.3,0.1C30.4,28.9,29.9,28.2,29.1,27.5z"
		/>
	<path class="st0" d="M50.6,42.3L50.3,43l-14.5-9.1c-1.2-0.8-2.8-0.4-3.6,0.8c-0.8,1.2-0.4,2.8,0.8,3.6l19.1,12
		c0.4,0.3,0.9,0.4,1.4,0.4c0.7,0,1.4-0.3,1.9-0.8c0.4-0.4,0.9-1.1,1.3-1.8c1.3-2.3,2.1-5.9-0.6-9.4c-0.3-0.4-0.8-0.7-1.2-0.9
		c-0.2-0.1-0.4-0.2-0.6-0.3l-11.6-3.8c-0.8-0.4-1.9-0.4-2.7,0.2c-0.5,0.3-0.9,0.6-1.3,1L50.6,42.3z"/>
	<path class="st0" d="M50,60.5c0.9,0,1.7-0.4,2.2-1.2c0.8-1.2,0.4-2.8-0.9-3.6l-15.6-9.5c0.5-1,1.3-2.2,2.5-3.6l-4.5-2.8
		c-2.9,3.6-3.8,6.5-3.8,6.7c-0.3,1.1,0.1,2.3,1.1,3l17.5,10.7C49,60.3,49.5,60.5,50,60.5L50,60.5z"/>
	<circle class="st0" cx="81.6" cy="65.1" r="2.2"/>
</g>
</svg>
