
<svg version="1.1" id="Layer_1" xmlns="http://www.w3.org/2000/svg" xmlns:xlink="http://www.w3.org/1999/xlink" x="0px" y="0px"
	 viewBox="0 0 100 100" style="enable-background:new 0 0 100 100;" xml:space="preserve">
<style type="text/css">
	.st0{fill:#775d42;}
</style>
<g>
	<path class="st0" d="M31.6,60.8V15.4c0-3.8-3.1-6.9-6.9-6.9c-3.8,0-6.9,3.1-6.9,6.9v45.4c-8.1,3.8-11.5,13.4-7.7,21.5
		c3.8,8.1,13.4,11.5,21.5,7.7c8.1-3.8,11.5-13.4,7.7-21.5C37.6,65.1,34.9,62.4,31.6,60.8 M24.6,82.3c-3.8,0-6.9-3.1-6.9-6.9
		c0-3.8,3.1-6.9,6.9-6.9c3.8,0,6.9,3.1,6.9,6.9C31.6,79.2,28.5,82.2,24.6,82.3"/>
	<path class="st0" d="M80,13.1c5.1,0,9.2,4.1,9.2,9.2s-4.1,9.2-9.2,9.2c-5.1,0-9.2-4.1-9.2-9.2S74.9,13.1,80,13.1"/>
	<path class="st0" d="M88.1,37.2c-2-2-4.7-3.2-7.6-3.3c-3.1-0.1-6,1-8.2,3.1c-2.4,2.3-3.8,5.5-3.8,8.9v11H56.9
		c-3.8,0-6.9,3.1-6.9,6.9v20.7c0,3.8,3.1,6.9,6.9,6.9c3.8,0,6.9-3.1,6.9-6.9V70.7h4.6v18.4c0,1.3,1,2.3,2.3,2.3
		c0.4,0,0.7-0.1,1.1-0.3l1.5-0.7c3.5-1.7,7.5-1.7,11,0l1.5,0.7c0.3,0.2,0.7,0.2,1,0.3c0.4,0,0.9-0.1,1.2-0.3c0.7-0.4,1.1-1.2,1.1-2
		V68.9c1.5-1.3,2.3-3.2,2.3-5.1V45.4C91.5,42.3,90.3,39.4,88.1,37.2 M84.6,85.6c-3.7-1.4-7.8-1.4-11.5,0V80h11.5V85.6z M84.6,75.3
		H73v-4.6h11.5V75.3z"/>
	<path class="st0" d="M40.8,13.1c1.4,0,2.7,0.6,3.7,1.7c3.5,3.7,9.4,3.9,13.1,0.3c0.1-0.1,0.2-0.2,0.3-0.3c0.9-1.1,2.2-1.7,3.7-1.7
		c1.3,0,2.3-1,2.3-2.3c0-1.3-1-2.3-2.3-2.3c-2.5,0-5,1.1-6.7,2.9c-1.7,2-4.6,2.3-6.7,0.6c-0.2-0.2-0.4-0.4-0.6-0.6
		c-1.8-1.8-4.2-2.9-6.7-2.9c-1.3,0-2.3,1-2.3,2.3C38.5,12.1,39.5,13.1,40.8,13.1"/>
	<path class="st0" d="M40.8,22.3c1.4,0,2.7,0.6,3.7,1.7c3.5,3.7,9.4,3.9,13.1,0.3c0.1-0.1,0.2-0.2,0.3-0.3c0.9-1.1,2.2-1.7,3.7-1.7
		c1.3,0,2.3-1,2.3-2.3c0-1.3-1-2.3-2.3-2.3c-2.5,0-5,1.1-6.7,2.9c-1.7,2-4.6,2.3-6.7,0.6c-0.2-0.2-0.4-0.4-0.6-0.6
		c-1.8-1.8-4.2-2.9-6.7-2.9c-1.3,0-2.3,1-2.3,2.3C38.5,21.3,39.5,22.3,40.8,22.3"/>
	<path class="st0" d="M57.9,33.3c0.9-1.1,2.2-1.7,3.7-1.7c1.3,0,2.3-1,2.3-2.3c0-1.3-1-2.3-2.3-2.3c-2.5,0-5,1.1-6.7,2.9
		c-1.7,2-4.6,2.3-6.7,0.6c-0.2-0.2-0.4-0.4-0.6-0.6c-1.8-1.8-4.2-2.9-6.7-2.9c-1.3,0-2.3,1-2.3,2.3c0,1.3,1,2.3,2.3,2.3
		c1.4,0,2.7,0.6,3.7,1.7c3.5,3.7,9.4,3.9,13.1,0.3C57.6,33.5,57.8,33.4,57.9,33.3"/>
</g>
</svg>
