
<svg id="Layer_1" xmlns="http://www.w3.org/2000/svg" version="1.1" viewBox="0 0 384 384" fill="#775D42">
  <path d="M166.5,0c2.41.3,8.99,5.03,10.25,5.15,1.43.14,4.66-4.36,6.25-5.15h3.75c7.99,4.08.75,10.21.76,10.88.05,2.15,24.69,12.02,28.24,13.74,24.97,12.07,40.65,21.59,55.12,46.13,2.33,3.95,3.97,9.29,6.62,12.88,4.06,5.48,11.68,10.65,16.12,16.11,9.38-16.85,34.3-10.5,34.95,8.19,6.48.9,14.2,4.89,16.98,11.14.77,1.72,1.51,7.31,1.79,7.59s5.72,1.21,7.4,1.97c4.95,2.25,8.51,6.45,10.17,11.58.44,1.36.05,3.73.66,4.59.53.75,4.35,1.01,5.88,1.62,6.38,2.54,10.36,6.83,12.54,13.33v6.75c-.3,2.41-5.03,8.99-5.15,10.25-.14,1.43,4.36,4.66,5.15,6.25v3.75c-4.19,8.02-10.04.77-10.87.76-2.17-.02-12.24,25.14-13.98,28.76-4.34,9.01-9.05,17.77-14.13,26.37l38.99,40.11v3.75c-2.18,3.26-5.37,5.19-8.97,2.59l-37.26-37.03c-7.84,7.21-15.3,13.39-24.52,18.82-3.65,2.15-8.66,3.71-12,6-3.67,2.51-8.12,10.56-13.26,4.77-4.18-4.72,2.51-11.07,6.39-13.89,5.46-3.96,14.35-6.84,20.86-11.39,24.67-17.25,29.42-38.76,41.87-63.88,4.83-9.75,11.31-18.65,15.64-28.68.3-2.88-1.32-4.69-3.62-6.04-5.91-3.47-8.16.18-11.23,4.76-4.53,6.77-9.06,18.54-14,24.25s-11.69,1.6-9.8-5.3l18.95-32.8c3.64-6.84-3.36-12.79-9.84-9.84l-18.03,29.96c-5.6,4.18-11.42.08-9.08-6.83,4.97-10.32,14.19-21.42,18.54-31.7,1.81-4.28,2-7.2-2.61-9.65-5.41-2.88-6.84-.96-9.83,3.21-5.39,7.54-9.17,17.44-14.67,25.07-3.97,4.05-10.96-.54-9.44-5.65l19.02-33.55c1.82-6.23-6.99-11.14-11.5-6.98-18.38,24.85-31.34,57.89-62.31,69.69-5.53,2.11-11.51,1.23-9.88-6.11.83-3.75,12.82-7.11,16.35-9.55l-10.87-11.11c-8.14,4.49-13.18,14.21-17.29,22.34-2.21,4.38-2.72,13.27-10.12,10.96s-.96-12.53-1.48-13.17c-13.76,7.9-28.32,15.18-44.24,8.26,8.08,13.61,15.21,28.4,8.26,44.24,13.67-8.09,28.35-15.12,44.24-8.26-2.11-4.99-7.85-11.16-6.74-16.85.78-3.96,7.33-4.52,9.75-1.53,7.8,16.66,19.63,30.77,29.83,45.92.29,1.57.46,3.19-.23,4.71-1.56,3.41-12.61,11.3-15.4,15.36-.55.79-.93.8-.37,1.89.68,1.34,8.83,7.5,10.68,8.87,12.71,9.38,30.28,18.04,41.84,27.91,13.14,11.21,4.89,31.83-11.53,32.31-.9,6.48-4.89,14.2-11.14,16.98-1.72.77-7.31,1.51-7.59,1.79s-1.21,5.72-1.97,7.4c-2.25,4.95-6.45,8.51-11.58,10.17-1.36.44-3.73.05-4.59.66-.75.53-1.01,4.35-1.62,5.88-2.54,6.38-6.83,10.36-13.33,12.54h-6.75c-2.41-.3-8.99-5.03-10.25-5.15-1.43-.14-4.66,4.36-6.25,5.15h-3.75c-4.6-2.95-5.13-7.34-.76-10.88-17.55-10.81-37.81-16.64-55.13-28.12l-40.11,38.99h-3.75c-3.26-2.18-5.19-5.37-2.59-8.97l36.38-36.38c.73-.64.83-1.01.37-1.89-.77-1.48-5.29-4.97-6.81-6.75-8.52-10.01-11.63-20.55-18.37-29.63-4.06-5.48-11.68-10.65-16.12-16.11-9.38,16.84-34.29,10.51-34.95-8.19-6.48-.9-14.2-4.89-16.98-11.14-.77-1.72-1.51-7.31-1.79-7.59s-5.72-1.21-7.4-1.97c-4.95-2.25-8.51-6.45-10.17-11.58-.44-1.37-.05-3.73-.66-4.59-.53-.75-4.35-1.01-5.88-1.62-6.3-2.51-10.57-6.79-12.54-13.33v-6.75c.3-2.41,5.03-8.99,5.15-10.25.14-1.43-4.36-4.66-5.15-6.25v-3.75c4.19-8.02,10.03-.77,10.87-.76,3.28.03,7.08-21.33,14.84-20.1,8.46,1.33,2.66,11.95.66,16.12-4.39,9.19-10.79,17.71-14.99,27.06.15,7.83,7.96,11.02,13.23,4.18,6.01-7.81,10.3-19.53,16.11-27.76,5.72-3.91,11.17.34,8.94,7.07-3.3,9.96-15.57,23.26-19.35,33.89-2.8,6.51,6.62,11.83,11.24,7.5l17.62-29.63c5.95-3.43,10.87.54,8.72,7.22-4.97,10.32-14.19,21.42-18.54,31.7-1.81,4.28-2,7.2,2.61,9.65,5.41,2.88,6.84.96,9.83-3.21,5.41-7.56,9.24-17.39,14.67-25.07,4.17-3.98,10.79.39,9.44,5.65l-19.15,34.19c-1.17,5.35,6.03,9.45,10.47,7.42,18.52-23.57,29.67-54.03,57.85-68.15,2.28-1.14,6.73-3.4,9.06-3.75,4.73-.71,7.45,2.72,6.45,7.24-.83,3.75-12.82,7.12-16.35,9.55l10.87,11.11c1.57-1.43,3.66-2.25,5.24-3.64,5.15-4.52,15.46-23.52,15.45-30.36-.02-17.4-24.18-43.16-32.9-57.91-.21-1.16-.38-2.4-.15-3.57.64-3.36,16.8-15.83,16.44-17.92-11.51-11.36-26.26-18.94-39.33-28.24-2.15-.01-16.99,17.33-20.66,19.83-4.15,2.82-11.07,5.05-15.93,8.07-13.01,8.06-20.71,16.9-28.87,29.63-2.58,4.02-7.01,17.65-14.05,10.76-3.76-3.68.49-9.56,2.53-13.29,1.36-2.5,6.8-9.22,5.78-11.47L0,101.25v-3.75c2.18-3.26,5.37-5.19,8.97-2.59l36.38,36.38c.64.73,1.01.83,1.89.37,1.48-.77,4.97-5.29,6.75-6.81,10.01-8.52,20.55-11.63,29.63-18.37,5.48-4.06,10.65-11.68,16.11-16.12-16.84-9.38-10.51-34.29,8.19-34.95.9-6.48,4.89-14.2,11.14-16.98,1.72-.76,7.31-1.51,7.58-1.79.23-.23.85-4.93,1.45-6.43,2.09-5.27,6.78-9.42,12.11-11.14,1.37-.44,3.73-.05,4.59-.66.75-.53,1.01-4.35,1.62-5.88,2.54-6.38,6.83-10.36,13.33-12.54h6.75ZM156.74,134.25l-11.11,10.87c1.32,1.43,2.08,3.34,3.31,4.82,4.96,5.95,24.22,16.22,32.08,15.74,17.54-1.07,41.44-24.08,56.52-32.77,1.16-.21,2.4-.38,3.57-.15,3.61.69,13.43,14.55,17.92,16.44,3.44-.6,25.15-34.56,28.12-39.96-.34-1.75-16.87-16.15-19.38-19.61-2.34-3.23-3.76-8.38-5.88-12.12-18.27-32.42-40.51-36.15-70.91-51.34-5.24-2.62-24.58-15.3-28.52-14.91s-7.5,6.33-5.6,10.01c2.82,5.47,25.5,14.71,31.17,19.47,3.91,5.2-.3,11.1-6.54,9.17l-33.18-19.32c-6.96-3.17-12.25,4.06-9.46,10.21l29.96,18.03c4.03,5.01.04,11.04-6.24,9.24-7.09-2.6-31.18-20.43-36.89-20.05-3.26.22-6.27,4.92-6.39,7.93-.13,3.38,2.66,4.56,4.99,6.15,7.63,5.2,17.03,8.93,24.62,14.38,3.98,4.17-.39,10.79-5.65,9.44l-34.17-19.14c-5.38-1.62-9.39,6.19-7.43,10.46,21.88,17.31,51.15,28.51,65.74,53.5,1.61,2.75,6.66,12.39,6.4,15.03-.41,4.25-5.52,6.42-9.08,4.15-2.07-1.32-5.96-12.87-7.96-15.67ZM227.26,249.75l11.11-10.87c-1.32-1.43-2.08-3.34-3.31-4.82-3.49-4.19-19.54-13.46-24.91-14.84-13.26-3.43-29.71,8.2-40.45,15.36-4.29,2.86-20.11,15.79-23.24,16.51-1.1.25-2.46.37-3.57.15-3.61-.69-13.43-14.55-17.92-16.44-3.44.6-25.15,34.56-28.12,39.96.34,1.75,16.87,16.15,19.38,19.61,2.34,3.23,3.76,8.38,5.88,12.12,18.22,32.34,40.52,36.2,70.9,51.35,5.27,2.63,24.62,15.27,28.53,14.89s7.43-6.77,5.27-10.42c-3.38-5.74-24.92-14-30.84-19.06-3.91-5.2.3-11.1,6.54-9.17l33.18,19.32c6.96,3.17,12.25-4.06,9.46-10.21-3.98-4.37-30.18-16.11-31.26-19.74-1.71-5.73,2.39-9.2,8.06-7.3,9.24,3.09,22.06,14.35,31.78,18.46,4.28,1.81,7.2,2,9.65-2.61,2.88-5.41.96-6.84-3.21-9.83-7.54-5.39-17.44-9.17-25.07-14.67-3.98-4.17.39-10.79,5.65-9.44l34.19,19.16c5.59.8,8.67-4.98,7.65-9.95-21.72-18.08-51.07-28.59-65.97-54.03-1.67-2.85-6.67-12.22-6.4-15.03.41-4.25,5.52-6.42,9.08-4.15,2.07,1.32,5.96,12.87,7.96,15.67Z"/>
  <path d="M286.5,0c3.26,2.18,5.19,5.37,2.59,8.97-8.95,7.37-17.58,19.93-26.57,26.67-6.03,4.52-11.95-.87-8.92-6.67L282.75,0h3.75Z"/>
</svg>